<svg width="218" height="22" viewBox="0 0 218 22" fill="none" xmlns="http://www.w3.org/2000/svg">
<g clip-path="url(#clip0)">
<path d="M9.18042 6.46585H0.5V1.13379H24.1815V6.46585H15.5011V21.1605H9.18042V6.46585Z" fill="black"/>
<path d="M48.453 1.13379V21.0765H42.3429V9.44677L31.8085 21.0765H26.4148V1.13379H32.5248V12.7636L43.0593 1.13379H48.453Z" fill="black"/>
<path d="M58.9769 21.1185H52.8669V1.17576H58.9769V8.39713H68.7951V1.0498H74.8946V20.9926H68.7951V13.6452H58.9769V21.1185Z" fill="black"/>
<path d="M79.3191 21.1185V1.17578H85.4288V6.50784H91.6965C93.2058 6.42989 94.7172 6.61458 96.1629 7.05364C97.5508 7.52062 98.7489 8.42398 99.5772 9.62784C100.405 10.8317 100.819 12.271 100.756 13.7292C100.809 15.3108 100.314 16.8624 99.3553 18.1237C98.3963 19.3851 97.0311 20.2794 95.4887 20.6567C94.2385 20.9882 92.9479 21.1436 91.6544 21.1185H79.3191ZM85.4288 16.2903H90.6431C91.4556 16.3628 92.2742 16.2626 93.0449 15.9964C93.5111 15.8051 93.909 15.4788 94.187 15.0596C94.465 14.6404 94.6102 14.1476 94.6039 13.6452C94.6111 13.1575 94.4588 12.6806 94.1699 12.2867C93.8811 11.8928 93.4713 11.6033 93.0027 11.462C92.2358 11.2473 91.4383 11.1622 90.6431 11.2101H85.4288V16.2903Z" fill="black"/>
<path d="M109.68 21.1185H103.57V1.17577H109.68V8.64906H111.365L118.739 1.13379H126.408L116.632 10.7063L126.788 21.1185H118.655L111.365 13.5613H109.68V21.1185Z" fill="black"/>
<path d="M152.608 11.168C152.608 17.1299 147.677 21.7482 139.503 21.7482C131.328 21.7482 126.366 17.1299 126.366 11.168C126.366 5.20621 131.286 0.587891 139.555 0.587891C147.825 0.587891 152.608 5.2482 152.608 11.168ZM146.203 11.168C146.203 7.89323 143.548 5.5001 139.503 5.5001C135.457 5.5001 132.803 7.89323 132.803 11.168C132.803 14.4429 135.415 16.878 139.503 16.878C143.59 16.878 146.203 14.4429 146.203 11.168V11.168Z" fill="black"/>
<path d="M185.054 11.126C185.054 16.8359 180.461 19.8168 172.75 19.9847V22.042H166.64V19.9427C158.97 19.7748 154.388 16.7939 154.388 11.084C154.388 5.37405 158.97 2.14122 166.64 1.97328V0H172.75V2.01527C180.461 2.18321 185.054 5.41603 185.054 11.126ZM166.64 6.29771C162.426 6.46565 160.572 8.39695 160.572 11.084C160.572 13.771 162.426 15.4924 166.64 15.6603V6.29771ZM178.817 11.084C178.817 8.39695 177.005 6.46565 172.75 6.29771V15.7443C177.005 15.5344 178.817 13.813 178.817 11.126V11.084Z" fill="black"/>
<path d="M217.511 11.126C217.511 16.8359 212.918 19.8168 205.206 19.9847V22.042H199.096V19.9427C191.427 19.7748 186.845 16.7939 186.845 11.084C186.845 5.37405 191.427 2.14122 199.096 1.97328V0H205.206V2.01527C212.907 2.18321 217.511 5.41603 217.511 11.126ZM199.086 6.29771C194.872 6.46565 193.018 8.39695 193.018 11.084C193.018 13.771 194.872 15.4924 199.086 15.6603V6.29771ZM211.264 11.084C211.264 8.39695 209.452 6.46565 205.196 6.29771V15.7443C209.452 15.5344 211.264 13.813 211.264 11.126V11.084Z" fill="black"/>
</g>
<defs>
<clipPath id="clip0">
<rect width="217" height="22" fill="white" transform="translate(0.5)"/>
</clipPath>
</defs>
</svg>
