<svg width="138" height="41" viewBox="0 0 138 41" fill="none" xmlns="http://www.w3.org/2000/svg">
<path d="M17.2026 5.14227H14.5577C9.70846 5.14227 7.16153 7.61153 7.16153 11.2657C7.16153 15.4139 8.92483 17.3398 12.5495 19.809L15.5371 21.8337L6.91666 34.8213H0.5L8.23903 23.2163C3.78175 20.0063 1.28362 16.8954 1.28362 11.6114C1.28362 4.99429 5.83894 0.500333 14.5086 0.500333H23.1293V34.8213H17.2026V5.14227Z" fill="#FC3F1D"/>
<path d="M65.3509 30.1788H57.1222C58.7384 26.4258 59.1793 19.6603 59.1793 15.3641V14.6233H65.3509V30.1788ZM71.1796 9.98138H54.1833V12.1049C54.1833 18.1788 53.7914 26.0308 51.7342 30.1788H49.9219V40.5H55.3098V34.8209H68.3878V40.5H73.7758V30.1788H71.1796V9.98138Z" fill="black"/>
<path d="M41.6441 19.8081H33.856V9.98096H28.0273V34.8203H33.856V24.45H41.6441V34.8203H47.4728V9.98096H41.6441V19.8081Z" fill="black"/>
<path d="M131.867 14.1302C134.12 14.1302 136.324 14.9203 137.5 15.661V10.6734C136.275 9.98197 134.12 9.48829 131.231 9.48829C123.785 9.48829 119.916 14.871 119.916 22.4263C119.916 30.7228 123.687 35.3154 131.475 35.3154C134.169 35.3154 136.08 34.8215 137.5 33.7846V28.9943C136.031 30.0314 134.267 30.6733 131.818 30.6733C127.655 30.6733 125.941 27.4142 125.941 22.2783C125.941 16.8957 128.047 14.1302 131.867 14.1302Z" fill="black"/>
<path d="M119.132 9.98173H113.254L105.026 21.4385V9.98173H99.1968V34.8213H105.026V22.6236L113.646 34.8213H120.259L110.903 21.4385L119.132 9.98173Z" fill="black"/>
<path d="M89.3517 20.1548H81.2209C81.3678 16.2042 82.7882 14.1302 85.5802 14.1302C88.47 14.1302 89.3517 16.55 89.3517 19.6609V20.1548ZM85.6782 9.48808C78.576 9.48808 75.1964 14.9696 75.1964 22.4756C75.1964 31.1178 79.4086 35.3154 86.8538 35.3154C90.5762 35.3154 93.3192 34.3276 95.0335 33.1423V28.3524C93.2212 29.5868 90.1845 30.6733 87.3435 30.6733C83.0823 30.6733 81.4658 28.6488 81.2209 24.5005H95.2784V21.3894C95.2784 12.7474 91.5069 9.48808 85.6782 9.48808Z" fill="black"/>
</svg>
