<svg width="490" height="479" viewBox="0 0 490 479" fill="none" xmlns="http://www.w3.org/2000/svg">
  <circle r="5.49781" transform="matrix(0.00203788 0.988434 1.01143 -0.0019916 128.134 353.451)" fill="#F4F3FD"/>
  <circle r="5.49781" transform="matrix(0.00203778 0.988434 1.01143 -0.00199165 128.064 320.851)" fill="#F4F3FD"/>
  <circle r="5.49781" transform="matrix(0.00203789 0.988434 1.01143 -0.00199159 161.495 353.39)" fill="#F4F3FD"/>
  <circle r="5.49781" transform="matrix(0.0020378 0.988434 1.01143 -0.00199168 161.429 320.782)" fill="#F4F3FD"/>
  <circle r="5.49781" transform="matrix(0.0020379 0.988434 1.01143 -0.00199158 194.862 353.322)" fill="#F4F3FD"/>
  <circle r="5.49781" transform="matrix(0.0020378 0.988434 1.01143 -0.00199168 194.796 320.716)" fill="#F4F3FD"/>
  <circle r="5.49781" transform="matrix(0.00203791 0.988434 1.01143 -0.00199157 228.229 353.256)" fill="#F4F3FD"/>
  <circle r="5.49781" transform="matrix(0.00203778 0.988434 1.01143 -0.0019917 228.156 320.654)" fill="#F4F3FD"/>
  <circle r="5.49781" transform="matrix(0.00203788 0.988434 1.01143 -0.0019916 261.587 353.192)" fill="#F4F3FD"/>
  <circle r="5.49781" transform="matrix(0.00203778 0.988434 1.01143 -0.0019917 261.52 320.587)" fill="#F4F3FD"/>
  <circle r="5.49781" transform="matrix(0.00203788 0.988434 1.01143 -0.0019916 294.951 353.125)" fill="#F4F3FD"/>
  <circle r="5.49781" transform="matrix(0.00203778 0.988434 1.01143 -0.0019917 294.888 320.518)" fill="#F4F3FD"/>
  <circle r="5.49781" transform="matrix(0.00203787 0.988434 1.01143 -0.00199161 328.319 353.059)" fill="#F4F3FD"/>
  <circle r="5.49781" transform="matrix(0.0020378 0.988434 1.01143 -0.00199168 328.248 320.457)" fill="#F4F3FD"/>
  <circle r="5.49781" transform="matrix(0.00203788 0.988434 1.01143 -0.0019916 361.678 352.996)" fill="#F4F3FD"/>
  <circle r="5.49781" transform="matrix(0.0020378 0.988434 1.01143 -0.00199168 361.613 320.39)" fill="#F4F3FD"/>
  <circle r="5.49781" transform="matrix(0.0020378 0.988434 1.01143 -0.00199168 128.001 288.243)" fill="#F4F3FD"/>
  <circle r="5.49781" transform="matrix(0.00203779 0.988434 1.01143 -0.00199165 127.932 255.64)" fill="#F4F3FD"/>
  <circle r="5.49781" transform="matrix(0.0020378 0.988434 1.01143 -0.00199168 161.362 288.182)" fill="#F4F3FD"/>
  <circle r="5.49781" transform="matrix(0.0020378 0.988434 1.01143 -0.00199168 161.292 255.577)" fill="#F4F3FD"/>
  <circle r="5.49781" transform="matrix(0.00203778 0.988434 1.01143 -0.0019917 194.726 288.115)" fill="#F4F3FD"/>
  <circle r="5.49781" transform="matrix(0.0020378 0.988434 1.01143 -0.00199168 194.663 255.508)" fill="#F4F3FD"/>
  <circle r="5.49781" transform="matrix(0.00203778 0.988434 1.01143 -0.0019917 228.093 288.048)" fill="#F4F3FD"/>
  <circle r="5.49781" transform="matrix(0.00203778 0.988434 1.01143 -0.0019917 228.024 255.446)" fill="#F4F3FD"/>
  <circle r="5.49781" transform="matrix(0.00203778 0.988434 1.01143 -0.0019917 261.454 287.986)" fill="#F4F3FD"/>
  <circle r="5.49781" transform="matrix(0.0020378 0.988434 1.01143 -0.00199168 261.384 255.38)" fill="#F4F3FD"/>
  <circle r="5.49781" transform="matrix(0.00203778 0.988434 1.01143 -0.0019917 294.815 287.919)" fill="#F4F3FD"/>
  <circle r="5.49781" transform="matrix(0.0020378 0.988434 1.01143 -0.00199168 294.755 255.31)" fill="#F4F3FD"/>
  <circle r="5.49781" transform="matrix(0.00203778 0.988434 1.01143 -0.0019917 328.186 287.85)" fill="#F4F3FD"/>
  <circle r="5.49781" transform="matrix(0.00203782 0.988434 1.01143 -0.00199166 328.113 255.249)" fill="#F4F3FD"/>
  <circle r="5.49781" transform="matrix(0.00203778 0.988434 1.01143 -0.0019917 361.543 287.789)" fill="#F4F3FD"/>
  <circle r="5.49781" transform="matrix(0.00203778 0.988434 1.01143 -0.0019917 361.479 255.181)" fill="#F4F3FD"/>
  <circle r="5.49781" transform="matrix(0.00203778 0.988434 1.01143 -0.0019917 127.869 223.031)" fill="#F4F3FD"/>
  <circle r="5.49781" transform="matrix(0.00203776 0.988434 1.01143 -0.00199166 127.799 190.425)" fill="#F4F3FD"/>
  <circle r="5.49781" transform="matrix(0.00203778 0.988434 1.01143 -0.0019917 161.23 222.97)" fill="#F4F3FD"/>
  <circle r="5.49781" transform="matrix(0.00203778 0.988434 1.01143 -0.0019917 161.163 190.363)" fill="#F4F3FD"/>
  <circle r="5.49781" transform="matrix(0.00203778 0.988434 1.01143 -0.0019917 194.593 222.903)" fill="#F4F3FD"/>
  <circle r="5.49781" transform="matrix(0.00203778 0.988434 1.01143 -0.0019917 194.53 190.294)" fill="#F4F3FD"/>
  <circle r="5.49781" transform="matrix(0.00203778 0.988434 1.01143 -0.0019917 227.964 222.834)" fill="#F4F3FD"/>
  <circle r="5.49781" transform="matrix(0.00203778 0.988434 1.01143 -0.0019917 227.891 190.233)" fill="#F4F3FD"/>
  <circle r="5.49781" transform="matrix(0.00203778 0.988434 1.01143 -0.0019917 261.321 222.773)" fill="#F4F3FD"/>
  <circle r="5.49781" transform="matrix(0.00203778 0.988434 1.01143 -0.0019917 261.255 190.165)" fill="#F4F3FD"/>
  <circle r="5.49781" transform="matrix(0.00203782 0.988434 1.01143 -0.00199166 294.685 222.704)" fill="#F4F3FD"/>
  <circle r="5.49781" transform="matrix(0.00203778 0.988434 1.01143 -0.0019917 294.622 190.096)" fill="#F4F3FD"/>
  <circle r="5.49781" transform="matrix(0.00203782 0.988434 1.01143 -0.00199166 328.053 222.637)" fill="#F4F3FD"/>
  <circle r="5.49781" transform="matrix(0.0020378 0.988434 1.01143 -0.00199168 327.98 190.035)" fill="#F4F3FD"/>
  <circle r="5.49781" transform="matrix(0.0020378 0.988434 1.01143 -0.00199168 361.41 222.575)" fill="#F4F3FD"/>
  <circle r="5.49781" transform="matrix(0.00203778 0.988434 1.01143 -0.0019917 361.347 189.968)" fill="#F4F3FD"/>
  <circle r="5.49781" transform="matrix(0.0020378 0.988434 1.01143 -0.00199168 127.729 157.821)" fill="#F4F3FD"/>
  <circle r="5.49781" transform="matrix(0.00203779 0.988434 1.01143 -0.00199165 127.659 125.224)" fill="#F4F3FD"/>
  <circle r="5.49781" transform="matrix(0.00203778 0.988434 1.01143 -0.0019917 161.09 157.76)" fill="#F4F3FD"/>
  <circle r="5.49781" transform="matrix(0.00203778 0.988434 1.01143 -0.0019917 161.024 125.154)" fill="#F4F3FD"/>
  <circle r="5.49781" transform="matrix(0.00203778 0.988434 1.01143 -0.0019917 194.457 157.693)" fill="#F4F3FD"/>
  <circle r="5.49781" transform="matrix(0.00203778 0.988434 1.01143 -0.0019917 194.391 125.086)" fill="#F4F3FD"/>
  <circle r="5.49781" transform="matrix(0.0020378 0.988434 1.01143 -0.00199168 227.821 157.626)" fill="#F4F3FD"/>
  <circle r="5.49781" transform="matrix(0.00203778 0.988434 1.01143 -0.0019917 227.751 125.024)" fill="#F4F3FD"/>
  <circle r="5.49781" transform="matrix(0.00203778 0.988434 1.01143 -0.0019917 261.182 157.564)" fill="#F4F3FD"/>
  <circle r="5.49781" transform="matrix(0.0020378 0.988434 1.01143 -0.00199168 261.115 124.958)" fill="#F4F3FD"/>
  <circle r="5.49781" transform="matrix(0.00203778 0.988434 1.01143 -0.0019917 294.546 157.497)" fill="#F4F3FD"/>
  <circle r="5.49781" transform="matrix(0.0020378 0.988434 1.01143 -0.00199168 294.482 124.889)" fill="#F4F3FD"/>
  <circle r="5.49781" transform="matrix(0.0020378 0.988434 1.01143 -0.00199168 327.913 157.429)" fill="#F4F3FD"/>
  <circle r="5.49781" transform="matrix(0.0020378 0.988434 1.01143 -0.00199168 327.843 124.828)" fill="#F4F3FD"/>
  <circle r="5.49781" transform="matrix(0.00203778 0.988434 1.01143 -0.0019917 361.273 157.367)" fill="#F4F3FD"/>
  <circle r="5.49781" transform="matrix(0.0020378 0.988434 1.01143 -0.00199168 361.207 124.761)" fill="#F4F3FD"/>
</svg>
