<svg width="88" height="88" viewBox="0 0 88 88" fill="none" xmlns="http://www.w3.org/2000/svg">
<path fill-rule="evenodd" clip-rule="evenodd" d="M59.7498 35.2201L43.0005 57.2201C42.3112 58.1258 41.2442 58.6611 40.1075 58.6685H40.0818C38.9562 58.6685 37.8928 58.1478 37.1962 57.2605L28.2788 45.8681C27.0322 44.2768 27.3108 41.9705 28.9058 40.7238C30.4972 39.4735 32.8072 39.7521 34.0538 41.3508L40.0415 48.9995L53.9162 30.7798C55.1408 29.1701 57.4398 28.8548 59.0568 30.0831C60.6665 31.3115 60.9782 33.6105 59.7498 35.2201ZM44.0015 7.33514C23.7505 7.33514 7.33484 23.7508 7.33484 44.0018C7.33484 64.2491 23.7505 80.6685 44.0015 80.6685C64.2525 80.6685 80.6682 64.2491 80.6682 44.0018C80.6682 23.7508 64.2525 7.33514 44.0015 7.33514Z" fill="#F2F2F2"/>
</svg>
