<svg fill="#000000" xmlns="http://www.w3.org/2000/svg" viewBox="0 0 24 24" width="48px" height="48px">
    <path d="M 2 1 C 0.8974609 1 0 1.8969727 0 3 L 0 22.5 C 0 22.702148 0.12207025 22.885742 0.30859375 22.962891 C 0.37011715 22.98877 0.4355469 23 0.5 23 C 0.6298828 23 0.75781253 22.949219 0.85351562 22.853516 L 5.7070312 18 L 20 18 C 21.102539 18 22 17.103027 22 16 L 22 10.328125 C 22 10.125977 21.87793 9.9423829 21.691406 9.8652344 C 21.504883 9.7875977 21.289062 9.831543 21.146484 9.9746094 L 18.058594 13.060547 C 17.848633 13.270996 17.583008 13.412598 17.292969 13.470703 L 14.792969 13.970703 C 14.294922 14.071289 13.791992 13.912598 13.439453 13.560547 C 13.083984 13.20459 12.930664 12.697266 13.029297 12.205078 L 13.470703 10 L 5.5 10 C 5.2236328 10 5 9.7763672 5 9.5 C 5 9.2236328 5.2236328 9 5.5 9 L 13.892578 9 C 13.909973 8.9807129 13.921021 8.9559936 13.939453 8.9375 L 15.876953 7 L 5.5 7 C 5.2236328 7 5 6.7763672 5 6.5 C 5 6.2236328 5.2236328 6 5.5 6 L 16.5 6 C 16.606445 6 16.700195 6.0410157 16.78125 6.0976562 L 20.025391 2.8535156 C 20.298828 2.5795898 20.629883 2.3642578 21.009766 2.2128906 C 21.182617 2.1440429 21.301758 1.9838867 21.320312 1.7988281 C 21.339844 1.6132812 21.254883 1.4326171 21.099609 1.3300781 C 20.770508 1.1137695 20.390625 1 20 1 L 2 1 z M 22.085938 3 C 21.581055 3 21.087891 3.2045898 20.732422 3.5605469 L 14.646484 9.6445312 C 14.576172 9.7143554 14.529297 9.8037109 14.509766 9.9003906 L 14.009766 12.402344 C 13.976563 12.566406 14.02832 12.735352 14.146484 12.853516 C 14.241211 12.948242 14.369141 13 14.5 13 C 14.532227 13 14.56543 12.996582 14.597656 12.990234 L 17.097656 12.490234 C 17.195313 12.470703 17.28418 12.42334 17.353516 12.353516 L 23.439453 6.2675781 C 23.795898 5.9111328 24 5.4174805 24 4.9140625 C 24 3.8583984 23.141602 3 22.085938 3 z M 20.707031 5 L 22 6.2929688 L 21.292969 7 L 20 5.7070312 L 20.707031 5 z M 5.5 12 L 11.5 12 C 11.776367 12 12 12.223633 12 12.5 C 12 12.776367 11.776367 13 11.5 13 L 5.5 13 C 5.2236328 13 5 12.776367 5 12.5 C 5 12.223633 5.2236328 12 5.5 12 z"/>
</svg>