<svg width="13" height="4" viewBox="0 0 13 4" fill="none" xmlns="http://www.w3.org/2000/svg">
<path fill-rule="evenodd" clip-rule="evenodd" d="M0.5 1.99999C0.5 1.26399 1.09733 0.666656 1.83333 0.666656C2.56933 0.666656 3.16667 1.26399 3.16667 1.99999C3.16667 2.73599 2.56933 3.33332 1.83333 3.33332C1.09733 3.33332 0.5 2.73599 0.5 1.99999ZM6.5 0.666656C5.764 0.666656 5.16667 1.26399 5.16667 1.99999C5.16667 2.73599 5.764 3.33332 6.5 3.33332C7.236 3.33332 7.83333 2.73599 7.83333 1.99999C7.83333 1.26399 7.236 0.666656 6.5 0.666656ZM11.1667 0.666656C10.4307 0.666656 9.83333 1.26399 9.83333 1.99999C9.83333 2.73599 10.4307 3.33332 11.1667 3.33332C11.9027 3.33332 12.5 2.73599 12.5 1.99999C12.5 1.26399 11.9027 0.666656 11.1667 0.666656Z" fill="#111111"/>
</svg>
