<svg width="158" height="16" viewBox="0 0 158 16" fill="none" xmlns="http://www.w3.org/2000/svg">
<g clip-path="url(#clip0)">
<path d="M7.10701 4.70233H0.828613V0.824463H17.9571V4.70233H11.6787V15.3893H7.10701V4.70233Z" fill="white"/>
<path d="M35.5122 0.824463V15.3283H31.0929V6.87026L23.4735 15.3283H19.5724V0.824463H23.9916V9.28248L31.6111 0.824463H35.5122Z" fill="white"/>
<path d="M43.124 15.3588H38.7047V0.855031H43.124V6.10694H50.2253V0.763428H54.6369V15.2672H50.2253V9.92373H43.124V15.3588Z" fill="white"/>
<path d="M57.837 15.3588V0.85498H62.2561V4.73284H66.7894C67.8811 4.67615 68.9742 4.81047 70.0199 5.12979C71.0237 5.46941 71.8903 6.1264 72.4894 7.00194C73.0884 7.87747 73.3876 8.92422 73.3418 9.98475C73.3802 11.135 73.0225 12.2634 72.3289 13.1808C71.6353 14.0981 70.6478 14.7485 69.5323 15.0229C68.628 15.264 67.6945 15.377 66.7589 15.3588H57.837ZM62.2561 11.8473H66.0275C66.6151 11.9001 67.2072 11.8272 67.7647 11.6336C68.1019 11.4945 68.3897 11.2571 68.5907 10.9523C68.7918 10.6474 68.8968 10.2891 68.8923 9.92368C68.8975 9.56892 68.7873 9.22209 68.5784 8.93563C68.3695 8.64917 68.0731 8.43865 67.7342 8.3359C67.1795 8.17976 66.6026 8.11783 66.0275 8.15269H62.2561V11.8473Z" fill="white"/>
<path d="M79.7962 15.3588H75.377V0.854997H79.7962V6.29011H81.0153L86.3489 0.824463H91.8959L84.825 7.7863L92.1702 15.3588H86.288L81.0153 9.86263H79.7962V15.3588Z" fill="white"/>
<path d="M110.845 8.12215C110.845 12.458 107.279 15.8168 101.367 15.8168C95.4541 15.8168 91.8654 12.458 91.8654 8.12215C91.8654 3.78627 95.4236 0.42749 101.405 0.42749C107.386 0.42749 110.845 3.8168 110.845 8.12215ZM106.213 8.12215C106.213 5.74047 104.293 4.00001 101.367 4.00001C98.4409 4.00001 96.5208 5.74047 96.5208 8.12215C96.5208 10.5038 98.4104 12.2748 101.367 12.2748C104.323 12.2748 106.213 10.5038 106.213 8.12215Z" fill="white"/>
<path d="M134.313 8.0916C134.313 12.2443 130.991 14.4122 125.414 14.5344V16.0305H120.994V14.5038C115.448 14.3817 112.133 12.2137 112.133 8.06107C112.133 3.9084 115.448 1.55725 120.994 1.43511V0H125.414V1.46565C130.991 1.58779 134.313 3.93893 134.313 8.0916ZM120.994 4.58015C117.947 4.70229 116.606 6.10687 116.606 8.06107C116.606 10.0153 117.947 11.2672 120.994 11.3893V4.58015ZM129.802 8.06107C129.802 6.10687 128.492 4.70229 125.414 4.58015V11.4504C128.492 11.2977 129.802 10.0458 129.802 8.0916V8.06107Z" fill="white"/>
<path d="M157.789 8.0916C157.789 12.2443 154.467 14.4122 148.889 14.5344V16.0305H144.47V14.5038C138.923 14.3817 135.609 12.2137 135.609 8.06107C135.609 3.9084 138.923 1.55725 144.47 1.43511V0H148.889V1.46565C154.459 1.58779 157.789 3.93893 157.789 8.0916ZM144.462 4.58015C141.415 4.70229 140.074 6.10687 140.074 8.06107C140.074 10.0153 141.415 11.2672 144.462 11.3893V4.58015ZM153.27 8.06107C153.27 6.10687 151.96 4.70229 148.882 4.58015V11.4504C151.96 11.2977 153.27 10.0458 153.27 8.0916V8.06107Z" fill="white"/>
</g>
<defs>
<clipPath id="clip0">
<rect width="156.952" height="16" fill="white" transform="translate(0.828613)"/>
</clipPath>
</defs>
</svg>
