<svg width="149" height="14" viewBox="0 0 149 14" fill="none" xmlns="http://www.w3.org/2000/svg">
<path d="M8.81373 0.30601V8.28142C8.81373 9.52459 8.16346 10.041 6.99679 10.041C5.84925 10.041 5.19898 9.52459 5.19898 8.28142V0.30601H0.780945V8.4918C0.780945 12.623 3.82193 14 6.99679 14C10.1717 14 13.2126 12.623 13.2126 8.4918V0.30601H8.81373Z" fill="white"/>
<path d="M21.422 13.694V9.73497H22.4548L25.2089 13.694H30.0668L26.6242 9.02732C27.963 8.35792 28.9193 7.11475 28.9193 5.03006C28.9193 1.37705 26.0696 0.30601 23.2199 0.30601H17.004V13.694H21.422ZM21.422 3.90164H23.1242C23.9849 3.90164 24.4821 4.41803 24.4821 5.16393C24.4821 5.90984 23.9849 6.42623 23.1242 6.42623H21.422V3.90164Z" fill="white"/>
<path d="M32.8499 0.30601V13.694H39.3718C42.1833 13.694 44.8226 12.9098 44.8226 9.86885C44.8226 8.14754 43.9428 7.05738 42.3745 6.57924C43.7516 6.04372 44.2871 5.06831 44.2871 3.69126C44.2871 1.35792 42.5658 0.30601 39.5439 0.30601H32.8499ZM40.4237 9.35246C40.4237 10.0601 39.9838 10.4426 39.1423 10.4426H37.268V8.26229H39.1423C39.9838 8.26229 40.4237 8.64481 40.4237 9.35246ZM40.0412 4.55191C40.0412 5.08743 39.6778 5.54645 38.9319 5.54645L37.268 5.52732V3.55738H38.9319C39.6778 3.55738 40.0412 3.99727 40.0412 4.55191Z" fill="white"/>
<path d="M51.0543 13.694L51.6472 11.9153H56.2756L56.8494 13.694H61.3248L56.333 0.30601H51.5898L46.5789 13.694H51.0543ZM53.598 5.87158C53.7319 5.37432 53.8658 4.8388 53.9614 4.15027C54.057 4.8388 54.1909 5.37432 54.3439 5.87158L55.2811 8.72131H52.6609L53.598 5.87158Z" fill="white"/>
<path d="M75.5858 0.30601L71.8372 6.15847L68.1077 0.30601H64.1869V13.694H68.4902V7.55464L70.6896 10.9781H73.0038L75.2033 7.57377V13.694H79.5066V0.30601H75.5858Z" fill="white"/>
<path d="M86.8552 13.694L87.4481 11.9153H92.0765L92.6503 13.694H97.1257L92.1339 0.30601H87.3907L82.3798 13.694H86.8552ZM89.3989 5.87158C89.5328 5.37432 89.6666 4.8388 89.7623 4.15027C89.8579 4.8388 89.9918 5.37432 90.1448 5.87158L91.0819 8.72131H88.4617L89.3989 5.87158Z" fill="white"/>
<path d="M97.5414 0.30601V4.1694H101.137V13.694H105.536V4.1694H109.132V0.30601H97.5414Z" fill="white"/>
<path d="M112.285 0.30601V13.694H116.703V0.30601H112.285Z" fill="white"/>
<path d="M120.106 7.13388C120.106 12.0109 123.759 14 127.546 14C128.961 14 130.281 13.7322 131.466 13.1967V9.1612C130.778 9.77322 129.496 10.1175 128.119 10.1175C126.36 10.1175 124.639 9.2377 124.639 7.13388C124.639 4.74317 126.379 3.82514 128.215 3.82514C129.401 3.82514 130.625 4.22678 131.371 4.74317V0.803279C130.185 0.26776 128.808 0 127.431 0C123.759 0 120.087 2.04645 120.106 7.13388Z" fill="white"/>
<path d="M138.397 13.694L138.99 11.9153H143.619L144.192 13.694H148.668L143.676 0.30601H138.933L133.922 13.694H138.397ZM140.941 5.87158C141.075 5.37432 141.209 4.8388 141.305 4.15027C141.4 4.8388 141.534 5.37432 141.687 5.87158L142.624 8.72131H140.004L140.941 5.87158Z" fill="white"/>
</svg>
