<svg id="_æ_π_1" data-name="–°–ª–æ–π 1" xmlns="http://www.w3.org/2000/svg" viewBox="0 0 53.07 17.41"><defs><style>.cls-1{fill:#280f5a;fill-rule:evenodd;}</style></defs><path class="cls-1" d="M21.85,6.38a3.93,3.93,0,0,0,2.54,1,2,2,0,0,0,2.28-1.81c0-1.4-1.2-1.72-2.2-1.88-.7-.12-1.15-.2-1.15-.48s.4-.34.7-.34a2.4,2.4,0,0,1,1.42.5l.82-1A3.72,3.72,0,0,0,24,1.58c-1.37,0-2.13.78-2.13,1.78s1,1.45,1.9,1.64c.74.15,1.43.22,1.43.61s-.5.45-.87.45a2.61,2.61,0,0,1-1.65-.73l-.87,1Zm-7.59,2L12,10.65v.91a.65.65,0,0,1-.46.63l-1.66.72v.5H13a.69.69,0,0,0,.69-.69v-2a.71.71,0,0,1,.12-.38,4.63,4.63,0,0,0,.48-1.88Zm-9.44,4.3a.69.69,0,0,0,.69.69H8.58v-.5l-1.72-.74a.66.66,0,0,1-.4-.61h0v-.91L4.24,8.43a4.41,4.41,0,0,0,.49,1.86.69.69,0,0,1,.09.34h0v2.09Zm.11-9.89L9.24,7.15l4.31-4.32L13.1,2.5,9.71,5.89a.66.66,0,0,1-.94,0L5.38,2.5l-.45.33Zm9.58.93a6.95,6.95,0,0,1,1,7.43,7.06,7.06,0,0,1-.54,1V10.84a6.39,6.39,0,0,0,.59-2.5,6.22,6.22,0,0,0-.46-2.73.66.66,0,0,0-.87-.34.48.48,0,0,0-.2.14h0L10.89,8.57A.66.66,0,0,0,10.7,9v2.07H7.79V9a.67.67,0,0,0-.21-.48L4.43,5.41a.66.66,0,0,0-.94,0,.56.56,0,0,0-.16.25A6.22,6.22,0,0,0,2.9,8.31a6.2,6.2,0,0,0,.59,2.48v1.37a7.12,7.12,0,0,1-.55-1A6.95,6.95,0,0,1,4,3.76l4.8,4.8a.66.66,0,0,0,.94,0l4.8-4.8ZM6.61,1.85q.28-.12.57-.21L8.77,3.23a.66.66,0,0,0,.94,0L11.3,1.64a5.54,5.54,0,0,1,.57.21L9.24,4.48,6.61,1.85Zm6.88,12.89v.06a3,3,0,0,1-.7,1.91l0,0a2.35,2.35,0,0,1-1.65.67H7.38a2.41,2.41,0,0,1-1.69-.7l0-.05A2.93,2.93,0,0,1,5,14.8v-.06H4.32a.66.66,0,0,1-.43-.16A8.22,8.22,0,0,1,1,8.27a8,8,0,0,1,.16-1.63A4.73,4.73,0,0,1,1.38.23a.68.68,0,0,1,1,0L4,1.89a7.71,7.71,0,0,1,1.16-.8h0a8.27,8.27,0,0,1,8.17,0h0a7.71,7.71,0,0,1,1.16.8L16.16.23a.66.66,0,0,1,.94,0,4.73,4.73,0,0,1,.25,6.41,8,8,0,0,1,.17,1.63,8.28,8.28,0,0,1-.77,3.48,8.15,8.15,0,0,1-2.13,2.8.64.64,0,0,1-.46.19Zm-7.17,0v.06a1.66,1.66,0,0,0,.29.94l0,0a1.05,1.05,0,0,0,.75.32H11.1a1,1,0,0,0,.72-.29l0,0a1.62,1.62,0,0,0,.31-1v-.06H6.32ZM15.46,2.81A8.66,8.66,0,0,1,16.84,5a3.34,3.34,0,0,0,.31-1.42,3.37,3.37,0,0,0-.57-1.88L15.46,2.81ZM1.64,5A8.42,8.42,0,0,1,3,2.81L1.9,1.69a3.37,3.37,0,0,0-.57,1.88A3.49,3.49,0,0,0,1.64,5ZM28.22,7.4h1.46V1.58H28.22V7.4Zm4.83,0V5.17h.87L35.2,7.4h1.69L35.44,5a1.54,1.54,0,0,0,.67-.48,1.78,1.78,0,0,0,.38-1.12,1.73,1.73,0,0,0-.8-1.52,2,2,0,0,0-1.15-.28H31.6V7.4Zm0-3.56V2.91h1.37a.8.8,0,0,1,.33,0,.45.45,0,0,1,.3.42.43.43,0,0,1-.3.41.69.69,0,0,1-.33,0ZM38.29,7.4h1.46V1.58H38.29V7.4Zm7-5.82V4.67a2,2,0,0,1-.07.52,1.07,1.07,0,0,1-1.06.86,1.05,1.05,0,0,1-1.06-.86,1.69,1.69,0,0,1-.08-.52V1.58H41.59V4.32a5.49,5.49,0,0,0,.06,1,2.57,2.57,0,0,0,5.06,0,4.66,4.66,0,0,0,.06-1V1.58Zm2.94,4.8a3.89,3.89,0,0,0,2.54,1,2,2,0,0,0,2.27-1.81c0-1.4-1.2-1.72-2.19-1.88-.71-.12-1.16-.2-1.16-.48s.4-.34.71-.34a2.45,2.45,0,0,1,1.42.5l.82-1a3.77,3.77,0,0,0-2.23-.77c-1.37,0-2.13.78-2.13,1.78s1,1.45,1.91,1.64c.73.15,1.42.22,1.42.61s-.5.45-.87.45a2.61,2.61,0,0,1-1.65-.73l-.86,1Zm-24.54,8.8h-.84v-4h.84a2.34,2.34,0,0,1,.94.14,2,2,0,0,1,0,3.74,2.53,2.53,0,0,1-.94.14Zm0-4.93H21.91v5.83h1.81A3.75,3.75,0,0,0,24.81,16a2.91,2.91,0,0,0,0-5.57,3.75,3.75,0,0,0-1.09-.13Zm8.92,5.83h1l-2.34-5.83h-1L28,16.08h1L29.45,15h2.77l.42,1.09Zm-1.8-4.67,1,2.69H29.79l1.05-2.69Zm10,1.75a3,3,0,1,0-3,2.92,2.88,2.88,0,0,0,3-2.92Zm-1,0a2,2,0,1,1-3.93,0,2,2,0,1,1,3.93,0Z"/></svg>