<svg width="156" height="53" viewBox="0 0 156 53" fill="none" xmlns="http://www.w3.org/2000/svg">
<path d="M15.7808 50.5425C18.1907 50.5425 20.1443 39.4809 20.1443 25.8357C20.1443 12.1905 18.1907 1.12891 15.7808 1.12891C13.3709 1.12891 11.4172 12.1905 11.4172 25.8357C11.4172 39.4809 13.3709 50.5425 15.7808 50.5425Z" fill="#38D430"/>
<path d="M10.2807 46.681C11.7993 46.681 13.0304 37.3478 13.0304 25.8346C13.0304 14.3215 11.7993 4.98828 10.2807 4.98828C8.76216 4.98828 7.53113 14.3215 7.53113 25.8346C7.53113 37.3478 8.76216 46.681 10.2807 46.681Z" fill="#38D430"/>
<path d="M6.81428 41.6935C7.96971 41.6935 8.90639 34.5939 8.90639 25.836C8.90639 17.0782 7.96971 9.97852 6.81428 9.97852C5.65884 9.97852 4.72217 17.0782 4.72217 25.836C4.72217 34.5939 5.65884 41.6935 6.81428 41.6935Z" fill="#38D430"/>
<path d="M1.55416 37.7737C2.41248 37.7737 3.10828 32.4291 3.10828 25.8361C3.10828 19.2431 2.41248 13.8984 1.55416 13.8984C0.695832 13.8984 0 19.2431 0 25.8361C0 32.4291 0.695832 37.7737 1.55416 37.7737Z" fill="#38D430"/>
<path d="M28.871 1.12891C27.7352 7.42439 26.719 12.9478 25.7029 19.0057C26.0615 21.2032 26.48 23.46 26.8983 25.8357C26.48 28.2113 26.1213 30.4682 25.7029 32.6657C26.719 38.6642 27.7352 44.247 28.871 50.5425C29.5285 47.0384 30.1262 43.7719 30.6642 40.5054V11.2254C30.1262 7.95891 29.5285 4.633 28.871 1.12891Z" fill="#38D430"/>
<path d="M25.703 19.0052C24.5673 12.591 23.5511 6.65183 22.2959 0C20.682 8.96809 19.3071 16.5108 17.7531 25.8352C19.3071 35.1597 20.682 42.7024 22.2959 51.6705C23.4914 44.9592 24.5673 39.0795 25.703 32.6652C26.0616 30.4678 26.4801 28.2109 26.8985 25.8352C26.4801 23.4596 26.1214 21.2027 25.703 19.0052Z" fill="#38D430"/>
<path d="M33.2352 6.17559H38.6149V9.73907H38.7943C39.2126 9.08577 39.6909 8.55123 40.1691 8.01671C40.6472 7.48219 41.245 7.06646 41.8427 6.65072C42.4405 6.29437 43.1578 5.99741 43.9947 5.75985C44.7717 5.52228 45.7281 5.46289 46.7442 5.46289C48.2984 5.46289 49.7928 5.81923 51.1078 6.53193C52.4826 7.24462 53.439 8.31368 53.977 9.73907C54.9334 8.43247 56.0691 7.36339 57.3243 6.5913C58.5796 5.81922 60.1935 5.46289 62.0465 5.46289C64.7961 5.46289 66.8883 6.11619 68.4424 7.4228C69.9368 8.72941 70.7139 10.9863 70.7139 14.0746V31.7732H65.0353V16.8066C65.0353 15.797 64.9755 14.8467 64.9157 14.0152C64.8559 13.1837 64.6767 12.4711 64.318 11.8178C64.0192 11.2239 63.5409 10.7487 62.8834 10.3924C62.2259 10.036 61.389 9.91724 60.3131 9.91724C58.4003 9.91724 56.9657 10.5112 56.1289 11.699C55.292 12.8868 54.8139 14.5498 54.8139 16.7472V31.7732H49.1353V15.2625C49.1353 13.4807 48.8364 12.1147 48.1789 11.2239C47.5213 10.333 46.3258 9.85783 44.5924 9.85783C43.8751 9.85783 43.1578 10.036 42.4405 10.333C41.783 10.6299 41.1852 11.0457 40.6472 11.6396C40.1093 12.1741 39.6909 12.8868 39.392 13.7183C39.0932 14.5497 38.9138 15.5 38.9138 16.5691V31.8326H33.2352V6.17559Z" fill="#111111"/>
<path d="M76.1532 20.4897C76.1532 21.4994 76.2728 22.4496 76.5717 23.3405C76.8705 24.2908 77.289 25.0629 77.8269 25.7756C78.3649 26.4883 79.0822 27.0228 79.9788 27.4385C80.8157 27.8542 81.8916 28.0324 83.087 28.0324C84.7608 28.0324 86.0758 27.6761 87.0919 26.9634C88.1081 26.2507 88.8852 25.1816 89.3634 23.7562H94.7431C94.4442 25.1222 93.9063 26.3694 93.189 27.4979C92.4717 28.5669 91.5751 29.5172 90.5588 30.2299C89.5427 31.002 88.3473 31.5365 87.0919 31.8929C85.8367 32.2492 84.4619 32.4868 83.087 32.4868C81.0547 32.4868 79.2615 32.1304 77.7074 31.4771C76.1532 30.8238 74.8382 29.8735 73.7623 28.6857C72.6863 27.4979 71.8495 26.0725 71.3115 24.4095C70.7735 22.7466 70.4746 20.9055 70.4746 18.9456C70.4746 17.1044 70.7735 15.3821 71.3713 13.7785C71.969 12.1155 72.8059 10.6902 73.8818 9.44294C74.9577 8.19572 76.2728 7.24546 77.8269 6.47337C79.3811 5.76067 81.1145 5.4043 83.0273 5.4043C85.0596 5.4043 86.8529 5.82006 88.5265 6.65154C90.1405 7.48302 91.4555 8.61144 92.5315 9.97744C93.6074 11.3434 94.3845 12.947 94.8626 14.7882C95.3408 16.5699 95.4604 18.4704 95.2213 20.3709H76.1532V20.4897ZM89.4232 16.7481C89.3634 15.8572 89.184 14.9663 88.8254 14.1942C88.5265 13.3628 88.0484 12.65 87.5104 12.0561C86.9725 11.4622 86.3149 10.9277 85.5379 10.5714C84.7608 10.215 83.8641 9.97744 82.9077 9.97744C81.8916 9.97744 80.9949 10.1556 80.1582 10.512C79.3213 10.8683 78.6638 11.3434 78.0661 11.9373C77.4682 12.5313 76.9901 13.244 76.6913 14.0755C76.3326 14.9069 76.1532 15.7978 76.0935 16.7481H89.4232Z" fill="#111111"/>
<path d="M94.5042 6.17676H99.8241V11.1656H99.9436C100.123 10.4529 100.422 9.79964 100.9 9.14633C101.378 8.49303 101.976 7.89909 102.634 7.30518C103.291 6.77066 104.068 6.29552 104.905 5.99856C105.742 5.64221 106.578 5.52344 107.475 5.52344C108.133 5.52344 108.611 5.52346 108.85 5.58285C109.089 5.64224 109.328 5.64221 109.627 5.7016V11.1656C109.209 11.1062 108.79 11.0468 108.432 10.9874C108.013 10.9281 107.595 10.9281 107.236 10.9281C106.28 10.9281 105.383 11.1062 104.487 11.522C103.649 11.8783 102.872 12.4722 102.275 13.1849C101.617 13.957 101.139 14.8479 100.781 15.9169C100.422 16.986 100.243 18.2926 100.243 19.718V31.9526H94.5639L94.5042 6.17676Z" fill="#111111"/>
<path d="M130.967 30.4674C130.967 34.3279 129.891 37.2381 127.68 39.1386C125.467 41.0391 122.359 41.9894 118.235 41.9894C116.92 41.9894 115.605 41.8706 114.29 41.5736C112.974 41.3361 111.78 40.8609 110.703 40.2076C109.627 39.5543 108.731 38.7229 107.954 37.7132C107.236 36.7035 106.758 35.4563 106.639 33.9121H112.317C112.496 34.6842 112.795 35.3376 113.154 35.8721C113.572 36.3472 114.05 36.763 114.589 37.0599C115.126 37.3569 115.724 37.535 116.441 37.5944C117.099 37.6538 117.816 37.7132 118.534 37.7132C120.805 37.7132 122.539 37.1787 123.555 36.0502C124.631 34.9218 125.168 33.3182 125.168 31.1802V27.2603H125.049C124.272 28.6857 123.136 29.8142 121.762 30.5862C120.387 31.3583 118.892 31.7741 117.279 31.7741C115.186 31.7741 113.452 31.4177 112.018 30.705C110.584 29.9923 109.388 29.0421 108.432 27.7948C107.475 26.5476 106.818 25.1222 106.34 23.5187C105.921 21.9151 105.682 20.1334 105.682 18.2922C105.682 16.5699 105.921 14.9069 106.459 13.3628C106.997 11.8186 107.774 10.4526 108.731 9.26473C109.747 8.07691 110.942 7.12667 112.376 6.47337C113.812 5.76067 115.485 5.4043 117.279 5.4043C118.892 5.4043 120.387 5.76065 121.762 6.41396C123.136 7.06726 124.153 8.13632 124.93 9.6211H125.049V6.117H130.728V30.4674H130.967ZM118.294 27.3791C119.549 27.3791 120.625 27.1415 121.522 26.607C122.419 26.0725 123.136 25.4192 123.674 24.5877C124.212 23.7562 124.631 22.806 124.87 21.7369C125.109 20.6679 125.229 19.5988 125.229 18.4704C125.229 17.342 125.109 16.3323 124.81 15.3227C124.571 14.313 124.153 13.3628 123.614 12.5907C123.077 11.8186 122.359 11.1653 121.463 10.6901C120.566 10.215 119.549 9.97744 118.294 9.97744C117.039 9.97744 115.963 10.215 115.126 10.7495C114.29 11.284 113.572 11.9373 113.035 12.8282C112.496 13.6597 112.138 14.61 111.898 15.679C111.66 16.7481 111.54 17.8171 111.54 18.8861C111.54 19.9552 111.66 20.9648 111.959 21.9745C112.197 22.9841 112.616 23.875 113.154 24.7065C113.692 25.4786 114.409 26.1319 115.246 26.6664C116.083 27.2009 117.099 27.3791 118.294 27.3791Z" fill="#111111"/>
<path d="M136.167 20.4897C136.167 21.4994 136.287 22.4496 136.586 23.3405C136.885 24.2908 137.302 25.0629 137.841 25.7756C138.378 26.4883 139.096 27.0228 139.992 27.4385C140.83 27.8542 141.906 28.0324 143.1 28.0324C144.774 28.0324 146.09 27.6761 147.106 26.9634C148.122 26.2507 148.899 25.1816 149.378 23.7562H154.757C154.458 25.1222 153.92 26.3694 153.203 27.4979C152.486 28.5669 151.589 29.5172 150.572 30.2299C149.557 31.002 148.361 31.5365 147.106 31.8929C145.85 32.2492 144.475 32.4868 143.1 32.4868C141.068 32.4868 139.275 32.1304 137.721 31.4771C136.167 30.8238 134.851 29.8735 133.776 28.6857C132.7 27.4979 131.863 26.0725 131.325 24.4095C130.787 22.7466 130.489 20.9055 130.489 18.9456C130.489 17.1044 130.787 15.3821 131.385 13.7785C131.983 12.1155 132.819 10.6902 133.895 9.44294C134.971 8.19572 136.287 7.24546 137.841 6.47337C139.395 5.76067 141.129 5.4043 143.041 5.4043C145.073 5.4043 146.866 5.82006 148.54 6.65154C150.155 7.48302 151.469 8.61144 152.545 9.97744C153.621 11.3434 154.398 12.947 154.876 14.7882C155.355 16.5699 155.474 18.4704 155.235 20.3709H136.167V20.4897ZM149.437 16.7481C149.377 15.8572 149.197 14.9663 148.839 14.1942C148.54 13.3628 148.062 12.65 147.524 12.0561C146.986 11.4622 146.329 10.9277 145.551 10.5714C144.774 10.215 143.877 9.97744 142.921 9.97744C141.906 9.97744 141.009 10.1556 140.172 10.512C139.335 10.8683 138.677 11.3434 138.08 11.9373C137.482 12.5313 137.004 13.244 136.705 14.0755C136.346 14.9069 136.167 15.7978 136.108 16.7481H149.437Z" fill="#111111"/>
<path d="M34.0123 42.8793H33.2352V37.1777H34.0123V42.8793Z" fill="#111111"/>
<path d="M39.4519 41.7509V37.1777H40.2289V42.8793H39.2128L36.1643 38.1874V42.8793H35.3872V37.1777H36.4631L39.4519 41.7509Z" fill="#111111"/>
<path d="M45.728 41.7509V37.1777H46.5052V42.8793H45.489L42.4404 38.1874V42.8793H41.6633V37.1777H42.7393L45.728 41.7509Z" fill="#111111"/>
<path d="M53.7378 40.029C53.7378 40.4447 53.678 40.8605 53.4987 41.2168C53.3193 41.5732 53.1401 41.9295 52.8412 42.1671C52.5423 42.4046 52.2435 42.6422 51.8849 42.761C51.5262 42.8798 51.1078 42.9985 50.6893 42.9985C50.2709 42.9985 49.8525 42.9391 49.4938 42.761C49.1352 42.6422 48.7765 42.4046 48.5374 42.1671C48.2984 41.9295 48.0592 41.5732 47.8799 41.2168C47.7006 40.8605 47.6407 40.4447 47.6407 40.029C47.6407 39.5538 47.7006 39.1975 47.8799 38.7817C48.0592 38.4254 48.2386 38.0691 48.5374 37.8315C48.8363 37.5939 49.1352 37.3564 49.4938 37.2376C49.8525 37.1188 50.2709 37 50.6893 37C51.1078 37 51.5262 37.0594 51.8849 37.2376C52.2435 37.3564 52.6021 37.5939 52.8412 37.8315C53.1401 38.0691 53.3193 38.4254 53.4987 38.7817C53.678 39.1975 53.7378 39.6132 53.7378 40.029ZM52.901 40.029C52.901 39.732 52.8412 39.4351 52.7216 39.1381C52.6021 38.8412 52.4825 38.6036 52.3032 38.4254C52.1239 38.2472 51.8848 38.0691 51.6457 37.9503C51.4066 37.8315 51.048 37.7721 50.7491 37.7721C50.3905 37.7721 50.0916 37.8315 49.8524 37.9503C49.6134 38.0691 49.3743 38.2472 49.1949 38.4254C49.0157 38.663 48.8363 38.9005 48.7765 39.1381C48.657 39.4351 48.5972 39.732 48.5972 40.029C48.5972 40.3259 48.657 40.6229 48.7765 40.9199C48.8961 41.2168 49.0157 41.4543 49.1949 41.6325C49.3743 41.8107 49.6134 41.9889 49.8524 42.1077C50.0916 42.2265 50.3905 42.2858 50.7491 42.2858C51.1078 42.2858 51.4066 42.2265 51.6457 42.1077C51.9445 41.9889 52.1239 41.8107 52.363 41.6325C52.6021 41.4543 52.7216 41.1574 52.7814 40.9199C52.8412 40.6823 52.901 40.3853 52.901 40.029Z" fill="#111111"/>
<path d="M54.8739 37.1777H56.6073C56.9062 37.1777 57.2051 37.2371 57.4442 37.2965C57.6833 37.3559 57.9224 37.4747 58.1017 37.5935C58.281 37.7123 58.4006 37.8904 58.5202 38.0686C58.6397 38.2468 58.6397 38.4844 58.6397 38.7813C58.6397 39.0783 58.58 39.3158 58.4604 39.494C58.3408 39.6722 58.2213 39.8504 58.042 39.9691C57.8627 40.0879 57.6235 40.2067 57.3844 40.2661C57.1454 40.3255 56.8464 40.3849 56.5476 40.3849H55.651V42.8793H54.8739V37.1777ZM55.651 39.7316H56.4878C56.6671 39.7316 56.8464 39.7316 57.0258 39.6722C57.2051 39.6128 57.3247 39.6128 57.4442 39.494C57.5637 39.3752 57.6833 39.3158 57.7431 39.1971C57.8029 39.0783 57.8627 38.9595 57.8627 38.7813C57.8627 38.6031 57.8029 38.4843 57.7431 38.3656C57.6833 38.2468 57.5637 38.128 57.4442 38.0686C57.3247 38.0092 57.2051 37.9498 57.0258 37.8904C56.8464 37.8904 56.6671 37.8311 56.4878 37.8311H55.5912L55.651 39.7316Z" fill="#111111"/>
<path d="M65.5132 40.029C65.5132 40.4447 65.4535 40.8605 65.2741 41.2168C65.0949 41.5732 64.9155 41.9295 64.6167 42.1671C64.3178 42.4046 64.0189 42.6422 63.6603 42.761C63.3016 42.8798 62.8832 42.9985 62.4647 42.9985C62.0463 42.9985 61.6279 42.9391 61.2692 42.761C60.9106 42.6422 60.5519 42.4046 60.3129 42.1671C60.0738 41.9295 59.8347 41.5732 59.6554 41.2168C59.476 40.8605 59.4163 40.4447 59.4163 40.029C59.4163 39.5538 59.476 39.1975 59.6554 38.7817C59.8347 38.4254 60.014 38.0691 60.3129 37.8315C60.6117 37.5939 60.9106 37.3564 61.2692 37.2376C61.6279 37.1188 62.0463 37 62.4647 37C62.8832 37 63.3016 37.0594 63.6603 37.2376C64.0189 37.3564 64.3776 37.5939 64.6167 37.8315C64.9155 38.0691 65.0949 38.4254 65.2741 38.7817C65.3937 39.1975 65.5132 39.6132 65.5132 40.029ZM64.6167 40.029C64.6167 39.732 64.5569 39.4351 64.4373 39.1381C64.3178 38.8412 64.1982 38.6036 64.0189 38.4254C63.8396 38.2472 63.6005 38.0691 63.3613 37.9503C63.1222 37.8315 62.7636 37.7721 62.4647 37.7721C62.1061 37.7721 61.8072 37.8315 61.5682 37.9503C61.329 38.0691 61.09 38.2472 60.9106 38.4254C60.7313 38.663 60.5519 38.9005 60.4922 39.1381C60.3727 39.4351 60.3129 39.732 60.3129 40.029C60.3129 40.3259 60.3727 40.6229 60.4922 40.9199C60.6117 41.2168 60.7313 41.4543 60.9106 41.6325C61.09 41.8107 61.329 41.9889 61.5682 42.1077C61.8072 42.2265 62.1061 42.2858 62.4647 42.2858C62.8234 42.2858 63.1222 42.2265 63.3613 42.1077C63.6603 41.9889 63.8396 41.8107 64.0786 41.6325C64.3178 41.4543 64.4373 41.1574 64.4971 40.9199C64.5569 40.6823 64.6167 40.3853 64.6167 40.029Z" fill="#111111"/>
<path d="M67.3667 42.2271H69.937V42.9398H66.5896V37.2383H67.3667V42.2271Z" fill="#111111"/>
<path d="M71.5508 42.8793H70.7738V37.1777H71.5508V42.8793Z" fill="#111111"/>
<path d="M75.7951 38.2464C75.6755 38.0682 75.5559 37.9494 75.3168 37.8901C75.1375 37.7713 74.8984 37.7119 74.6593 37.7119C74.5398 37.7119 74.4202 37.7119 74.2409 37.7713C74.1213 37.8307 74.0019 37.8901 73.8823 37.9495C73.7627 38.0089 73.7029 38.1276 73.6432 38.2464C73.5834 38.3652 73.5236 38.484 73.5236 38.6621C73.5236 38.8403 73.5834 38.9591 73.6432 39.0779C73.7029 39.1967 73.7627 39.2561 73.8823 39.3155C74.0019 39.3748 74.1213 39.4342 74.2409 39.4936C74.3605 39.553 74.5398 39.6124 74.7191 39.6718C74.8984 39.7312 75.1375 39.7906 75.3168 39.85C75.4961 39.9093 75.6755 40.0281 75.8548 40.1469C76.0341 40.2657 76.1537 40.4439 76.2732 40.6221C76.3928 40.8002 76.4526 41.0378 76.4526 41.3347C76.4526 41.6317 76.3928 41.8693 76.2732 42.1069C76.1537 42.3444 76.0341 42.5226 75.8548 42.6414C75.6755 42.7601 75.4364 42.8789 75.1973 42.9383C74.9582 42.9977 74.7191 43.0571 74.48 43.0571C74.1213 43.0571 73.7627 42.9977 73.404 42.8195C73.0454 42.7007 72.8063 42.4632 72.5673 42.2256L73.165 41.6911C73.2845 41.8693 73.4638 42.0475 73.7029 42.1662C73.9421 42.285 74.1811 42.3444 74.4202 42.3444C74.5398 42.3444 74.7191 42.3444 74.8386 42.285C74.9582 42.2256 75.0778 42.1662 75.1973 42.1069C75.3169 42.0475 75.3767 41.9287 75.4961 41.8099C75.5559 41.6911 75.6157 41.5129 75.6157 41.3942C75.6157 41.2754 75.5559 41.0972 75.4961 40.9784C75.4364 40.8596 75.3169 40.7408 75.1973 40.6815C75.0778 40.6221 74.8984 40.5033 74.7788 40.5033C74.6594 40.5033 74.4202 40.3845 74.2409 40.3251C74.0615 40.2657 73.8823 40.2063 73.7029 40.1469C73.5236 40.0875 73.3442 39.9687 73.2247 39.85C73.1052 39.7312 72.9856 39.553 72.8661 39.3748C72.8063 39.1967 72.7465 38.9591 72.7465 38.7215C72.7465 38.4246 72.8063 38.187 72.9259 38.0088C73.0454 37.8307 73.165 37.6525 73.404 37.4743C73.6432 37.2961 73.8225 37.2367 74.0615 37.1773C74.3007 37.118 74.5398 37.0586 74.7788 37.0586C75.1375 37.0586 75.4364 37.118 75.7353 37.2368C76.0341 37.3555 76.2732 37.5337 76.4526 37.7119L75.7951 38.2464Z" fill="#111111"/>
<path d="M37.0011 52.0864H33.2352V51.3737L35.5067 49.1168C35.686 48.9386 35.8055 48.7604 35.9251 48.5823C36.0446 48.4041 36.1044 48.1665 36.1044 47.929C36.1044 47.7508 36.1044 47.632 36.0446 47.5132C35.9849 47.3944 35.9251 47.2757 35.8055 47.2163C35.686 47.1569 35.6263 47.0381 35.5067 47.0381C35.3871 46.9787 35.2676 46.9787 35.0882 46.9787C34.7894 46.9787 34.5503 47.0975 34.3709 47.2756C34.1917 47.4538 34.0721 47.6914 34.0123 47.9883L33.2352 47.8695C33.295 47.632 33.3548 47.4538 33.4146 47.2756C33.5341 47.0975 33.6537 46.9193 33.833 46.8005C34.0123 46.6817 34.1917 46.5629 34.3709 46.5036C34.61 46.4442 34.7894 46.3848 35.0285 46.3848C35.2676 46.3848 35.5067 46.4442 35.6859 46.5036C35.9251 46.5629 36.1044 46.6817 36.2838 46.8005C36.463 46.9193 36.5826 47.0975 36.7022 47.335C36.8217 47.5132 36.8815 47.7508 36.8815 48.0478C36.8815 48.2259 36.8815 48.4041 36.8217 48.5823C36.7619 48.7604 36.7022 48.8792 36.6424 48.998C36.5826 49.1168 36.4631 49.295 36.3436 49.4137C36.224 49.5325 36.1044 49.6513 35.9849 49.7701L34.1319 51.5518H36.9413L37.0011 52.0864Z" fill="#111111"/>
<path d="M39.9894 46.2656C40.348 46.2656 40.6469 46.325 40.886 46.5032C41.1251 46.6813 41.3642 46.8595 41.4838 47.1565C41.6631 47.4535 41.7826 47.7504 41.8424 48.1067C41.9022 48.4631 41.9619 48.8788 41.9619 49.2946C41.9619 49.7103 41.9022 50.126 41.8424 50.4824C41.7826 50.8387 41.6631 51.1357 41.4838 51.4326C41.3044 51.7296 41.1251 51.9078 40.886 52.086C40.6469 52.2641 40.348 52.3235 39.9894 52.3235C39.6308 52.3235 39.3319 52.2641 39.0927 52.086C38.8537 51.9078 38.6146 51.7296 38.495 51.4326C38.3157 51.1357 38.1962 50.8387 38.1364 50.4824C38.0766 50.126 38.0168 49.7103 38.0168 49.2946C38.0168 48.8788 38.0766 48.4631 38.1364 48.1067C38.1962 47.7504 38.3157 47.3941 38.495 47.1565C38.6744 46.8595 38.8537 46.6813 39.0927 46.5032C39.3319 46.325 39.6308 46.2656 39.9894 46.2656ZM39.9894 46.9189C39.7503 46.9189 39.571 46.9783 39.3917 47.1565C39.2123 47.3347 39.0927 47.5128 39.0331 47.7504C38.9733 47.988 38.9134 48.2255 38.8537 48.5225C38.7939 48.8194 38.7939 49.057 38.7939 49.2946C38.7939 49.5321 38.7939 49.7697 38.8537 50.0666C38.9134 50.3636 38.9733 50.6012 39.0331 50.8387C39.0927 51.0763 39.2123 51.2545 39.3917 51.4326C39.571 51.6108 39.7503 51.6702 39.9894 51.6702C40.2285 51.6702 40.4078 51.6108 40.5871 51.4326C40.7067 51.2545 40.8263 51.0763 40.9457 50.8387C41.0055 50.6012 41.0654 50.3636 41.1252 50.0666C41.1849 49.7697 41.1849 49.5321 41.1849 49.2946C41.1849 49.057 41.1849 48.8194 41.1252 48.5225C41.0654 48.2255 41.0055 47.988 40.9457 47.7504C40.886 47.5128 40.7665 47.3347 40.5871 47.1565C40.4078 46.9783 40.2285 46.9189 39.9894 46.9189Z" fill="#111111"/>
<path d="M46.625 52.0864H42.8593V51.3737L45.1306 49.1168C45.31 48.9386 45.4295 48.7604 45.5491 48.5823C45.6687 48.4041 45.7283 48.1665 45.7283 47.929C45.7283 47.7508 45.7284 47.632 45.6687 47.5132C45.6089 47.3944 45.5491 47.2757 45.4295 47.2163C45.31 47.1569 45.2502 47.0381 45.1306 47.0381C45.0111 46.9787 44.8916 46.9787 44.7122 46.9787C44.4134 46.9787 44.1743 47.0975 43.9949 47.2756C43.8156 47.4538 43.696 47.6914 43.6363 47.9883L42.8593 47.8695C42.919 47.632 42.9787 47.4538 43.0385 47.2756C43.1581 47.0975 43.2776 46.9193 43.457 46.8005C43.6363 46.6817 43.8156 46.5629 43.9949 46.5036C44.2341 46.4442 44.4133 46.3848 44.6524 46.3848C44.8916 46.3848 45.1307 46.4442 45.31 46.5036C45.5491 46.5629 45.7284 46.6817 45.9078 46.8005C46.087 46.9193 46.2066 47.0975 46.3262 47.335C46.4456 47.5132 46.5055 47.7508 46.5055 48.0478C46.5055 48.2259 46.5054 48.4041 46.4457 48.5823C46.386 48.7604 46.3262 48.8792 46.2664 48.998C46.2066 49.1168 46.087 49.295 45.9675 49.4137C45.8479 49.5325 45.7284 49.6513 45.6089 49.7701L43.7558 51.5518H46.5652L46.625 52.0864Z" fill="#111111"/>
<path d="M50.331 52.0864H49.5539V47.335L48.478 48.2259L47.9998 47.6914L49.6137 46.3848H50.331V52.0864Z" fill="#111111"/>
</svg>
