<svg width="155" height="53" viewBox="0 0 155 53" fill="none" xmlns="http://www.w3.org/2000/svg">
<path d="M15.6798 50.5425C18.0742 50.5425 20.0153 39.4809 20.0153 25.8357C20.0153 12.1905 18.0742 1.12891 15.6798 1.12891C13.2853 1.12891 11.3442 12.1905 11.3442 25.8357C11.3442 39.4809 13.2853 50.5425 15.6798 50.5425Z" fill="#38D430"/>
<path d="M10.2149 46.681C11.7237 46.681 12.9469 37.3478 12.9469 25.8346C12.9469 14.3215 11.7237 4.98828 10.2149 4.98828C8.70605 4.98828 7.48291 14.3215 7.48291 25.8346C7.48291 37.3478 8.70605 46.681 10.2149 46.681Z" fill="#38D430"/>
<path d="M6.77059 41.6935C7.91862 41.6935 8.84929 34.5939 8.84929 25.836C8.84929 17.0782 7.91862 9.97852 6.77059 9.97852C5.62256 9.97852 4.69189 17.0782 4.69189 25.836C4.69189 34.5939 5.62256 41.6935 6.77059 41.6935Z" fill="#38D430"/>
<path d="M1.5442 37.7737C2.39702 37.7737 3.08836 32.4291 3.08836 25.8361C3.08836 19.2431 2.39702 13.8984 1.5442 13.8984C0.691372 13.8984 0 19.2431 0 25.8361C0 32.4291 0.691372 37.7737 1.5442 37.7737Z" fill="#38D430"/>
<path d="M28.6859 1.12891C27.5574 7.42439 26.5477 12.9478 25.5381 19.0057C25.8944 21.2032 26.3102 23.46 26.7259 25.8357C26.3102 28.2113 25.9538 30.4682 25.5381 32.6657C26.5477 38.6642 27.5574 44.247 28.6859 50.5425C29.3392 47.0384 29.9331 43.7719 30.4676 40.5054V11.2254C29.9331 7.95891 29.3392 4.633 28.6859 1.12891Z" fill="#38D430"/>
<path d="M25.5382 19.0052C24.4098 12.591 23.4001 6.65183 22.1529 0C20.5494 8.96809 19.1833 16.5108 17.6392 25.8352C19.1833 35.1597 20.5494 42.7024 22.1529 51.6705C23.3408 44.9592 24.4098 39.0795 25.5382 32.6652C25.8945 30.4678 26.3103 28.2109 26.726 25.8352C26.3103 23.4596 25.9539 21.2027 25.5382 19.0052Z" fill="#38D430"/>
<path d="M33.022 6.17559H38.3672V9.73907H38.5454C38.9611 9.08577 39.4363 8.55123 39.9114 8.01671C40.3865 7.48219 40.9804 7.06646 41.5743 6.65072C42.1683 6.29437 42.881 5.99741 43.7125 5.75985C44.4845 5.52228 45.4348 5.46289 46.4444 5.46289C47.9886 5.46289 49.4734 5.81923 50.78 6.53193C52.146 7.24462 53.0963 8.31368 53.6308 9.73907C54.5811 8.43247 55.7095 7.36339 56.9567 6.5913C58.2039 5.81922 59.8075 5.46289 61.6486 5.46289C64.3806 5.46289 66.4593 6.11619 68.0035 7.4228C69.4883 8.72941 70.2604 10.9863 70.2604 14.0746V31.7732H64.6182V16.8066C64.6182 15.797 64.5588 14.8467 64.4994 14.0152C64.44 13.1837 64.2619 12.4711 63.9055 11.8178C63.6086 11.2239 63.1334 10.7487 62.4801 10.3924C61.8268 10.036 60.9953 9.91724 59.9263 9.91724C58.0258 9.91724 56.6004 10.5112 55.7689 11.699C54.9374 12.8868 54.4623 14.5498 54.4623 16.7472V31.7732H48.8201V15.2625C48.8201 13.4807 48.5232 12.1147 47.8699 11.2239C47.2165 10.333 46.0287 9.85783 44.3064 9.85783C43.5937 9.85783 42.881 10.036 42.1683 10.333C41.515 10.6299 40.921 11.0457 40.3865 11.6396C39.852 12.1741 39.4363 12.8868 39.1393 13.7183C38.8424 14.5497 38.6642 15.5 38.6642 16.5691V31.8326H33.022V6.17559Z" fill="#111111"/>
<path d="M75.6651 20.4897C75.6651 21.4994 75.7839 22.4496 76.0809 23.3405C76.3778 24.2908 76.7936 25.0629 77.3281 25.7756C77.8626 26.4883 78.5753 27.0228 79.4662 27.4385C80.2977 27.8542 81.3667 28.0324 82.5545 28.0324C84.2175 28.0324 85.5241 27.6761 86.5337 26.9634C87.5434 26.2507 88.3155 25.1816 88.7906 23.7562H94.1358C93.8389 25.1222 93.3044 26.3694 92.5917 27.4979C91.879 28.5669 90.9881 29.5172 89.9784 30.2299C88.9688 31.002 87.781 31.5365 86.5337 31.8929C85.2865 32.2492 83.9205 32.4868 82.5545 32.4868C80.5352 32.4868 78.7535 32.1304 77.2093 31.4771C75.6651 30.8238 74.3585 29.8735 73.2895 28.6857C72.2204 27.4979 71.389 26.0725 70.8544 24.4095C70.3199 22.7466 70.0229 20.9055 70.0229 18.9456C70.0229 17.1044 70.3199 15.3821 70.9138 13.7785C71.5077 12.1155 72.3392 10.6902 73.4083 9.44294C74.4773 8.19572 75.7839 7.24546 77.3281 6.47337C78.8723 5.76067 80.5946 5.4043 82.4951 5.4043C84.5144 5.4043 86.2962 5.82006 87.9591 6.65154C89.5627 7.48302 90.8693 8.61144 91.9384 9.97744C93.0074 11.3434 93.7795 12.947 94.2546 14.7882C94.7297 16.5699 94.8485 18.4704 94.611 20.3709H75.6651V20.4897ZM88.85 16.7481C88.7906 15.8572 88.6124 14.9663 88.2561 14.1942C87.9591 13.3628 87.484 12.65 86.9495 12.0561C86.415 11.4622 85.7617 10.9277 84.9896 10.5714C84.2175 10.215 83.3266 9.97744 82.3763 9.97744C81.3667 9.97744 80.4758 10.1556 79.6444 10.512C78.8129 10.8683 78.1596 11.3434 77.5657 11.9373C76.9717 12.5313 76.4966 13.244 76.1997 14.0755C75.8433 14.9069 75.6651 15.7978 75.6058 16.7481H88.85Z" fill="#111111"/>
<path d="M93.8984 6.17676H99.1842V11.1656H99.303C99.4812 10.4529 99.7782 9.79964 100.253 9.14633C100.728 8.49303 101.322 7.89909 101.976 7.30518C102.629 6.77066 103.401 6.29552 104.233 5.99856C105.064 5.64221 105.895 5.52344 106.786 5.52344C107.44 5.52344 107.915 5.52346 108.152 5.58285C108.39 5.64224 108.627 5.64221 108.924 5.7016V11.1656C108.509 11.1062 108.093 11.0468 107.737 10.9874C107.321 10.9281 106.905 10.9281 106.549 10.9281C105.599 10.9281 104.708 11.1062 103.817 11.522C102.985 11.8783 102.213 12.4722 101.619 13.1849C100.966 13.957 100.491 14.8479 100.135 15.9169C99.7782 16.986 99.6 18.2926 99.6 19.718V31.9526H93.9578L93.8984 6.17676Z" fill="#111111"/>
<path d="M130.127 30.4674C130.127 34.3279 129.058 37.2381 126.861 39.1386C124.663 41.0391 121.575 41.9894 117.477 41.9894C116.17 41.9894 114.864 41.8706 113.557 41.5736C112.25 41.3361 111.063 40.8609 109.993 40.2076C108.924 39.5543 108.034 38.7229 107.262 37.7132C106.549 36.7035 106.074 35.4563 105.955 33.9121H111.597C111.775 34.6842 112.072 35.3376 112.429 35.8721C112.844 36.3472 113.319 36.763 113.854 37.0599C114.388 37.3569 114.982 37.535 115.695 37.5944C116.348 37.6538 117.061 37.7132 117.774 37.7132C120.031 37.7132 121.753 37.1787 122.763 36.0502C123.832 34.9218 124.366 33.3182 124.366 31.1802V27.2603H124.247C123.475 28.6857 122.347 29.8142 120.981 30.5862C119.615 31.3583 118.13 31.7741 116.527 31.7741C114.448 31.7741 112.725 31.4177 111.3 30.705C109.875 29.9923 108.687 29.0421 107.737 27.7948C106.786 26.5476 106.133 25.1222 105.658 23.5187C105.242 21.9151 105.005 20.1334 105.005 18.2922C105.005 16.5699 105.242 14.9069 105.777 13.3628C106.311 11.8186 107.083 10.4526 108.034 9.26473C109.043 8.07691 110.231 7.12667 111.656 6.47337C113.082 5.76067 114.745 5.4043 116.527 5.4043C118.13 5.4043 119.615 5.76065 120.981 6.41396C122.347 7.06726 123.357 8.13632 124.129 9.6211H124.247V6.117H129.89V30.4674H130.127ZM117.536 27.3791C118.783 27.3791 119.852 27.1415 120.743 26.607C121.634 26.0725 122.347 25.4192 122.881 24.5877C123.416 23.7562 123.832 22.806 124.069 21.7369C124.307 20.6679 124.426 19.5988 124.426 18.4704C124.426 17.342 124.307 16.3323 124.01 15.3227C123.772 14.313 123.357 13.3628 122.822 12.5907C122.288 11.8186 121.575 11.1653 120.684 10.6901C119.793 10.215 118.783 9.97744 117.536 9.97744C116.289 9.97744 115.22 10.215 114.388 10.7495C113.557 11.284 112.844 11.9373 112.31 12.8282C111.775 13.6597 111.419 14.61 111.181 15.679C110.944 16.7481 110.825 17.8171 110.825 18.8861C110.825 19.9552 110.944 20.9648 111.241 21.9745C111.478 22.9841 111.894 23.875 112.429 24.7065C112.963 25.4786 113.676 26.1319 114.507 26.6664C115.339 27.2009 116.348 27.3791 117.536 27.3791Z" fill="#111111"/>
<path d="M135.294 20.4897C135.294 21.4994 135.413 22.4496 135.71 23.3405C136.007 24.2908 136.422 25.0629 136.957 25.7756C137.491 26.4883 138.204 27.0228 139.095 27.4385C139.927 27.8542 140.996 28.0324 142.183 28.0324C143.846 28.0324 145.153 27.6761 146.163 26.9634C147.172 26.2507 147.944 25.1816 148.42 23.7562H153.765C153.468 25.1222 152.933 26.3694 152.221 27.4979C151.508 28.5669 150.617 29.5172 149.607 30.2299C148.598 31.002 147.41 31.5365 146.163 31.8929C144.915 32.2492 143.549 32.4868 142.183 32.4868C140.164 32.4868 138.382 32.1304 136.838 31.4771C135.294 30.8238 133.987 29.8735 132.918 28.6857C131.849 27.4979 131.018 26.0725 130.483 24.4095C129.949 22.7466 129.652 20.9055 129.652 18.9456C129.652 17.1044 129.949 15.3821 130.543 13.7785C131.137 12.1155 131.968 10.6902 133.037 9.44294C134.106 8.19572 135.413 7.24546 136.957 6.47337C138.501 5.76067 140.224 5.4043 142.124 5.4043C144.143 5.4043 145.925 5.82006 147.588 6.65154C149.192 7.48302 150.498 8.61144 151.567 9.97744C152.636 11.3434 153.408 12.947 153.883 14.7882C154.359 16.5699 154.477 18.4704 154.24 20.3709H135.294V20.4897ZM148.479 16.7481C148.419 15.8572 148.241 14.9663 147.885 14.1942C147.588 13.3628 147.113 12.65 146.578 12.0561C146.044 11.4622 145.391 10.9277 144.618 10.5714C143.846 10.215 142.955 9.97744 142.005 9.97744C140.996 9.97744 140.105 10.1556 139.273 10.512C138.442 10.8683 137.788 11.3434 137.195 11.9373C136.601 12.5313 136.126 13.244 135.829 14.0755C135.472 14.9069 135.294 15.7978 135.235 16.7481H148.479Z" fill="#111111"/>
<path d="M33.7941 42.8793H33.022V37.1777H33.7941V42.8793Z" fill="#111111"/>
<path d="M39.1988 41.7509V37.1777H39.9709V42.8793H38.9613L35.9323 38.1874V42.8793H35.1602V37.1777H36.2292L39.1988 41.7509Z" fill="#111111"/>
<path d="M45.4346 41.7509V37.1777H46.2068V42.8793H45.1971L42.1681 38.1874V42.8793H41.396V37.1777H42.4651L45.4346 41.7509Z" fill="#111111"/>
<path d="M53.3934 40.029C53.3934 40.4447 53.334 40.8605 53.1558 41.2168C52.9776 41.5732 52.7995 41.9295 52.5025 42.1671C52.2055 42.4046 51.9086 42.6422 51.5523 42.761C51.1959 42.8798 50.7802 42.9985 50.3644 42.9985C49.9487 42.9985 49.5331 42.9391 49.1767 42.761C48.8204 42.6422 48.4639 42.4046 48.2263 42.1671C47.9888 41.9295 47.7513 41.5732 47.5731 41.2168C47.395 40.8605 47.3354 40.4447 47.3354 40.029C47.3354 39.5538 47.395 39.1975 47.5731 38.7817C47.7513 38.4254 47.9294 38.0691 48.2263 37.8315C48.5233 37.5939 48.8204 37.3564 49.1767 37.2376C49.5331 37.1188 49.9487 37 50.3644 37C50.7802 37 51.1959 37.0594 51.5523 37.2376C51.9086 37.3564 52.2649 37.5939 52.5025 37.8315C52.7995 38.0691 52.9776 38.4254 53.1558 38.7817C53.334 39.1975 53.3934 39.6132 53.3934 40.029ZM52.562 40.029C52.562 39.732 52.5026 39.4351 52.3838 39.1381C52.265 38.8412 52.1461 38.6036 51.968 38.4254C51.7898 38.2472 51.5523 38.0691 51.3148 37.9503C51.0772 37.8315 50.7209 37.7721 50.4239 37.7721C50.0676 37.7721 49.7706 37.8315 49.533 37.9503C49.2955 38.0691 49.0579 38.2472 48.8797 38.4254C48.7016 38.663 48.5234 38.9005 48.464 39.1381C48.3452 39.4351 48.2858 39.732 48.2858 40.029C48.2858 40.3259 48.3452 40.6229 48.464 40.9199C48.5828 41.2168 48.7016 41.4543 48.8797 41.6325C49.0579 41.8107 49.2955 41.9889 49.533 42.1077C49.7706 42.2265 50.0676 42.2858 50.4239 42.2858C50.7803 42.2858 51.0772 42.2265 51.3148 42.1077C51.6117 41.9889 51.7899 41.8107 52.0275 41.6325C52.265 41.4543 52.3837 41.1574 52.4431 40.9199C52.5025 40.6823 52.562 40.3853 52.562 40.029Z" fill="#111111"/>
<path d="M54.522 37.1777H56.2443C56.5413 37.1777 56.8383 37.2371 57.0758 37.2965C57.3134 37.3559 57.551 37.4747 57.7291 37.5935C57.9073 37.7123 58.0261 37.8904 58.1449 38.0686C58.2637 38.2468 58.2637 38.4844 58.2637 38.7813C58.2637 39.0783 58.2043 39.3158 58.0855 39.494C57.9667 39.6722 57.8479 39.8504 57.6698 39.9691C57.4916 40.0879 57.254 40.2067 57.0164 40.2661C56.7789 40.3255 56.4819 40.3849 56.185 40.3849H55.2941V42.8793H54.522V37.1777ZM55.2941 39.7316H56.1256C56.3037 39.7316 56.4819 39.7316 56.6601 39.6722C56.8383 39.6128 56.9571 39.6128 57.0758 39.494C57.1946 39.3752 57.3134 39.3158 57.3728 39.1971C57.4322 39.0783 57.4916 38.9595 57.4916 38.7813C57.4916 38.6031 57.4322 38.4843 57.3728 38.3656C57.3134 38.2468 57.1946 38.128 57.0758 38.0686C56.9571 38.0092 56.8383 37.9498 56.6601 37.8904C56.4819 37.8904 56.3037 37.8311 56.1256 37.8311H55.2347L55.2941 39.7316Z" fill="#111111"/>
<path d="M65.0931 40.029C65.0931 40.4447 65.0337 40.8605 64.8555 41.2168C64.6774 41.5732 64.4992 41.9295 64.2023 42.1671C63.9053 42.4046 63.6083 42.6422 63.252 42.761C62.8956 42.8798 62.4799 42.9985 62.0641 42.9985C61.6484 42.9985 61.2327 42.9391 60.8763 42.761C60.52 42.6422 60.1636 42.4046 59.9261 42.1671C59.6885 41.9295 59.451 41.5732 59.2728 41.2168C59.0946 40.8605 59.0352 40.4447 59.0352 40.029C59.0352 39.5538 59.0946 39.1975 59.2728 38.7817C59.451 38.4254 59.6291 38.0691 59.9261 37.8315C60.223 37.5939 60.52 37.3564 60.8763 37.2376C61.2327 37.1188 61.6484 37 62.0641 37C62.4799 37 62.8956 37.0594 63.252 37.2376C63.6083 37.3564 63.9647 37.5939 64.2023 37.8315C64.4992 38.0691 64.6774 38.4254 64.8555 38.7817C64.9743 39.1975 65.0931 39.6132 65.0931 40.029ZM64.2023 40.029C64.2023 39.732 64.1429 39.4351 64.0241 39.1381C63.9053 38.8412 63.7865 38.6036 63.6083 38.4254C63.4302 38.2472 63.1926 38.0691 62.955 37.9503C62.7174 37.8315 62.3611 37.7721 62.0641 37.7721C61.7078 37.7721 61.4108 37.8315 61.1733 37.9503C60.9357 38.0691 60.6982 38.2472 60.52 38.4254C60.3418 38.663 60.1636 38.9005 60.1042 39.1381C59.9855 39.4351 59.9261 39.732 59.9261 40.029C59.9261 40.3259 59.9855 40.6229 60.1042 40.9199C60.223 41.2168 60.3418 41.4543 60.52 41.6325C60.6982 41.8107 60.9357 41.9889 61.1733 42.1077C61.4108 42.2265 61.7078 42.2858 62.0641 42.2858C62.4205 42.2858 62.7174 42.2265 62.955 42.1077C63.252 41.9889 63.4302 41.8107 63.6677 41.6325C63.9053 41.4543 64.0241 41.1574 64.0835 40.9199C64.1429 40.6823 64.2023 40.3853 64.2023 40.029Z" fill="#111111"/>
<path d="M66.9347 42.2271H69.4885V42.9398H66.1626V37.2383H66.9347V42.2271Z" fill="#111111"/>
<path d="M71.0923 42.8793H70.3203V37.1777H71.0923V42.8793Z" fill="#111111"/>
<path d="M75.3092 38.2464C75.1904 38.0682 75.0716 37.9494 74.834 37.8901C74.6559 37.7713 74.4183 37.7119 74.1807 37.7119C74.062 37.7119 73.9432 37.7119 73.765 37.7713C73.6462 37.8307 73.5275 37.8901 73.4087 37.9495C73.2899 38.0089 73.2305 38.1276 73.1711 38.2464C73.1117 38.3652 73.0523 38.484 73.0523 38.6621C73.0523 38.8403 73.1117 38.9591 73.1711 39.0779C73.2305 39.1967 73.2899 39.2561 73.4087 39.3155C73.5275 39.3748 73.6462 39.4342 73.765 39.4936C73.8838 39.553 74.062 39.6124 74.2401 39.6718C74.4183 39.7312 74.6559 39.7906 74.834 39.85C75.0122 39.9093 75.1904 40.0281 75.3686 40.1469C75.5467 40.2657 75.6655 40.4439 75.7843 40.6221C75.9031 40.8002 75.9625 41.0378 75.9625 41.3347C75.9625 41.6317 75.9031 41.8693 75.7843 42.1069C75.6655 42.3444 75.5467 42.5226 75.3686 42.6414C75.1904 42.7601 74.9528 42.8789 74.7153 42.9383C74.4777 42.9977 74.2401 43.0571 74.0026 43.0571C73.6462 43.0571 73.2899 42.9977 72.9335 42.8195C72.5772 42.7007 72.3396 42.4632 72.1021 42.2256L72.696 41.6911C72.8147 41.8693 72.9929 42.0475 73.2305 42.1662C73.4681 42.285 73.7056 42.3444 73.9432 42.3444C74.062 42.3444 74.2401 42.3444 74.3589 42.285C74.4777 42.2256 74.5965 42.1662 74.7153 42.1069C74.8341 42.0475 74.8935 41.9287 75.0122 41.8099C75.0716 41.6911 75.131 41.5129 75.131 41.3942C75.131 41.2754 75.0716 41.0972 75.0122 40.9784C74.9528 40.8596 74.8341 40.7408 74.7153 40.6815C74.5965 40.6221 74.4183 40.5033 74.2995 40.5033C74.1808 40.5033 73.9432 40.3845 73.765 40.3251C73.5868 40.2657 73.4087 40.2063 73.2305 40.1469C73.0523 40.0875 72.8741 39.9687 72.7553 39.85C72.6366 39.7312 72.5178 39.553 72.399 39.3748C72.3396 39.1967 72.2802 38.9591 72.2802 38.7215C72.2802 38.4246 72.3396 38.187 72.4584 38.0088C72.5772 37.8307 72.696 37.6525 72.9335 37.4743C73.1711 37.2961 73.3493 37.2367 73.5868 37.1773C73.8244 37.118 74.062 37.0586 74.2995 37.0586C74.6559 37.0586 74.9528 37.118 75.2498 37.2368C75.5467 37.3555 75.7843 37.5337 75.9625 37.7119L75.3092 38.2464Z" fill="#111111"/>
<path d="M36.7637 52.0864H33.022V51.3737L35.2789 49.1168C35.4571 48.9386 35.5758 48.7604 35.6946 48.5823C35.8134 48.4041 35.8728 48.1665 35.8728 47.929C35.8728 47.7508 35.8728 47.632 35.8134 47.5132C35.754 47.3944 35.6946 47.2757 35.5758 47.2163C35.4571 47.1569 35.3977 47.0381 35.2789 47.0381C35.1601 46.9787 35.0413 46.9787 34.8631 46.9787C34.5662 46.9787 34.3286 47.0975 34.1504 47.2756C33.9723 47.4538 33.8535 47.6914 33.7941 47.9883L33.022 47.8695C33.0814 47.632 33.1408 47.4538 33.2002 47.2756C33.319 47.0975 33.4378 46.9193 33.6159 46.8005C33.7941 46.6817 33.9723 46.5629 34.1504 46.5036C34.388 46.4442 34.5662 46.3848 34.8038 46.3848C35.0413 46.3848 35.2789 46.4442 35.457 46.5036C35.6946 46.5629 35.8728 46.6817 36.051 46.8005C36.2291 46.9193 36.3479 47.0975 36.4667 47.335C36.5855 47.5132 36.6449 47.7508 36.6449 48.0478C36.6449 48.2259 36.6449 48.4041 36.5855 48.5823C36.5261 48.7604 36.4667 48.8792 36.4073 48.998C36.3479 49.1168 36.2292 49.295 36.1104 49.4137C35.9916 49.5325 35.8728 49.6513 35.754 49.7701L33.9129 51.5518H36.7043L36.7637 52.0864Z" fill="#111111"/>
<path d="M39.7333 46.2656C40.0896 46.2656 40.3866 46.325 40.6242 46.5032C40.8617 46.6813 41.0993 46.8595 41.2181 47.1565C41.3963 47.4535 41.515 47.7504 41.5744 48.1067C41.6338 48.4631 41.6932 48.8788 41.6932 49.2946C41.6932 49.7103 41.6338 50.126 41.5744 50.4824C41.515 50.8387 41.3963 51.1357 41.2181 51.4326C41.0399 51.7296 40.8617 51.9078 40.6242 52.086C40.3866 52.2641 40.0896 52.3235 39.7333 52.3235C39.377 52.3235 39.08 52.2641 38.8424 52.086C38.6049 51.9078 38.3673 51.7296 38.2485 51.4326C38.0703 51.1357 37.9516 50.8387 37.8922 50.4824C37.8328 50.126 37.7734 49.7103 37.7734 49.2946C37.7734 48.8788 37.8328 48.4631 37.8922 48.1067C37.9516 47.7504 38.0703 47.3941 38.2485 47.1565C38.4267 46.8595 38.6049 46.6813 38.8424 46.5032C39.08 46.325 39.377 46.2656 39.7333 46.2656ZM39.7333 46.9189C39.4957 46.9189 39.3176 46.9783 39.1394 47.1565C38.9612 47.3347 38.8424 47.5128 38.7831 47.7504C38.7237 47.988 38.6642 48.2255 38.6049 48.5225C38.5455 48.8194 38.5455 49.057 38.5455 49.2946C38.5455 49.5321 38.5455 49.7697 38.6049 50.0666C38.6642 50.3636 38.7237 50.6012 38.7831 50.8387C38.8424 51.0763 38.9612 51.2545 39.1394 51.4326C39.3176 51.6108 39.4957 51.6702 39.7333 51.6702C39.9709 51.6702 40.149 51.6108 40.3272 51.4326C40.446 51.2545 40.5648 51.0763 40.6835 50.8387C40.7429 50.6012 40.8024 50.3636 40.8618 50.0666C40.9211 49.7697 40.9211 49.5321 40.9211 49.2946C40.9211 49.057 40.9211 48.8194 40.8618 48.5225C40.8024 48.2255 40.7429 47.988 40.6835 47.7504C40.6242 47.5128 40.5054 47.3347 40.3272 47.1565C40.149 46.9783 39.9709 46.9189 39.7333 46.9189Z" fill="#111111"/>
<path d="M46.3261 52.0864H42.5845V51.3737L44.8413 49.1168C45.0195 48.9386 45.1383 48.7604 45.2571 48.5823C45.3759 48.4041 45.4352 48.1665 45.4352 47.929C45.4352 47.7508 45.4353 47.632 45.3759 47.5132C45.3165 47.3944 45.2571 47.2757 45.1383 47.2163C45.0195 47.1569 44.9601 47.0381 44.8413 47.0381C44.7226 46.9787 44.6038 46.9787 44.4256 46.9787C44.1287 46.9787 43.8911 47.0975 43.7129 47.2756C43.5347 47.4538 43.4159 47.6914 43.3566 47.9883L42.5845 47.8695C42.6439 47.632 42.7032 47.4538 42.7626 47.2756C42.8814 47.0975 43.0002 46.9193 43.1784 46.8005C43.3566 46.6817 43.5347 46.5629 43.7129 46.5036C43.9505 46.4442 44.1286 46.3848 44.3662 46.3848C44.6038 46.3848 44.8414 46.4442 45.0195 46.5036C45.2571 46.5629 45.4353 46.6817 45.6135 46.8005C45.7916 46.9193 45.9104 47.0975 46.0292 47.335C46.1479 47.5132 46.2074 47.7508 46.2074 48.0478C46.2074 48.2259 46.2073 48.4041 46.148 48.5823C46.0886 48.7604 46.0292 48.8792 45.9698 48.998C45.9104 49.1168 45.7916 49.295 45.6728 49.4137C45.554 49.5325 45.4353 49.6513 45.3165 49.7701L43.4753 51.5518H46.2667L46.3261 52.0864Z" fill="#111111"/>
<path d="M50.0082 52.0864H49.2361V47.335L48.1671 48.2259L47.6919 47.6914L49.2955 46.3848H50.0082V52.0864Z" fill="#111111"/>
</svg>
