<svg width="166" height="40" viewBox="0 0 166 40" fill="none" xmlns="http://www.w3.org/2000/svg">
<g clip-path="url(#clip0)">
<path d="M55.988 19.9088H51.4312V17.0994H63.8631V19.9088H59.3062V27.651H55.988V19.9088Z" fill="#222220"/>
<path d="M76.6044 17.0994V27.651H73.3968V21.5015L67.8666 27.651H65.0352V17.1436H68.2427V23.2269L73.7729 17.0994H76.6044Z" fill="#222220"/>
<path d="M82.1294 27.651H78.9219V17.1436H82.1294V21.0148H87.2836V17.1436H90.4911V27.651H87.2836V23.7135H82.1294V27.651Z" fill="#222220"/>
<path d="M92.8081 27.651V17.1436H96.0156V19.9088H99.3337C100.126 19.8678 100.92 19.9651 101.679 20.1963C102.407 20.4424 103.036 20.9183 103.471 21.5526C103.906 22.1869 104.123 22.9452 104.09 23.7135C104.118 24.5468 103.858 25.3643 103.355 26.0289C102.851 26.6935 102.134 27.1647 101.325 27.3635C100.668 27.5382 99.9907 27.6201 99.3116 27.6068L92.8081 27.651ZM96.0156 25.1071H98.7807C99.2072 25.1455 99.6371 25.0927 100.042 24.9523C100.286 24.8515 100.495 24.6796 100.641 24.4587C100.787 24.2378 100.863 23.9782 100.86 23.7135C100.865 23.4563 100.785 23.2046 100.633 22.9969C100.482 22.7892 100.266 22.6369 100.019 22.5633C99.6169 22.45 99.1982 22.4052 98.7807 22.4305H96.0156V25.1071Z" fill="#222220"/>
<path d="M108.746 27.651H105.539V17.1436H108.746V21.1033H109.631L113.502 17.1436H117.528L112.396 22.1208L117.727 27.651H113.458L109.631 23.6693H108.746V27.651Z" fill="#222220"/>
<path d="M131.287 22.3863C131.287 25.5274 128.699 27.9607 124.408 27.9607C120.116 27.9607 117.506 25.5274 117.506 22.3863C117.506 19.2451 120.094 16.8118 124.43 16.8118C128.765 16.8118 131.287 19.2451 131.287 22.3863ZM127.925 22.3863C127.925 20.6609 126.531 19.4 124.408 19.4C122.284 19.4 120.89 20.6609 120.89 22.3863C120.89 24.1117 122.262 25.3947 124.408 25.3947C126.553 25.3947 127.925 24.1117 127.925 22.3863Z" fill="#222220"/>
<path d="M148.315 22.3642C148.315 25.3726 145.904 26.9432 141.856 27.0317V28.0935H138.648V27.0317C134.622 26.9432 132.211 25.3726 132.211 22.3642C132.211 19.3557 134.622 17.6524 138.648 17.5639V16.5021H141.856V17.5639C145.909 17.6524 148.315 19.3557 148.315 22.3642ZM138.648 19.8424C136.436 19.9309 135.463 20.9484 135.463 22.3642C135.463 23.7799 136.436 24.6869 138.648 24.7753V19.8424ZM145.041 22.3642C145.041 20.9484 144.09 19.9309 141.856 19.8424V24.7753C144.095 24.6869 145.047 23.7799 145.047 22.3642H145.041Z" fill="#222220"/>
<path d="M165.354 22.3642C165.354 25.3726 162.942 26.9432 158.894 27.0317V28.0935H155.687V27.0317C151.661 26.9432 149.25 25.3726 149.25 22.3642C149.25 19.3557 151.661 17.6524 155.687 17.5639V16.5021H158.894V17.5639C162.942 17.6524 165.354 19.3557 165.354 22.3642ZM155.687 19.8424C153.475 19.9309 152.501 20.9484 152.501 22.3642C152.501 23.7799 153.475 24.6869 155.687 24.7753V19.8424ZM162.08 22.3642C162.08 20.9484 161.128 19.9309 158.894 19.8424V24.7753C161.128 24.6869 162.074 23.7799 162.074 22.3642H162.08Z" fill="#222220"/>
<path d="M44.203 18.7087L44.7947 16.8505L42.8702 16.9114C41.9685 16.8756 41.0981 16.5714 40.3705 16.0376C40.459 16.0376 40.542 16.0376 40.6304 16.0376C41.2062 16.0355 41.7699 15.8729 42.2583 15.5681C42.7468 15.2633 43.1406 14.8284 43.3955 14.3122L44.2417 12.5038C43.578 12.5094 42.9148 12.4706 42.2563 12.3877C41.6269 12.2396 41.06 11.8971 40.636 11.4088C40.352 11.1061 40.0096 10.8642 39.6293 10.6978C39.249 10.5315 38.8389 10.4441 38.4239 10.441C38.0953 10.4426 37.7688 10.4948 37.4561 10.5959C37.5029 10.4473 37.5398 10.2958 37.5667 10.1424C37.6968 9.06264 37.3946 7.97525 36.7261 7.11738L35.2661 5.32006L34.3703 7.42154C34.228 7.72228 34.0086 7.9799 33.7343 8.16812C33.582 7.41841 33.2127 6.72996 32.6725 6.1883C32.2236 5.72873 31.6867 5.3645 31.0937 5.11743C30.5007 4.87036 29.864 4.74554 29.2216 4.75045C28.9958 4.74935 28.7702 4.76599 28.5469 4.80022L26.7994 5.14309C26.9506 4.55762 27.1892 3.9983 27.5073 3.48403L28.4695 1.98534L26.0473 2.21208L25.2731 0.553021L23.7799 1.36596L22.3973 0L21.0148 1.36596L19.5216 0.591732L18.7474 2.21208L16.3252 1.93557L17.2874 3.43979C17.6066 3.95351 17.8453 4.51299 17.9953 5.09885L16.3362 4.77257H16.2809C16.0503 4.73764 15.8173 4.721 15.5841 4.7228C14.9417 4.71757 14.3049 4.84225 13.7119 5.08934C13.1189 5.33642 12.5819 5.70083 12.1333 6.16065C11.5845 6.7086 11.211 7.40737 11.0604 8.16812C10.7923 7.98551 10.5768 7.7357 10.4355 7.44366L9.53408 5.32559L8.06304 7.12844C7.40599 7.98727 7.11032 9.06875 7.23904 10.1424C7.2664 10.2957 7.30334 10.4472 7.34965 10.5959C7.03708 10.4942 6.71055 10.442 6.38186 10.441C5.96681 10.4441 5.55672 10.5315 5.17646 10.6978C4.7962 10.8642 4.45371 11.1061 4.16978 11.4088C3.74804 11.8916 3.18823 12.2333 2.56602 12.3877C1.89982 12.4863 1.22614 12.5252 0.553021 12.5038L1.37702 14.3398C1.63249 14.8556 2.02642 15.2902 2.51475 15.5949C3.00307 15.8996 3.56654 16.0625 4.14213 16.0653C4.23061 16.0653 4.31356 16.0653 4.40205 16.0653C3.68297 16.5906 2.82515 16.8925 1.93557 16.9335L0 16.8505L0.591732 18.7087C0.80815 19.4221 1.22596 20.0578 1.79495 20.5395C2.36394 21.0212 3.05992 21.3283 3.79925 21.424C3.72275 21.9066 3.53235 22.364 3.24384 22.7583C2.95532 23.1526 2.57698 23.4725 2.14019 23.6914L0.658095 24.2942L1.45445 25.6823C1.77711 26.1843 2.22182 26.5962 2.74699 26.8796C3.27216 27.163 3.86063 27.3085 4.45735 27.3026C4.77332 27.3019 5.08837 27.2686 5.39748 27.2031C5.47667 27.5413 5.57264 27.8754 5.68505 28.2041C5.95973 28.9318 5.97923 29.7312 5.74036 30.4714L5.02143 31.9812L6.63072 32.407C6.9923 32.4985 7.3638 32.5449 7.73676 32.5453C8.00108 32.5465 8.26463 32.5168 8.52205 32.4568C8.71071 32.4147 8.89566 32.3573 9.07507 32.2854C9.2824 32.656 9.53709 32.998 9.83271 33.3029C10.8613 34.3592 12.3213 34.8956 14.1739 34.8956H15.4956L12.7693 36.0293L14.8376 37.0524C15.6699 37.4642 16.5226 37.8333 17.3925 38.1584L17.1436 38.8774L17.857 39.2036C19.0413 39.6688 20.2962 39.9288 21.5678 39.9723C21.5678 39.9723 22.1208 39.9723 22.4195 39.9723C22.7181 39.9723 23.2656 39.9723 23.2656 39.9723C24.532 39.9255 25.7811 39.6637 26.9598 39.1981L27.651 38.8774L27.4077 38.1584C28.2875 37.8211 29.1495 37.439 29.9903 37.0137L32.0199 36.0293L29.299 34.9233H30.6263C32.4789 34.9233 33.9444 34.3702 34.9675 33.3306C35.2635 33.026 35.5182 32.6839 35.7251 32.313C35.9048 32.3844 36.0897 32.4417 36.2782 32.4844C36.5356 32.5441 36.7992 32.5738 37.0635 32.5729C37.4364 32.5719 37.8078 32.5255 38.1695 32.4347L39.7843 32.0088L39.082 30.5268C38.8188 29.7732 38.8286 28.9511 39.1096 28.2041C39.2258 27.8667 39.3198 27.5238 39.3972 27.181C39.7082 27.2465 40.0251 27.2799 40.3429 27.2805C40.9445 27.2854 41.5373 27.1353 42.0642 26.8447C42.5911 26.5542 43.0343 26.1329 43.3513 25.6215L44.1366 24.25L42.6766 23.6527C42.2393 23.4345 41.8605 23.1148 41.5719 22.7204C41.2833 22.326 41.0932 21.8682 41.0176 21.3853C41.7576 21.2892 42.454 20.9812 43.0231 20.4985C43.5921 20.0158 44.0096 19.3789 44.2251 18.6645L44.203 18.7087Z" fill="white"/>
<path d="M22.3975 5.69611C20.8545 5.69611 19.6932 6.20489 19.4443 6.80216L22.3975 7.96903L25.3506 6.80216C25.1017 6.20489 23.9404 5.69611 22.3975 5.69611Z" fill="white"/>
<path d="M22.4306 36.5657H22.3697C21.4092 36.5576 20.4532 36.4351 19.5217 36.2007L18.8027 38.2193C19.9824 38.5488 21.2003 38.7217 22.425 38.7336C23.6498 38.7218 24.8677 38.5489 26.0473 38.2193L25.2731 36.2007C24.3415 36.4348 23.3855 36.5573 22.425 36.5657" fill="white"/>
<path d="M28.0823 34.5583C27.271 34.9628 26.4275 35.2995 25.5605 35.5648L26.1689 37.2238C27.1338 36.9686 28.0712 36.6185 28.9672 36.1786L27.7118 35.7583L28.0823 34.5583Z" fill="white"/>
<path d="M16.7121 34.5583L17.0827 35.7749L15.8218 36.1952C16.7179 36.6347 17.6552 36.9848 18.6201 37.2404L19.2284 35.5814C18.3615 35.3159 17.518 34.9793 16.7066 34.5749" fill="white"/>
<path d="M22.3973 3.76607C23.5064 3.75412 24.6011 4.01828 25.5827 4.53477C25.6769 4.21443 25.7914 3.90041 25.9255 3.59464L25.5937 3.63335L25.2453 3.67206L25.096 3.35684L24.6536 2.4167L23.8462 2.837L23.5309 2.99737L23.2766 2.76511L22.3973 1.88027L21.518 2.76511L21.2691 3.01396L20.9539 2.85359L20.1409 2.43329L19.704 3.37343L19.5547 3.68865L19.2063 3.64994L18.8745 3.61123C19.0081 3.91724 19.1226 4.23122 19.2174 4.55136C20.196 4.03044 21.2886 3.7606 22.3973 3.76607Z" fill="white"/>
<path d="M40.1772 14.6053C40.3247 14.6568 40.4799 14.683 40.6362 14.6827C40.9474 14.6803 41.2522 14.5944 41.5187 14.4339C41.7853 14.2733 42.0038 14.0441 42.1515 13.7702C41.1806 13.6087 40.2955 13.1164 39.6463 12.3766C39.4917 12.2037 39.3025 12.0652 39.0911 11.9699C38.8796 11.8747 38.6505 11.8248 38.4186 11.8236C38.0553 11.8293 37.701 11.9366 37.3955 12.1333C38.9661 12.9683 39.2868 14.3066 40.1606 14.6108" fill="white"/>
<path d="M4.1642 14.6827C4.31867 14.6829 4.47204 14.6567 4.61768 14.6053C5.51357 14.3011 5.83433 12.9462 7.38278 12.1277C7.07893 11.9321 6.72658 11.8248 6.36523 11.8181C6.1333 11.8193 5.90421 11.8692 5.69275 11.9644C5.48128 12.0597 5.29214 12.1982 5.13752 12.3711C4.49341 13.1096 3.61459 13.6037 2.64893 13.7702C2.79611 14.0445 3.01454 14.274 3.28121 14.4346C3.54788 14.5952 3.85292 14.6809 4.1642 14.6827Z" fill="white"/>
<path d="M40.6026 20.0525H40.68C42.3391 20.0525 42.8921 18.2939 42.8921 18.2939H42.8589C41.9922 18.267 41.1417 18.0512 40.3671 17.6614C39.5924 17.2717 38.9122 16.7175 38.3739 16.0376C37.2347 14.5942 36.3056 13.3223 34.4641 12.8246L34.2871 12.7803L34.2484 12.5978C34.1986 12.3158 34.3922 12.0448 34.8014 11.7683C37.3398 10.1092 35.6144 7.98562 35.6144 7.98562C35.6144 7.98562 34.912 9.67787 33.2917 9.67787H33.1811C32.9955 9.67443 32.8106 9.65593 32.628 9.62256L32.3294 9.56726C32.4523 9.14329 32.4564 8.69374 32.3413 8.26759C32.2263 7.84144 31.9964 7.45506 31.6769 7.15056C31.3581 6.82277 30.9761 6.56309 30.5541 6.38723C30.132 6.21137 29.6786 6.123 29.2214 6.12747C29.0584 6.12555 28.8955 6.13851 28.7348 6.16618C29.2878 6.9017 29.7026 8.11835 29.0555 8.86493C28.5025 9.51196 27.1255 9.53961 27.1255 10.524C27.1255 10.9332 27.5071 11.4088 28.1873 11.8346C30.2445 13.1287 32.2852 14.8486 33.1313 17.1492C34.1931 20.0194 32.9986 21.9273 31.2897 23.0167C31.6607 23.3293 32.1177 23.5221 32.6004 23.5698C32.7608 23.5698 32.9101 23.5698 33.0539 23.5698C33.9454 23.6074 34.8226 23.3358 35.5369 22.8011C35.3956 23.5593 35.0538 24.2658 34.547 24.8472C34.1295 25.3319 33.6076 25.7156 33.0204 25.9694C32.4332 26.2233 31.7961 26.3407 31.157 26.3127C31.1615 26.5725 31.2215 26.8284 31.3331 27.0631C31.4447 27.2977 31.6053 27.5058 31.804 27.6732C32.2466 27.9697 32.7521 28.1591 33.2806 28.2262C33.2806 28.2262 31.3506 28.6188 31.1404 31.4669C31.1461 32.1915 30.9713 32.9061 30.6316 33.5462H30.6648C35.1388 33.5462 35.0226 29.7083 35.0226 29.7083C35.1384 30.0605 35.3426 30.377 35.6156 30.6278C35.8886 30.8786 36.2214 31.0551 36.5821 31.1406C36.7341 31.1785 36.8901 31.1971 37.0467 31.1959C37.3002 31.1942 37.5526 31.1626 37.7988 31.1019C37.3954 30.0326 37.3954 28.853 37.7988 27.7838C38.115 26.8968 38.2686 25.9601 38.2523 25.0187C38.5087 25.3256 38.8346 25.5669 39.203 25.7227C39.5713 25.8785 39.9715 25.9443 40.3703 25.9146C40.7236 25.9198 41.0724 25.8359 41.3846 25.6706C41.6968 25.5053 41.9623 25.264 42.1566 24.9689C39.1758 23.7301 39.4689 19.7318 39.4689 19.7318C39.8133 19.9424 40.21 20.0517 40.6137 20.047L40.6026 20.0525ZM39.7178 24.2223C38.5067 23.6251 37.738 22.0102 37.5499 21.4572C37.3508 24.6094 35.8134 26.7939 34.0161 28.8953C33.4656 29.5277 33.038 30.2573 32.7552 31.0466C32.9024 30.2574 33.2382 29.5156 33.7341 28.8843C35.3932 26.8713 37.008 24.3606 37.1241 21.4627C37.2161 19.7036 36.7809 17.9571 35.8743 16.4468C36.1572 17.2648 36.1992 18.1469 35.9952 18.9881C35.7913 19.8292 35.3501 20.5941 34.724 21.1918C34.724 21.1918 37.7933 17.5086 33.5018 13.737C31.7819 12.2992 29.9017 11.4144 28.9339 10.7839C32.429 11.9231 34.1378 10.6678 34.1378 10.6678C33.6538 11.0454 33.0937 11.3137 32.496 11.454C31.8984 11.5943 31.2774 11.6035 30.6759 11.4807C30.9192 11.5968 31.1736 11.724 31.4446 11.8678C34.3922 13.4716 37.0467 16.104 37.4946 19.7539V19.7263C38.1804 23.3098 39.7067 24.2278 39.7067 24.2278" fill="white"/>
<path d="M11.5138 28.2041C12.0423 28.1369 12.5479 27.9476 12.9904 27.651C13.1892 27.4836 13.3497 27.2756 13.4613 27.0409C13.573 26.8063 13.633 26.5504 13.6374 26.2906C12.9976 26.3182 12.3598 26.2006 11.7718 25.9469C11.1838 25.6931 10.6608 25.3096 10.2419 24.8251C9.73828 24.2423 9.39856 23.5362 9.25752 22.7789C9.97188 23.3137 10.849 23.5852 11.7406 23.5476C11.8899 23.5476 12.0392 23.5476 12.1996 23.5476C12.6822 23.4993 13.1389 23.3066 13.5103 22.9946C11.8014 21.8886 10.6069 19.9972 11.6687 17.1271C12.5203 14.8265 14.5555 13.1066 16.6127 11.8125C17.2929 11.3922 17.6966 10.9166 17.6966 10.5074C17.6966 9.54514 16.3307 9.51196 15.7721 8.84833C15.1251 8.09623 15.5288 6.87958 16.0873 6.14959C15.9266 6.12186 15.7637 6.1089 15.6007 6.11088C15.1435 6.10641 14.6901 6.19478 14.2681 6.37064C13.846 6.5465 13.464 6.80618 13.1453 7.13397C12.8257 7.43847 12.5959 7.82485 12.4808 8.251C12.3657 8.67715 12.3698 9.1267 12.4927 9.55067L12.1664 9.62256C11.9838 9.65542 11.7989 9.67391 11.6134 9.67787H11.4973C9.87138 9.67787 9.14692 7.98009 9.14692 7.98009C9.14692 7.98009 7.43808 10.1037 9.95433 11.7683C10.3912 12.0503 10.5848 12.3213 10.5073 12.5978L10.4686 12.7803L10.2861 12.8135C8.45011 13.3112 7.52104 14.5832 6.37628 16.0265C5.84056 16.7074 5.16264 17.263 4.38988 17.6547C3.61712 18.0463 2.76817 18.2645 1.90234 18.2939H1.9134C1.9134 18.2939 2.46643 20.0525 4.12549 20.0525H4.20291C4.60651 20.0569 5.00321 19.9477 5.34766 19.7373C5.34766 19.7373 5.64077 23.7357 2.65998 24.9744C2.85284 25.2653 3.11511 25.5036 3.42311 25.6677C3.7311 25.8318 4.07513 25.9167 4.42412 25.9146C4.82117 25.9381 5.21815 25.8672 5.58248 25.7076C5.94681 25.548 6.26813 25.3043 6.52007 24.9965C6.50246 25.9376 6.65419 26.8742 6.96802 27.7616C7.36985 28.8312 7.36985 30.0102 6.96802 31.0798C7.21234 31.1402 7.46291 31.1717 7.71459 31.1738C7.87116 31.1752 8.02728 31.1567 8.17913 31.1185C8.53963 31.0325 8.87216 30.8558 9.14512 30.6051C9.41808 30.3544 9.62239 30.0381 9.73865 29.6862C9.73865 29.6862 9.62252 33.5241 14.102 33.5241H14.1352C13.7964 32.8837 13.6216 32.1693 13.6264 31.4448C13.4439 28.6078 11.5138 28.2041 11.5138 28.2041ZM10.7949 28.9009C8.9976 26.7939 7.4768 24.6094 7.25559 21.4627C7.06756 22.0158 6.30439 23.6251 5.09327 24.2278C5.09327 24.2278 6.61961 23.3098 7.30536 19.7263V19.7539C7.75884 16.104 10.4078 13.4661 13.3609 11.8678C13.6319 11.7185 13.8863 11.5968 14.1296 11.4807C13.529 11.6026 12.909 11.5931 12.3124 11.4528C11.7158 11.3124 11.1566 11.0446 10.6733 10.6678C10.6733 10.6678 12.3821 11.9231 15.8772 10.7839C14.9094 11.4144 13.0291 12.2992 11.3148 13.737C7.01779 17.5086 10.0926 21.1918 10.0926 21.1918C9.46593 20.5945 9.02429 19.8296 8.82033 18.9883C8.61638 18.147 8.65872 17.2648 8.9423 16.4468C8.03222 17.9557 7.59677 19.7033 7.69247 21.4627C7.79755 24.3329 9.40131 26.8658 11.0604 28.8843C11.5626 29.5193 11.9024 30.2672 12.0503 31.0632C11.7661 30.2745 11.3387 29.5452 10.7894 28.9119" fill="white"/>
<path d="M19.0905 14.185C19.1624 14.2624 19.2343 14.3509 19.3062 14.4338L19.3559 14.4947L19.5495 14.7657L19.5937 14.8265C19.6656 14.9371 19.7375 15.0588 19.8094 15.1804C20.0562 15.6721 20.4235 16.0933 20.877 16.4047C21.3305 16.7161 21.8555 16.9075 22.4031 16.9612C22.9504 16.907 23.4753 16.7154 23.9287 16.404C24.3822 16.0927 24.7496 15.6718 24.9967 15.1804C25.0686 15.0588 25.1405 14.9371 25.2179 14.8265L25.2511 14.7767C25.3175 14.6827 25.3839 14.5887 25.4502 14.4947L25.4945 14.4394C25.5663 14.3509 25.6382 14.2624 25.7157 14.185L25.7544 14.1518C26.0908 13.7989 26.5172 13.5446 26.9876 13.4163L26.7498 13.2725L25.8429 12.7195L24.9083 12.1665L22.4141 13.5214L19.9089 12.2162L18.9743 12.7693L18.0619 13.3223L17.8296 13.455C18.3001 13.583 18.7266 13.8374 19.0628 14.1905L19.1015 14.2292L19.0905 14.185ZM21.4021 14.1186H23.5091V14.8431C23.4134 14.7505 23.2981 14.6806 23.1718 14.6385C23.0454 14.5964 22.9113 14.5831 22.7791 14.5998V15.645C22.7846 15.9027 22.8529 16.1552 22.9782 16.3805H21.9219C22.0556 16.1425 22.1243 15.8736 22.121 15.6007V14.5555C21.9889 14.5389 21.8547 14.5521 21.7284 14.5942C21.6021 14.6364 21.4868 14.7063 21.391 14.7988L21.4021 14.1186Z" fill="white"/>
<path d="M22.1817 12.6697V8.43357L19.4829 7.52108L20.1963 11.6134L22.1817 12.6697ZM21.6286 9.47325V10.1535L21.4959 10.0926C21.2929 10.0242 21.1052 9.91719 20.9429 9.77741C20.7984 9.68611 20.6746 9.56566 20.5794 9.42377C20.4842 9.28188 20.4196 9.12168 20.3899 8.95341L21.6286 9.47325Z" fill="white"/>
<path d="M24.5986 11.6134L25.3065 7.51002L22.6133 8.42251V12.6586L24.5986 11.6134ZM23.194 9.46219L24.4217 8.94788C24.3919 9.11615 24.3273 9.27636 24.2321 9.41825C24.1369 9.56013 24.0131 9.68058 23.8686 9.77188C23.7064 9.91166 23.5186 10.0187 23.3156 10.0871L23.1829 10.1479L23.194 9.46219Z" fill="white"/>
<path d="M18.366 22.4914C18.6071 22.5696 18.8591 22.6088 19.1126 22.6075V22.5301C19.1281 22.481 19.141 22.4312 19.1513 22.3808C19.191 22.1598 19.2132 21.936 19.2177 21.7116C19.0671 21.6215 18.9445 21.4913 18.8637 21.3355C18.8301 21.2429 18.7683 21.1632 18.6869 21.1076C18.6055 21.052 18.5088 21.0234 18.4103 21.0259C18.1654 21.0466 17.9296 21.1284 17.7245 21.2637C17.692 21.5068 17.7344 21.754 17.846 21.9724C17.9577 22.1907 18.1333 22.3699 18.3494 22.4858" fill="white"/>
<path d="M24.3329 20.2461C23.8297 20.7991 22.8509 21.7392 22.8066 21.789L22.7458 21.8499L19.6489 21.8001C19.6462 22.0557 19.6128 22.3101 19.5493 22.5577V22.6573L23.2269 23.3154C23.6085 23.0499 24.6648 22.2757 25.074 21.977C24.8207 21.5883 24.7276 21.1167 24.8141 20.6609C24.6369 20.5498 24.4799 20.4096 24.3495 20.2461" fill="white"/>
<path d="M24.7534 16.5187C24.2278 17.0894 23.5161 17.454 22.7459 17.5474C22.6335 17.5531 22.5209 17.5531 22.4086 17.5474C22.2962 17.5531 22.1836 17.5531 22.0712 17.5474C21.9596 17.5383 21.8488 17.5216 21.7394 17.4976C21.6682 17.7654 21.6876 18.0493 21.7947 18.305C21.8739 18.4585 21.9833 18.5945 22.1164 18.7047C22.2494 18.815 22.4033 18.8972 22.5689 18.9465L22.6961 18.9963V19.1345C22.7103 19.4171 22.817 19.6872 22.9999 19.9031C23.1828 20.119 23.4317 20.2687 23.7082 20.329C23.8685 20.1631 24.0123 20.0138 24.1229 19.8866C24.0264 19.692 23.9948 19.4715 24.0326 19.2576C24.0704 19.0436 24.1757 18.8474 24.3331 18.6976C24.2883 19.023 24.3411 19.3544 24.4849 19.6498C24.6286 19.9451 24.8568 20.1911 25.1405 20.3567L25.2953 20.4286L25.2511 20.5945C25.1505 20.918 25.1797 21.2679 25.3325 21.5703C25.4852 21.8727 25.7495 22.1038 26.0696 22.2148L26.2742 22.2923L26.1857 22.4914C26.0539 22.7912 26.0419 23.13 26.1519 23.4385C26.2619 23.7469 26.4857 24.0016 26.7774 24.1504H29.078V22.3254C28.7647 22.285 28.473 22.144 28.2466 21.9236C28.0202 21.7032 27.8715 21.4154 27.8226 21.1033C27.4776 21.0578 27.1639 20.8792 26.9489 20.6056C26.8137 20.4277 26.7356 20.2132 26.7247 19.9901C26.7138 19.767 26.7708 19.5458 26.888 19.3557C26.8932 19.7256 27.0282 20.0819 27.2696 20.3622C27.4687 20.5689 27.7358 20.6966 28.0217 20.7217H28.1876V20.8931C28.204 21.1331 28.2982 21.3612 28.4559 21.5428C28.6135 21.7244 28.8261 21.8497 29.0614 21.8996V18.2165C29.0825 17.633 29.208 17.058 29.4319 16.5187H24.7534Z" fill="white"/>
<path d="M18.5649 18.2276L18.4985 20.6056L18.7695 20.6443L19.4331 18.3658L19.0958 17.6635L18.5649 18.2276Z" fill="white"/>
<path d="M25.8426 29.1221H25.909C26.3182 29.2382 26.4233 30.7203 27.1422 30.853C27.2065 30.8597 27.2714 30.8597 27.3358 30.853C27.4278 30.8535 27.5185 30.831 27.5996 30.7875C27.6807 30.744 27.7497 30.681 27.8003 30.6042C27.8003 30.6042 27.4353 30.0512 27.1643 29.6474C26.8049 29.1442 26.5228 28.5414 25.8537 28.5414H25.8039C25.6749 28.5467 25.5501 28.589 25.4444 28.6631C25.2208 28.5167 24.9596 28.4379 24.6923 28.4363C24.383 28.4736 24.0776 28.5384 23.7798 28.6299L22.2811 28.4806C22.0798 28.4321 21.9052 28.3072 21.7945 28.1322V28.0935C21.7945 28.0547 21.7945 28.0105 21.7945 27.9718C21.8051 27.5701 21.6782 27.1768 21.4348 26.857C21.1915 26.5372 20.8462 26.3101 20.4562 26.2132C20.4562 26.2132 20.4949 25.9809 20.4064 25.8924L20.0746 26.2906L18.9686 25.7376L19.7428 26.639L19.0902 27.3745C19.0582 27.4054 19.0371 27.4458 19.0301 27.4897C19.0231 27.5336 19.0306 27.5786 19.0515 27.6179L19.3335 27.8667L19.693 27.651C19.722 27.643 19.7525 27.643 19.7815 27.651C19.881 27.651 20.0304 27.651 20.1631 27.651C20.2958 27.651 20.4341 27.6179 20.4506 27.4851C20.4064 27.9386 19.9861 28.7294 20.2626 29.3488L20.4617 29.8631L19.14 29.6751L18.5206 30.7203C18.4235 30.8542 18.368 31.0137 18.3611 31.179C18.3542 31.3443 18.3962 31.5079 18.4819 31.6494L18.7142 31.937C18.8747 31.7743 19.009 31.5877 19.1123 31.3839L19.0073 31.2678C18.969 31.2311 18.9451 31.1819 18.94 31.1292C18.9349 31.0764 18.949 31.0235 18.9796 30.9802L19.3667 30.3332L20.9318 30.7037L21.0147 30.5655C21.0577 30.4919 21.1202 30.4317 21.1955 30.3916C21.2707 30.3516 21.3555 30.3333 21.4406 30.3387C21.5123 30.3331 21.5844 30.3331 21.6562 30.3387C22.066 30.4215 22.4825 30.4659 22.9005 30.4714C23.1366 30.4956 23.3752 30.4724 23.6021 30.403C23.8291 30.3337 24.04 30.2197 24.2222 30.0677C24.7753 30.9083 25.9366 31.0411 25.8426 31.4669L25.5384 32.9047C25.7375 32.9047 25.9311 32.9047 26.0915 32.855L26.379 31.3618C26.4122 31.2014 26.4399 30.9802 26.4399 30.9802C26.2241 30.7977 26.0376 30.5833 25.8868 30.3443C25.6822 29.9571 25.7928 29.7525 25.6048 29.2382C25.6232 29.2041 25.6503 29.1754 25.6833 29.155C25.7163 29.1346 25.7541 29.1233 25.7928 29.1221H25.8426ZM19.9419 27.0206C19.9239 27.0199 19.9063 27.0156 19.8901 27.0079C19.8739 27.0002 19.8594 26.9894 19.8475 26.9759C19.8356 26.9625 19.8266 26.9468 19.8209 26.9297C19.8153 26.9127 19.8132 26.8947 19.8147 26.8768C19.8154 26.8589 19.8197 26.8413 19.8274 26.8251C19.835 26.8088 19.8459 26.7944 19.8594 26.7825C19.8728 26.7706 19.8885 26.7615 19.9055 26.7559C19.9226 26.7502 19.9406 26.7481 19.9585 26.7496C19.9944 26.7496 20.0289 26.7639 20.0543 26.7893C20.0797 26.8147 20.0939 26.8492 20.0939 26.8851C20.0939 26.921 20.0797 26.9555 20.0543 26.9809C20.0289 27.0063 19.9944 27.0206 19.9585 27.0206" fill="white"/>
<path d="M17.857 30.4825C17.857 30.4825 18.3768 30.2668 18.41 30.1175L18.3436 29.9461C18.3155 29.898 18.3056 29.8413 18.3157 29.7865C18.3259 29.7316 18.3554 29.6823 18.3989 29.6475L18.952 29.2603L19.8866 29.4373C19.7814 29.2952 19.7269 29.1219 19.7317 28.9451L18.8579 28.7571L18.0173 29.2714C17.8707 29.3807 17.7649 29.5359 17.7168 29.7123C17.6687 29.8887 17.6811 30.0761 17.7519 30.2447L17.857 30.4825Z" fill="white"/>
<path d="M24.4658 32.9213H25.0188C25.0188 32.9213 25.5 31.5167 25.5276 31.4724C25.1702 31.3057 24.8213 31.1211 24.4824 30.9194C24.6262 31.1351 24.9746 31.3784 24.9027 31.5664L24.4658 32.9213Z" fill="white"/>
<path d="M29.0445 24.5818H15.772V29.559C15.772 31.6051 17.2485 32.8771 19.433 32.8771C21.2579 32.8771 21.7391 32.949 22.4138 33.6237C22.625 33.3958 22.882 33.2149 23.1679 33.093C23.4537 32.971 23.7621 32.9106 24.0728 32.9158V32.8384L24.4931 31.5443L23.7797 30.7646C23.4932 30.8509 23.1937 30.8865 22.8949 30.8696C22.4492 30.8646 22.0048 30.8183 21.5676 30.7314H21.4294C21.3685 30.7314 21.3685 30.7314 21.352 30.7646L21.269 30.9028L21.1197 31.1517L20.8321 31.0853L19.5546 30.7867L19.3777 31.0742V31.1074L19.5325 31.2789L19.4662 31.5001C19.35 31.7708 19.1829 32.0168 18.974 32.2245L18.6532 32.5674L18.3601 32.2024L18.1444 31.9314C18.0306 31.7821 17.9567 31.6063 17.9296 31.4206C17.9025 31.2348 17.9232 31.0452 17.9896 30.8696L17.6301 31.0189L17.4697 30.665L17.3813 30.4161C17.2722 30.1623 17.2527 29.8789 17.3261 29.6126C17.3994 29.3462 17.5613 29.1128 17.785 28.9506L18.8136 28.3976L19.7924 28.5912C19.7924 28.4972 19.8533 28.1598 19.8809 28.0769H19.8256L19.2726 28.287L18.7196 27.911C18.6925 27.8842 18.671 27.8524 18.6563 27.8172C18.6416 27.7821 18.6341 27.7444 18.6341 27.7063C18.6341 27.6683 18.6416 27.6306 18.6563 27.5955C18.671 27.5603 18.6925 27.5285 18.7196 27.5017L19.2449 26.7054L17.9122 25.0463L19.9086 25.8316L20.0468 25.6657L20.3233 25.3339L20.6386 25.6325C20.7218 25.7138 20.7794 25.8176 20.8045 25.9311C21.3575 26.1524 22.3806 26.7994 22.4635 27.8501L22.1483 27.9773C22.1863 28.0318 22.2378 28.0756 22.2976 28.1045L23.7576 28.2483L23.8903 28.2096C24.14 28.1162 24.4036 28.0657 24.6701 28.0603C24.9344 28.0621 25.1951 28.1225 25.4333 28.2372C25.54 28.1989 25.6518 28.1765 25.7651 28.1709H25.837C26.6167 28.1709 27.0094 28.7571 27.3191 29.2216L27.4794 29.4539C27.7504 29.841 28.1099 30.4051 28.1265 30.4272L28.2868 30.6761L28.0878 30.9083C27.9967 31.0272 27.8795 31.1235 27.7452 31.1896C27.611 31.2558 27.4632 31.2901 27.3135 31.2899C27.2252 31.2982 27.1364 31.2982 27.0481 31.2899C26.9683 31.2742 26.8905 31.2501 26.8158 31.218C26.8158 31.2955 26.8158 31.3895 26.7716 31.4669L26.5448 32.772C27.2738 32.6252 27.9265 32.2233 28.3857 31.6384C28.8449 31.0535 29.0804 30.3241 29.05 29.5811L29.0445 24.5818Z" fill="#FCE527"/>
<path d="M15.7558 24.1781H26.0917C25.8851 23.9612 25.7411 23.6925 25.6749 23.4004C25.6087 23.1083 25.6228 22.8037 25.7157 22.519C25.5758 22.4521 25.4455 22.3665 25.3286 22.2646C24.9249 22.5632 23.6695 23.4591 23.3709 23.6859L23.3045 23.7301L19.2453 23.0112H19.1624C19.0298 23.019 18.8968 23.019 18.7642 23.0112C18.7453 23.0985 18.6972 23.1768 18.6279 23.2331C18.5585 23.2894 18.472 23.3204 18.3826 23.3209H18.3163C18.2118 23.3032 18.1184 23.2452 18.0564 23.1593C17.9943 23.0735 17.9685 22.9666 17.9845 22.8619V22.7734C17.7284 22.5889 17.5318 22.3335 17.4188 22.0388C17.3058 21.7441 17.2814 21.4228 17.3485 21.1143V21.0424L17.4093 20.9982C17.4093 20.9982 17.4867 20.9429 17.5918 20.8821L17.2987 20.8378C17.2462 20.8284 17.1996 20.7988 17.1686 20.7554C17.1376 20.712 17.1247 20.6583 17.1328 20.6056C17.1368 20.5792 17.1461 20.554 17.16 20.5313C17.1739 20.5087 17.1922 20.489 17.2139 20.4736C17.2356 20.4581 17.2601 20.4471 17.286 20.4413C17.312 20.4355 17.3389 20.4349 17.3651 20.4396L18.0674 20.5503L18.1338 18.0782L19.179 16.9722L19.8315 18.3437L19.1458 20.7217L19.7652 20.8212C19.8176 20.8307 19.8643 20.8603 19.8953 20.9037C19.9263 20.947 19.9391 21.0008 19.9311 21.0535C19.9232 21.1004 19.8987 21.1429 19.8622 21.1733C19.8257 21.2037 19.7795 21.2201 19.732 21.2194H19.6988L19.1956 21.1365V21.1752C19.2515 21.2739 19.3364 21.3531 19.4389 21.4019L22.5303 21.4517L23.3211 20.6719C23.0258 20.5698 22.7653 20.3864 22.5696 20.1428C22.3739 19.8992 22.251 19.6053 22.2151 19.2949C21.8299 19.1475 21.5154 18.8587 21.3358 18.4875C21.1857 18.1379 21.1603 17.7475 21.2639 17.3814C20.7769 17.1906 20.3373 16.8962 19.9753 16.5187H15.3853C15.6074 17.0586 15.7328 17.6332 15.7558 18.2165V24.1781Z" fill="#FCE527"/>
<path d="M20.0085 26.7496C19.9906 26.7481 19.9726 26.7502 19.9556 26.7559C19.9386 26.7615 19.9229 26.7706 19.9094 26.7825C19.896 26.7944 19.8851 26.8088 19.8774 26.8251C19.8697 26.8413 19.8654 26.8589 19.8647 26.8768C19.8632 26.8947 19.8654 26.9127 19.871 26.9297C19.8766 26.9468 19.8857 26.9625 19.8976 26.9759C19.9095 26.9894 19.924 27.0002 19.9402 27.0079C19.9564 27.0156 19.974 27.0199 19.9919 27.0206C20.0279 27.0206 20.0623 27.0063 20.0877 26.9809C20.1131 26.9555 20.1274 26.921 20.1274 26.8851C20.1274 26.8492 20.1131 26.8147 20.0877 26.7893C20.0623 26.7639 20.0279 26.7496 19.9919 26.7496" fill="#222220"/>
<path d="M29.0281 35.8192L28.265 35.5261L28.4751 34.7352L28.7074 33.8725C27.6624 34.4071 26.5677 34.8387 25.439 35.1611C24.886 35.3159 24.4878 35.3878 24.4878 35.3878V35.9464C23.8075 36.0568 23.1198 36.116 22.4306 36.1233H22.3698C21.6806 36.1161 20.9929 36.0569 20.3125 35.9464V35.3933C20.3125 35.3933 19.9088 35.3159 19.3558 35.1611C18.227 34.8389 17.1324 34.4073 16.0875 33.8725L16.3142 34.7352L16.5299 35.5261L15.7612 35.8192L14.9316 36.1344C16.0724 36.7262 17.2621 37.2184 18.4876 37.6054L18.1945 38.4018C19.5297 38.9126 20.9516 39.1587 22.3808 39.1262H22.414C23.8433 39.159 25.2652 38.9129 26.6004 38.4018L26.3128 37.6054C27.5367 37.219 28.7247 36.7268 29.8632 36.1344L29.0281 35.8192ZM15.8331 36.1897L17.094 35.7694L16.7234 34.5527C17.5348 34.9572 18.3783 35.2938 19.2452 35.5592L18.6369 37.2183C17.6722 36.9623 16.7349 36.6123 15.8386 36.1731L15.8331 36.1897ZM22.403 38.7115C21.1866 38.7048 19.9763 38.5394 18.8028 38.2193L19.5494 36.1952C20.4809 36.4294 21.437 36.5519 22.3974 36.5602H22.4583C23.4187 36.5514 24.3747 36.4289 25.3063 36.1952L26.0529 38.2193C24.8733 38.549 23.6554 38.7219 22.4306 38.7336L22.403 38.7115ZM26.2022 37.2349L25.5939 35.5758C26.4608 35.3105 27.3043 34.9739 28.1157 34.5693L27.7451 35.786L29.0005 36.2063C28.1044 36.6459 27.1671 36.996 26.2022 37.2515" fill="#222220"/>
<path d="M22.3975 4.25273C23.6476 4.21867 24.8748 4.59341 25.8926 5.32006C26.0511 4.49971 26.3565 3.71473 26.794 3.0029L25.5387 3.14669L24.8861 1.74755L23.6197 2.40011L22.3975 1.189L21.1753 2.40011L19.9089 1.74755L19.2563 3.14669L18.001 3.0029C18.4388 3.71457 18.7442 4.49961 18.9024 5.32006C19.9206 4.59414 21.1475 4.21948 22.3975 4.25273ZM19.201 3.63335L19.5494 3.67206L19.6988 3.35684L20.1356 2.4167L20.9486 2.837L21.2638 2.99737L21.5182 2.7651L22.3975 1.87474L23.2768 2.7651L23.5312 3.01396L23.8464 2.85359L24.6538 2.43329L25.0962 3.37343L25.2456 3.68865L25.594 3.64994L25.9258 3.61123C25.7916 3.917 25.6771 4.23102 25.5829 4.55136C24.5979 4.04665 23.507 3.78344 22.4003 3.78344C21.2935 3.78344 20.2026 4.04665 19.2176 4.55136C19.1228 4.23122 19.0083 3.91724 18.8748 3.61123L19.201 3.63335Z" fill="#222220"/>
<path d="M40.6803 20.5945C42.6933 20.5945 43.368 18.5428 43.3957 18.4543L43.6224 17.7298H42.8648C42.078 17.7026 41.3066 17.5039 40.6045 17.1476C39.9024 16.7913 39.2866 16.286 38.8001 15.6671L38.6508 15.4846C37.6221 14.1739 36.6433 12.9296 34.8957 12.36C34.965 12.299 35.039 12.2435 35.1169 12.1941C35.5274 11.9621 35.883 11.6444 36.1597 11.2627C36.4365 10.881 36.6278 10.4442 36.7207 9.98203C36.8153 9.1368 36.5773 8.28792 36.0571 7.6151L35.5041 6.92382L35.1557 7.74782C35.1557 7.79759 34.5418 9.11931 33.303 9.11931H33.1814H32.938C32.9717 8.68939 32.9121 8.25726 32.7632 7.85254C32.6143 7.44782 32.3796 7.08008 32.0753 6.77451C31.7053 6.3964 31.2629 6.09674 30.7745 5.89341C30.2862 5.69007 29.7618 5.58724 29.2328 5.59104C29.0347 5.59022 28.8369 5.60502 28.6411 5.63528L27.795 5.80119L28.3203 6.49246C28.7296 7.04549 29.1001 8.00221 28.6632 8.51652C28.4538 8.69858 28.2143 8.84269 27.9553 8.94235C27.4023 9.20227 26.606 9.57279 26.606 10.5019C26.606 11.1047 27.076 11.7351 27.9221 12.2715C30.4163 13.8532 31.9592 15.4846 32.6284 17.3206C33.6625 20.1189 32.3131 21.7116 31.0025 22.5522L30.4163 22.9282L30.9306 23.3983C31.3888 23.791 31.9561 24.0341 32.5565 24.0951C32.7334 24.0951 32.8993 24.0951 33.0597 24.0951C33.573 24.097 34.0837 24.0224 34.575 23.8739C34.4511 24.0901 34.3067 24.2938 34.1436 24.4822C33.7749 24.9105 33.3132 25.2488 32.7937 25.4711C32.2741 25.6935 31.7106 25.7941 31.1463 25.7652H30.6541L30.6154 26.2574C30.6132 26.5982 30.6859 26.9353 30.8283 27.2449C30.9706 27.5545 31.1793 27.8291 31.4394 28.0492C31.5773 28.1702 31.7319 28.2708 31.8984 28.3478C31.4934 28.7429 31.1701 29.2139 30.9471 29.7339C30.7241 30.2538 30.6058 30.8127 30.5988 31.3784C30.5979 32.0047 30.4561 32.6227 30.184 33.1868L29.631 34.0163H30.6154C32.2412 34.0163 33.4855 33.5702 34.3482 32.678C34.7958 32.2071 35.1288 31.6394 35.3216 31.0189C35.6413 31.2881 36.0204 31.4777 36.4276 31.572C36.6216 31.6168 36.8202 31.639 37.0193 31.6383C37.3173 31.6375 37.6143 31.6022 37.9042 31.5332L38.5346 31.3673L38.2581 30.7811C37.9108 29.8445 37.9108 28.8144 38.2581 27.8778C38.463 27.267 38.6057 26.637 38.6839 25.9975C39.1821 26.2511 39.7343 26.3802 40.2932 26.3736C40.7435 26.3801 41.1882 26.2725 41.5857 26.0607C41.9831 25.8489 42.3204 25.5399 42.5661 25.1624L42.8703 24.6094L42.3173 24.3772C40.4647 23.6085 40.0554 21.5402 39.9725 20.4231C40.1547 20.46 40.3397 20.4822 40.5255 20.4894L40.6803 20.5945ZM42.1514 24.9744C41.957 25.2677 41.6921 25.5074 41.3809 25.6717C41.0698 25.8359 40.7224 25.9194 40.3706 25.9146C39.9736 25.9381 39.5766 25.8672 39.2123 25.7076C38.848 25.548 38.5266 25.3043 38.2747 24.9965C38.2909 25.938 38.1373 26.8747 37.8212 27.7616C37.4179 28.8309 37.4179 30.0105 37.8212 31.0798C37.5751 31.1406 37.3226 31.1721 37.0691 31.1738C36.9126 31.1749 36.7565 31.1564 36.6046 31.1185C36.2441 31.0325 35.9115 30.8558 35.6386 30.6051C35.3656 30.3544 35.1613 30.0381 35.0451 29.6862C35.0451 29.6862 35.1612 33.5241 30.6873 33.5241H30.6541C30.9937 32.884 31.1685 32.1694 31.1628 31.4448C31.3564 28.6078 33.2809 28.2041 33.2809 28.2041C32.7524 28.1371 32.2468 27.9478 31.8044 27.651C31.6056 27.4836 31.445 27.2756 31.3334 27.0409C31.2218 26.8063 31.1618 26.5504 31.1573 26.2906C31.7964 26.3185 32.4335 26.2012 33.0207 25.9473C33.6079 25.6935 34.1298 25.3098 34.5473 24.8251C35.0541 24.2437 35.3959 23.5371 35.5372 22.7789C34.8229 23.3137 33.9457 23.5852 33.0542 23.5476C32.9104 23.5476 32.7555 23.5476 32.6007 23.5476C32.118 23.5 31.661 23.3072 31.29 22.9946C32.9933 21.8886 34.1879 19.9972 33.1316 17.1271C32.28 14.8265 30.2393 13.1066 28.1876 11.8125C27.5074 11.3922 27.0981 10.9166 27.0981 10.5074C27.0981 9.54514 28.4641 9.51749 29.0282 8.84833C29.6752 8.09623 29.2715 6.87958 28.7074 6.14959C28.8681 6.12192 29.031 6.10896 29.1941 6.11088C29.6513 6.10641 30.1047 6.19478 30.5267 6.37064C30.9488 6.5465 31.3307 6.80618 31.6495 7.13397C31.9691 7.43847 32.1989 7.82485 32.314 8.251C32.429 8.67715 32.4249 9.1267 32.3021 9.55067L32.6007 9.6115C32.7833 9.64463 32.9682 9.66313 33.1537 9.6668H33.2754C34.8957 9.6668 35.6257 7.96903 35.6257 7.96903C35.6257 7.96903 37.3512 10.0926 34.8128 11.7517C34.3759 12.0337 34.1823 12.3047 34.2598 12.5812L34.2985 12.7637L34.481 12.7969C36.3225 13.2946 37.2461 14.5666 38.3908 16.01C38.9268 16.6905 39.6048 17.2459 40.3775 17.6376C41.1502 18.0292 41.999 18.2475 42.8648 18.2773H42.898C42.898 18.2773 42.3449 20.0359 40.6859 20.0359H40.6084C40.2048 20.0406 39.808 19.9314 39.4637 19.7207C39.4637 19.7207 39.1706 23.7191 42.1514 24.9578" fill="#222220"/>
<path d="M37.1356 12.6089C37.7559 12.9606 38.2934 13.4415 38.7117 14.0191C39.0256 14.5064 39.4755 14.8909 40.0057 15.1251C40.2071 15.1926 40.4183 15.2262 40.6306 15.2247C41.0463 15.2234 41.4535 15.1076 41.8076 14.8901C42.1618 14.6725 42.4491 14.3616 42.6381 13.9914L42.9589 13.2725L42.1791 13.2283C41.3403 13.0759 40.5791 12.6407 40.0223 11.995C39.8172 11.7723 39.5685 11.5941 39.2917 11.4714C39.0149 11.3486 38.7158 11.2841 38.413 11.2816C37.9398 11.289 37.4781 11.4289 37.0803 11.6853L36.3613 12.1886L37.1356 12.6089ZM38.413 11.8236C38.645 11.8248 38.874 11.8747 39.0855 11.9699C39.297 12.0652 39.4861 12.2037 39.6407 12.3766C40.2902 13.116 41.1752 13.6083 42.1459 13.7702C41.9983 14.0441 41.7797 14.2733 41.5132 14.4339C41.2466 14.5944 40.9418 14.6803 40.6306 14.6827C40.4744 14.6829 40.3192 14.6567 40.1716 14.6053C39.2757 14.3011 38.9605 12.9462 37.4065 12.1277C37.712 11.9311 38.0664 11.8238 38.4296 11.8181" fill="#222220"/>
<path d="M37.4895 19.7263C37.036 16.0763 34.387 13.4384 31.4394 11.8402C31.1684 11.6909 30.9141 11.5692 30.6707 11.4531C31.2723 11.5754 31.8931 11.5661 32.4907 11.4258C33.0883 11.2855 33.6485 11.0174 34.1326 10.6401C34.1326 10.6401 32.4238 11.8955 28.9287 10.7563C29.8965 11.3867 31.7768 12.2715 33.4967 13.7094C37.7881 17.481 34.7188 21.1641 34.7188 21.1641C35.3459 20.5671 35.7882 19.8025 35.9931 18.9613C36.198 18.1201 36.1569 17.2377 35.8747 16.4192C36.7813 17.9295 37.2164 19.676 37.1245 21.4351C37.0028 24.3329 35.3935 26.8657 33.7345 28.8843C33.2342 29.5198 32.8963 30.2677 32.7501 31.0632C33.0328 30.2739 33.4605 29.5443 34.011 28.9119C35.8083 26.8049 37.3291 24.6205 37.5448 21.4738C37.7328 22.0268 38.496 23.6361 39.7126 24.2389C39.7126 24.2389 38.1863 23.3209 37.5005 19.7373" fill="#222220"/>
<path d="M14.6052 33.2255C14.3371 32.66 14.1956 32.0429 14.1905 31.4171C14.1827 30.851 14.0635 30.2919 13.8396 29.7719C13.6156 29.2519 13.2914 28.7812 12.8853 28.3866C13.052 28.3098 13.2066 28.2092 13.3444 28.0879C13.6048 27.868 13.8136 27.5935 13.956 27.2838C14.0984 26.9742 14.1709 26.637 14.1684 26.2961L14.1352 25.804H13.6375C13.074 25.832 12.5116 25.731 11.9931 25.5086C11.4746 25.2863 11.0137 24.9485 10.6456 24.5209C10.4834 24.3319 10.339 24.1282 10.2143 23.9126C10.7055 24.0615 11.2162 24.136 11.7295 24.1338C11.8899 24.1338 12.0558 24.1338 12.2328 24.1338C12.835 24.0735 13.4043 23.8304 13.8642 23.437L14.3785 22.967L13.7923 22.5909C12.4761 21.7503 11.1323 20.1576 12.1664 17.3593C12.8356 15.5399 14.3785 13.8974 16.8947 12.3158C17.7409 11.7628 18.2054 11.1489 18.2054 10.5461C18.2054 9.61703 17.4256 9.24651 16.856 8.98659C16.5969 8.88734 16.3573 8.74319 16.1482 8.56076C15.7058 8.04645 16.0763 7.06761 16.491 6.53671L17.0441 5.84543L16.1924 5.67953C15.9967 5.64905 15.7988 5.63426 15.6007 5.63528C15.0683 5.61982 14.5383 5.71284 14.0429 5.90869C13.5476 6.10454 13.0973 6.39912 12.7194 6.77451C12.4097 7.07847 12.1697 7.44605 12.016 7.85185C11.8623 8.25764 11.7985 8.69198 11.8291 9.12484H11.5857H11.4973C10.253 9.12484 9.66676 7.80866 9.64464 7.75335L9.29624 6.92935L8.74322 7.62063C8.2291 8.29635 7.99358 9.14344 8.08512 9.98756C8.17673 10.4495 8.36694 10.8863 8.64276 11.2681C8.91858 11.6498 9.27352 11.9676 9.68336 12.1996C9.76158 12.2487 9.83557 12.3042 9.90456 12.3655C8.15702 12.9186 7.17817 14.1795 6.14955 15.4901L6.00024 15.6781C5.51309 16.2978 4.89638 16.8035 4.19331 17.1598C3.49023 17.5161 2.71777 17.7144 1.93 17.7409H1.17236L1.40463 18.4654C1.40463 18.5538 2.10144 20.6056 4.11996 20.6056H4.21951C4.40531 20.598 4.59022 20.5758 4.77253 20.5392C4.68958 21.6452 4.28034 23.7246 2.42219 24.4933L1.86917 24.7256L2.17333 25.2786C2.41902 25.656 2.75635 25.9651 3.15381 26.1769C3.55128 26.3886 3.99593 26.4963 4.44625 26.4897C5.0033 26.4952 5.55346 26.3662 6.05001 26.1136C6.12779 26.7532 6.27047 27.3832 6.47583 27.9939C6.82315 28.9305 6.82315 29.9606 6.47583 30.8973L6.19932 31.4835L6.82977 31.6494C7.11968 31.7183 7.41659 31.7536 7.7146 31.7545C7.91375 31.7554 8.11233 31.7331 8.30633 31.6881C8.7137 31.5942 9.09284 31.4046 9.41237 31.1351C9.60494 31.7556 9.93801 32.3233 10.3857 32.7941C11.2521 33.6827 12.4964 34.1288 14.1186 34.1324H15.103L14.6052 33.2255ZM14.1296 33.5352C9.6557 33.5352 9.76631 29.6972 9.76631 29.6972C9.65005 30.0491 9.44573 30.3655 9.17278 30.6161C8.89982 30.8668 8.56729 31.0436 8.20679 31.1295C8.05493 31.1677 7.89882 31.1863 7.74225 31.1848C7.49056 31.183 7.23997 31.1514 6.99567 31.0908C7.3975 30.0213 7.3975 28.8422 6.99567 27.7727C6.68185 26.8853 6.53012 25.9487 6.54773 25.0076C6.29579 25.3154 5.97447 25.5591 5.61014 25.7186C5.2458 25.8782 4.84883 25.9491 4.45178 25.9256H4.42413C4.0709 25.9308 3.72206 25.8469 3.40984 25.6816C3.09763 25.5163 2.83213 25.275 2.63787 24.9799C5.61865 23.7412 5.32555 19.7428 5.32555 19.7428C4.98109 19.9532 4.5844 20.0625 4.1808 20.0581H4.11996C2.4609 20.0581 1.90788 18.2995 1.90788 18.2995H1.94106C2.80739 18.2715 3.65715 18.0545 4.43089 17.6638C5.20463 17.2731 5.88367 16.7181 6.42053 16.0376C7.55975 14.5942 8.48883 13.3223 10.3304 12.8246L10.5129 12.7914L10.5516 12.6089C10.6014 12.3268 10.4078 12.0559 9.99858 11.7793C7.46021 10.1203 9.18564 7.99668 9.18564 7.99668C9.18564 7.99668 9.90456 9.69446 11.536 9.69446H11.6134C11.7989 9.69048 11.9838 9.67199 12.1664 9.63915L12.4651 9.57832C12.3416 9.1544 12.3371 8.70468 12.4522 8.27841C12.5673 7.85214 12.7975 7.46577 13.1176 7.16162C13.4364 6.83383 13.8184 6.57415 14.2404 6.39829C14.6625 6.22243 15.1158 6.13406 15.573 6.13853C15.7361 6.13649 15.899 6.14945 16.0597 6.17724C15.5067 6.91276 15.0974 8.12941 15.7445 8.87598C16.2975 9.52302 17.669 9.55067 17.669 10.535C17.669 10.9443 17.2874 11.4199 16.6072 11.8457C14.5499 13.1398 12.5093 14.8597 11.6632 17.1602C10.6069 20.0304 11.8014 21.9383 13.5047 23.0278C13.1334 23.3397 12.6766 23.5325 12.1941 23.5808C12.0337 23.5808 11.8844 23.5808 11.7351 23.5808C10.8435 23.6184 9.96635 23.3469 9.252 22.8121C9.39303 23.5693 9.73275 24.2755 10.2364 24.8583C10.6552 25.3428 11.1782 25.7262 11.7663 25.98C12.3543 26.2338 12.9921 26.3513 13.6319 26.3238C13.6275 26.5836 13.5674 26.8395 13.4558 27.0741C13.3442 27.3088 13.1836 27.5168 12.9849 27.6842C12.5423 27.9808 12.0368 28.1701 11.5083 28.2372C11.5083 28.2372 13.4384 28.6299 13.6485 31.4779C13.6437 32.2024 13.8185 32.9169 14.1573 33.5573L14.1296 33.5352Z" fill="#222220"/>
<path d="M4.164 15.2191C4.37636 15.2206 4.5875 15.1869 4.78891 15.1196C5.31931 14.8856 5.76929 14.501 6.08298 14.0135C6.49966 13.4366 7.03523 12.9557 7.65356 12.6033L8.42779 12.1886L7.70886 11.6853C7.31289 11.4293 6.85307 11.2895 6.38161 11.2816C6.07842 11.2848 5.77911 11.3502 5.50227 11.4739C5.22543 11.5976 4.97697 11.7768 4.77232 12.0006C4.21671 12.6448 3.45773 13.0798 2.62107 13.2338L1.84131 13.2725L2.15653 13.9914C2.34586 14.3597 2.63267 14.669 2.98568 14.8855C3.33869 15.1019 3.74436 15.2174 4.15847 15.2191H4.164ZM5.14837 12.3766C5.30299 12.2037 5.49213 12.0652 5.7036 11.9699C5.91507 11.8747 6.14415 11.8248 6.37608 11.8236C6.73739 11.8306 7.08966 11.9379 7.39364 12.1333C5.82859 12.9683 5.50231 14.3066 4.62853 14.6108C4.48292 14.6624 4.32953 14.6886 4.17506 14.6882C3.86133 14.6879 3.5536 14.6023 3.28475 14.4406C3.01591 14.2789 2.79606 14.0472 2.64872 13.7702C3.6196 13.6087 4.50471 13.1164 5.1539 12.3766" fill="#222220"/>
<path d="M7.6814 21.4572C7.58569 19.6978 8.02115 17.9502 8.93123 16.4413C8.64831 17.2597 8.60686 18.1423 8.8118 18.9836C9.01674 19.825 9.45943 20.5896 10.087 21.1862C10.087 21.1862 7.01224 17.5031 11.3092 13.7315C13.0291 12.2937 14.9039 11.4088 15.8716 10.7784C12.3765 11.9176 10.6677 10.6622 10.6677 10.6622C11.1511 11.0391 11.7102 11.3069 12.3069 11.4472C12.9035 11.5876 13.5234 11.5971 14.1241 11.4752C13.8808 11.5913 13.6264 11.7185 13.3554 11.8623C10.4078 13.4661 7.74223 16.104 7.30535 19.7539V19.7263C6.6196 23.3098 5.09326 24.2278 5.09326 24.2278C6.30438 23.6306 7.07308 22.0158 7.25557 21.4627C7.46019 24.615 8.99759 26.7994 10.7949 28.9009C11.3443 29.5341 11.7718 30.2634 12.0558 31.0521C11.9046 30.2595 11.563 29.5155 11.0604 28.8843C9.40129 26.8658 7.79753 24.3329 7.6814 21.4572Z" fill="#222220"/>
<path d="M21.3853 14.0744V14.7988C21.4816 14.7055 21.5978 14.6351 21.7252 14.593C21.8525 14.5508 21.9878 14.538 22.1208 14.5555V15.6007C22.1165 15.8586 22.0481 16.1114 21.9217 16.3362H22.9669C22.8416 16.111 22.7732 15.8585 22.7678 15.6007V14.5555C22.8999 14.5389 23.0341 14.5521 23.1604 14.5942C23.2868 14.6364 23.4021 14.7063 23.4978 14.7988V14.0744H21.3853Z" fill="#222220"/>
<path d="M20.9375 9.78294C21.0997 9.92272 21.2875 10.0298 21.4905 10.0982L21.6232 10.159V9.47325L20.3955 8.95894C20.4253 9.12721 20.4898 9.28742 20.5851 9.4293C20.6803 9.57119 20.8041 9.69164 20.9485 9.78294" fill="#222220"/>
<path d="M23.8573 9.78294C24.0018 9.69164 24.1256 9.57119 24.2208 9.42931C24.316 9.28742 24.3806 9.12721 24.4103 8.95894L23.1826 9.47325V10.1535L23.3098 10.0926C23.5128 10.0242 23.7006 9.91719 23.8628 9.77741" fill="#222220"/>
<path d="M26.0637 7.00677C26.0637 5.97263 24.3217 5.04355 22.4027 5.04355C20.4837 5.04355 18.7417 5.97263 18.7417 7.00677L18.7804 7.26116L19.5491 11.6853L18.7804 12.1333L16.7729 13.2725C16.7729 13.2725 16.325 13.5048 16.1148 13.643C15.3572 14.196 15.1968 14.9371 15.6337 15.2578C15.6877 14.8935 15.8735 14.5617 16.1558 14.3252C16.4382 14.0888 16.7974 13.9641 17.1656 13.9748C17.4793 13.9837 17.7866 14.0665 18.0623 14.2164C18.3381 14.3663 18.5746 14.5791 18.7527 14.8376C18.861 14.9712 18.9608 15.1116 19.0514 15.2578C19.1675 15.4459 19.2836 15.6118 19.3998 15.7722H14.2788C14.7096 16.5151 14.9614 17.3482 15.0143 18.2054V29.5811C15.0143 32.3462 17.1324 33.6458 19.4385 33.6458C21.2082 33.6458 21.446 33.5628 22.4193 34.5362C23.3926 33.5628 23.6304 33.6458 25.4001 33.6458C27.6896 33.6458 29.8242 32.3351 29.8242 29.5811V18.2165C29.8771 17.3593 30.129 16.5262 30.5597 15.7832H25.3835C25.4996 15.6228 25.6157 15.4569 25.7319 15.2689C25.8238 15.1235 25.9235 14.9832 26.0305 14.8486C26.2095 14.5897 26.447 14.3767 26.7237 14.2268C27.0004 14.0769 27.3086 13.9944 27.6232 13.9859C27.9913 13.9751 28.3506 14.0998 28.633 14.3363C28.9153 14.5728 29.1011 14.9046 29.1551 15.2689C29.5975 14.9537 29.4371 14.1629 28.6739 13.6541C28.4693 13.5103 28.0214 13.2836 28.0214 13.2836L26.0305 12.1112L25.2618 11.6632L26.0305 7.23904L26.0637 7.00677ZM19.4827 7.51555L22.1815 8.42804V12.6642L20.1961 11.6134L19.4827 7.51555ZM20.0358 16.5187C20.3976 16.8964 20.8373 17.1907 21.3243 17.3814C21.2208 17.7475 21.2461 18.138 21.3962 18.4875C21.5759 18.8587 21.8903 19.1475 22.2755 19.2949C22.3115 19.6053 22.4344 19.8992 22.63 20.1428C22.8257 20.3864 23.0862 20.5698 23.3815 20.6719C23.0497 21.0093 22.7234 21.3245 22.5907 21.4517L19.4993 21.4019C19.3969 21.3531 19.3119 21.2739 19.256 21.1752V21.1365L19.7592 21.2194H19.7924C19.84 21.2201 19.8861 21.2037 19.9227 21.1733C19.9592 21.1429 19.9836 21.1004 19.9915 21.0535C19.9996 21.0008 19.9867 20.947 19.9557 20.9037C19.9248 20.8603 19.8781 20.8307 19.8256 20.8212L19.2062 20.7217L19.892 18.3437L19.2394 16.9722L18.1942 18.0783L18.1278 20.5503L17.4255 20.4397C17.3993 20.4349 17.3724 20.4355 17.3465 20.4413C17.3205 20.4471 17.296 20.4581 17.2743 20.4736C17.2527 20.489 17.2343 20.5087 17.2204 20.5313C17.2065 20.554 17.1972 20.5793 17.1932 20.6056C17.1852 20.6583 17.198 20.712 17.229 20.7554C17.26 20.7988 17.3067 20.8284 17.3591 20.8378L17.6522 20.8821C17.5472 20.9429 17.4753 20.9871 17.4697 20.9982L17.4089 21.0424V21.1143C17.3425 21.4228 17.3673 21.7438 17.4802 22.0384C17.5931 22.333 17.7893 22.5884 18.0449 22.7734V22.8619C18.0289 22.9666 18.0547 23.0735 18.1168 23.1593C18.1789 23.2452 18.2722 23.3032 18.3767 23.3209H18.4431C18.5324 23.3204 18.6189 23.2894 18.6883 23.2331C18.7577 23.1768 18.8058 23.0985 18.8246 23.0112C18.9554 23.0188 19.0865 23.0188 19.2173 23.0112H19.3002L23.3539 23.7467L23.4202 23.7025C23.741 23.4757 24.9742 22.5964 25.3779 22.2812C25.495 22.383 25.6252 22.4686 25.7651 22.5356C25.6721 22.8203 25.658 23.1249 25.7243 23.417C25.7905 23.7091 25.9345 23.9778 26.1411 24.1947H15.7554V18.2165C15.7324 17.6332 15.607 17.0586 15.3849 16.5187H20.0358ZM25.0461 21.9771C24.6369 22.2812 23.5806 23.0499 23.199 23.3154L19.5214 22.6739V22.5743C19.5847 22.3266 19.6181 22.0723 19.621 21.8167L22.7179 21.8664L22.7787 21.8056C22.8285 21.7558 23.8074 20.8102 24.3051 20.2627C24.4356 20.4259 24.5927 20.5661 24.7696 20.6775C24.6825 21.1333 24.7757 21.6051 25.0295 21.9936L25.0461 21.9771ZM18.8855 21.3411C18.9663 21.4968 19.0888 21.627 19.2394 21.7171C19.2348 21.9416 19.2126 22.1653 19.173 22.3863C19.173 22.4361 19.173 22.4858 19.1343 22.5356V22.613C18.8809 22.6143 18.6288 22.5751 18.3878 22.4969C18.1721 22.3807 17.9972 22.2014 17.8865 21.9829C17.7758 21.7644 17.7346 21.5173 17.7684 21.2747C17.9648 21.1348 18.1928 21.0455 18.432 21.0148C18.5307 21.0115 18.6279 21.0398 18.7094 21.0955C18.7909 21.1511 18.8526 21.2314 18.8855 21.3245V21.3411ZM18.5039 20.589L18.5647 18.2497L19.1177 17.6967L19.4551 18.399L18.797 20.6775L18.5039 20.589ZM25.024 32.9103H24.471L24.8857 31.5554C24.9521 31.3673 24.6092 31.124 24.4655 30.9083C24.8042 31.1104 25.1531 31.295 25.5107 31.4614C25.5107 31.5056 25.0019 32.9103 25.0019 32.9103H25.024ZM26.3789 31.3563L26.0913 32.8494C25.9088 32.8494 25.7153 32.8882 25.5383 32.8992L25.8425 31.4614C25.931 31.0355 24.7862 30.9083 24.2221 30.0622C24.0398 30.2142 23.829 30.3282 23.602 30.3975C23.375 30.4668 23.1365 30.4901 22.9004 30.4659C22.4824 30.4604 22.0659 30.416 21.6561 30.3332C21.5843 30.3274 21.5122 30.3274 21.4404 30.3332C21.3553 30.3271 21.2702 30.3451 21.1949 30.3852C21.1195 30.4254 21.0571 30.4859 21.0146 30.5599L20.9316 30.6982L19.3555 30.3166L18.9795 30.9692C18.9499 31.0128 18.9365 31.0654 18.9416 31.1179C18.9466 31.1704 18.9698 31.2195 19.0071 31.2567L19.1122 31.3729C19.0088 31.5767 18.8745 31.7632 18.714 31.9259L18.4818 31.6383C18.3961 31.4968 18.3541 31.3332 18.361 31.1679C18.3678 31.0027 18.4233 30.8431 18.5205 30.7092L19.1399 29.664L20.4616 29.8631L20.257 29.3931C19.9805 28.7737 20.4008 27.9829 20.445 27.5294C20.445 27.6676 20.3012 27.6953 20.1574 27.6953C20.0136 27.6953 19.8754 27.6953 19.7758 27.6953C19.7469 27.687 19.7163 27.687 19.6874 27.6953L19.3279 27.911L19.0458 27.651C19.025 27.6118 19.0175 27.5668 19.0245 27.5229C19.0315 27.479 19.0525 27.4386 19.0846 27.4077L19.7371 26.6722L18.9629 25.7708L20.0689 26.3238L20.4007 25.9256C20.4892 26.0141 20.4505 26.2464 20.4505 26.2464C20.8405 26.3432 21.1858 26.5704 21.4292 26.8902C21.6725 27.2099 21.7994 27.6033 21.7888 28.005C21.7888 28.0437 21.7888 28.0824 21.7888 28.1266V28.1654C21.8991 28.3408 22.0739 28.4659 22.2755 28.5138L23.7742 28.6631C24.072 28.5716 24.3774 28.5068 24.6867 28.4695C24.954 28.4711 25.2151 28.5498 25.4388 28.6963C25.5443 28.6219 25.6692 28.5796 25.7982 28.5746H25.848C26.5172 28.5746 26.7992 29.1829 27.1587 29.6806C27.4296 30.0622 27.7946 30.6374 27.7946 30.6374C27.744 30.7142 27.675 30.7772 27.5939 30.8207C27.5128 30.8641 27.4221 30.8867 27.3301 30.8862C27.2657 30.8927 27.2009 30.8927 27.1365 30.8862C26.4176 30.7535 26.3125 29.2714 25.9033 29.1553H25.8369C25.7982 29.1564 25.7604 29.1678 25.7274 29.1882C25.6944 29.2085 25.6673 29.2373 25.6489 29.2714C25.8369 29.7746 25.7263 29.9793 25.931 30.3774C26.0817 30.6164 26.2682 30.8309 26.484 31.0134C26.484 31.0134 26.4563 31.2346 26.4231 31.395L26.3789 31.3563ZM18.3546 29.9461L18.4209 30.1175C18.3767 30.2668 17.8679 30.4825 17.8679 30.4825L17.7573 30.2392C17.6865 30.0706 17.6741 29.8832 17.7222 29.7068C17.7704 29.5304 17.8761 29.3751 18.0228 29.2659L18.8578 28.7571L19.7482 28.9451C19.7433 29.1219 19.7978 29.2952 19.903 29.4373L18.9684 29.2603L18.4154 29.6475C18.3737 29.6837 18.3459 29.7333 18.3369 29.7878C18.3278 29.8423 18.3379 29.8983 18.3656 29.9461H18.3546ZM26.5448 32.772L26.7992 31.4337C26.7992 31.3563 26.8269 31.2623 26.8379 31.1848C26.9126 31.217 26.9904 31.2411 27.0702 31.2567C27.1585 31.265 27.2473 31.265 27.3356 31.2567C27.4853 31.257 27.6331 31.2227 27.7674 31.1565C27.9016 31.0903 28.0188 30.994 28.1099 30.8752L28.3089 30.6429L28.143 30.4161C28.143 30.4161 27.7725 29.8299 27.496 29.4428L27.3412 29.2106C27.0315 28.746 26.6388 28.1598 25.8591 28.1598H25.7872C25.6739 28.1652 25.562 28.1876 25.4554 28.2262C25.2172 28.1115 24.9565 28.051 24.6922 28.0492C24.4257 28.0548 24.1621 28.1053 23.9124 28.1985L23.7797 28.2372L22.3197 28.0935C22.26 28.0644 22.2086 28.0206 22.1704 27.9663L22.4856 27.8391C22.3972 26.7828 21.3796 26.1358 20.8266 25.9201C20.8015 25.8065 20.7439 25.7027 20.6607 25.6215L20.3454 25.3228L20.0689 25.6546L19.9307 25.8205L17.8845 24.98L19.2173 26.639L18.6919 27.4354C18.6648 27.4621 18.6433 27.494 18.6286 27.5291C18.614 27.5642 18.6064 27.6019 18.6064 27.64C18.6064 27.6781 18.614 27.7157 18.6286 27.7509C18.6433 27.786 18.6648 27.8179 18.6919 27.8446L19.2449 28.2207L19.798 28.0105H19.8533C19.8533 28.0935 19.7924 28.4308 19.7648 28.5248L18.8025 28.3589L17.7739 28.9119C17.5432 29.0775 17.3777 29.3184 17.306 29.5931C17.2343 29.8679 17.2609 30.159 17.3813 30.4161L17.4974 30.665L17.6578 31.0189L18.0172 30.8696C17.9508 31.0452 17.9302 31.2348 17.9573 31.4206C17.9844 31.6063 18.0583 31.7821 18.1721 31.9314L18.3878 32.2079L18.6753 32.5729L18.9961 32.2301C19.2054 32.0227 19.3726 31.7766 19.4883 31.5056L19.5546 31.2844L19.3998 31.113V31.0798L19.5767 30.7922L20.8542 31.0908L21.1418 31.1572L21.2966 30.9028L21.3796 30.7646C21.3796 30.7369 21.3796 30.7314 21.457 30.7314H21.5953C22.0306 30.8182 22.4731 30.8644 22.917 30.8696C23.2158 30.8865 23.5153 30.8509 23.8018 30.7646L24.5097 31.572L24.0894 32.866V32.9435C23.7787 32.9383 23.4703 32.9986 23.1844 33.1206C22.8986 33.2426 22.6416 33.4234 22.4303 33.6513C21.7501 32.9766 21.269 32.9047 19.4496 32.9047C17.2651 32.9047 15.7886 31.6273 15.7886 29.5866V24.6094H29.0611V29.5866C29.0897 30.3302 28.852 31.0596 28.3907 31.6436C27.9294 32.2275 27.2748 32.6277 26.5448 32.772ZM29.4205 16.5187C29.1964 17.0579 29.0709 17.633 29.05 18.2165V21.9439C28.8147 21.8939 28.6021 21.7686 28.4445 21.587C28.2868 21.4054 28.1926 21.1773 28.1762 20.9374V20.7659H28.0103C27.7243 20.7413 27.457 20.6135 27.2582 20.4065C27.0168 20.1261 26.8818 19.7699 26.8766 19.4C26.7594 19.5901 26.7024 19.8112 26.7133 20.0343C26.7242 20.2574 26.8023 20.472 26.9375 20.6498C27.1526 20.9234 27.4662 21.1021 27.8112 21.1475C27.8601 21.4596 28.0088 21.7475 28.2352 21.9678C28.4616 22.1882 28.7533 22.3292 29.0666 22.3697V24.1947H26.7439C26.4522 24.0459 26.2284 23.7912 26.1183 23.4827C26.0083 23.1743 26.0204 22.8354 26.1522 22.5356L26.2407 22.3365L26.036 22.2591C25.716 22.148 25.4517 21.9169 25.2989 21.6145C25.1462 21.3122 25.117 20.9622 25.2176 20.6387L25.2618 20.4728L25.107 20.4009C24.8233 20.2354 24.5951 19.9894 24.4513 19.694C24.3076 19.3987 24.2548 19.0673 24.2995 18.7419C24.1506 18.8926 24.0525 19.086 24.0187 19.2952C23.985 19.5044 24.0175 19.7189 24.1115 19.9088C24.0009 20.0359 23.8571 20.1853 23.6968 20.3512C23.4147 20.292 23.1607 20.14 22.9752 19.9194C22.7898 19.6989 22.6836 19.4225 22.6737 19.1345V18.9963L22.5465 18.9465C22.3809 18.8972 22.2269 18.815 22.0939 18.7047C21.9609 18.5945 21.8514 18.4585 21.7722 18.305C21.6656 18.0492 21.6462 17.7655 21.7169 17.4976C21.8262 17.522 21.9371 17.5386 22.0488 17.5474C22.1611 17.5531 22.2737 17.5531 22.3861 17.5474C22.8287 17.546 23.2661 17.4518 23.67 17.2708C24.0739 17.0898 24.4353 16.826 24.7309 16.4966L29.4205 16.5187ZM25.8369 12.7471L26.7439 13.3002L26.9706 13.4329C26.5002 13.5612 26.0738 13.8155 25.7374 14.1684L25.6987 14.2016C25.6213 14.2845 25.5494 14.3675 25.4775 14.456L25.4332 14.5113C25.3632 14.5998 25.2968 14.6938 25.2342 14.7933L25.201 14.8431C25.1235 14.9537 25.0517 15.0753 24.9798 15.197C24.7326 15.6884 24.3652 16.1093 23.9117 16.4206C23.4583 16.732 22.9335 16.9236 22.3861 16.9777C21.8387 16.9236 21.3139 16.732 20.8605 16.4206C20.407 16.1093 20.0396 15.6884 19.7924 15.197C19.7205 15.0753 19.6486 14.9592 19.5767 14.8431L19.5325 14.7822L19.3555 14.4947L19.3058 14.4338C19.2339 14.3454 19.162 14.2624 19.0901 14.185L19.0514 14.1463C18.715 13.7934 18.2885 13.539 17.8181 13.4108L18.0504 13.278L18.9629 12.725L19.8975 12.172L22.3916 13.5269L24.8857 12.2162L25.8369 12.7471ZM24.6092 11.6411L22.6239 12.6863V8.43357L25.3171 7.52108L24.6092 11.6411ZM22.3972 7.98562L19.444 6.80216C19.6929 6.20489 20.8542 5.69612 22.3972 5.69612C23.9401 5.69612 25.1014 6.20489 25.3503 6.80216L22.3972 7.98562Z" fill="#222220"/>
</g>
<defs>
<clipPath id="clip0">
<rect width="165.348" height="40" fill="white"/>
</clipPath>
</defs>
</svg>
