<svg width="275" height="32" viewBox="0 0 275 32" fill="none" xmlns="http://www.w3.org/2000/svg">
<g filter="url(#filter0_d)">
<path fill-rule="evenodd" clip-rule="evenodd" d="M221.768 24.7447C223.885 26.9149 226.623 28 229.982 28C233.041 28 235.565 27.1383 237.554 25.4149C239.565 23.6915 240.677 21.3617 240.891 18.4255H233.736C233.479 21.0213 232.249 22.3191 230.046 22.3191C227.201 22.3191 225.778 20.1915 225.778 15.9362C225.778 13.8936 226.147 12.3404 226.885 11.2766C227.623 10.2128 228.677 9.68085 230.046 9.68085C232.185 9.68085 233.415 10.8404 233.736 13.1596H240.827C240.463 10.3085 239.319 8.07448 237.394 6.45745C235.426 4.81914 232.955 4 229.982 4C226.623 4 223.885 5.0851 221.768 7.25532C219.65 9.42554 218.591 12.3404 218.591 16C218.591 19.6596 219.65 22.5745 221.768 24.7447ZM14.6846 28.0004C18.1713 28.0004 20.8344 27.2026 22.674 25.6068C24.4709 24.0323 25.3693 21.7238 25.3693 18.6813V4.54297H18.182V18.6813C18.182 21.1068 17.0162 22.3196 14.6846 22.3196C12.353 22.3196 11.1873 21.1068 11.1873 18.6813V4.54297H4V18.6813C4 21.7451 4.90909 24.0536 6.72731 25.6068C8.52413 27.2026 11.1765 28.0004 14.6846 28.0004ZM54.2789 27.2664L53.7334 21.8408C53.4553 19.16 52.2896 17.4579 50.236 16.7345C52.8243 15.7132 54.1185 13.8621 54.1185 11.1813C54.1185 9.22381 53.4126 7.61744 52.0008 6.36212C50.589 5.14935 48.7708 4.54297 46.5462 4.54297H33.2305V27.2664H40.4177V19.3196H43.5301C45.4552 19.3196 46.5141 20.3727 46.7066 22.4791L47.1558 27.2664H54.2789ZM40.4176 14.276H44.4926C45.2412 14.276 45.8348 14.0792 46.2733 13.6855C46.7118 13.2919 46.9311 12.7653 46.9311 12.1057C46.9311 11.4674 46.7172 10.9515 46.2894 10.5579C45.8616 10.1643 45.2626 9.96745 44.4926 9.96745H40.4176V14.276ZM81.4396 16.9579C80.7444 15.9366 79.8406 15.2238 78.7283 14.8196C80.5465 14.0536 81.4556 12.5855 81.4556 10.4153C81.4556 8.60679 80.7711 7.18127 79.4021 6.13871C78.0117 5.07488 76.2256 4.54297 74.0438 4.54297H61.819V27.2664H74.14C76.6641 27.2664 78.6855 26.6387 80.2043 25.3834C81.723 24.1281 82.4824 22.4898 82.4824 20.4685C82.4824 19.1493 82.1348 17.9791 81.4396 16.9579ZM73.0169 10.0638H69.0062V13.2234H73.0169C73.5517 13.2234 73.9742 13.0744 74.2843 12.7766C74.5945 12.4787 74.7496 12.0957 74.7496 11.6276C74.7496 11.1595 74.5945 10.7819 74.2843 10.4947C73.9742 10.2074 73.5517 10.0638 73.0169 10.0638ZM73.402 21.5856H69.0062V17.7878H73.5303C74.2148 17.7878 74.7496 17.958 75.1346 18.2984C75.5196 18.6388 75.7122 19.1069 75.7122 19.7027C75.7122 20.2984 75.5089 20.7612 75.1025 21.091C74.6961 21.4207 74.1293 21.5856 73.402 21.5856ZM112.579 27.2664H105.039L104.012 24.1706H96.8568L95.8301 27.2664H88.3219L96.921 4.54297H104.044L112.579 27.2664ZM98.4613 19.3504L99.5843 15.9355L100.451 12.9674L101.317 15.9355L102.44 19.3504H98.4613ZM132.568 12.777L134.622 4.54297H144.152V27.2664H137.606V17.7238L137.927 12.2664L136.708 17.7238L134.237 27.2664H129.039L126.536 17.7238L125.413 12.4898L125.702 17.7238V27.2664H118.996V4.54297H128.494L130.611 12.777L131.606 17.4047L132.568 12.777ZM167.285 27.2664H174.826L166.291 4.54297H159.168L150.569 27.2664H158.077L159.104 24.1706H166.259L167.285 27.2664ZM161.831 15.9355L160.708 19.3504H164.687L163.564 15.9355L162.697 12.9674L161.831 15.9355ZM197.447 4.54297H177.072V10.6706H183.682V27.2664H190.869V10.6706H197.447V4.54297ZM211.211 27.2664H204.024V4.54297H211.211V27.2664ZM270.667 27.2664H263.126L262.1 24.1706H254.944L253.918 27.2664H246.41L255.009 4.54297H262.132L270.667 27.2664ZM256.549 19.3504L257.672 15.9355L258.538 12.9674L259.404 15.9355L260.527 19.3504H256.549Z" fill="#4B23FF"/>
</g>
<defs>
<filter id="filter0_d" x="0" y="0" width="274.667" height="32" filterUnits="userSpaceOnUse" color-interpolation-filters="sRGB">
<feFlood flood-opacity="0" result="BackgroundImageFix"/>
<feColorMatrix in="SourceAlpha" type="matrix" values="0 0 0 0 0 0 0 0 0 0 0 0 0 0 0 0 0 0 127 0" result="hardAlpha"/>
<feOffset/>
<feGaussianBlur stdDeviation="2"/>
<feColorMatrix type="matrix" values="0 0 0 0 1 0 0 0 0 1 0 0 0 0 1 0 0 0 0.5 0"/>
<feBlend mode="normal" in2="BackgroundImageFix" result="effect1_dropShadow"/>
<feBlend mode="normal" in="SourceGraphic" in2="effect1_dropShadow" result="shape"/>
</filter>
</defs>
</svg>
