<svg width="104" height="40" viewBox="0 0 104 40" fill="none" xmlns="http://www.w3.org/2000/svg">
<g clip-path="url(#clip0)">
<path d="M10.3636 21.7988L4.43637 35.1108H0.112305L6.62256 20.8755C3.56179 19.3208 1.52128 16.503 1.52128 11.3045C1.52128 4.01686 6.13675 0.373039 11.6268 0.373039H17.2139V35.1108H13.473V21.7988H10.3636ZM13.473 3.53103H11.4809C8.46878 3.53103 5.5537 5.52294 5.5537 11.3045C5.5537 16.8916 8.22588 18.6892 11.4809 18.6892H13.473V3.53103Z" fill="#FF0000"/>
<path d="M35.2385 10.6242V35.1108H31.4975V24.1307H25.8617V35.1108H22.0723V10.6242H25.8617V21.0212H31.4975V10.6242H35.2385ZM54.7207 39.9207H51.3198V35.1108H40.8256V39.9207H37.4247V32.0014H38.9309C41.1657 26.8029 41.4086 19.2236 41.4086 12.7133V10.6242H52.7774V32.0014H54.7207V39.9207ZM49.0364 13.6851H44.8095V14.1223C44.8095 19.2722 44.5666 26.8029 42.5261 32.0014H49.0364V13.6851ZM65.1663 35.4507C60.1136 35.4507 57.0043 31.4183 57.0043 23.8879C57.0043 16.0172 59.1906 10.2842 64.3891 10.2842C68.4701 10.2842 71.1423 13.345 71.1423 21.653V23.7421H60.9395C60.9395 29.2806 62.4941 32.1958 65.5063 32.1958C67.644 32.1958 69.3445 31.2242 70.3162 30.5439L71.1909 33.4588C69.4649 34.7835 67.3417 35.4854 65.1663 35.4507ZM60.9881 20.6326H67.2554C67.2554 16.4543 66.5752 13.3936 64.3891 13.3936C62.0569 13.3936 61.2311 16.2601 60.9881 20.6326ZM78.8185 22.9163V35.1108H75.0289V10.6242H78.8185V21.9444L84.697 10.6242H88.5352L82.4623 22.1388L89.4097 35.1108H85.28L78.8185 22.9163ZM89.8955 22.8677C89.8955 15.1912 92.8593 10.2842 98.5922 10.2842C100.778 10.2842 102.042 10.8673 103.11 11.5474L102.576 15.1426C101.556 14.268 100.098 13.4422 98.5436 13.4422C95.8228 13.4422 93.8795 16.503 93.8795 22.6732C93.8795 28.7948 95.337 32.2927 98.3978 32.2927C99.9123 32.3131 101.382 31.7772 102.527 30.7867L103.402 33.6047C101.996 34.8425 100.173 35.5021 98.3005 35.4507C93.0534 35.4507 89.8955 31.2242 89.8955 22.8677Z" fill="black"/>
</g>
<defs>
<clipPath id="clip0">
<rect width="103.704" height="40" fill="white"/>
</clipPath>
</defs>
</svg>
