<svg width="162" height="152" viewBox="0 0 162 152" fill="none" xmlns="http://www.w3.org/2000/svg">
<path fill-rule="evenodd" clip-rule="evenodd" d="M161.009 75.5517C161.009 75.5522 161.009 75.5526 161.009 75.553C161.009 75.5934 161.009 75.6337 161.009 75.674C161.009 75.6332 161.009 75.5925 161.009 75.5517ZM161 76.676C160.945 80.2424 160.626 83.7491 160.061 87.1795H160.061C159.785 88.8562 159.451 90.5147 159.059 92.1531H159.059C157.975 96.6907 156.456 101.074 154.545 105.262H154.546C153.775 106.953 152.94 108.611 152.044 110.236H152.043C148.763 116.183 144.665 121.669 139.89 126.562H139.891C138.195 128.301 136.413 129.964 134.552 131.547H134.55C120.263 143.7 101.305 151.104 80.5044 151.104C59.7035 151.104 40.7452 143.7 26.4583 131.547H26.4567C24.5958 129.964 22.814 128.301 21.1178 126.562H21.1191C16.3436 121.669 12.246 116.183 8.96557 110.236H8.96486C8.06902 108.611 7.23413 106.953 6.46305 105.262H6.46363C4.55284 101.074 3.03379 96.6907 1.9497 92.1531H1.94939C1.55799 90.5147 1.22329 88.8562 0.94734 87.1795H0.947552C0.382915 83.7491 0.064165 80.2424 0.00873201 76.676H0.00871204C0.00291069 76.3023 0 75.928 0 75.553C0 75.5526 0 75.5522 0 75.5517C0 33.8257 36.043 -3.05176e-05 80.5044 -3.05176e-05C123.75 -3.05176e-05 159.031 32.0011 160.928 72.1471C160.921 71.9993 160.914 71.8516 160.906 71.704H0.102663C0.0344936 72.979 0 74.2622 0 75.553C6.41031e-06 75.928 0.00292377 76.3023 0.00873201 76.676H161ZM0.947552 87.1795H160.061C159.785 88.8562 159.45 90.5147 159.059 92.1531H1.9497C1.55826 90.5147 1.22354 88.8562 0.947552 87.1795ZM6.46363 105.262H154.545C153.774 106.953 152.939 108.611 152.043 110.236H8.96557C8.06968 108.611 7.23476 106.953 6.46363 105.262ZM21.1191 126.562H139.89C138.193 128.301 136.412 129.964 134.55 131.547H26.4583C24.5972 129.964 22.8154 128.301 21.1191 126.562ZM2.11814 58.2619C1.70954 59.8997 1.35771 61.5579 1.06471 63.2348H159.944C159.651 61.5579 159.299 59.8997 158.891 58.2619H2.11814ZM4.18198 51.4546C4.78721 49.7657 5.45431 48.1034 6.18075 46.4702H154.828C155.554 48.1034 156.221 49.7657 156.827 51.4546H4.18198ZM11.9049 35.9931C10.8431 37.6113 9.84451 39.2699 8.91233 40.9659H152.096C151.164 39.2699 150.166 37.6113 149.104 35.9931H11.9049ZM15.105 31.4859C16.4178 29.7729 17.8052 28.1136 19.2627 26.5121H141.746C143.204 28.1136 144.591 29.7729 145.904 31.4859H15.105ZM28.5263 17.8574C26.5479 19.4288 24.6513 21.0882 22.8435 22.8293H138.165C136.357 21.0882 134.461 19.4288 132.482 17.8574H28.5263ZM32.6782 14.7728C35.2785 12.9677 37.9988 11.306 40.8258 9.80028H120.183C123.01 11.306 125.73 12.9677 128.331 14.7728H32.6782ZM60.993 2.23541C55.8291 3.44182 50.8624 5.11615 46.1468 7.20764H114.862C110.146 5.11615 105.18 3.44182 100.016 2.23541H60.993ZM80.2028 0.00177002C80.3033 0.00141907 80.4038 0.00125122 80.5044 0.00125122C80.5709 0.00125122 80.6374 0.00132751 80.704 0.0014801C80.7379 0.0015564 80.7719 0.00164795 80.8059 0.00177002H80.2028Z" fill="url(#paint0_linear)"/>
<defs>
<linearGradient id="paint0_linear" x1="80.0044" y1="55.5031" x2="80.0044" y2="151.008" gradientUnits="userSpaceOnUse">
<stop stop-color="#FDCC16"/>
<stop offset="1" stop-color="#F4811F"/>
</linearGradient>
</defs>
</svg>
