<svg width="476" height="357" viewBox="0 0 476 357" fill="none" xmlns="http://www.w3.org/2000/svg">
<path d="M439.419 250.871L418.719 281.591C416.969 284.188 414.305 286.023 411.262 286.728L410.835 286.827L445.374 189.722C447.16 192.284 447.918 195.429 447.493 198.526L440.826 247.178C440.646 248.502 440.164 249.765 439.419 250.871Z" fill="#FECE2F"/>
<path d="M410.834 287.505C410.644 287.505 410.459 287.424 410.329 287.277C410.165 287.092 410.115 286.832 410.198 286.599L444.738 189.494C444.822 189.255 445.034 189.084 445.284 189.05C445.539 189.016 445.783 189.125 445.927 189.333C447.818 192.043 448.611 195.341 448.162 198.618L441.496 247.27C441.302 248.689 440.777 250.066 439.978 251.25L419.278 281.97C417.427 284.718 414.633 286.643 411.412 287.389L410.986 287.488C410.936 287.499 410.885 287.505 410.834 287.505ZM445.538 191.278L411.897 285.855C414.45 285.074 416.652 283.447 418.159 281.21L438.859 250.491C439.542 249.477 439.991 248.299 440.158 247.086L446.824 198.434C447.163 195.952 446.708 193.457 445.538 191.278Z" fill="#1A1A1A"/>
<path d="M348.418 292.052H404.174C407.349 292.052 410.173 291.166 410.6 287.27C406.821 287.27 341.786 287.27 341.786 287.27C341.786 287.27 342.771 292.052 348.418 292.052Z" fill="#FECE2F"/>
<path d="M404.174 292.73H348.417C342.292 292.73 341.135 287.46 341.124 287.406C341.083 287.207 341.133 286.999 341.262 286.841C341.389 286.683 341.582 286.591 341.785 286.591H410.599C410.791 286.591 410.974 286.673 411.102 286.816C411.23 286.96 411.292 287.151 411.271 287.343C410.681 292.73 405.784 292.73 404.174 292.73ZM342.726 287.947C343.268 289.182 344.745 291.373 348.417 291.373H404.174C407.551 291.373 409.28 290.339 409.807 287.947H342.726Z" fill="#1A1A1A"/>
<path d="M341.786 287.27H410.6L421.628 226.341H364.106L341.786 287.27Z" fill="white"/>
<path d="M410.6 287.947H341.786C341.565 287.947 341.358 287.839 341.232 287.657C341.106 287.475 341.076 287.243 341.152 287.035L363.473 226.107C363.571 225.84 363.824 225.663 364.107 225.663H421.627C421.828 225.663 422.018 225.751 422.146 225.906C422.274 226.061 422.329 226.264 422.292 226.461L411.265 287.39C411.206 287.713 410.926 287.947 410.6 287.947ZM342.754 286.591H410.036L420.818 227.019H364.577L342.754 286.591Z" fill="#1A1A1A"/>
<path d="M437.508 247.596L410.6 287.27L421.628 226.341L445.536 189.501L437.508 247.596Z" fill="#1A1A1A"/>
<path d="M410.6 287.947C410.514 287.947 410.427 287.931 410.344 287.897C410.048 287.775 409.878 287.463 409.935 287.148L420.963 226.219C420.979 226.131 421.013 226.046 421.061 225.971L444.97 189.13C445.142 188.864 445.478 188.755 445.772 188.865C446.069 188.976 446.248 189.279 446.205 189.593L438.177 247.687C438.163 247.791 438.125 247.889 438.066 247.976L411.158 287.65C411.029 287.841 410.818 287.947 410.6 287.947ZM422.268 226.596L411.834 284.245L436.86 247.344L444.451 192.414L422.268 226.596ZM437.507 247.595H437.514H437.507Z" fill="#1A1A1A"/>
<path d="M395.399 272.731L399.93 272.726C400.659 272.726 401.143 273.22 401.012 273.833L400.183 277.685C400.048 278.311 399.34 278.819 398.601 278.819H394.006C393.268 278.819 392.788 278.311 392.933 277.687L393.825 273.839C393.967 273.227 394.671 272.732 395.399 272.731ZM381.887 273.849L380.888 277.689C380.726 278.313 381.19 278.82 381.925 278.82H386.502C387.237 278.82 387.957 278.313 388.109 277.688L389.044 273.843C389.193 273.232 388.725 272.738 387.999 272.739L383.486 272.744C382.761 272.744 382.046 273.238 381.887 273.849ZM369.997 273.859L368.893 277.691C368.714 278.313 369.161 278.819 369.893 278.819H374.451C375.183 278.819 375.915 278.313 376.084 277.69L377.124 273.853C377.29 273.243 376.837 272.751 376.114 272.751L371.619 272.756C370.899 272.757 370.172 273.25 369.997 273.859ZM358.156 273.869L356.948 277.694C356.752 278.315 357.183 278.819 357.911 278.819H362.45C363.18 278.819 363.923 278.314 364.109 277.692L365.254 273.863C365.437 273.254 365 272.762 364.28 272.763L359.804 272.768C359.085 272.769 358.348 273.261 358.156 273.869ZM395.811 265.278L394.954 268.972C394.815 269.572 395.288 270.059 396.011 270.057L400.514 270.05C401.238 270.049 401.93 269.561 402.059 268.96L402.855 265.262C402.981 264.674 402.504 264.2 401.79 264.201L397.348 264.212C396.635 264.215 395.947 264.691 395.811 265.278ZM384.108 265.306L383.15 268.993C382.994 269.591 383.451 270.076 384.171 270.076L388.656 270.069C389.377 270.067 390.081 269.58 390.226 268.981L391.124 265.29C391.266 264.703 390.805 264.23 390.093 264.231L385.669 264.242C384.959 264.244 384.261 264.719 384.108 265.306ZM372.452 265.333L371.393 269.012C371.221 269.61 371.663 270.094 372.379 270.093L376.847 270.086C377.565 270.085 378.28 269.598 378.442 269.001L379.441 265.317C379.6 264.731 379.154 264.259 378.445 264.261L374.038 264.271C373.33 264.273 372.62 264.748 372.452 265.333ZM360.843 265.359L359.683 269.032C359.495 269.628 359.921 270.111 360.635 270.111L365.084 270.104C365.799 270.103 366.525 269.617 366.703 269.02L367.803 265.344C367.978 264.759 367.547 264.288 366.841 264.289L362.452 264.3C361.748 264.302 361.027 264.775 360.843 265.359ZM397.718 257.056L396.895 260.605C396.761 261.181 397.227 261.647 397.936 261.645L402.351 261.632C403.061 261.63 403.738 261.16 403.862 260.583L404.626 257.03C404.747 256.465 404.278 256.01 403.577 256.013L399.221 256.03C398.522 256.032 397.849 256.491 397.718 257.056ZM386.242 257.098L385.321 260.641C385.172 261.216 385.623 261.681 386.329 261.679L390.726 261.666C391.434 261.664 392.121 261.195 392.261 260.619L393.123 257.073C393.26 256.508 392.806 256.055 392.108 256.057L387.769 256.074C387.072 256.077 386.389 256.535 386.242 257.098ZM374.811 257.141L373.793 260.677C373.628 261.25 374.063 261.715 374.767 261.713L379.147 261.7C379.852 261.698 380.549 261.229 380.705 260.655L381.665 257.115C381.817 256.552 381.378 256.099 380.682 256.102L376.36 256.119C375.667 256.122 374.973 256.578 374.811 257.141ZM363.425 257.183L362.31 260.712C362.129 261.285 362.55 261.748 363.251 261.746L367.613 261.733C368.315 261.731 369.023 261.263 369.195 260.69L370.251 257.157C370.42 256.595 369.994 256.143 369.302 256.146L364.996 256.163C364.306 256.166 363.602 256.622 363.425 257.183ZM399.552 249.151L398.76 252.563C398.632 253.117 399.09 253.564 399.786 253.561L404.116 253.542C404.812 253.54 405.474 253.087 405.593 252.532L406.328 249.115C406.444 248.572 405.982 248.136 405.295 248.139L401.022 248.161C400.335 248.166 399.677 248.608 399.552 249.151ZM388.294 249.208L387.408 252.615C387.264 253.167 387.709 253.614 388.401 253.611L392.715 253.592C393.408 253.589 394.08 253.137 394.214 252.583L395.044 249.173C395.176 248.631 394.728 248.195 394.043 248.199L389.786 248.221C389.102 248.225 388.434 248.666 388.294 249.208ZM377.079 249.265L376.1 252.665C375.941 253.217 376.371 253.663 377.061 253.66L381.357 253.642C382.048 253.639 382.73 253.188 382.88 252.636L383.803 249.231C383.95 248.69 383.516 248.255 382.834 248.258L378.594 248.281C377.913 248.283 377.235 248.724 377.079 249.265ZM365.908 249.322L364.835 252.716C364.662 253.266 365.077 253.711 365.764 253.708L370.044 253.69C370.732 253.687 371.424 253.236 371.589 252.685L372.605 249.287C372.766 248.747 372.347 248.312 371.667 248.316L367.443 248.338C366.765 248.342 366.078 248.782 365.908 249.322ZM401.316 241.546L400.554 244.83C400.43 245.363 400.883 245.792 401.564 245.789L405.812 245.765C406.495 245.761 407.142 245.325 407.257 244.791L407.964 241.504C408.077 240.981 407.621 240.562 406.947 240.566L402.754 240.594C402.08 240.598 401.437 241.023 401.316 241.546ZM390.268 241.617L389.415 244.895C389.277 245.427 389.715 245.856 390.395 245.852L394.626 245.828C395.307 245.824 395.964 245.389 396.093 244.856L396.891 241.575C397.018 241.053 396.576 240.634 395.904 240.638L391.726 240.665C391.057 240.669 390.404 241.095 390.268 241.617ZM379.261 241.687L378.319 244.959C378.166 245.49 378.59 245.918 379.267 245.915L383.483 245.891C384.161 245.887 384.828 245.452 384.972 244.921L385.861 241.645C386.002 241.123 385.573 240.705 384.905 240.709L380.743 240.737C380.074 240.741 379.411 241.167 379.261 241.687ZM368.296 241.757L367.265 245.024C367.097 245.553 367.508 245.981 368.182 245.977L372.382 245.953C373.058 245.949 373.734 245.515 373.893 244.985L374.871 241.715C375.026 241.195 374.612 240.777 373.945 240.782L369.799 240.809C369.133 240.813 368.46 241.237 368.296 241.757ZM403.014 234.225L402.28 237.387C402.161 237.899 402.607 238.312 403.277 238.308L407.446 238.278C408.116 238.274 408.75 237.853 408.86 237.339L409.541 234.174C409.649 233.67 409.201 233.267 408.539 233.272L404.422 233.304C403.76 233.311 403.131 233.721 403.014 234.225ZM392.168 234.307L391.347 237.464C391.214 237.976 391.647 238.388 392.313 238.384L396.467 238.355C397.135 238.35 397.778 237.93 397.903 237.418L398.672 234.258C398.794 233.755 398.358 233.353 397.699 233.357L393.598 233.389C392.938 233.395 392.298 233.806 392.168 234.307ZM381.363 234.39L380.455 237.541C380.308 238.053 380.727 238.464 381.391 238.459L385.529 238.431C386.195 238.426 386.847 238.007 386.986 237.495L387.842 234.341C387.978 233.839 387.555 233.437 386.898 233.441L382.812 233.473C382.155 233.479 381.507 233.888 381.363 234.39ZM370.597 234.472L369.603 237.619C369.441 238.129 369.847 238.54 370.509 238.535L374.632 238.507C375.294 238.502 375.956 238.084 376.109 237.573L377.051 234.423C377.201 233.922 376.791 233.521 376.137 233.526L372.066 233.558C371.413 233.562 370.755 233.972 370.597 234.472Z" fill="#FECE2F"/>
<path d="M289.232 297.071C294.423 283.416 253.009 254.782 196.732 233.116C140.455 211.45 90.6258 204.956 85.4351 218.611C80.2445 232.267 121.658 260.9 177.935 282.566C234.212 304.232 284.042 310.726 289.232 297.071Z" fill="#1A1A1A"/>
<path d="M268.522 304.889C263.895 304.889 258.59 304.507 252.652 303.733C231.579 300.988 204.957 293.696 177.69 283.2C150.423 272.704 125.762 260.255 108.247 248.147C90.4924 235.873 82.164 225.297 84.797 218.37C87.4306 211.442 100.645 209.159 122.008 211.942C143.08 214.687 169.702 221.98 196.969 232.476C224.236 242.972 248.898 255.421 266.412 267.529C284.167 279.803 292.495 290.378 289.862 297.306C287.961 302.308 280.54 304.889 268.522 304.889ZM106.126 212.154C94.8259 212.154 87.7375 214.45 86.0626 218.857C83.7102 225.047 92.0758 235.313 109.014 247.024C126.443 259.072 151.005 271.468 178.174 281.927C205.344 292.386 231.855 299.65 252.826 302.382C273.204 305.036 286.243 303.009 288.597 296.819C290.949 290.629 282.584 280.363 265.645 268.653C248.216 256.604 223.654 244.209 196.485 233.75C169.316 223.291 142.803 216.027 121.833 213.295C115.963 212.53 110.698 212.154 106.126 212.154Z" fill="#1A1A1A"/>
<path d="M332.687 187.71C332.687 187.71 335.366 182.932 335.672 179.637C335.977 176.341 338.482 176.803 338.673 179.32C338.865 181.838 338.138 185.25 338.138 185.25" fill="#FECE2F"/>
<path d="M332.685 188.389C332.573 188.389 332.459 188.36 332.354 188.302C332.028 188.118 331.913 187.704 332.096 187.376C332.122 187.33 334.708 182.684 334.996 179.574C335.199 177.394 336.258 176.619 337.188 176.619C337.193 176.619 337.197 176.619 337.202 176.619C338.169 176.627 339.216 177.539 339.348 179.268C339.544 181.854 338.83 185.249 338.799 185.392C338.721 185.759 338.361 185.99 337.995 185.915C337.629 185.837 337.396 185.475 337.474 185.108C337.481 185.075 338.178 181.76 337.996 179.372C337.924 178.425 337.473 177.98 337.19 177.978C337.189 177.978 337.188 177.978 337.188 177.978C336.912 177.978 336.461 178.435 336.344 179.701C336.029 183.101 333.387 187.844 333.275 188.044C333.152 188.264 332.922 188.389 332.685 188.389Z" fill="#1A1A1A"/>
<path d="M362.278 182.318C356.448 182.312 348.436 186.035 348.436 186.035C348.436 186.035 351.294 181.606 359.132 178.033C362.235 176.618 361.099 174.272 357.743 175.351C352.515 177.032 346.463 182.33 345.76 183.286C345.76 183.286 349.088 177.155 354.085 173.079C356.126 171.413 355.222 168.753 352.012 171.218C344.375 177.083 337.066 185.854 319.699 197.106C319.291 197.37 318.753 197.709 318.108 198.108L329.994 209.554C332.495 206.669 333.879 204.949 333.904 204.93C338.095 200.662 346.731 191.581 359.706 192.257C363.072 192.734 363.594 190.338 361.087 189.616C356.23 188.217 350.824 189.326 350.824 189.326C350.824 189.326 353.673 186.174 362.456 185.393C365.47 185.125 365.458 182.322 362.278 182.318Z" fill="#FECE2F"/>
<path d="M329.993 210.234C329.818 210.234 329.651 210.166 329.525 210.045L317.639 198.598C317.487 198.453 317.412 198.244 317.434 198.036C317.456 197.827 317.574 197.639 317.752 197.529C318.393 197.134 318.926 196.798 319.332 196.535C330.989 188.983 338.109 182.541 343.831 177.364C346.652 174.812 349.089 172.608 351.601 170.679C354.115 168.748 355.228 169.766 355.51 170.124C356.227 171.035 355.789 172.565 354.512 173.606C352.321 175.394 350.446 177.604 349.05 179.491C351.468 177.66 354.647 175.634 357.537 174.705C359.78 173.983 361.156 174.63 361.525 175.59C361.842 176.414 361.479 177.71 359.412 178.652C355.234 180.557 352.497 182.721 350.884 184.277C353.775 183.163 358.431 181.639 362.265 181.639C362.27 181.639 362.274 181.639 362.279 181.639C364.349 181.641 365.32 182.683 365.366 183.715C365.409 184.723 364.536 185.89 362.515 186.07C358.177 186.456 355.331 187.437 353.595 188.295C355.654 188.15 358.532 188.173 361.275 188.963C362.929 189.439 363.484 190.528 363.299 191.397C363.104 192.318 362.019 193.271 359.611 192.93C347.247 192.296 338.73 200.979 334.634 205.155L334.397 205.396C334.369 205.429 334.305 205.506 334.208 205.624C333.728 206.207 332.452 207.753 330.504 210C330.382 210.141 330.208 210.225 330.024 210.233C330.013 210.233 330.003 210.234 329.993 210.234ZM319.205 198.224L329.948 208.57C331.624 206.627 332.727 205.289 333.164 204.759C333.347 204.537 333.404 204.467 333.446 204.428L333.668 204.202C337.901 199.884 346.72 190.897 359.74 191.579C361.306 191.798 361.924 191.35 361.974 191.113C362.017 190.91 361.706 190.501 360.9 190.269C356.256 188.93 351.012 189.981 350.959 189.992C350.673 190.052 350.38 189.917 350.235 189.663C350.09 189.408 350.125 189.087 350.322 188.87C350.446 188.733 353.452 185.511 362.395 184.716C363.534 184.615 364.026 184.104 364.012 183.774C363.996 183.398 363.382 182.999 362.277 182.997C362.273 182.997 362.267 182.997 362.263 182.997C356.648 182.997 348.798 186.615 348.719 186.651C348.448 186.778 348.121 186.709 347.924 186.479C347.726 186.251 347.703 185.919 347.867 185.665C347.988 185.477 350.924 181.028 358.85 177.413C360.007 176.886 360.34 176.284 360.261 176.078C360.162 175.822 359.384 175.538 357.948 175.998C352.838 177.64 346.924 182.847 346.304 183.688C346.092 183.975 345.695 184.05 345.395 183.857C345.095 183.665 344.994 183.273 345.164 182.959C345.303 182.704 348.614 176.663 353.657 172.55C354.459 171.896 354.599 171.158 354.445 170.964C354.346 170.837 353.682 170.79 352.422 171.757C349.953 173.653 347.536 175.84 344.737 178.372C338.979 183.582 331.814 190.064 320.065 197.676C319.823 197.834 319.534 198.017 319.205 198.224Z" fill="#1A1A1A"/>
<path d="M390.252 240.306C384.909 237.523 384.662 232.438 380.827 229.49C380.827 229.49 384.379 230.529 387.229 230.776C389.573 230.978 390.54 228.642 387.034 227.789C380.856 226.287 379.131 224.29 369.429 220.716C361.987 217.974 350.624 220.07 350.624 220.07C350.624 220.07 348.741 220.417 347.686 220.645C343.264 221.599 338.921 222.433 334.653 223.039L337.822 240.804C342.071 238.74 346.369 236.349 350.707 233.598L350.706 233.64C350.706 233.64 351.15 233.326 351.842 232.863C352.398 232.504 352.951 232.156 353.508 231.785C353.528 231.772 353.546 231.758 353.565 231.745C355.37 230.609 357.659 229.288 359.298 228.762C363.609 227.378 366.634 236.259 368.571 241.334C370.507 246.41 373.277 243.918 373.082 241.687C372.887 239.456 372.816 240.009 371.621 234.869C376.457 238.941 381.249 242.258 388.038 243.769C392.273 244.709 393.489 241.887 390.252 240.306Z" fill="#FECE2F"/>
<path d="M371.224 244.986C370.327 244.986 369.016 244.402 367.937 241.575L367.557 240.572C365.827 235.985 362.931 228.307 359.503 229.407C358.232 229.815 356.302 230.822 353.923 232.319C353.507 232.598 353.134 232.837 352.761 233.076L352.208 233.432C351.535 233.882 351.098 234.191 351.094 234.193C351.024 234.243 350.947 234.278 350.867 234.297C346.666 236.951 342.377 239.345 338.115 241.414C337.924 241.506 337.701 241.503 337.513 241.408C337.324 241.311 337.19 241.131 337.154 240.922L333.985 223.157C333.952 222.975 333.995 222.789 334.103 222.639C334.211 222.489 334.374 222.39 334.557 222.364C338.396 221.82 342.522 221.062 347.542 219.979C348.595 219.752 350.422 219.415 350.499 219.4C350.97 219.313 362.131 217.303 369.66 220.076C374.12 221.719 376.938 223.046 379.202 224.112C381.93 225.398 383.902 226.327 387.191 227.126C389.485 227.684 390.14 228.874 389.99 229.801C389.814 230.882 388.634 231.58 387.17 231.45C385.799 231.332 384.289 231.04 383.065 230.762C383.832 231.716 384.446 232.751 385.048 233.765C386.343 235.945 387.682 238.199 390.556 239.698C392.615 240.707 392.98 242.12 392.666 243.024C392.298 244.081 390.826 245.083 387.889 244.429C381.842 243.083 377.341 240.363 372.745 236.673C372.93 237.43 373.074 237.992 373.189 238.439C373.541 239.817 373.626 240.144 373.755 241.625C373.888 243.154 372.965 244.637 371.697 244.931C371.559 244.963 371.399 244.986 371.224 244.986ZM360.205 227.932C364.238 227.932 366.966 235.167 368.824 240.092L369.202 241.09C369.985 243.139 370.845 243.737 371.394 243.608C371.986 243.471 372.478 242.566 372.407 241.745C372.287 240.375 372.225 240.131 371.879 238.778C371.68 238.005 371.394 236.886 370.96 235.022C370.894 234.737 371.017 234.441 371.265 234.288C371.513 234.135 371.832 234.159 372.055 234.346C377.063 238.563 381.723 241.665 388.184 243.103C390.227 243.556 391.233 243.022 391.387 242.577C391.525 242.181 391.135 241.494 389.956 240.917C389.95 240.915 389.945 240.912 389.94 240.909C386.719 239.232 385.279 236.807 383.887 234.463C382.895 232.792 381.957 231.215 380.415 230.029C380.156 229.831 380.075 229.475 380.222 229.182C380.37 228.891 380.704 228.746 381.016 228.837C381.051 228.847 384.539 229.86 387.288 230.098C388.112 230.17 388.612 229.845 388.655 229.583C388.698 229.322 388.252 228.783 386.875 228.448C383.452 227.616 381.324 226.613 378.628 225.344C376.388 224.288 373.6 222.975 369.195 221.352C362.01 218.705 350.857 220.717 350.746 220.738C350.744 220.738 348.876 221.082 347.827 221.308C343.076 222.334 339.118 223.069 335.443 223.61L338.331 239.798C342.349 237.81 346.387 235.533 350.345 233.023C350.398 232.989 350.454 232.964 350.512 232.946C350.708 232.81 351.04 232.581 351.467 232.296L352.034 231.931C352.4 231.696 352.765 231.462 353.132 231.217C353.138 231.214 353.2 231.171 353.205 231.168C355.714 229.589 357.695 228.561 359.091 228.112C359.473 227.99 359.844 227.932 360.205 227.932Z" fill="#1A1A1A"/>
<path d="M344.86 221.238C310.88 228.191 278.81 226.717 253.057 164.807L207.1 205.689C221.575 229.515 280.203 277.123 349.288 234.469C343.275 232.404 344.191 224.521 344.86 221.238Z" fill="white"/>
<path d="M292.954 252.299C285.317 252.299 277.665 251.377 270.009 249.531C235.656 241.245 213.459 217.46 206.522 206.042C206.352 205.762 206.406 205.398 206.651 205.18L252.607 164.299C252.77 164.154 252.992 164.096 253.208 164.145C253.42 164.194 253.597 164.344 253.681 164.545C280.091 228.033 313.137 227.035 344.724 220.572C344.948 220.528 345.177 220.596 345.338 220.757C345.498 220.919 345.568 221.151 345.522 221.374C344.887 224.488 344.003 231.936 349.507 233.826C349.754 233.911 349.932 234.132 349.961 234.393C349.99 234.654 349.865 234.91 349.643 235.047C331.043 246.53 312.053 252.299 292.954 252.299ZM207.977 205.817C215.133 217.244 236.883 240.143 270.326 248.209C296.388 254.495 322.455 249.905 347.827 234.566C343.156 232.013 343.43 225.668 344.013 222.101C329.036 225.1 311.691 226.988 295.587 219.461C278.615 211.527 264.612 194.017 252.798 165.944L207.977 205.817Z" fill="#1A1A1A"/>
<path d="M178.586 282.65C216.169 297.075 250.86 304.742 271.298 304.185C272.885 228.898 259.523 111.53 199.152 123.204C136.311 148.599 136.827 251.905 136.434 263.83C148.942 270.324 163.206 276.747 178.586 282.65Z" fill="white"/>
<path d="M153.196 172.667C144.379 207.797 155.529 221.068 145.676 237.201C143.616 240.574 143.979 248.738 146.713 255.676C149.652 263.136 155.529 268.34 167.285 277.882C148.615 269.728 136.433 263.83 136.433 263.83C136.433 263.83 136.34 209.358 153.196 172.667Z" fill="#FECE2F"/>
<path d="M201.686 130.425C190.277 129.384 174.718 139.272 160.024 158.875C161.736 155.441 163.971 151.986 166.455 148.709C174.261 138.412 184.525 129.869 188.721 129.211C194.252 128.344 201.686 130.425 201.686 130.425Z" fill="#FECE2F"/>
<path d="M162.832 180.485C161.749 180.485 160.658 180.384 159.569 180.179C156.559 179.612 153.758 178.268 151.468 176.292C151.185 176.048 151.153 175.618 151.397 175.334C151.641 175.05 152.068 175.018 152.352 175.262C154.46 177.082 157.042 178.32 159.819 178.844C163.902 179.614 168.024 178.802 171.429 176.559C174.826 174.323 177.101 170.927 177.837 167.001C179.277 159.303 174.256 151.679 166.402 149.644C166.04 149.55 165.822 149.179 165.916 148.817C166.009 148.453 166.378 148.235 166.741 148.329C175.281 150.542 180.739 158.854 179.167 167.252C178.363 171.546 175.88 175.254 172.171 177.696C169.382 179.532 166.151 180.485 162.832 180.485Z" fill="#FECE2F"/>
<path d="M195.463 124.701C203.712 119.795 210.626 123.124 228.816 138.636C229.098 133.909 228.391 129.791 225.363 126.923C222.336 124.053 209.363 114.944 195.463 124.701Z" fill="#FECE2F"/>
<path d="M191.207 287.974C191.19 287.974 191.172 287.973 191.155 287.972C190.782 287.943 190.503 287.616 190.531 287.242C190.883 282.643 189.429 278.181 186.437 274.679C183.445 271.177 179.274 269.054 174.691 268.701C168.955 268.259 163.411 270.703 159.846 275.24C159.616 275.535 159.19 275.586 158.896 275.353C158.602 275.12 158.552 274.693 158.783 274.399C162.627 269.506 168.619 266.87 174.794 267.347C179.738 267.728 184.238 270.018 187.465 273.795C190.693 277.572 192.26 282.385 191.88 287.346C191.854 287.702 191.557 287.974 191.207 287.974Z" fill="#FECE2F"/>
<path d="M259.252 182.035C265.994 198.169 271.439 214.041 275.07 221.068C280.56 231.694 287.776 236.16 296.592 241.625C305.408 247.089 316.299 239.022 337.821 240.802C312.669 250.732 293.74 254.635 269.105 249.171C268.587 236.94 263.66 194.005 259.252 182.035Z" fill="#1A1A1A"/>
<path d="M269.188 304.893C247.814 304.893 213.34 296.717 178.344 283.285C163.296 277.509 149.091 271.167 136.122 264.432C135.89 264.312 135.747 264.068 135.757 263.807C135.773 263.292 135.788 262.605 135.807 261.762C137.459 187.779 159.865 138.347 198.898 122.573C198.939 122.556 198.981 122.544 199.024 122.536C213.893 119.662 226.852 124.376 237.547 136.545C246.798 147.07 254.39 163.207 260.112 184.509C272.151 229.326 272.418 283.142 271.975 304.2C271.967 304.562 271.678 304.855 271.316 304.865C270.622 304.884 269.912 304.893 269.188 304.893ZM178.828 282.015C214.487 295.702 249.568 303.901 270.634 303.521C271.057 282.083 270.676 229.057 258.804 184.863C253.137 163.765 245.643 147.811 236.531 137.445C226.189 125.678 213.679 121.106 199.343 123.858C147.448 144.882 138.11 219.295 137.16 261.792C137.146 262.425 137.135 262.97 137.122 263.421C149.945 270.06 163.974 276.314 178.828 282.015Z" fill="#1A1A1A"/>
<path d="M154.902 185.048C154.886 202.265 162.107 227.395 174.309 247.231C180.198 256.804 187.247 265.145 195.203 270.768C247.599 307.804 325.289 215.949 333.903 204.929C334.408 204.415 334.98 203.829 335.614 203.2C333.246 197.162 328.563 194.606 325.02 193.521C323.354 194.687 321.589 195.88 319.698 197.105C312.658 201.667 268.543 227.544 249.633 225.415C237.769 224.079 231.593 208.212 225.023 185.157" fill="white"/>
<path d="M237.124 277.346C227.981 277.346 220.543 269.882 220.543 260.707C220.543 251.532 227.981 244.068 237.124 244.068C246.267 244.068 253.705 251.532 253.705 260.707C253.705 269.882 246.267 277.346 237.124 277.346ZM237.124 245.427C228.728 245.427 221.897 252.282 221.897 260.707C221.897 269.132 228.728 275.987 237.124 275.987C245.52 275.987 252.351 269.132 252.351 260.707C252.351 252.282 245.521 245.427 237.124 245.427Z" fill="#FECE2F"/>
<path d="M222.665 166.807C221.483 166.807 220.266 166.652 219.035 166.34C215.054 165.331 211.388 162.786 208.715 159.174C206.04 155.562 204.67 151.305 204.857 147.188C205.046 143.02 206.804 139.491 209.806 137.253C212.809 135.015 216.681 134.345 220.714 135.367C224.695 136.376 228.361 138.921 231.035 142.534C233.709 146.146 235.08 150.403 234.892 154.519C234.703 158.688 232.945 162.216 229.943 164.454C227.858 166.009 225.352 166.807 222.665 166.807ZM217.091 136.261C214.689 136.261 212.46 136.968 210.614 138.344C207.944 140.334 206.38 143.497 206.21 147.25C206.037 151.055 207.313 155.002 209.802 158.363C212.291 161.724 215.687 164.09 219.368 165.022C222.996 165.942 226.466 165.353 229.136 163.363C231.806 161.373 233.37 158.21 233.54 154.457C233.712 150.653 232.437 146.706 229.948 143.344C227.459 139.982 224.063 137.617 220.382 136.684C219.264 136.401 218.16 136.261 217.091 136.261Z" fill="#FECE2F"/>
<path d="M389.764 240.854C389.714 240.854 389.664 240.849 389.613 240.837C383.87 239.533 377.76 234.9 377.503 234.703C377.206 234.476 377.148 234.05 377.374 233.751C377.601 233.452 378.026 233.394 378.323 233.622C378.384 233.668 384.459 238.274 389.912 239.512C390.277 239.595 390.506 239.959 390.423 240.325C390.352 240.64 390.073 240.854 389.764 240.854Z" fill="#1A1A1A"/>
<path d="M379.538 231.887C379.538 231.887 383.124 233.705 385.528 235.889Z" fill="#FECE2F"/>
<path d="M385.527 236.567C385.365 236.567 385.203 236.51 385.073 236.391C382.767 234.297 379.267 232.51 379.232 232.493C378.898 232.324 378.764 231.914 378.933 231.58C379.102 231.245 379.511 231.111 379.843 231.28C379.993 231.356 383.539 233.165 385.981 235.384C386.259 235.637 386.28 236.066 386.029 236.345C385.895 236.492 385.712 236.567 385.527 236.567Z" fill="#1A1A1A"/>
<path d="M288.942 250.632C288.774 250.632 288.607 250.57 288.475 250.445C285.247 247.365 283.469 243.208 283.469 238.738C283.469 229.832 290.689 222.586 299.564 222.586C304.62 222.586 309.283 224.901 312.358 228.936C312.585 229.235 312.528 229.661 312.231 229.889C311.934 230.117 311.509 230.06 311.282 229.762C308.465 226.065 304.194 223.945 299.563 223.945C291.435 223.945 284.822 230.581 284.822 238.738C284.822 242.831 286.451 246.639 289.408 249.461C289.678 249.719 289.689 250.149 289.431 250.421C289.299 250.561 289.121 250.632 288.942 250.632Z" fill="#FECE2F"/>
<path d="M234.358 213.521C236.913 237.759 241.454 233.27 247.702 230.051C252.876 227.387 252.644 232.405 257.083 232.457C260.213 232.494 263.107 228.591 265.902 227.073C268.697 225.555 270.421 229.123 276.786 223.955C279.621 221.653 284.208 220.354 286.614 220.099C289.021 219.843 292.311 217.53 294.824 215.324C299.12 211.554 321.842 196.233 321.842 196.233C321.842 196.233 289.576 215.009 274.775 219.72C266.103 222.481 245.249 233.298 234.358 213.521Z" fill="#FECE2F"/>
<path d="M172.349 244.84C172.148 244.84 171.948 244.751 171.815 244.578C171.585 244.282 171.638 243.855 171.933 243.625C175.827 240.582 178.061 235.998 178.061 231.05C178.061 222.266 170.94 215.12 162.187 215.12C161.465 215.12 160.738 215.169 160.026 215.267C159.656 215.318 159.314 215.057 159.264 214.685C159.213 214.313 159.473 213.971 159.843 213.921C160.616 213.815 161.404 213.762 162.187 213.762C171.687 213.762 179.415 221.518 179.415 231.05C179.415 236.42 176.991 241.394 172.765 244.697C172.641 244.794 172.494 244.84 172.349 244.84Z" fill="#FECE2F"/>
<path d="M236.434 143.615C234.227 143.615 230.232 140.421 228.439 138.886C228.281 138.751 228.194 138.549 228.202 138.34C228.35 134.917 227.426 131.413 225.379 127.627C225.234 127.359 225.285 127.027 225.504 126.815C225.722 126.602 226.054 126.562 226.317 126.717C226.641 126.908 234.272 131.477 237.357 139.525C237.85 140.812 238.382 142.61 237.314 143.367C237.073 143.539 236.775 143.615 236.434 143.615ZM229.567 138.064C232.922 140.894 235.991 142.604 236.532 142.259C236.532 142.258 236.802 141.865 236.093 140.014C234.154 134.952 230.187 131.272 227.733 129.367C229.032 132.369 229.636 135.236 229.567 138.064Z" fill="#1A1A1A"/>
<path d="M228.41 140.937L228.484 143.282C228.484 143.282 230.125 144.183 231.242 143.562L232.892 141.588L229.402 138.89L228.41 140.937Z" fill="#1A1A1A"/>
<path d="M230.311 144.46C229.263 144.46 228.303 143.955 228.158 143.877C227.948 143.762 227.814 143.543 227.807 143.302L227.733 140.957C227.728 140.847 227.751 140.738 227.8 140.639L228.793 138.592C228.882 138.408 229.049 138.275 229.247 138.228C229.444 138.181 229.653 138.227 229.815 138.351L233.305 141.048C233.451 141.162 233.545 141.33 233.565 141.514C233.585 141.698 233.529 141.882 233.411 142.023L231.76 143.997C231.707 144.061 231.642 144.115 231.57 144.155C231.168 144.378 230.732 144.46 230.311 144.46ZM229.147 142.839C229.605 143.021 230.322 143.215 230.816 143.013L231.919 141.693L229.647 139.936L229.092 141.082L229.147 142.839Z" fill="#1A1A1A"/>
<path d="M253.709 182.165C253.709 182.165 242.61 180.4 238.487 165.447C234.839 152.214 232.21 144.582 229.503 140.328C238.68 146.113 242.312 154.612 244.823 161.121C247.335 167.632 247.785 177.049 253.709 182.165Z" fill="#1A1A1A"/>
<path d="M236.451 174.221C236.451 174.221 226.799 174.196 228.416 158.767C229.414 149.241 230.85 144.623 229.509 139.758C235.08 146.949 234.896 152.99 234.804 158.164C234.678 165.145 234.808 167.823 236.451 174.221Z" fill="#1A1A1A"/>
<path d="M342.275 239.151C342.183 239.151 342.088 239.132 341.998 239.091C334.79 235.834 336.946 226.874 336.968 226.784C337.06 226.42 337.423 226.199 337.79 226.291C338.152 226.382 338.372 226.751 338.282 227.115C338.202 227.438 336.385 235.064 342.554 237.852C342.896 238.006 343.048 238.408 342.894 238.75C342.78 239.003 342.534 239.151 342.275 239.151Z" fill="#1A1A1A"/>
<path d="M330.293 209.234C330.023 209.234 329.768 209.071 329.663 208.803C327.678 203.749 322.169 200.548 322.113 200.516C321.789 200.329 321.676 199.914 321.861 199.589C322.046 199.263 322.458 199.15 322.785 199.335C323.027 199.475 328.765 202.81 330.923 208.305C331.06 208.654 330.889 209.049 330.541 209.186C330.46 209.219 330.376 209.234 330.293 209.234Z" fill="#1A1A1A"/>
<path d="M249.415 195.053C250.564 194.908 251.286 193.117 251.026 191.053C250.767 188.989 249.625 187.434 248.475 187.579C247.326 187.725 246.605 189.516 246.864 191.58C247.124 193.644 248.266 195.199 249.415 195.053Z" fill="#FECE2F"/>
<path d="M249.277 195.743C247.822 195.743 246.496 194.015 246.201 191.666C245.89 189.193 246.856 187.102 248.399 186.906C249.952 186.715 251.396 188.495 251.707 190.969C251.847 192.08 251.732 193.166 251.386 194.027C250.985 195.022 250.319 195.626 249.509 195.728C249.431 195.738 249.354 195.743 249.277 195.743ZM248.634 188.25C248.612 188.25 248.59 188.251 248.568 188.254C247.903 188.338 247.323 189.743 247.543 191.496C247.764 193.25 248.673 194.458 249.338 194.38C249.635 194.343 249.923 194.028 250.129 193.519C250.387 192.879 250.472 192.011 250.362 191.139C250.15 189.443 249.292 188.25 248.634 188.25Z" fill="#1A1A1A"/>
<path d="M252.672 217.537C253.827 217.452 254.641 215.702 254.49 213.627C254.339 211.552 253.28 209.939 252.125 210.024C250.97 210.108 250.155 211.859 250.306 213.933C250.457 216.008 251.516 217.622 252.672 217.537Z" fill="#FECE2F"/>
<path d="M252.593 218.222C251.831 218.222 251.113 217.765 250.559 216.921C250.05 216.145 249.725 215.103 249.643 213.985C249.462 211.498 250.536 209.462 252.087 209.348C253.658 209.225 254.996 211.093 255.177 213.58C255.359 216.066 254.284 218.103 252.732 218.217C252.687 218.221 252.64 218.222 252.593 218.222ZM252.224 210.702C252.212 210.702 252.199 210.703 252.186 210.703C251.518 210.752 250.866 212.123 250.994 213.886C251.058 214.763 251.311 215.596 251.69 216.173C251.991 216.633 252.346 216.888 252.634 216.861C253.303 216.812 253.955 215.441 253.828 213.679C253.702 211.95 252.887 210.702 252.224 210.702Z" fill="#1A1A1A"/>
<path d="M259.412 286.925C260.568 286.841 261.382 285.09 261.231 283.015C261.08 280.941 260.021 279.327 258.866 279.412C257.71 279.496 256.896 281.247 257.047 283.322C257.198 285.397 258.257 287.01 259.412 286.925Z" fill="#FECE2F"/>
<path d="M259.341 287.614C257.846 287.614 256.562 285.791 256.386 283.377C256.204 280.89 257.279 278.853 258.831 278.739C259.624 278.682 260.417 279.139 261.004 280.036C261.514 280.811 261.839 281.854 261.92 282.971C262.102 285.458 261.028 287.495 259.477 287.609C259.431 287.611 259.385 287.614 259.341 287.614ZM258.965 280.093C258.953 280.093 258.941 280.093 258.929 280.095C258.26 280.144 257.608 281.515 257.735 283.278C257.864 285.04 258.682 286.293 259.376 286.253C260.045 286.204 260.697 284.833 260.569 283.07C260.505 282.193 260.252 281.36 259.873 280.783C259.584 280.342 259.255 280.093 258.965 280.093Z" fill="#1A1A1A"/>
<path d="M288.564 249.493C288.564 249.493 273.548 259.496 260.957 260.924C248.366 262.353 251.738 267.076 246.805 269.034C241.873 270.992 232.419 270.165 224.922 266.979C217.425 263.793 207.816 264.721 205.575 267.126C203.335 269.53 203.235 275.03 211.539 277.795C219.844 280.559 234.468 279.444 251.732 272.59C268.996 265.737 280.572 256.034 288.564 249.493Z" fill="#1A1A1A"/>
<path d="M223.319 279.793C215.338 279.793 207.837 278.146 200.878 274.853C190.59 269.984 181.338 260.979 173.378 248.089C167.611 238.749 162.734 227.592 159.276 215.824C158.232 212.271 157.328 208.696 156.589 205.196C155.037 197.847 154.22 190.879 154.225 185.047C154.011 176.364 156.586 168.952 161.677 163.631C166.694 158.385 173.902 155.424 181.971 155.295C181.974 155.295 181.978 155.295 181.982 155.295C182.351 155.295 182.653 155.591 182.659 155.963C182.665 156.338 182.366 156.647 181.992 156.653C174.288 156.778 167.42 159.589 162.654 164.572C157.82 169.626 155.374 176.7 155.58 185.031C155.575 190.786 156.383 197.656 157.915 204.915C158.646 208.381 159.541 211.922 160.575 215.44C164 227.093 168.826 238.136 174.529 247.373C182.349 260.037 191.409 268.869 201.457 273.624C224.587 284.569 253.127 277.055 286.287 251.29C309.933 232.917 328.13 211.055 333.143 204.792C333.346 204.539 333.404 204.467 333.45 204.424L333.645 204.226C334.005 203.858 334.396 203.46 334.818 203.037C332.57 197.711 328.394 195.331 325.134 194.269C323.442 195.449 321.781 196.565 320.066 197.676C319.606 197.974 274.169 226.219 252.027 226.221C251.166 226.221 250.344 226.179 249.558 226.09C236.056 224.57 229.1 206.484 223.595 187.165C223.493 186.804 223.7 186.428 224.06 186.325C224.424 186.221 224.795 186.431 224.898 186.792C232.248 212.589 239.437 223.584 249.709 224.74C268.066 226.807 311.535 201.586 319.332 196.535C321.125 195.373 322.86 194.205 324.634 192.963C324.805 192.845 325.02 192.81 325.219 192.871C328.886 193.994 333.777 196.654 336.246 202.951C336.345 203.205 336.284 203.492 336.091 203.684C335.551 204.22 335.056 204.724 334.609 205.179L334.4 205.392C334.37 205.429 334.302 205.514 334.199 205.643C329.162 211.935 310.879 233.901 287.116 252.365C272.351 263.837 258.204 271.82 245.067 276.094C237.486 278.56 230.223 279.793 223.319 279.793Z" fill="#1A1A1A"/>
<path d="M223.338 185.808C223.338 185.808 222.033 178.618 223.986 177.871C226.709 176.831 232.414 179.433 230.858 189.841C229.302 200.25 230.987 198.863 232.716 211.353C227.011 202.332 225.067 192.921 223.338 185.808Z" fill="#1A1A1A"/>
<path d="M210.848 227.038C201.705 227.038 194.267 219.574 194.267 210.399C194.267 201.224 201.705 193.76 210.848 193.76C219.991 193.76 227.429 201.224 227.429 210.399C227.429 219.574 219.991 227.038 210.848 227.038ZM210.848 195.118C202.452 195.118 195.621 201.973 195.621 210.398C195.621 218.824 202.452 225.679 210.848 225.679C219.244 225.679 226.075 218.824 226.075 210.398C226.075 201.973 219.244 195.118 210.848 195.118Z" fill="#FECE2F"/>
<path d="M204.495 163.52C200.685 160.632 196.485 158.578 192.191 157.348Z" fill="white"/>
<path d="M204.494 164.198C204.352 164.198 204.208 164.153 204.086 164.061C200.427 161.287 196.363 159.248 192.004 158.001C191.645 157.898 191.436 157.522 191.539 157.161C191.641 156.8 192.019 156.592 192.375 156.694C196.895 157.988 201.108 160.102 204.901 162.977C205.199 163.203 205.259 163.629 205.033 163.929C204.902 164.105 204.699 164.198 204.494 164.198Z" fill="#1A1A1A"/>
<path d="M263.633 87.202C265.376 82.1569 264.81 77.378 262.368 76.5281C259.926 75.6781 256.533 79.0789 254.789 84.124C253.046 89.1691 253.612 93.9479 256.054 94.7979C258.496 95.6479 261.889 92.2471 263.633 87.202Z" fill="white"/>
<path d="M256.837 95.6107C256.491 95.6107 256.153 95.5543 255.828 95.4415C254.389 94.9407 253.446 93.4045 253.176 91.1161C252.925 89.0003 253.27 86.4387 254.147 83.9037C256.04 78.4218 259.748 74.8989 262.586 75.8882C265.425 76.8761 266.163 81.9441 264.268 87.426C263.392 89.961 262.082 92.1869 260.58 93.6926C259.322 94.9536 258.026 95.6107 256.837 95.6107ZM261.584 77.0813C259.728 77.0813 257.013 79.7549 255.424 84.3487C254.614 86.6935 254.293 89.0397 254.52 90.9557C254.723 92.6741 255.361 93.8407 256.271 94.1573C257.182 94.4719 258.401 93.9542 259.621 92.7311C260.982 91.3675 262.177 89.3257 262.989 86.9809C264.744 81.9006 263.968 77.8076 262.142 77.1716C261.968 77.1112 261.78 77.0813 261.584 77.0813Z" fill="#1A1A1A"/>
<path d="M198.747 122.706C198.747 122.706 214.781 112.948 219.578 91.4803C223.067 75.8698 235.294 97.9038 235.294 97.9038L224.415 130.526C215.578 125.791 208.255 120.624 198.747 122.706Z" fill="#FECE2F"/>
<path d="M225.196 129.11C225.126 129.11 225.053 129.099 224.983 129.076C224.629 128.958 224.436 128.573 224.554 128.217L234.553 97.9894C232.51 94.6907 226.981 87.1249 223.26 87.6984C221.692 87.9416 220.501 89.7055 219.718 92.9418C214.262 115.491 194.417 125.982 194.217 126.086C193.885 126.257 193.476 126.127 193.305 125.793C193.134 125.46 193.264 125.05 193.597 124.878C193.791 124.778 213.096 114.552 218.402 92.621C219.326 88.7984 220.892 86.6901 223.054 86.3551C228.442 85.5208 235.129 96.318 235.874 97.5512C235.977 97.721 236 97.9283 235.938 98.1172L225.84 128.645C225.745 128.93 225.48 129.11 225.196 129.11Z" fill="#1A1A1A"/>
<path d="M228.979 102.279C229.951 103.386 232.35 106.378 239.373 107.614C247.092 108.973 249.387 97.2324 252.618 94.9393C255.713 94.6016 257.675 92.4701 256.17 89.4017C253.332 83.6141 255.633 81.8571 256.977 77.6288C262.137 61.3899 232.144 44.555 218.655 65.9877L215.819 87.7072" fill="#FECE2F"/>
<path d="M240.621 108.405C240.184 108.405 239.73 108.366 239.255 108.282C232.239 107.048 229.671 104.104 228.574 102.847L228.471 102.728C228.223 102.447 228.25 102.017 228.53 101.769C228.811 101.521 229.238 101.547 229.486 101.828L229.593 101.951C230.596 103.1 232.943 105.792 239.489 106.943C244.213 107.776 246.724 103.161 248.939 99.0901C250.069 97.0144 251.044 95.222 252.227 94.3829C252.321 94.3163 252.43 94.2748 252.545 94.2619C254.06 94.0968 255.219 93.4724 255.724 92.549C256.151 91.7704 256.095 90.7858 255.562 89.7001C253.23 84.9439 254.218 82.6202 255.363 79.9295C255.693 79.1516 256.036 78.3478 256.33 77.4203C258.806 69.6304 252.742 62.1142 245.474 58.7156C237.859 55.1553 226.455 54.9997 219.306 66.2229L216.49 87.7928C216.442 88.1645 216.102 88.4213 215.731 88.3785C215.36 88.3296 215.099 87.9885 215.148 87.6162L217.984 65.8968C217.997 65.7989 218.03 65.7052 218.083 65.6223C225.696 53.5246 237.905 53.6761 246.048 57.4831C253.853 61.1324 260.336 69.294 257.623 77.8321C257.308 78.8213 256.954 79.6557 256.611 80.4622C255.514 83.0401 254.722 84.9031 256.779 89.0988C257.71 90.9951 257.366 92.3771 256.913 93.2027C256.215 94.4766 254.753 95.3402 252.883 95.5889C251.996 96.3098 251.089 97.9785 250.13 99.7404C248.007 103.638 245.411 108.405 240.621 108.405Z" fill="#1A1A1A"/>
<path d="M230.275 78.5345C229.562 76.1272 227.564 72.2795 222.949 74.9565C219.781 76.7951 220.616 81.5921 221.912 84.8446C224.18 90.533 230.431 107.873 194.425 114.77C158.594 121.634 149.283 164.354 117.844 163.214C93.2678 162.321 79.2543 154.998 69.7854 141.702C55.1713 121.182 60.7958 97.9859 85.8856 94.8618C96.8895 93.4914 104.964 93.8223 120.782 76.9086C129.447 67.6429 148.543 69.2471 160.716 70.6637C178.608 72.7456 180.729 67.1014 195.981 56.0915C210.762 45.4227 222.431 40.4783 239.545 43.3409C270.795 48.5672 269.155 67.4262 257.239 71.0864C244.883 74.8818 238.134 65.9646 234.121 77.9169C232.533 82.648 230.858 80.8114 230.275 78.5345Z" fill="#1A1A1A"/>
<path d="M250.835 86.1893C252.64 80.9677 252.054 76.0216 249.527 75.142C247 74.2624 243.488 77.7823 241.683 83.004C239.879 88.2256 240.464 93.1717 242.991 94.0513C245.519 94.9309 249.03 91.411 250.835 86.1893Z" fill="white"/>
<path d="M243.804 94.8673C243.447 94.8673 243.1 94.8103 242.766 94.6941C241.286 94.179 240.317 92.5959 240.037 90.2368C239.778 88.0504 240.135 85.4025 241.04 82.7826C241.946 80.1619 243.299 77.8619 244.852 76.3053C246.527 74.6264 248.264 73.985 249.746 74.5014C252.67 75.5199 253.428 80.7517 251.472 86.4129C250.566 89.0335 249.212 91.3335 247.66 92.8894C246.362 94.1899 245.027 94.8673 243.804 94.8673ZM248.718 75.6904C247.86 75.6904 246.834 76.2408 245.809 77.2674C244.399 78.6814 243.16 80.7979 242.319 83.2283C241.48 85.6587 241.147 88.0904 241.382 90.0772C241.594 91.8648 242.26 93.0797 243.21 93.4106C244.162 93.7408 245.433 93.2013 246.702 91.9287C248.113 90.5147 249.352 88.3982 250.192 85.9685C252.013 80.6973 251.201 76.448 249.301 75.7862C249.117 75.7217 248.922 75.6904 248.718 75.6904Z" fill="#1A1A1A"/>
<path d="M247.285 85.7294C245.106 85.7294 243.942 84.2651 243.884 84.189C243.654 83.8928 243.707 83.4661 244.003 83.2358C244.299 83.0054 244.72 83.0591 244.95 83.3513C245.006 83.4213 246.198 84.8644 248.484 84.1836C248.842 84.0749 249.219 84.2821 249.326 84.6409C249.432 85.0003 249.228 85.3788 248.87 85.4861C248.293 85.6587 247.764 85.7294 247.285 85.7294Z" fill="#1A1A1A"/>
<path d="M247.955 86.5165C248.317 85.7363 248.085 84.8576 247.436 84.554C246.787 84.2504 245.967 84.6368 245.604 85.4171C245.242 86.1973 245.474 87.0759 246.123 87.3796C246.772 87.6832 247.592 87.2968 247.955 86.5165Z" fill="#1A1A1A"/>
<path d="M245.757 102.509C243.392 102.509 241.374 101.237 241.254 101.159C240.94 100.957 240.848 100.537 241.049 100.222C241.25 99.9068 241.667 99.8138 241.984 100.015C242.018 100.037 245.496 102.215 248.161 100.454C248.473 100.247 248.893 100.334 249.099 100.647C249.305 100.961 249.219 101.383 248.906 101.588C247.876 102.269 246.783 102.509 245.757 102.509Z" fill="#1A1A1A"/>
<path d="M120.436 77.3415C120.436 77.3415 110.064 92.4342 92.9498 94.1689C74.089 96.0802 69.7855 101.107 65.2904 107.353C76.6999 98.1586 83.1578 99.3932 95.543 97.1177C107.817 94.8626 116.979 88.2705 120.436 77.3415Z" fill="#FECE2F"/>
<path d="M224.765 77.7538C224.765 77.7538 226.709 79.3152 227.617 83.2187Z" fill="#1A1A1A"/>
<path d="M227.616 83.8969C227.309 83.8969 227.03 83.6849 226.957 83.3716C226.123 79.7807 224.357 78.2954 224.339 78.2812C224.051 78.044 224.006 77.6174 224.24 77.3265C224.476 77.0351 224.898 76.9895 225.188 77.2226C225.275 77.2926 227.326 78.9776 228.276 83.0632C228.361 83.4287 228.135 83.7943 227.771 83.8792C227.718 83.8914 227.667 83.8969 227.616 83.8969Z" fill="#1A1A1A"/>
<path d="M224.311 82.3075C224.311 82.3075 224.7 80.4207 226.061 79.7052Z" fill="#1A1A1A"/>
<path d="M224.311 82.9857C224.265 82.9857 224.218 82.981 224.172 82.9715C223.806 82.8947 223.572 82.5366 223.648 82.1697C223.666 82.08 224.121 79.9588 225.747 79.1033C226.077 78.9294 226.488 79.0578 226.661 79.3894C226.835 79.7216 226.707 80.1327 226.376 80.3066C225.321 80.8611 224.977 82.4306 224.974 82.4462C224.905 82.7663 224.624 82.9857 224.311 82.9857Z" fill="#1A1A1A"/>
<path d="M233.167 142.851C233.167 142.851 239.064 153.542 241.537 160.797C243.875 167.654 247.34 175.115 249.813 176.642C247.435 170.819 245.913 163.565 244.391 160.033C242.869 156.501 238.874 146.479 233.167 142.851Z" fill="#FECE2F"/>
<path d="M230.555 42.2987C230.555 42.2987 217.071 41.431 197.883 55.3095C178.694 69.1881 177.484 72.1369 167.63 71.2692C181.114 75.0857 193.561 62.9425 196.327 60.3402C199.093 57.7386 212.231 46.1152 230.555 42.2987Z" fill="#FECE2F"/>
<path d="M242.138 82.0114C242.065 82.0114 241.991 81.9992 241.919 81.9747L232.324 78.6787C231.971 78.557 231.782 78.1704 231.903 77.8158C232.025 77.4611 232.409 77.2722 232.764 77.3925L242.358 80.6885C242.711 80.8101 242.9 81.1967 242.779 81.5514C242.682 81.8334 242.42 82.0114 242.138 82.0114Z" fill="#1A1A1A"/>
<path d="M251.731 84.2658C251.367 84.2658 251.067 83.9743 251.055 83.606C251.044 83.231 251.339 82.9178 251.713 82.9069L254.652 82.8199C254.998 82.8057 255.338 83.1033 255.348 83.479C255.359 83.854 255.065 84.1673 254.691 84.1781L251.752 84.2651C251.745 84.2658 251.738 84.2658 251.731 84.2658Z" fill="#1A1A1A"/>
<path d="M119.076 163.915C118.661 163.915 118.243 163.907 117.82 163.892C94.3473 163.04 79.3628 156.318 69.2344 142.096C61.3011 130.957 59.0511 118.621 63.2145 109.097C66.8213 100.847 74.8433 95.5515 85.8025 94.1865C86.6516 94.0805 87.4837 93.9847 88.303 93.8903C98.1111 92.7624 105.858 91.8716 120.288 76.4419C129.708 66.3697 151.492 68.9054 160.793 69.9871C174.872 71.6232 178.935 68.4318 187.836 61.4355C190.05 59.6947 192.56 57.7223 195.585 55.5378C210.002 45.1306 221.839 39.6889 239.654 42.669C263.095 46.5894 265.601 57.2969 265.811 60.4849C266.147 65.5713 262.78 70.0924 257.436 71.734C252.424 73.2743 248.293 72.7762 244.974 72.3767C239.843 71.7591 237.015 71.418 234.761 78.1317C233.989 80.4317 233.085 81.5507 232 81.5507C231.981 81.5507 231.962 81.5507 231.942 81.55C230.937 81.5133 230.07 80.4541 229.621 78.7154C229.279 77.5644 228.472 75.5532 226.892 74.922C225.897 74.5238 224.683 74.7331 223.287 75.5437C219.922 77.4964 222.074 83.4233 222.54 84.5913C223.562 87.1562 226.278 93.9698 222.604 100.705C218.823 107.638 209.384 112.595 194.552 115.436C177.306 118.74 166.372 130.356 155.798 141.589C145 153.062 134.784 163.915 119.076 163.915ZM145.209 70.2473C136.307 70.2473 126.604 71.6762 121.276 77.3728C106.507 93.1667 98.1423 94.1281 88.4573 95.2417C87.6421 95.3355 86.8141 95.4306 85.9691 95.5359C75.5021 96.8384 67.8613 101.849 64.4542 109.643C60.4845 118.724 62.683 130.561 70.336 141.307C80.1963 155.152 94.8564 161.699 117.868 162.534C133.673 163.116 143.947 152.202 154.814 140.656C165.536 129.266 176.623 117.488 194.298 114.102C208.715 111.341 217.839 106.614 221.417 100.054C224.402 94.5826 222.914 89.1864 221.283 85.0975C219.725 81.1872 219.255 76.3155 222.61 74.3682C224.385 73.3382 225.994 73.1017 227.394 73.6602C229.509 74.5055 230.513 76.9556 230.924 78.3403C230.926 78.3485 230.928 78.3559 230.93 78.3648C231.257 79.6415 231.783 80.1857 231.992 80.1932C232.008 80.1932 232.65 80.168 233.479 77.6989C236.084 69.9402 240.077 70.4206 245.135 71.0287C248.329 71.4133 252.3 71.8916 257.04 70.4355C261.771 68.9822 264.754 65.0196 264.461 60.5746C264.063 54.5234 257.279 46.9944 239.433 44.0095C222.076 41.1055 210.504 46.444 196.376 56.6419C193.373 58.8094 190.875 60.773 188.671 62.5056C179.748 69.5196 175.269 73.0399 160.637 71.3372C156.953 70.9084 151.266 70.2473 145.209 70.2473Z" fill="#1A1A1A"/>
<path d="M186.128 130.253C186.128 130.253 199.005 122.709 213.564 140.37C227.634 157.437 228.816 138.636 228.816 138.636C206.959 115.247 195.31 122.208 186.128 130.253Z" fill="white"/>
<path d="M223.3 148.216C220.513 148.216 217.139 145.773 213.042 140.803C199.051 123.831 186.974 130.545 186.467 130.84C186.167 131.015 185.781 130.931 185.578 130.647C185.374 130.363 185.42 129.97 185.682 129.74C195.192 121.408 207.19 114.501 229.31 138.172C229.437 138.308 229.504 138.492 229.492 138.679C229.472 139.003 228.945 146.612 224.696 147.997C224.248 148.143 223.782 148.216 223.3 148.216ZM193.21 128.019C198.517 128.019 206.104 130.254 214.085 139.936C218.373 145.137 221.897 147.48 224.275 146.704C226.95 145.834 227.925 141.014 228.118 138.882C209.036 118.565 198.246 121.577 189.405 128.414C190.477 128.186 191.759 128.019 193.21 128.019Z" fill="#1A1A1A"/>
<path d="M230.599 103.124C230.599 103.124 229.213 100.835 227.876 101.237C226.58 101.627 227.422 106.702 231.247 109.889L232.868 105.856C232.868 105.857 231.571 105.206 230.599 103.124Z" fill="#1A1A1A"/>
<path d="M253.709 182.844C253.674 182.844 253.639 182.842 253.604 182.836C253.133 182.761 242.025 180.828 237.835 165.628C234.054 151.911 231.474 144.687 228.933 140.694C228.762 140.425 228.8 140.075 229.023 139.849C229.247 139.623 229.597 139.584 229.864 139.753C238.94 145.475 242.671 153.656 245.455 160.876C246.221 162.86 246.784 165.056 247.381 167.381C248.748 172.702 250.16 178.203 254.151 181.65C254.381 181.848 254.451 182.174 254.324 182.45C254.212 182.694 253.969 182.844 253.709 182.844ZM231.511 142.547C233.688 146.96 236.014 153.929 239.14 165.266C241.963 175.508 248.032 179.365 251.419 180.756C248.474 177.085 247.208 172.154 246.07 167.72C245.484 165.435 244.928 163.277 244.192 161.367C241.745 155.022 238.552 147.916 231.511 142.547Z" fill="#1A1A1A"/>
<path d="M232.596 144.951C232.596 144.951 232.025 153.542 231.645 157.838C231.275 162.015 233.547 167.956 235.83 170.724C234.689 165.379 234.308 162.324 234.879 157.551C235.45 152.779 234.308 147.433 232.596 144.951Z" fill="#FECE2F"/>
<path d="M236.451 174.901C236.45 174.901 236.449 174.901 236.449 174.901C236.315 174.901 233.142 174.859 230.6 172.018C228.073 169.193 227.112 164.711 227.742 158.695C228.026 155.979 228.346 153.667 228.628 151.628C229.32 146.605 229.779 143.287 228.856 139.939C228.77 139.626 228.916 139.296 229.205 139.151C229.493 139.006 229.844 139.085 230.043 139.341C235.689 146.628 235.575 152.92 235.483 157.975L235.48 158.176C235.358 164.915 235.459 167.633 237.106 174.052C237.158 174.255 237.113 174.472 236.985 174.638C236.857 174.804 236.66 174.901 236.451 174.901ZM230.681 142.624C230.873 145.26 230.484 148.082 229.969 151.814C229.689 153.844 229.371 156.144 229.089 158.837C228.5 164.455 229.347 168.584 231.608 171.11C232.984 172.648 234.578 173.214 235.551 173.421C234.096 167.516 234.009 164.683 234.126 158.151L234.13 157.95C234.211 153.471 234.302 148.465 230.681 142.624Z" fill="#1A1A1A"/>
<path d="M316.471 105.368C335.655 105.368 351.206 89.8359 351.206 70.6764C351.206 51.5169 335.655 35.9851 316.471 35.9851C297.288 35.9851 281.737 51.5169 281.737 70.6764C281.737 89.8359 297.288 105.368 316.471 105.368Z" fill="#FECE2F"/>
<path d="M362.67 208.379C362.844 208.488 363.067 208.512 363.272 208.422C363.401 208.367 376.221 202.946 390.174 208.46C390.508 208.592 390.89 208.424 391.027 208.085C391.163 207.745 391.005 207.36 390.67 207.231C376.205 201.514 362.907 207.155 362.774 207.212C362.441 207.357 362.282 207.745 362.419 208.08C362.472 208.209 362.561 208.311 362.67 208.379Z" fill="#1A1A1A"/>
<path d="M370.112 213.251C370.226 213.322 370.364 213.358 370.509 213.346C370.593 213.338 378.93 212.687 385.836 218.553C386.107 218.785 386.522 218.746 386.759 218.466C386.994 218.186 386.963 217.77 386.689 217.537C379.363 211.313 370.78 211.999 370.418 212.031C370.058 212.063 369.787 212.383 369.812 212.746C369.827 212.963 369.944 213.145 370.112 213.251Z" fill="#1A1A1A"/>
<path d="M338.902 56.1096L291.285 64.5403C288.747 64.9899 287.054 67.4121 287.503 69.9498L289.082 78.8662C289.532 81.4045 291.954 83.0975 294.492 82.6485L297.066 82.1931L298.694 91.3849L303.285 81.0922L342.11 74.2184C344.648 73.7686 346.341 71.3473 345.892 68.8088L344.314 59.8924C343.863 57.3535 341.441 55.6599 338.902 56.1096Z" fill="white"/>
<path d="M298.814 92.0551C298.748 92.0669 298.679 92.0688 298.611 92.061C298.313 92.0243 298.074 91.7974 298.022 91.5024L296.513 82.9827L294.611 83.3195C291.706 83.8335 288.925 81.8887 288.41 78.9834L286.83 70.0679C286.317 67.1671 288.256 64.389 291.154 63.8693C291.158 63.8686 291.161 63.868 291.166 63.8672L338.783 55.4379C341.688 54.9239 344.47 56.8687 344.985 59.7733L346.564 68.6896C346.813 70.0961 346.499 71.5164 345.68 72.6874C344.864 73.8551 343.643 74.6366 342.24 74.888C342.236 74.8887 342.232 74.8895 342.228 74.8902L303.761 81.6996L299.318 91.6617C299.223 91.8722 299.033 92.0159 298.814 92.0551ZM291.395 65.2129C289.236 65.6 287.792 67.6688 288.174 69.8303L289.754 78.7458C290.137 80.9092 292.209 82.3578 294.373 81.9753L296.947 81.5193C297.126 81.4873 297.309 81.5279 297.457 81.6317C297.606 81.7353 297.707 81.8934 297.739 82.0721L298.979 89.071L302.662 80.8121C302.754 80.6055 302.942 80.4581 303.165 80.4182C303.165 80.4181 303.165 80.4181 303.166 80.418L341.99 73.5453C343.03 73.3817 343.952 72.7775 344.562 71.9047C345.173 71.0318 345.406 69.9748 345.22 68.9264L343.641 60.0101C343.258 57.8467 341.186 56.398 339.022 56.7805L291.404 65.2114C291.401 65.2119 291.398 65.2123 291.395 65.2129Z" fill="#1A1A1A"/>
<path d="M308.791 72.7503C309.773 72.574 310.427 71.6351 310.251 70.6531C310.075 69.6711 309.136 69.0179 308.153 69.1942C307.171 69.3705 306.518 70.3094 306.694 71.2914C306.87 72.2734 307.809 72.9266 308.791 72.7503Z" fill="#1A1A1A"/>
<path d="M317.039 71.2907C318.021 71.1146 318.675 70.1756 318.498 69.1936C318.322 68.2115 317.383 67.5582 316.401 67.7343C315.419 67.9105 314.766 68.8494 314.942 69.8315C315.118 70.8135 316.057 71.4669 317.039 71.2907Z" fill="#1A1A1A"/>
<path d="M325.287 69.83C326.269 69.6538 326.923 68.7149 326.747 67.7328C326.571 66.7507 325.632 66.0974 324.649 66.2736C323.667 66.4497 323.014 67.3887 323.19 68.3707C323.366 69.3528 324.305 70.0061 325.287 69.83Z" fill="#1A1A1A"/>
<path d="M391.136 108.64C405.155 108.64 416.519 97.2896 416.519 83.2884C416.519 69.2873 405.155 57.9371 391.136 57.9371C377.118 57.9371 365.753 69.2873 365.753 83.2884C365.753 97.2896 377.118 108.64 391.136 108.64Z" fill="#FECE2F"/>
<path d="M408.847 93.9841L379.113 99.4939C377.959 99.7075 376.85 98.9432 376.636 97.7867L372.914 77.7181C372.7 76.5617 373.462 75.4506 374.615 75.2371L404.349 69.7273C405.502 69.5137 406.611 70.278 406.826 71.4344L410.547 91.5031C410.761 92.6595 410 93.7706 408.847 93.9841Z" fill="white"/>
<path d="M408.981 94.6668C408.978 94.6673 408.976 94.6677 408.974 94.6681L379.24 100.177C377.712 100.46 376.238 99.4436 375.954 97.9127L372.233 77.8434C371.949 76.3145 372.958 74.8403 374.481 74.5545C374.483 74.5542 374.486 74.5538 374.488 74.5534L404.221 69.0445C404.961 68.9072 405.71 69.0673 406.331 69.4946C406.952 69.9228 407.37 70.5664 407.507 71.3081L411.229 91.3766C411.366 92.1182 411.207 92.8693 410.782 93.4908C410.357 94.1116 409.718 94.5285 408.981 94.6668ZM374.738 75.9209C373.964 76.0661 373.453 76.8147 373.596 77.5912L377.318 97.6605C377.388 98.037 377.6 98.3644 377.915 98.5811C378.231 98.7983 378.61 98.8791 378.986 98.8101L408.72 93.3012C408.721 93.301 408.723 93.3007 408.723 93.3006C409.098 93.2303 409.422 93.0188 409.638 92.7039C409.855 92.3882 409.935 92.0068 409.865 91.6303L406.143 71.561C406.073 71.1844 405.862 70.8571 405.546 70.6405C405.231 70.4231 404.851 70.3423 404.475 70.4121L374.741 75.9202C374.74 75.9205 374.739 75.9207 374.738 75.9209Z" fill="#1A1A1A"/>
<path d="M391.914 85.5576C391.19 85.6935 390.421 85.5979 389.717 85.2513L373.53 77.2833C373.186 77.1137 373.044 76.697 373.213 76.3528C373.381 76.0085 373.796 75.8671 374.14 76.0352L390.327 84.0032C391.178 84.422 392.18 84.2354 392.823 83.5404L405.079 70.302C405.339 70.0213 405.777 70.0048 406.058 70.2654C406.339 70.5266 406.356 70.9663 406.095 71.2478L393.841 84.4867C393.312 85.0591 392.634 85.4224 391.914 85.5576Z" fill="#1A1A1A"/>
<path d="M377.945 98.8167C377.736 98.856 377.513 98.7988 377.344 98.643C377.063 98.3817 377.047 97.9421 377.307 97.6606L386.754 87.4549C387.014 87.1735 387.453 87.1584 387.734 87.4182C388.015 87.6795 388.031 88.1191 387.771 88.4006L378.325 98.6069C378.219 98.7199 378.086 98.7902 377.945 98.8167Z" fill="#1A1A1A"/>
<path d="M409.695 92.9321C409.553 92.9587 409.402 92.9412 409.262 92.8726L396.784 86.7299C396.44 86.5603 396.298 86.1437 396.467 85.7994C396.636 85.4551 397.05 85.3137 397.394 85.4818L409.873 91.6244C410.216 91.794 410.359 92.2107 410.19 92.555C410.09 92.7597 409.903 92.8931 409.695 92.9321Z" fill="#1A1A1A"/>
<path d="M405.683 178.698C423.309 178.698 437.598 164.428 437.598 146.824C437.598 129.22 423.309 114.949 405.683 114.949C388.057 114.949 373.769 129.22 373.769 146.824C373.769 164.428 388.057 178.698 405.683 178.698Z" fill="#FECE2F"/>
<path d="M347.198 148.424C359.086 148.424 368.722 138.8 368.722 126.927C368.722 115.055 359.086 105.431 347.198 105.431C335.311 105.431 325.675 115.055 325.675 126.927C325.675 138.8 335.311 148.424 347.198 148.424Z" fill="#FECE2F"/>
<path d="M367.98 54.0192C378.063 54.0192 386.238 45.855 386.238 35.784C386.238 25.713 378.063 17.5488 367.98 17.5488C357.896 17.5488 349.722 25.713 349.722 35.784C349.722 45.855 357.896 54.0192 367.98 54.0192Z" fill="#FECE2F"/>
<path d="M360.997 134.927L337.122 139.39C335.964 139.607 334.851 138.85 334.636 137.7L331.695 121.973C331.479 120.823 332.244 119.714 333.402 119.498L357.276 115.035C358.434 114.819 359.548 115.576 359.763 116.726L362.704 132.453C362.919 133.603 362.155 134.711 360.997 134.927Z" fill="white"/>
<path d="M361.13 135.607C361.128 135.607 361.126 135.607 361.124 135.608L337.25 140.069C336.507 140.209 335.755 140.052 335.131 139.628C334.508 139.204 334.089 138.565 333.951 137.826L331.01 122.1C330.872 121.362 331.032 120.615 331.458 119.995C331.885 119.376 332.527 118.959 333.267 118.819C333.27 118.819 333.272 118.818 333.274 118.818L357.148 114.356C358.681 114.069 360.162 115.075 360.447 116.599L363.389 132.326C363.673 133.846 362.661 135.317 361.13 135.607ZM333.525 120.178C332.748 120.325 332.234 121.072 332.379 121.844L335.32 137.571C335.39 137.946 335.603 138.271 335.92 138.485C336.236 138.701 336.618 138.78 336.995 138.709L360.869 134.247C360.871 134.247 360.872 134.247 360.873 134.247C361.651 134.099 362.165 133.353 362.02 132.58L359.078 116.854C358.933 116.08 358.182 115.569 357.403 115.715L333.528 120.177C333.527 120.178 333.526 120.178 333.525 120.178Z" fill="#1A1A1A"/>
<path d="M360.45 120.386C360.449 120.386 360.449 120.386 360.448 120.386L344.883 123.296C343.72 123.513 342.535 122.981 341.932 121.972L340.647 119.818C340.335 119.295 339.722 119.02 339.12 119.132C338.742 119.203 338.379 118.956 338.308 118.581C338.238 118.206 338.487 117.844 338.864 117.773C338.865 117.773 338.866 117.773 338.866 117.773C340.04 117.553 341.237 118.09 341.846 119.111L343.129 121.264C343.436 121.777 344.037 122.047 344.628 121.937L360.194 119.027C360.572 118.956 360.935 119.203 361.005 119.578C361.076 119.954 360.827 120.315 360.45 120.386Z" fill="#1A1A1A"/>
<path d="M408.136 122.612L387.99 126.257C386.429 126.539 385.394 128.04 385.678 129.609L392.963 169.843C393.247 171.412 394.743 172.455 396.304 172.172L424.57 167.059C426.131 166.776 427.166 165.275 426.882 163.706L421.075 131.633L408.136 122.612Z" fill="white"/>
<path d="M424.702 167.732C424.699 167.732 424.696 167.733 424.693 167.733L396.427 172.846C395.492 173.015 394.548 172.809 393.767 172.264C392.986 171.72 392.463 170.903 392.293 169.964L385.007 129.729C384.837 128.791 385.041 127.842 385.581 127.058C386.12 126.278 386.929 125.754 387.86 125.583C387.862 125.583 387.865 125.583 387.868 125.582L408.014 121.938C408.192 121.905 408.375 121.946 408.524 122.049L421.464 131.072C421.613 131.175 421.714 131.334 421.747 131.513L427.555 163.586C427.725 164.524 427.521 165.473 426.981 166.257C426.441 167.038 425.632 167.561 424.702 167.732ZM388.107 126.932C387.533 127.037 387.035 127.359 386.703 127.841C386.37 128.323 386.244 128.909 386.349 129.487L393.635 169.722C393.74 170.3 394.063 170.804 394.544 171.139C395.025 171.474 395.607 171.602 396.184 171.497L424.45 166.385C424.451 166.384 424.453 166.384 424.454 166.384C425.028 166.279 425.527 165.956 425.859 165.474C426.192 164.992 426.318 164.407 426.213 163.828L420.456 132.035L407.979 123.337L388.112 126.931C388.11 126.931 388.109 126.931 388.107 126.932Z" fill="#1A1A1A"/>
<path d="M415.941 140.607C415.941 140.607 415.94 140.607 415.939 140.607L395.516 144.302C395.146 144.369 394.79 144.121 394.723 143.749C394.655 143.378 394.901 143.021 395.27 142.954C395.27 142.954 395.271 142.954 395.271 142.953L415.695 139.259C416.065 139.192 416.42 139.439 416.488 139.812C416.555 140.183 416.311 140.539 415.941 140.607Z" fill="#1A1A1A"/>
<path d="M417.011 146.52C417.011 146.52 417.011 146.52 417.01 146.521L396.586 150.215C396.216 150.282 395.861 150.035 395.793 149.662C395.726 149.291 395.971 148.935 396.341 148.867C396.341 148.867 396.341 148.867 396.342 148.867L416.765 145.172C417.136 145.105 417.491 145.353 417.559 145.725C417.625 146.096 417.381 146.453 417.011 146.52Z" fill="#1A1A1A"/>
<path d="M418.081 152.434C418.081 152.434 418.081 152.434 418.08 152.434L397.657 156.128C397.286 156.196 396.931 155.948 396.863 155.576C396.796 155.204 397.041 154.848 397.411 154.78C397.411 154.78 397.411 154.78 397.412 154.78L417.835 151.085C418.206 151.018 418.561 151.266 418.629 151.638C418.696 152.01 418.452 152.366 418.081 152.434Z" fill="#1A1A1A"/>
<path d="M413.036 159.453C413.036 159.453 413.036 159.453 413.035 159.453L398.727 162.041C398.357 162.108 398.001 161.86 397.934 161.488C397.866 161.117 398.112 160.76 398.481 160.693C398.481 160.693 398.482 160.693 398.483 160.692L412.791 158.104C413.161 158.037 413.516 158.285 413.584 158.657C413.651 159.029 413.406 159.385 413.036 159.453Z" fill="#1A1A1A"/>
<path d="M408.123 122.602L409.605 130.789C409.889 132.358 411.385 133.4 412.946 133.118L421.093 131.644L408.123 122.602Z" fill="white"/>
<path d="M421.216 132.317C421.215 132.317 421.215 132.317 421.214 132.317L413.067 133.791C412.133 133.961 411.189 133.754 410.407 133.21C409.626 132.665 409.103 131.848 408.933 130.909L407.451 122.722C407.401 122.45 407.52 122.174 407.752 122.025C407.984 121.875 408.283 121.881 408.509 122.038L421.479 131.081C421.707 131.239 421.816 131.519 421.757 131.789C421.701 132.06 421.487 132.267 421.216 132.317ZM409.087 124.107L410.275 130.667C410.38 131.245 410.703 131.749 411.184 132.084C411.665 132.42 412.247 132.547 412.824 132.443L419.351 131.262L409.087 124.107Z" fill="#1A1A1A"/>
<path d="M382.789 42.345C382.789 42.3451 382.787 42.3453 382.787 42.3454L358.622 46.368C358.448 46.397 358.269 46.3566 358.126 46.2552C357.983 46.1531 357.887 45.9997 357.858 45.8267L355.065 29.0606C355.006 28.703 355.249 28.3632 355.61 28.3017C355.611 28.3016 355.612 28.3014 355.613 28.3013C355.975 28.2409 356.317 28.4835 356.377 28.8424L359.061 44.9585L382.57 41.0449C382.932 40.9846 383.275 41.2272 383.334 41.5861C383.395 41.9443 383.15 42.2835 382.789 42.345Z" fill="#1A1A1A"/>
<path d="M366.33 33.7647L360.956 34.6596L362.659 44.8841L368.033 43.9891L366.33 33.7647Z" fill="white"/>
<path d="M368.143 44.6385C368.143 44.6386 368.141 44.6388 368.141 44.6389L362.767 45.5339C362.405 45.5943 362.062 45.3517 362.003 44.9928L360.3 34.7683C360.24 34.4101 360.484 34.071 360.845 34.0094C360.846 34.0093 360.847 34.0091 360.848 34.009L366.222 33.114C366.396 33.085 366.574 33.1256 366.717 33.2268C366.861 33.3281 366.957 33.4822 366.986 33.6545L368.689 43.8796C368.717 44.0519 368.676 44.2288 368.573 44.3714C368.471 44.5131 368.316 44.609 368.143 44.6385ZM363.207 44.1243L367.268 43.4476L365.782 34.5229L361.72 35.1997L363.207 44.1243Z" fill="#1A1A1A"/>
<path d="M371.344 29.4752L365.97 30.3702L368.233 43.9561L373.607 43.0611L371.344 29.4752Z" fill="white"/>
<path d="M373.716 43.71C373.716 43.7101 373.714 43.7103 373.714 43.7105L368.34 44.6055C368.166 44.6344 367.987 44.594 367.844 44.4926C367.701 44.3914 367.604 44.2373 367.576 44.065L365.314 30.479C365.254 30.1208 365.498 29.7817 365.859 29.7201C365.86 29.72 365.86 29.7199 365.862 29.7197L371.236 28.8247C371.409 28.7957 371.588 28.8362 371.731 28.9375C371.874 29.0388 371.971 29.1928 372 29.3651L374.262 42.9518C374.322 43.3093 374.078 43.6485 373.716 43.71ZM368.78 43.1959L372.841 42.5191L370.796 30.2335L366.734 30.9102L368.78 43.1959Z" fill="#1A1A1A"/>
<path d="M377.838 35.3028L372.464 36.1978L373.607 43.0608L378.981 42.1658L377.838 35.3028Z" fill="white"/>
<path d="M379.091 42.8153C379.09 42.8155 379.089 42.8157 379.089 42.8158L373.715 43.7108C373.352 43.7712 373.01 43.5286 372.95 43.1697L371.807 36.3068C371.748 35.9485 371.991 35.6094 372.353 35.5479C372.353 35.5478 372.355 35.5475 372.355 35.5474L377.729 34.6524C377.903 34.6235 378.081 34.664 378.225 34.7653C378.368 34.8665 378.465 35.0206 378.493 35.1929L379.636 42.0565C379.665 42.2288 379.624 42.4056 379.521 42.5483C379.418 42.6895 379.264 42.7859 379.091 42.8153ZM374.154 42.3007L378.215 41.6239L377.289 36.0608L373.227 36.7376L374.154 42.3007Z" fill="#1A1A1A"/>
</svg>
