<svg width="203" height="167" viewBox="0 0 203 167" fill="none" xmlns="http://www.w3.org/2000/svg">
<path d="M152.25 133.46C138.547 133.46 129.92 137.665 122.307 141.469C115.71 144.773 110.33 147.477 101.5 147.477C92.365 147.477 87.29 144.974 80.6925 141.469C73.08 137.665 64.757 133.46 50.75 133.46C36.743 133.46 28.42 137.665 20.8075 141.469C16.443 143.672 12.586 145.574 7.917 146.676C3.3495 147.677 0 151.281 0 155.787V156.788C0 162.795 5.684 167.1 11.571 165.899C19.082 164.397 24.766 161.594 29.9425 158.99C36.54 155.686 41.818 152.983 50.75 152.983C59.682 152.983 64.96 155.486 71.5575 158.99C79.17 162.795 87.493 167 101.5 167C115.507 167 123.83 162.795 131.442 158.99C138.04 155.686 143.419 152.983 152.25 152.983C161.385 152.983 166.46 155.486 173.057 158.99C178.335 161.594 184.019 164.497 191.632 165.999C193.003 166.263 194.417 166.227 195.772 165.893C197.127 165.559 198.392 164.935 199.476 164.066C200.561 163.197 201.438 162.104 202.047 160.863C202.656 159.623 202.981 158.266 203 156.888V155.987C203 151.381 199.549 147.777 194.981 146.776C190.312 145.775 186.557 143.872 182.193 141.57C174.58 137.665 165.952 133.46 152.25 133.46V133.46ZM152.25 88.9065C138.547 88.9065 129.92 93.2116 122.307 96.9161C115.71 100.12 110.33 102.923 101.5 102.923C92.365 102.923 87.29 100.42 80.6925 96.9161C73.08 93.1115 64.757 88.9065 50.75 88.9065C36.743 88.9065 28.42 93.2116 20.8075 96.9161C16.443 99.0186 12.586 101.021 7.8155 102.122C3.3495 103.124 0 106.728 0 111.233V112.234C0.00058005 113.618 0.313863 114.985 0.917059 116.234C1.52025 117.483 2.3982 118.584 3.48702 119.457C4.57584 120.33 5.84817 120.952 7.21145 121.279C8.57472 121.605 9.99467 121.628 11.368 121.345C18.9805 119.844 24.6645 116.94 29.9425 114.437C36.54 110.933 41.615 108.43 50.75 108.43C59.885 108.43 64.96 110.933 71.5575 114.437C79.17 118.242 87.493 122.447 101.5 122.447C115.507 122.447 123.83 118.141 131.442 114.437C138.04 110.933 143.115 108.43 152.25 108.43C161.385 108.43 166.46 110.933 173.057 114.437C178.335 117.04 184.019 119.944 191.632 121.445C193.012 121.711 194.434 121.672 195.796 121.333C197.159 120.993 198.429 120.361 199.515 119.481C200.601 118.601 201.477 117.495 202.079 116.242C202.682 114.989 202.996 113.621 203 112.234V111.333C203 106.728 199.549 103.124 194.981 102.122C190.312 101.121 186.557 99.2188 182.193 96.9161C174.58 93.1115 165.952 88.9065 152.25 88.9065V88.9065ZM182.193 8.00959C174.58 4.20504 166.155 0 152.25 0C138.344 0 129.92 4.20504 122.307 8.00959C115.71 11.2134 110.33 14.0168 101.5 14.0168C92.365 14.0168 87.29 11.5138 80.6925 8.00959C73.08 4.30516 64.757 0 50.75 0C36.743 0 28.42 4.20504 20.8075 8.00959C16.443 10.2122 12.586 12.1145 7.917 13.2158C3.3495 14.217 0 17.8213 0 22.3267V23.0276C0 29.0348 5.481 33.44 11.368 32.2386C18.9805 30.7368 24.6645 27.8333 29.9425 25.3303C36.54 22.0264 41.818 19.3231 50.75 19.3231C59.682 19.3231 64.96 21.8261 71.5575 25.3303C79.17 29.1349 87.493 33.3399 101.5 33.3399C115.507 33.3399 123.83 29.0348 131.442 25.3303C138.04 22.1265 143.419 19.3231 152.25 19.3231C161.385 19.3231 166.46 21.8261 173.057 25.3303C178.335 27.9335 184.019 30.8369 191.632 32.3387C193.012 32.6042 194.434 32.5658 195.796 32.2261C197.159 31.8865 198.429 31.254 199.515 30.374C200.601 29.4939 201.477 28.388 202.079 27.1353C202.682 25.8827 202.996 24.5142 203 23.1277V22.2266C203 17.6211 199.549 14.0168 194.981 13.0156C190.312 12.0144 186.557 10.2122 182.193 8.00959V8.00959ZM152.25 44.3531C138.547 44.3531 129.92 48.6583 122.307 52.3627C115.71 55.8669 110.635 58.3699 101.5 58.3699C92.365 58.3699 87.29 55.8669 80.6925 52.3627C73.08 48.5582 64.757 44.3531 50.75 44.3531C36.743 44.3531 28.42 48.6583 20.8075 52.3627C16.443 54.6655 12.6875 56.5677 8.0185 57.5689C3.451 58.5701 0 62.1745 0 66.78V67.6811C0.00058005 69.0649 0.313863 70.4312 0.917059 71.6806C1.52025 72.93 2.3982 74.0311 3.48702 74.9037C4.57584 75.7764 5.84817 76.3986 7.21145 76.7253C8.57472 77.0519 9.99467 77.0747 11.368 76.792C18.9805 75.2902 24.6645 72.3867 29.9425 69.8837C36.54 66.6799 41.9195 63.8765 50.75 63.8765C59.5805 63.8765 64.96 66.3795 71.5575 69.8837C79.17 73.6883 87.493 77.8933 101.5 77.8933C115.507 77.8933 123.83 73.5881 131.442 69.8837C138.04 66.6799 143.419 63.8765 152.25 63.8765C161.385 63.8765 166.46 66.3795 173.057 69.8837C178.335 72.4868 184.019 75.3903 191.632 76.8921C193.003 77.1561 194.417 77.1199 195.772 76.7859C197.127 76.4519 198.392 75.8284 199.476 74.9594C200.561 74.0903 201.438 72.997 202.047 71.7567C202.656 70.5163 202.981 69.1592 203 67.7812V66.8801C203 62.2746 199.549 58.6703 194.981 57.6691C190.312 56.6679 186.557 54.7656 182.193 52.4628C174.58 48.5582 165.952 44.3531 152.25 44.3531V44.3531Z" fill="#F5C422"/>
</svg>
