<svg width="24" height="24" viewBox="0 0 24 24" fill="none" xmlns="http://www.w3.org/2000/svg">
<path d="M21.552 6.96001C21.36 5.90401 20.448 5.13601 19.392 4.89601C17.808 4.56001 14.88 4.32001 11.712 4.32001C8.544 4.32001 5.568 4.56001 3.984 4.89601C2.928 5.13601 2.016 5.85601 1.824 6.96001C1.632 8.16001 1.44 9.84001 1.44 12C1.44 14.16 1.632 15.84 1.872 17.04C2.064 18.096 2.976 18.864 4.032 19.104C5.712 19.44 8.592 19.68 11.76 19.68C14.928 19.68 17.808 19.44 19.488 19.104C20.544 18.864 21.456 18.144 21.648 17.04C21.84 15.84 22.08 14.112 22.128 12C22.032 9.84001 21.792 8.16001 21.552 6.96001ZM9.12 15.36V8.64001L14.976 12L9.12 15.36Z" fill="#111111"/>
</svg>
