<svg width="102" height="16" viewBox="0 0 102 16" fill="none" xmlns="http://www.w3.org/2000/svg">
<path d="M16.6553 1.26923H20.4107L17.7554 14.7308H14L16.6553 1.26923Z" fill="#27282C"/>
<path d="M25.3015 4.28846H21.2237L21.8306 1.26923H33.7226L33.1157 4.28846H29.0569L26.9895 14.7308H23.2342L25.3015 4.28846Z" fill="#27282C"/>
<path d="M42.9362 15C41.8362 15 40.793 14.8654 39.8067 14.5962C38.8205 14.3269 38.0176 13.9808 37.398 13.5577L38.8774 10.7115C39.5475 11.1474 40.2619 11.4808 41.0206 11.7115C41.7793 11.9295 42.5379 12.0385 43.2966 12.0385C44.0173 12.0385 44.5737 11.9359 44.9656 11.7308C45.3703 11.5128 45.5726 11.2179 45.5726 10.8462C45.5726 10.5256 45.3892 10.2756 45.0225 10.0962C44.6685 9.91667 44.1121 9.72436 43.3535 9.51923C42.4937 9.28846 41.7793 9.05769 41.2103 8.82692C40.6413 8.58333 40.1481 8.21795 39.7309 7.73077C39.3263 7.24359 39.124 6.60256 39.124 5.80769C39.124 4.84615 39.3832 4.00641 39.9016 3.28846C40.42 2.55769 41.1597 1.99359 42.1207 1.59615C43.0816 1.19872 44.207 1 45.4967 1C46.445 1 47.3301 1.10256 48.152 1.30769C48.9739 1.5 49.682 1.78205 50.2763 2.15385L48.9107 4.98077C48.3923 4.64744 47.8169 4.39744 47.1847 4.23077C46.5651 4.05128 45.9266 3.96154 45.2691 3.96154C44.5231 3.96154 43.9351 4.08333 43.5052 4.32692C43.088 4.57051 42.8793 4.88462 42.8793 5.26923C42.8793 5.60256 43.0627 5.85897 43.4293 6.03846C43.796 6.21795 44.365 6.41026 45.1363 6.61538C45.9962 6.83333 46.7042 7.05769 47.2606 7.28846C47.8296 7.51923 48.3164 7.87179 48.721 8.34615C49.1256 8.82051 49.3279 9.44231 49.3279 10.2115C49.3279 11.1603 49.0624 12 48.5313 12.7308C48.0129 13.4487 47.2669 14.0064 46.2933 14.4038C45.3323 14.8013 44.2133 15 42.9362 15Z" fill="#27282C"/>
<path d="M57.4354 15C56.0951 15 54.9255 14.75 53.9266 14.25C52.9403 13.75 52.1753 13.0513 51.6316 12.1538C51.1006 11.2564 50.835 10.2308 50.835 9.07692C50.835 7.53846 51.1827 6.15385 51.8782 4.92308C52.5863 3.69231 53.5662 2.73077 54.818 2.03846C56.0824 1.34615 57.5176 1 59.1234 1C60.4637 1 61.627 1.25 62.6132 1.75C63.6121 2.25 64.3771 2.94872 64.9082 3.84615C65.4519 4.74359 65.7237 5.76923 65.7237 6.92308C65.7237 8.46154 65.3697 9.84615 64.6616 11.0769C63.9662 12.3077 62.9862 13.2692 61.7218 13.9615C60.47 14.6538 59.0412 15 57.4354 15ZM57.7578 11.8462C58.5923 11.8462 59.3257 11.6346 59.9579 11.2115C60.5901 10.7885 61.0769 10.2244 61.4183 9.51923C61.7597 8.80128 61.9304 8.01282 61.9304 7.15385C61.9304 6.24359 61.6523 5.51923 61.0959 4.98077C60.5522 4.42949 59.7872 4.15385 58.801 4.15385C57.9664 4.15385 57.2331 4.36539 56.6008 4.78846C55.9686 5.21154 55.4818 5.78205 55.1404 6.5C54.799 7.20513 54.6283 7.98718 54.6283 8.84615C54.6283 9.75641 54.9002 10.4872 55.4439 11.0385C56.0002 11.5769 56.7715 11.8462 57.7578 11.8462Z" fill="#27282C"/>
<path d="M73.5513 15C72.211 15 71.035 14.7564 70.0235 14.2692C69.012 13.7692 68.2343 13.0705 67.6906 12.1731C67.1469 11.2756 66.8751 10.2436 66.8751 9.07692C66.8751 7.53846 67.2228 6.15385 67.9182 4.92308C68.6263 3.69231 69.6126 2.73077 70.877 2.03846C72.1414 1.34615 73.5829 1 75.2014 1C76.4279 1 77.5153 1.22436 78.4636 1.67308C79.4119 2.10897 80.12 2.73077 80.5879 3.53846L77.8756 5.73077C77.2308 4.67949 76.2572 4.15385 74.9548 4.15385C74.1076 4.15385 73.3616 4.35897 72.7167 4.76923C72.0719 5.16667 71.5661 5.72436 71.1994 6.44231C70.8454 7.14744 70.6684 7.94231 70.6684 8.82692C70.6684 9.73718 70.9592 10.4679 71.5408 11.0192C72.1225 11.5705 72.9127 11.8462 73.9116 11.8462C75.1761 11.8462 76.2572 11.3269 77.1549 10.2885L79.374 12.5C78.6533 13.3846 77.8124 14.0256 76.8514 14.4231C75.8905 14.8077 74.7904 15 73.5513 15Z" fill="#27282C"/>
<path d="M95.5767 1.26923L92.9214 14.7308H89.166L90.1902 9.5H85.0882L84.0641 14.7308H80.3087L82.964 1.26923H86.7194L85.7331 6.30769H90.8351L91.8214 1.26923H95.5767Z" fill="#27282C"/>
<path d="M98.2446 1.26923H102L99.3447 14.7308H95.5893L98.2446 1.26923Z" fill="#27282C"/>
<path fill-rule="evenodd" clip-rule="evenodd" d="M17 8.26666C17 8.33032 16.9993 8.39382 16.9979 8.45715H0.00206989C0.00069235 8.39382 0 8.33032 0 8.26666C0 8.14329 0.00259997 8.02054 0.00774781 7.89844H16.9923C16.9974 8.02054 17 8.14329 17 8.26666ZM0.0950829 9.5492C0.0662418 9.35653 0.0437985 9.16175 0.0279774 8.96509H16.972C16.9562 9.16175 16.9338 9.35653 16.9049 9.5492H0.0950829ZM0.197782 10.1079C0.2333 10.2706 0.273425 10.4314 0.318012 10.5905H16.682C16.7266 10.4314 16.7667 10.2706 16.8022 10.1079H0.197782ZM0.706181 11.6826C0.644545 11.5406 0.586634 11.3966 0.532571 11.2508H16.4674C16.4134 11.3966 16.3555 11.5406 16.2938 11.6826H0.706181ZM1.04114 12.3683C1.10672 12.4886 1.1751 12.6071 1.24619 12.7238H15.7538C15.8249 12.6071 15.8933 12.4886 15.9589 12.3683H1.04114ZM2.03549 13.8159C1.94389 13.7081 1.85492 13.598 1.76866 13.4857H15.2313C15.1451 13.598 15.0561 13.7081 14.9645 13.8159H2.03549ZM2.79639 14.6032C2.90158 14.6989 3.00917 14.7921 3.11905 14.8825H13.8809C13.9908 14.7921 14.0984 14.6989 14.2036 14.6032H2.79639ZM4.87758 16C4.67898 15.9058 4.48459 15.8041 4.29478 15.6952H12.7052C12.5154 15.8041 12.321 15.9058 12.1224 16H4.87758ZM16.9533 7.36511C16.9318 7.15967 16.9032 6.95641 16.8675 6.75557H0.13246C0.0968199 6.95641 0.0681579 7.15967 0.046735 7.36511H16.9533ZM16.7735 6.29842H0.226528C0.281007 6.06605 0.344921 5.83734 0.417839 5.61272H16.5822C16.6551 5.83734 16.719 6.06605 16.7735 6.29842ZM16.458 5.25716C16.3606 4.99691 16.2509 4.7427 16.1297 4.49525H0.870347C0.749111 4.7427 0.639434 4.99691 0.542024 5.25716H16.458ZM15.9727 4.19049H1.02733C1.17916 3.90971 1.34619 3.63844 1.52731 3.3778H15.4727C15.6538 3.63844 15.8208 3.90971 15.9727 4.19049ZM15.2701 3.09844C15.0613 2.82235 14.8361 2.55942 14.5961 2.3111H2.4039C2.16387 2.55942 1.93872 2.82235 1.7299 3.09844H15.2701ZM14.2862 2.00634H2.71381C3.01938 1.72072 3.34589 1.45743 3.69077 1.21908H13.3092C13.6541 1.45743 13.9806 1.72072 14.2862 2.00634ZM10.6638 0C11.4523 0.208078 12.1961 0.52719 12.8777 0.939714H4.1223C4.80386 0.52719 5.54768 0.208078 6.33624 0H10.6638Z" fill="url(#paint0_linear)"/>
<defs>
<linearGradient id="paint0_linear" x1="8.5" y1="-0.279365" x2="8.5" y2="16.8127" gradientUnits="userSpaceOnUse">
<stop stop-color="#FDCC16"/>
<stop offset="1" stop-color="#F4811F"/>
</linearGradient>
</defs>
</svg>
