<svg width="537" height="537" viewBox="0 0 537 537" fill="none" xmlns="http://www.w3.org/2000/svg">
<path d="M324.831 101.654C296.531 57.3248 191.924 30.5822 150.011 58.3451C108.098 86.108 127.457 149.044 100.875 165.369C74.2939 181.721 13.1833 236.146 29.1859 300.989C51.7399 392.493 28.085 434.782 62.2114 464.988C111.347 508.485 166.121 472.775 233.004 491.57C299.861 510.365 401.219 526.072 443.267 479.085C474.681 443.965 462.223 397.112 482.736 350.822C507.707 294.437 485.958 238.884 422.324 228.279C358.689 217.673 351.413 143.325 324.831 101.654Z" fill="#FECE2F"/>
<path d="M415.101 312.534C415.101 312.534 420.874 307.969 423.827 309.715C425.492 310.681 427.613 310.198 428.687 308.614L436.957 296.209C437.655 295.162 437.762 293.846 437.252 292.719C436.742 291.618 436.42 289.792 437.252 287.053C437.252 287.026 418.592 310.386 415.101 312.534Z" fill="white"/>
<path d="M301.713 336.027L322.549 321.797C325.556 319.541 328.51 320.159 329.584 321.609C330.899 323.381 330.309 325.609 327.516 327.274L318.978 332.939C317.609 333.852 317.206 335.651 318.011 337.074C319.058 338.9 318.038 341.236 315.971 341.666L307.916 343.357C305.097 343.948 302.197 342.659 300.774 340.162C299.968 338.712 300.371 336.94 301.713 336.027Z" fill="white"/>
<path d="M418.753 317.877C419.612 318.145 420.525 317.984 421.277 317.501C423.398 316.239 423.854 314.547 422.834 313.205C422.028 312.131 419.773 311.648 417.491 313.366C415.826 314.574 416.282 317.152 418.242 317.743L418.753 317.877Z" fill="white"/>
<path d="M323.542 339.303C324.241 339.518 325.019 339.41 325.61 338.981L325.825 338.847C327.946 337.585 328.402 335.893 327.382 334.551C326.577 333.477 324.321 332.993 322.039 334.712C320.374 335.92 320.831 338.498 322.791 339.088L323.542 339.303Z" fill="white"/>
<path d="M351.117 328.913C351.117 328.913 342.337 348.433 339.84 368.463C337.343 388.52 338.417 399.286 338.417 399.286C338.417 399.286 319.327 401.569 311.514 398.884C311.514 398.884 321.69 375.148 322.71 363.227L332.161 353.427L351.117 328.913Z" fill="white"/>
<path d="M306.922 242.24C306.117 243.207 305.204 244.039 304.21 244.469C298.438 246.993 291.269 249.248 284.878 248.98C276.125 248.631 269.279 244.496 262.298 239.368C258.592 236.656 255.317 233.89 252.524 230.265C250.618 227.795 249.195 225.218 248.309 222.398C240.952 222.157 232.065 222.184 222.049 222.855C193.588 224.734 153.045 251.584 140.962 299.109C128.88 346.633 155.327 380.196 155.327 380.196C157.341 369.993 166.201 351.735 186.607 336.43C207.013 321.126 242.67 322.952 242.67 322.952C249.598 340.082 264.634 339.008 278.703 338.202C292.772 337.397 326.899 311.352 326.899 311.352L352.54 295.108C347.788 286.811 317.528 253.732 306.922 242.24Z" fill="white"/>
<path d="M219.982 316.078C219.875 316.078 219.767 316.078 219.66 316.078C218.103 316.051 214.37 315.702 213.565 312.775C212.84 310.09 215.31 307.808 218.103 306.707C218.559 306.519 219.042 306.358 219.526 306.197C219.123 306.17 218.72 306.117 218.317 306.063C217.324 305.956 214.344 305.606 213.457 303.324C212.706 301.391 214.021 299.297 215.686 298.223C218.264 296.585 221.486 296.531 224.063 296.504L241.328 296.316C241.757 296.316 242.133 296.665 242.133 297.122C242.133 297.578 241.784 297.927 241.328 297.927L224.063 298.115C221.674 298.142 218.72 298.169 216.545 299.565C215.444 300.263 214.505 301.633 214.934 302.734C215.283 303.646 216.465 304.21 218.478 304.452C221.029 304.747 223.607 304.855 226.184 304.828C226.963 304.774 227.769 304.747 228.547 304.747C228.977 304.747 229.326 305.096 229.353 305.526C229.353 305.956 229.03 306.331 228.601 306.358C227.822 306.412 227.07 306.439 226.292 306.439C223.687 306.654 221.11 307.244 218.693 308.184C216.653 308.99 214.639 310.654 215.122 312.346C215.659 314.279 218.747 314.467 219.687 314.467C222.211 314.494 224.815 314.198 227.312 313.903C231.501 313.42 235.824 312.91 240.039 313.876C240.469 313.984 240.737 314.413 240.657 314.843C240.549 315.272 240.12 315.541 239.69 315.46C235.743 314.574 231.742 315.031 227.5 315.514C225.057 315.783 222.506 316.078 219.982 316.078Z" fill="#FECE2F"/>
<path d="M271.668 340.028C271.534 340.028 271.4 340.001 271.266 339.92C268.366 338.202 266.271 335.087 265.493 331.382C264.875 328.321 265.144 324.884 266.271 321.179C267.184 318.199 268.554 316.427 270.433 315.755C272.742 314.923 275.105 316.024 276.716 317.098C279.401 318.924 281.549 321.475 282.865 324.401C283.804 321.716 284.959 319.112 286.275 316.615C286.839 315.541 287.537 314.359 288.745 313.715C290.248 312.909 292.933 312.936 295.538 315.729C295.887 316.105 296.209 316.48 296.531 316.91C297.042 315.89 298.008 315.165 299.27 314.896C301.123 314.494 303.217 315.138 304.452 316.48C306.412 318.602 306.734 321.555 306.922 324.643C306.949 325.099 306.6 325.475 306.171 325.502C305.741 325.529 305.338 325.18 305.311 324.75C305.15 321.958 304.882 319.327 303.271 317.581C302.412 316.668 300.908 316.212 299.592 316.48C298.975 316.615 298.169 316.964 297.874 317.877C297.767 318.199 297.74 318.494 297.766 318.843C298.572 320.347 299.163 321.985 299.431 323.676C299.592 324.24 299.673 324.858 299.619 325.475C299.592 325.905 299.243 326.227 298.814 326.227C298.384 326.227 298.035 325.878 298.008 325.448C297.981 324.965 297.928 324.509 297.847 324.025C297.686 323.408 297.417 322.79 297.122 322.146C296.719 321.233 296.317 320.32 296.182 319.353C295.672 318.467 295.055 317.635 294.383 316.883C293.041 315.46 291.027 314.359 289.524 315.192C288.718 315.621 288.181 316.534 287.725 317.447C286.087 320.535 284.744 323.81 283.724 327.14C283.617 327.489 283.294 327.704 282.945 327.704C282.596 327.704 282.274 327.462 282.167 327.14C281.146 323.676 278.837 320.535 275.83 318.494C274.783 317.796 272.769 316.695 270.997 317.313C269.628 317.796 268.607 319.246 267.829 321.689C266.755 325.126 266.513 328.294 267.077 331.087C267.721 334.309 269.601 337.101 272.071 338.578C272.447 338.793 272.581 339.303 272.366 339.679C272.205 339.894 271.937 340.028 271.668 340.028Z" fill="#FECE2F"/>
<path d="M317.152 297.498C315.487 297.498 313.823 297.31 312.185 296.934C309.822 296.397 308.345 295.377 307.808 293.873C307.191 292.181 308.05 290.383 309.178 289.309C303.459 289.819 297.713 289.523 292.047 288.369C291 288.154 289.792 287.859 288.933 286.973C287.51 285.496 287.805 283.16 288.799 281.71C289.819 280.233 291.43 279.428 292.853 278.837C293.041 278.756 293.229 278.676 293.417 278.622C291.886 278.595 290.329 278.569 288.799 278.515C284.368 278.327 282.838 276.233 282.865 274.514C282.892 273.36 283.563 272.393 284.207 271.641C289.04 265.922 296.263 263.425 303.217 260.982C306.197 259.935 309.285 258.861 312.131 257.545C312.534 257.357 313.017 257.545 313.205 257.948C313.393 258.35 313.205 258.834 312.802 259.022C309.903 260.364 306.761 261.465 303.754 262.512C296.666 264.982 289.98 267.318 285.442 272.688C284.959 273.252 284.476 273.897 284.476 274.568C284.476 274.809 284.449 275.588 285.738 276.233C286.543 276.635 287.671 276.877 288.852 276.931C292.343 277.065 295.887 277.092 299.404 277.011C301.713 276.635 304.076 276.501 306.412 276.689C306.842 276.716 307.164 277.065 307.164 277.495C307.164 277.924 306.842 278.273 306.412 278.3C304.13 278.461 301.848 278.568 299.565 278.622C297.471 278.971 295.431 279.562 293.47 280.394C292.262 280.904 290.893 281.576 290.114 282.703C289.47 283.616 289.282 285.093 290.061 285.899C290.598 286.436 291.457 286.65 292.316 286.838C299.27 288.235 306.332 288.342 313.339 287.187C313.742 287.107 314.145 287.375 314.252 287.778C314.36 288.181 314.145 288.61 313.742 288.745C312.507 289.174 311.218 289.631 310.279 290.49C309.527 291.161 308.909 292.343 309.285 293.39C309.634 294.329 310.708 295.028 312.507 295.43C316.159 296.263 319.998 296.075 323.569 294.92C323.999 294.786 324.455 295.028 324.59 295.43C324.724 295.86 324.482 296.316 324.08 296.451C321.851 297.122 319.488 297.498 317.152 297.498Z" fill="#FECE2F"/>
<path d="M137.794 308.507C137.418 308.507 137.069 308.238 136.989 307.835C136.908 307.406 137.204 306.976 137.633 306.895L155.596 303.781C157.583 303.432 159.838 303.056 161.449 301.74C162.845 300.613 163.651 298.357 162.577 296.934C161.744 295.833 160.08 295.538 158.442 295.323C157.529 295.216 156.616 295.081 155.676 295.001C152.24 295.538 148.749 295.887 145.259 295.994C144.883 296.021 144.534 295.753 144.453 295.377C144.372 295.001 144.56 294.625 144.909 294.464C148.319 292.987 152.159 293.041 155.623 293.39C157.663 293.068 159.677 292.665 161.691 292.182C163.624 291.725 165.826 291.108 167.329 289.685C168.618 288.449 169.343 286.221 168.269 284.717C167.49 283.643 166.014 283.187 164.671 282.918C156.885 281.254 148.507 282.704 141.741 286.892C141.365 287.134 140.855 287 140.64 286.624C140.399 286.248 140.533 285.738 140.909 285.523C148.051 281.119 156.831 279.616 165.02 281.334C166.577 281.656 168.484 282.247 169.585 283.778C171.169 286.006 170.256 289.121 168.457 290.839C166.685 292.531 164.241 293.229 162.093 293.739C161.61 293.846 161.127 293.954 160.644 294.061C161.906 294.356 163.087 294.894 163.892 295.968C165.557 298.142 164.51 301.364 162.523 302.975C160.59 304.56 158.012 304.989 155.945 305.365L137.982 308.48C137.902 308.507 137.848 308.507 137.794 308.507Z" fill="#FECE2F"/>
<path d="M242.778 269.95C240.173 269.95 237.784 268.769 236.575 266.835C235.474 265.036 235.286 262.647 236.119 260.257C236.441 259.291 236.924 258.404 237.488 257.572C234.266 258.807 230.99 259.774 227.661 260.472C226.023 260.794 224.144 261.116 222.264 260.687C220.116 260.177 218.478 258.673 218.076 256.847C217.646 254.914 218.559 252.793 220.707 250.752C222.479 249.088 224.52 247.718 226.721 246.698C226.157 246.644 225.567 246.564 225.003 246.456C224.359 246.349 223.634 246.188 223.016 245.731C221.861 244.899 221.19 242.939 222.076 241.059C222.774 239.583 224.171 238.643 225.271 237.972C230.99 234.562 237.864 233.756 243.932 233.031C244.362 232.978 244.765 233.3 244.818 233.729C244.872 234.159 244.55 234.562 244.12 234.615C238.213 235.313 231.501 236.119 226.077 239.341C225.164 239.878 224.036 240.657 223.499 241.758C223.097 242.59 223.123 243.852 223.902 244.416C224.251 244.684 224.788 244.792 225.245 244.872C227.634 245.302 230.051 245.329 232.44 244.953C232.467 244.953 232.494 244.953 232.521 244.953C232.951 244.872 233.38 245.194 233.434 245.624C233.514 246.053 233.192 246.483 232.763 246.537C232.736 246.537 232.709 246.537 232.682 246.564C228.628 247.208 224.761 249.114 221.781 251.934C220.573 253.061 219.23 254.78 219.606 256.525C219.901 257.921 221.324 258.834 222.586 259.129C224.144 259.478 225.835 259.21 227.285 258.888C231.93 257.921 236.495 256.418 240.871 254.323C241.408 254.001 241.999 253.706 242.59 253.491C242.992 253.33 243.449 253.518 243.61 253.921C243.771 254.323 243.61 254.78 243.234 254.968C242.697 255.236 242.16 255.505 241.623 255.773C239.744 256.928 238.294 258.7 237.569 260.794C236.897 262.7 237.032 264.661 237.864 266.003C238.938 267.721 241.355 268.661 243.744 268.285C245.704 267.99 247.718 266.97 250.081 265.063C255.021 261.063 258.888 255.558 260.982 249.544C261.116 249.114 261.599 248.9 262.002 249.061C262.432 249.195 262.647 249.678 262.485 250.081C260.311 256.364 256.256 262.137 251.074 266.325C249.436 267.641 246.939 269.44 243.959 269.896C243.637 269.923 243.207 269.95 242.778 269.95Z" fill="#FECE2F"/>
<path d="M314.437 176.951C317.717 176.53 320.225 175.009 320.038 173.552C319.851 172.096 317.041 171.257 313.761 171.677C310.481 172.098 307.973 173.619 308.16 175.076C308.347 176.532 311.157 177.371 314.437 176.951Z" fill="white"/>
<path d="M310.359 186.338L317.823 193.991C317.823 193.991 313.474 196.273 310.44 193.185C307.406 190.097 310.359 186.338 310.359 186.338Z" fill="white"/>
<path d="M314.413 195.602C312.883 195.602 311.218 195.145 309.849 193.749C307.057 190.903 308.56 187.332 309.715 185.828C309.849 185.64 310.064 185.533 310.305 185.533C310.547 185.506 310.762 185.613 310.923 185.775L318.387 193.427C318.575 193.615 318.656 193.856 318.602 194.125C318.548 194.367 318.414 194.581 318.172 194.716C317.34 195.145 315.944 195.602 314.413 195.602ZM310.493 187.627C309.903 188.755 309.258 190.822 311.004 192.621C312.051 193.695 313.447 194.152 315.112 193.964C315.595 193.91 316.024 193.803 316.4 193.695L310.493 187.627Z" fill="#1A1A1A"/>
<path d="M347.707 317.286C351.741 317.286 355.011 313.98 355.011 309.902C355.011 305.824 351.741 302.519 347.707 302.519C343.674 302.519 340.404 305.824 340.404 309.902C340.404 313.98 343.674 317.286 347.707 317.286Z" fill="white"/>
<path d="M347.708 311.701C348.701 311.701 349.506 310.896 349.506 309.902C349.506 308.909 348.701 308.104 347.708 308.104C346.714 308.104 345.909 308.909 345.909 309.902C345.909 310.896 346.714 311.701 347.708 311.701Z" fill="#1A1A1A"/>
<path d="M347.708 312.507C346.284 312.507 345.103 311.325 345.103 309.902C345.103 308.479 346.258 307.298 347.708 307.298C349.131 307.298 350.312 308.479 350.312 309.902C350.312 311.325 349.131 312.507 347.708 312.507ZM347.708 308.882C347.171 308.882 346.714 309.338 346.714 309.875C346.714 310.412 347.144 310.869 347.708 310.869C348.245 310.869 348.701 310.412 348.701 309.875C348.701 309.338 348.245 308.882 347.708 308.882Z" fill="#1A1A1A"/>
<path d="M347.815 308.774C347.332 308.748 347.009 308.372 347.009 307.942L347.117 305.069C347.144 304.613 347.493 304.264 347.949 304.291C348.406 304.317 348.728 304.693 348.728 305.123L348.62 307.996C348.593 308.425 348.244 308.774 347.815 308.774Z" fill="#1A1A1A"/>
<path d="M266.701 450.462C266.54 450.462 266.352 450.408 266.218 450.301C256.847 442.998 246.51 433.895 235.528 423.182C235.206 422.86 235.206 422.35 235.501 422.055C235.824 421.732 236.334 421.732 236.629 422.028C247.584 432.687 257.867 441.789 267.184 449.039C267.533 449.307 267.587 449.817 267.319 450.166C267.184 450.354 266.943 450.462 266.701 450.462Z" fill="#1A1A1A"/>
<path d="M139.164 308.641C108.313 266.164 87.6921 230.668 97.2507 223.741C115.724 210.37 158.173 262.512 158.173 262.512C158.173 262.512 147.299 279.159 145.285 284.234C142.949 290.06 139.164 308.641 139.164 308.641Z" fill="#1A1A1A"/>
<path d="M139.164 309.446C138.922 309.446 138.653 309.339 138.519 309.124C124.154 289.362 113.065 272.554 105.574 259.21C97.1164 244.147 93.3037 233.487 94.2435 227.607C94.5657 225.593 95.4249 224.09 96.7942 223.096C101.251 219.874 107.346 219.982 114.918 223.419C120.798 226.104 127.618 230.856 135.19 237.488C148.024 248.765 158.71 261.868 158.818 261.975C159.033 262.244 159.059 262.62 158.871 262.915C158.764 263.076 148.024 279.562 146.037 284.502C143.755 290.221 139.996 308.587 139.969 308.775C139.915 309.097 139.674 309.339 139.351 309.392C139.271 309.446 139.217 309.446 139.164 309.446ZM104.366 222.371C101.923 222.371 99.6672 222.989 97.734 224.412C96.7137 225.164 96.0961 226.292 95.8276 227.876C94.6731 235.206 101.198 254.833 138.761 306.707C139.781 301.874 142.6 288.772 144.534 283.939C146.386 279.293 155.327 265.439 157.18 262.566C155.193 260.176 145.473 248.711 134.089 238.696C125.014 230.722 113.361 222.371 104.366 222.371Z" fill="#1A1A1A"/>
<path d="M205 442.756C204.946 442.756 204.865 442.756 204.812 442.729C188.782 438.782 173.773 431.506 160.214 421.061C149.367 412.738 139.432 402.401 130.652 390.318C115.723 369.778 109.253 351.09 109.199 350.902C109.065 350.473 109.279 350.016 109.709 349.882C110.139 349.748 110.595 349.963 110.729 350.392C110.783 350.58 117.2 369.08 131.995 389.432C140.667 401.354 150.521 411.583 161.234 419.826C174.605 430.11 189.4 437.279 205.214 441.172C205.644 441.279 205.913 441.709 205.805 442.139C205.671 442.515 205.349 442.756 205 442.756Z" fill="#1A1A1A"/>
<path d="M407.449 388.251C407.207 388.251 406.965 388.144 406.804 387.929C406.536 387.58 406.616 387.07 406.965 386.801C422.941 374.96 434.111 357.454 440.689 344.862C447.831 331.195 451.214 320.213 451.241 320.106C451.375 319.676 451.832 319.435 452.235 319.569C452.664 319.703 452.906 320.16 452.772 320.562C452.745 320.67 449.308 331.812 442.112 345.613C435.453 358.367 424.123 376.088 407.905 388.117C407.771 388.197 407.61 388.251 407.449 388.251Z" fill="#1A1A1A"/>
<path d="M309.903 177.478C310.735 177.72 311.702 177.854 312.749 177.854C313.339 177.854 313.93 177.8 314.521 177.72C314.601 177.72 314.709 177.693 314.789 177.693C314.816 177.693 314.843 177.693 314.897 177.693C314.95 177.693 315.004 177.693 315.058 177.666C315.085 177.666 315.407 177.612 315.89 177.478C318.468 176.887 320.294 175.652 320.723 174.256V174.229C320.75 174.175 320.75 174.122 320.75 174.068C320.777 173.88 320.804 173.719 320.804 173.531C320.777 172.86 320.428 172.296 319.757 171.866C318.736 171.115 317.018 170.712 314.977 170.766C314.548 170.766 314.091 170.819 313.608 170.873C311.916 171.088 310.359 171.598 309.205 172.296C307.862 173.101 307.191 174.122 307.325 175.169C307.459 176.216 308.399 177.022 309.903 177.478ZM310.064 173.692C311.004 173.128 312.319 172.699 313.715 172.511C313.42 173.45 313.259 174.793 313.715 176.216C312.453 176.323 311.245 176.216 310.332 175.948C309.527 175.706 308.99 175.33 308.936 174.981C308.909 174.632 309.339 174.122 310.064 173.692Z" fill="#1A1A1A"/>
<path d="M285.335 184.057L282.14 180.62C282.704 180.083 283.241 179.868 283.294 179.841C283.724 179.68 283.912 179.197 283.751 178.794C283.59 178.391 283.106 178.176 282.704 178.337C281.2 178.928 278.542 181.184 279.401 185.426C279.455 185.802 279.804 186.07 280.18 186.07C280.233 186.07 280.287 186.07 280.314 186.043C280.77 185.963 281.039 185.533 280.958 185.104C280.69 183.761 280.851 182.741 281.2 181.962L284.153 185.131C284.315 185.319 284.529 185.399 284.744 185.399C284.932 185.399 285.12 185.319 285.281 185.184C285.63 184.889 285.63 184.379 285.335 184.057Z" fill="#1A1A1A"/>
<path d="M66.7491 182.741C66.6417 182.741 66.5343 182.714 66.4537 182.687C53.3509 177.398 46.5847 169.531 43.2016 163.865C39.5232 157.69 38.9862 152.83 38.9593 152.615C38.9056 152.185 39.2278 151.783 39.6843 151.729C40.1407 151.675 40.5166 151.997 40.5703 152.454C40.5703 152.508 41.1073 157.233 44.6247 163.14C47.8735 168.564 54.3981 176.109 67.0444 181.21C67.4472 181.371 67.662 181.855 67.5009 182.257C67.3666 182.553 67.0713 182.741 66.7491 182.741Z" fill="#1A1A1A"/>
<path d="M264.66 119.751C264.58 119.751 264.472 119.724 264.392 119.697C256.686 116.958 251.477 108.608 251.262 108.259C251.021 107.883 251.155 107.373 251.531 107.158C251.907 106.916 252.417 107.051 252.632 107.427C252.685 107.507 257.76 115.643 264.929 118.193C265.358 118.354 265.573 118.811 265.412 119.214C265.305 119.536 264.983 119.751 264.66 119.751Z" fill="#1A1A1A"/>
<path d="M68.6555 67.6618C68.4407 67.6618 68.2259 67.5813 68.0916 67.4202C67.7694 67.098 67.7963 66.5878 68.1185 66.2925C68.4407 65.9703 76.1466 58.5865 88.954 56.2237C89.3836 56.1432 89.8132 56.4385 89.8938 56.8681C89.9743 57.2977 89.679 57.7273 89.2494 57.8079C76.9521 60.0633 69.3267 67.3665 69.273 67.447C69.0582 67.5813 68.8434 67.6618 68.6555 67.6618Z" fill="#1A1A1A"/>
<path d="M308.238 151.703C307.889 151.703 307.567 151.488 307.459 151.139C303.915 139.19 284.744 138.036 284.556 138.009C284.1 137.982 283.778 137.606 283.804 137.15C283.831 136.693 284.207 136.371 284.664 136.398C284.878 136.398 289.792 136.693 295.296 138.546C302.68 141.043 307.406 145.232 309.043 150.655C309.178 151.085 308.936 151.541 308.506 151.649C308.399 151.703 308.318 151.703 308.238 151.703Z" fill="#FECE2F"/>
<path d="M58.6941 149.313C58.3451 149.313 58.0497 149.098 57.9423 148.749C54.8814 139.459 53.6195 130.41 54.1833 121.818C54.6398 114.945 56.2776 108.366 59.0163 102.245C63.7151 91.8268 69.998 86.4837 70.2665 86.242C70.6155 85.9467 71.1256 86.0004 71.3941 86.3494C71.6895 86.6985 71.6358 87.2086 71.2867 87.4771C71.2599 87.5039 69.6757 88.8464 67.5815 91.3972C65.6214 93.76 62.8022 97.7069 60.4394 102.97C57.7812 108.903 56.1971 115.294 55.7675 121.952C55.2305 130.303 56.4656 139.136 59.4459 148.212C59.5802 148.641 59.3654 149.098 58.9358 149.232C58.8821 149.313 58.7747 149.313 58.6941 149.313Z" fill="#FECE2F"/>
<path d="M258.216 197.348C258.136 197.348 258.082 197.348 258.002 197.348C244.281 197.24 233.3 190.608 222.667 184.218C207.014 174.794 190.85 165.02 164.832 174.498C164.403 174.659 163.946 174.445 163.812 174.015C163.678 173.585 163.866 173.129 164.295 172.995C191.011 163.275 207.524 173.236 223.499 182.849C234.427 189.427 244.738 195.656 258.002 195.764C258.055 195.764 258.136 195.764 258.19 195.764C269.198 195.764 274.38 188.219 274.434 188.165C274.676 187.789 275.186 187.709 275.562 187.95C275.938 188.192 276.018 188.702 275.776 189.078C275.562 189.373 270.111 197.348 258.216 197.348Z" fill="#FECE2F"/>
<path d="M456.289 284.288L450.167 282.757C450.489 281.468 450.355 280.421 450.328 280.367C450.274 279.938 449.845 279.643 449.415 279.696C448.986 279.75 448.69 280.18 448.744 280.609C448.744 280.609 449.013 282.516 447.804 284.073C446.891 285.254 445.361 285.979 443.267 286.221C442.837 286.275 442.515 286.677 442.568 287.107C442.622 287.536 442.971 287.832 443.374 287.832C443.401 287.832 443.455 287.832 443.455 287.832C446.005 287.536 447.912 286.597 449.093 285.039C449.281 284.798 449.442 284.529 449.576 284.261L455.913 285.845C455.967 285.872 456.047 285.872 456.101 285.872C456.45 285.872 456.772 285.63 456.88 285.254C456.987 284.825 456.719 284.395 456.289 284.288Z" fill="#1A1A1A"/>
<path d="M471.271 275.427C471.083 275.024 470.761 274.756 470.358 274.622C469.123 274.246 467.19 275.481 464.129 277.521C462.625 278.515 459.618 280.529 458.705 280.475C458.893 279.508 461.202 276.716 462.733 274.836C466.492 270.245 468.908 267.077 468.425 265.009C468.21 264.07 467.673 263.694 467.244 263.559C466.787 263.425 466.331 263.452 465.874 263.613C465.928 263.425 465.928 263.237 465.928 263.076C465.901 262.512 465.66 262.19 465.472 262.002C463.565 260.23 461.122 262.593 456.665 266.916C455.752 267.802 454.732 268.822 453.604 269.869C452.422 270.97 449.979 273.333 448.395 274.863C449.281 269.493 449.039 265.815 447.697 264.15C447.052 263.345 446.328 263.237 445.978 263.237C444.904 263.237 444.502 264.284 442.407 272.447C441.468 276.098 440.501 279.911 439.669 281.898C438.836 283.939 431.721 293.658 422.619 303.405C416.175 310.305 404.012 322.173 395.151 324.106C390.318 325.153 385.244 324.428 380.115 321.904C375.685 319.756 371.094 316.212 366.449 311.406C373.081 304.183 374.799 303.942 375.121 303.969C376.276 304.13 378.182 305.043 380.035 305.902C383.794 307.674 387.714 309.5 389.352 307.486C389.701 307.056 389.808 306.546 389.647 306.009C389.191 304.371 385.673 302.546 382.344 301.176C386.237 301.498 390.855 301.874 391.956 301.955C392.493 302.009 392.977 302.035 393.433 302.035C395.205 302.035 396.44 301.66 397.058 300.854C397.783 300.022 397.595 299.136 397.568 299.028C397.514 298.894 397.461 298.76 397.353 298.652C396.682 297.954 395.662 297.364 394.453 296.88C394.776 296.665 395.044 296.37 395.259 296.021C395.5 295.538 395.662 294.732 395.044 293.605C393.326 290.544 382.102 289.416 376.625 289.04C377.941 288.208 379.686 287.08 381.377 285.899C388.197 281.227 388.412 280.206 387.956 279.374C387.795 279.052 387.419 278.622 386.667 278.434C384.546 277.924 379.39 279.777 371.309 283.885C372.92 278.569 372.624 275.4 370.423 274.434C370.208 274.326 369.832 274.246 369.402 274.434C368.65 274.756 367.415 275.937 364.704 282.301C363.495 285.174 362.448 287.966 362.126 288.852C360.622 289.684 359.092 290.57 357.454 291.51C355.924 292.396 354.366 293.309 352.863 294.222C350.178 290.329 346.096 285.174 341.425 279.616C341.398 279.508 341.344 279.428 341.263 279.347C341.102 279.159 340.431 278.407 339.411 277.226C333.665 270.46 327.301 263.318 321.797 257.223C311.299 245.624 301.821 235.582 299.753 233.407C299.727 233.38 299.7 233.326 299.673 233.299L305.66 208.705L306.681 204.597C307.835 204.785 308.99 204.865 310.117 204.865C313.796 204.865 317.233 203.899 320.32 202.019C325.771 198.636 327.785 191.709 326.227 181.989C327.087 182.419 327.865 182.553 328.51 182.553C328.805 182.553 329.1 182.526 329.315 182.472C330.953 182.177 332.215 181.076 332.725 180.11C333.235 179.116 333.128 177.774 332.43 176.807C331.973 176.163 330.846 175.169 328.537 175.599C325.637 176.163 324.375 173.961 324.053 173.263C324.053 173.209 324.026 173.155 324.026 173.075C321.475 165.342 317.367 157.529 313.017 152.051C313.017 150.709 312.883 149.393 312.641 148.131C311.514 142.466 307.271 135.404 293.417 133.981C262.217 130.759 250.188 112.77 242.267 100.848C241.677 99.9892 241.113 99.1568 240.576 98.3513C232.655 86.7521 219.418 67.3396 176.485 70.0783C158.683 71.206 149.34 66.8563 140.264 62.6677C134.196 59.8484 128.45 57.1634 120.637 56.4653C111.911 55.6867 101.842 57.4588 88.9271 62.077C76.1734 66.6415 64.9501 74.4548 56.4655 84.6847C48.5716 94.1896 43.2016 105.493 40.973 117.334C39.1472 127 39.5231 136.747 42.047 145.446C44.7589 154.736 49.6993 162.55 56.734 168.698C68.2795 178.767 82.1341 184.325 99.0496 185.694C113.924 186.903 129.148 184.835 143.889 182.821C150.79 181.882 157.287 180.996 163.678 180.432C183.412 178.74 194.85 184.943 206.987 191.521C215.901 196.354 225.137 201.375 238.374 204.06C242.858 204.973 246.966 205.349 250.672 205.349C260.713 205.349 267.963 202.529 272.662 199.71C275.991 197.75 278.434 195.602 280.072 193.884L270.218 223.419C269.493 223.258 256.767 220.626 239.958 220.895C229.863 221.083 220.25 222.291 211.444 224.466C200.408 227.204 190.581 231.5 182.231 237.246C163.597 250.081 148.803 270.728 141.687 293.9C137.928 306.17 136.398 318.656 137.203 331.007C138.063 344.351 141.607 357.185 147.755 369.16C153.904 381.109 161.154 391.339 169.316 399.555C176.888 407.153 185.319 413.087 194.367 417.195C204.275 421.706 214.827 423.961 225.594 423.961C229.111 423.961 232.655 423.72 236.199 423.236L255.29 441.065C255.397 441.172 255.531 441.253 255.692 441.28C255.746 441.28 256.042 441.333 256.525 441.333C258.78 441.333 265.224 440.206 270.675 428.687C274.407 420.793 277.844 420.471 281.791 420.068C284.449 419.8 287.429 419.504 290.678 416.98C295.189 413.49 294.303 408.764 293.578 404.951C292.88 401.219 292.584 398.857 295.162 397.487C301.821 393.97 311.89 388.654 312.749 375.041C315.917 371.926 318.924 368.838 321.717 365.858C321.717 365.992 321.69 366.1 321.69 366.234C321.314 367.818 320.911 369.402 320.508 370.986C319.649 374.262 318.709 377.457 317.662 380.599C316.642 383.552 315.568 386.506 314.575 389.137C309.93 400.924 303.996 411.583 296.854 420.927C288.342 432.07 278.112 441.441 266.406 448.744C266.298 448.798 266.191 448.878 266.137 448.985C265.949 449.12 265.815 449.335 265.815 449.576C265.815 449.845 265.922 450.113 266.137 450.274C284.878 464.854 299.807 472.184 310.735 472.184C314.977 472.184 318.602 471.083 321.663 468.854C323.999 467.109 325.368 464.478 325.717 461.014C326.791 450.167 317.367 431.479 302.787 415.396C305.956 410.644 308.856 405.596 311.46 400.28C315.702 400.817 319.971 401.058 324.267 401.058C332.537 401.058 340.834 400.065 349.131 398.158C366.234 394.104 382.505 385.969 397.434 373.913C425.734 351.064 449.952 305.768 457.927 290.893C459.216 288.503 460.236 286.597 460.477 286.301C461.068 285.523 462.76 284.288 464.559 282.999C469.311 279.589 472.104 277.387 471.271 275.427ZM369.939 275.991C371.174 276.796 370.933 280.126 369.268 284.932C367.711 285.737 366.046 286.65 364.301 287.617C366.798 281.039 369.053 276.662 369.939 275.991ZM358.26 292.906C373.457 284.1 383.686 279.374 386.291 280.018C386.291 280.018 386.291 280.018 386.318 280.018C385.19 281.441 379.122 285.657 373.671 289.013C373.296 289.228 373.161 289.738 373.403 290.114C373.51 290.302 373.698 290.436 373.913 290.49C373.967 290.517 374.02 290.517 374.101 290.517C374.155 290.517 378.692 290.732 383.418 291.349C391.741 292.45 393.352 293.873 393.675 294.41C393.836 294.679 393.997 295.054 393.863 295.296C393.675 295.645 392.896 295.914 392.413 295.967C392.278 295.994 392.144 296.048 392.037 296.102C385.324 294.356 375.551 294.625 375.014 294.652C374.557 294.679 374.208 295.028 374.235 295.484C374.262 295.914 374.638 296.29 375.068 296.263C379.74 296.128 392.413 296.451 395.984 299.565C395.957 299.646 395.93 299.726 395.85 299.807C395.635 300.049 394.829 300.612 392.091 300.344C390.157 300.129 377.216 299.136 376.679 299.082C376.249 299.055 375.846 299.377 375.819 299.834C375.819 300.022 375.873 300.183 375.954 300.344C376.061 300.505 376.195 300.612 376.383 300.666C376.437 300.666 379.417 301.66 382.398 302.948C387.633 305.204 388.09 306.305 388.117 306.439C387.284 307.486 383.337 305.633 380.733 304.398C378.692 303.458 376.759 302.546 375.363 302.331C373.967 302.143 371.201 303.351 361.992 313.903C359.709 312.91 357.615 311.594 355.789 310.01C355.789 309.956 355.789 309.929 355.789 309.876C355.789 306.036 353.185 302.814 349.641 301.928C348.916 300.451 348.54 299.324 348.379 298.733C351.601 296.827 354.903 294.84 358.26 292.906ZM354.205 309.902C354.205 313.527 351.279 316.481 347.707 316.481C344.11 316.481 341.21 313.527 341.21 309.902C341.21 309.312 341.29 308.721 341.451 308.157C341.559 307.996 341.613 307.835 341.613 307.647C342.525 305.123 344.915 303.324 347.707 303.324C351.279 303.324 354.205 306.278 354.205 309.902ZM322.764 269.735C323.113 269.305 323.516 269.09 323.999 269.037C326.845 268.768 335.195 275.696 339.921 280.26C344.7 285.925 348.808 291.107 351.52 295.001C341.747 300.854 332.833 306.573 327.624 310.09C326.63 298.115 324.402 287.402 321.717 278.193C321.475 276.259 321.287 271.561 322.764 269.735ZM269.735 224.949L268.983 227.178C268.849 227.607 269.064 228.064 269.493 228.198C269.574 228.252 269.654 228.252 269.735 228.252C270.057 228.252 270.379 228.037 270.487 227.688L282.999 190.232C283.133 189.802 282.918 189.346 282.489 189.212C282.408 189.185 282.355 189.185 282.274 189.185C280.072 188.836 278.569 187.735 277.951 185.99C277.172 183.869 277.817 180.969 279.482 179.089C280.126 178.364 281.469 177.183 283.214 177.586C286.355 178.284 287.456 180.915 287.805 182.983C287.966 183.869 288.53 184.647 289.336 185.023C290.141 185.426 291.081 185.399 291.859 184.969C297.981 181.64 303.835 175.733 307.889 168.779C310.735 163.892 312.427 159.005 312.883 154.522C316.642 159.704 320.133 166.577 322.415 173.397C322.415 173.451 322.442 173.504 322.442 173.585C323.005 175.142 325.046 177.908 328.832 177.183C329.933 176.968 330.711 177.156 331.141 177.747C331.49 178.257 331.517 178.955 331.302 179.331C331.034 179.841 330.201 180.673 329.02 180.888C327.919 181.103 326.818 180.7 325.69 179.734C325.368 179.438 324.858 179.465 324.563 179.814C324.455 179.922 324.402 180.056 324.375 180.19C324.321 180.324 324.294 180.512 324.321 180.673C326.764 193.159 323.032 198.394 319.461 200.623C308.936 207.148 297.632 199.468 297.525 199.388C297.149 199.119 296.639 199.2 296.397 199.576C296.182 199.898 296.182 200.301 296.424 200.569C296.88 201.267 302.062 209.483 300.962 221.056V221.083L297.981 233.299V233.326C297.981 233.38 297.954 233.407 297.954 233.461C297.954 233.487 297.954 233.514 297.954 233.514C297.954 233.568 297.954 233.622 297.981 233.675C297.981 233.675 297.981 233.675 297.981 233.702C298.008 233.836 298.089 233.971 298.169 234.078C298.196 234.105 298.25 234.159 298.357 234.266C299.082 235.125 301.499 238.24 304.667 243.368C295.457 248.443 286.302 249.758 277.495 247.208C261.546 242.616 251.155 226.748 248.685 222.613C260.176 223.07 268.366 224.681 269.735 224.949ZM246.805 222.533C247.288 223.419 250 228.144 254.699 233.514C259.425 238.911 267.157 245.946 277.065 248.792C280.153 249.678 283.267 250.134 286.409 250.134C292.692 250.134 299.082 248.362 305.526 244.738C306.439 246.268 307.406 247.96 308.399 249.812C307.379 250.51 303.271 253.088 296.988 254.618C290.302 256.229 279.723 256.927 267.211 251.02C255.451 245.489 248.712 237.81 245.114 232.333C242.187 227.849 240.818 224.09 240.334 222.506C242.59 222.479 244.738 222.479 246.805 222.533ZM149.205 368.409C143.164 356.648 139.674 344.002 138.841 330.899C138.063 318.736 139.566 306.439 143.272 294.356C149.42 274.326 161.368 256.256 176.592 243.556C181.586 250.886 177.156 269.708 184.728 268.822C193.051 267.829 185.238 255.934 190.501 238.159C191.038 236.146 192.702 234.159 193.347 232.655C199.012 229.889 205.188 227.661 211.82 226.023C220.116 223.956 229.165 222.801 238.696 222.533C239.099 223.902 240.442 228.064 243.771 233.165C247.45 238.831 254.431 246.778 266.567 252.497C274.407 256.176 281.522 257.384 287.456 257.384C291.349 257.384 294.759 256.874 297.471 256.149C303.754 254.645 307.862 252.148 309.178 251.262C309.688 252.256 310.225 253.276 310.735 254.323C313.769 260.472 317.179 268.58 320.079 278.434C320.106 278.542 320.133 278.649 320.133 278.73C320.159 278.837 320.186 278.944 320.24 279.025C322.925 288.315 325.127 299.082 326.066 311.164C325.69 311.406 325.341 311.648 325.046 311.863C323.892 312.668 322.549 313.635 321.126 314.655C314.226 319.622 303.781 327.113 292.45 332.269C283.751 336.215 275.776 338.202 268.634 338.202C264.795 338.202 261.197 337.639 257.841 336.484C247.852 333.047 242.348 325.073 241.516 312.802C240.898 303.512 243.315 295.135 243.341 295.054C243.476 294.625 243.234 294.195 242.804 294.061C242.375 293.927 241.945 294.168 241.811 294.598C241.704 294.947 239.287 303.297 239.932 312.856C240.146 316.185 240.737 319.246 241.65 322.012C239.099 321.878 230.561 321.582 220.143 323.113C208.651 324.777 192.514 329.02 180.7 339.84C164.053 355.091 156.75 373.591 154.978 378.638C152.964 375.39 151.031 371.98 149.205 368.409ZM293.712 390.318C291.108 392.493 288.315 394.775 285.389 397.058C273.333 406.428 262.271 413.248 252.658 417.356C250.43 418.242 248.255 418.994 246.134 419.558C228.708 424.283 211.014 422.968 195.038 415.718C186.178 411.691 177.908 405.864 170.471 398.4C166.712 394.641 163.167 390.426 159.811 385.807C159.999 384.975 161.019 380.652 164.053 374.128C167.195 367.388 173.156 356.836 183.761 344.995C194.287 333.235 209.645 328.08 220.653 325.798C232.011 323.462 241.22 323.65 242.241 323.677C243.476 326.791 245.194 329.503 247.369 331.758C241.247 338.149 222.774 337.128 224.063 344.673C225.808 352.352 235.877 347.949 253.464 342.122C258.351 340.511 263.211 339.867 267.668 339.787C268.017 339.787 268.339 339.813 268.688 339.813C276.045 339.813 284.261 337.773 293.121 333.718C304.613 328.483 315.112 320.938 322.066 315.944C323.489 314.923 324.804 313.984 325.959 313.178C328.537 311.406 333.128 308.345 338.793 304.747C339.035 305.445 339.384 306.466 339.894 307.674C339.706 308.372 339.599 309.124 339.599 309.902C339.599 314.172 342.874 317.689 347.009 318.065C349.453 320.24 352.165 321.609 355.118 322.146C348.191 330.684 341.398 339.76 337.531 344.942C330.067 355.01 312.964 373.913 293.712 390.318ZM327.758 389.003C322.495 384.841 322.764 373.054 323.247 367.2C323.328 366.771 323.381 366.395 323.462 365.992C323.65 365.133 323.865 364.274 324.053 363.441C330.389 356.595 335.518 350.473 338.874 345.935C341.371 342.579 345.076 337.585 349.292 332.161C347.815 335.41 346.043 339.679 344.324 344.942C341.049 354.984 337.451 370.342 337.343 389.405C333.289 390.963 330.067 390.828 327.758 389.003ZM468.21 278.139C466.975 279.293 465.257 280.529 463.592 281.737C461.632 283.16 459.94 284.395 459.189 285.335C458.866 285.737 458.168 287.026 456.477 290.168C448.556 304.962 424.445 350.043 396.387 372.678C381.619 384.572 365.59 392.627 348.728 396.601C345.559 397.353 342.364 397.944 339.196 398.4L338.954 391.822C338.74 371.872 342.445 355.843 345.801 345.506C349.882 332.94 354.339 325.825 354.393 325.744C354.447 325.663 354.474 325.61 354.501 325.529C356.649 322.844 358.823 320.186 360.945 317.662C362.609 315.702 364.059 314.011 365.375 312.587C369.08 316.4 372.759 319.434 376.383 321.636C369.59 324.133 360.461 324.804 361.294 329.852C362.824 336.565 371.631 332.698 387.016 327.623C389.352 326.845 391.688 326.335 393.97 326.012C393.97 326.012 393.836 326.012 393.621 325.986C394.265 325.905 394.883 325.798 395.5 325.663C404.334 323.757 415.772 313.098 423.8 304.479C432.741 294.893 440.179 284.905 441.172 282.489C442.032 280.367 443.025 276.528 443.965 272.796C444.743 269.762 445.683 266.056 446.22 264.929C446.301 264.982 446.354 265.063 446.435 265.144C446.999 265.868 448.18 268.553 446.247 277.548C446.14 278.005 446.435 278.434 446.865 278.515C447.321 278.622 447.751 278.327 447.831 277.897C447.858 277.763 447.885 277.656 447.912 277.548C447.992 277.521 448.046 277.468 448.1 277.414C448.126 277.36 452.933 272.715 454.705 271.051C455.832 270.003 456.88 268.983 457.792 268.097C460.853 265.144 463.485 262.593 464.344 263.157C464.344 263.345 464.183 264.204 462.223 266.728C460.504 268.956 457.792 272.017 453.926 276.018C453.631 276.34 453.631 276.85 453.953 277.145C454.275 277.441 454.785 277.441 455.081 277.119C459.028 273.011 462.76 268.929 464.639 266.056C464.747 266.03 464.881 265.976 464.988 265.895C465.525 265.439 466.411 264.982 466.707 265.09C466.734 265.09 466.787 265.17 466.841 265.358C467.19 266.835 463.753 271.024 461.471 273.816C458.517 277.414 456.88 279.508 457.068 280.851C457.121 281.227 457.309 281.549 457.631 281.764C459.054 282.703 461.337 281.28 464.988 278.837C466.465 277.844 468.935 276.206 469.741 276.152C469.714 276.367 469.499 276.958 468.21 278.139Z" fill="#1A1A1A"/>
<path d="M296.907 420.954C304.049 411.61 309.956 400.95 314.628 389.163C315.622 386.532 316.696 383.578 317.716 380.625C318.736 377.483 319.703 374.288 320.562 371.013C320.965 369.429 321.368 367.844 321.744 366.26C321.744 366.126 321.77 365.992 321.77 365.884C318.978 368.865 315.971 371.926 312.802 375.067C311.943 388.68 301.875 393.996 295.216 397.514C292.638 398.883 292.933 401.246 293.632 404.978C294.357 408.791 295.243 413.516 290.732 417.007C287.483 419.531 284.503 419.826 281.844 420.094C277.897 420.497 274.461 420.819 270.729 428.713C266.003 438.728 260.499 440.876 257.679 441.279C260.767 443.91 263.801 446.381 266.701 448.663C278.3 441.36 288.45 432.016 296.907 420.954Z" fill="white"/>
<path d="M224.734 405.703C220.304 405.703 216.062 405.005 212.303 403.636C211.712 403.421 211.175 403.206 210.665 402.992C207.765 401.756 206.906 398.024 208.974 395.635C210.316 394.077 212.491 393.567 214.397 394.373C214.854 394.587 215.391 394.775 215.955 394.99C220.009 396.359 224.654 396.682 229.729 395.984C232.306 395.608 234.669 397.407 235.045 399.984C235.421 402.562 233.622 404.925 231.044 405.301C228.896 405.569 226.775 405.703 224.734 405.703Z" fill="#1A1A1A"/>
<path d="M372.409 379.659C370.423 379.659 368.57 378.397 367.926 376.41C367.12 373.94 368.489 371.308 370.933 370.503C371.067 370.449 378.37 367.979 384.358 361.991C386.183 360.166 389.164 360.166 390.99 361.991C392.815 363.817 392.815 366.798 390.99 368.623C383.284 376.329 374.182 379.31 373.806 379.444C373.376 379.578 372.893 379.659 372.409 379.659Z" fill="#1A1A1A"/>
<path d="M142.466 258.888C142.224 258.888 141.983 258.78 141.822 258.566C129.175 241.167 110.407 229.084 110.219 228.977C109.843 228.735 109.736 228.252 109.978 227.876C110.219 227.5 110.703 227.393 111.078 227.634C111.266 227.769 130.276 240.012 143.111 257.653C143.379 258.002 143.298 258.512 142.923 258.78C142.788 258.834 142.627 258.888 142.466 258.888Z" fill="white"/>
<path d="M80.1473 257.947C85.3226 257.947 89.518 253.752 89.518 248.577C89.518 243.401 85.3226 239.206 80.1473 239.206C74.9721 239.206 70.7767 243.401 70.7767 248.577C70.7767 253.752 74.9721 257.947 80.1473 257.947Z" fill="#1A1A1A"/>
<path d="M80.1473 259.129C74.3477 259.129 69.6221 254.403 69.6221 248.604C69.6221 242.804 74.3477 238.079 80.1473 238.079C85.9469 238.079 90.6725 242.804 90.6725 248.604C90.6725 254.403 85.9469 259.129 80.1473 259.129ZM80.1473 240.388C75.6365 240.388 71.958 244.066 71.958 248.577C71.958 253.088 75.6365 256.766 80.1473 256.766C84.6581 256.766 88.3365 253.088 88.3365 248.577C88.3365 244.066 84.6581 240.388 80.1473 240.388Z" fill="#1A1A1A"/>
<path d="M141.525 236.145C143.765 236.145 145.58 234.33 145.58 232.091C145.58 229.851 143.765 228.036 141.525 228.036C139.286 228.036 137.471 229.851 137.471 232.091C137.471 234.33 139.286 236.145 141.525 236.145Z" fill="#1A1A1A"/>
<path d="M141.526 236.656C139.002 236.656 136.962 234.615 136.962 232.091C136.962 229.567 139.002 227.527 141.526 227.527C144.05 227.527 146.091 229.567 146.091 232.091C146.091 234.615 144.023 236.656 141.526 236.656ZM141.526 228.547C139.566 228.547 137.982 230.131 137.982 232.091C137.982 234.051 139.566 235.636 141.526 235.636C143.486 235.636 145.071 234.051 145.071 232.091C145.071 230.131 143.46 228.547 141.526 228.547Z" fill="#1A1A1A"/>
<path d="M358.098 385.512C356.004 385.512 354.098 384.116 353.561 381.995C352.916 379.471 354.42 376.92 356.917 376.276L358.823 375.793C361.347 375.148 363.898 376.652 364.542 379.149C365.187 381.673 363.683 384.224 361.186 384.868L359.28 385.351C358.877 385.486 358.474 385.512 358.098 385.512Z" fill="#1A1A1A"/>
<path d="M168.081 89.9472C171.492 89.9472 174.256 87.1823 174.256 83.7717C174.256 80.3611 171.492 77.5962 168.081 77.5962C164.67 77.5962 161.905 80.3611 161.905 83.7717C161.905 87.1823 164.67 89.9472 168.081 89.9472Z" fill="#FECE2F"/>
<path d="M183.144 81.2746C184.819 81.2746 186.178 79.9162 186.178 78.2406C186.178 76.5649 184.819 75.2065 183.144 75.2065C181.468 75.2065 180.11 76.5649 180.11 78.2406C180.11 79.9162 181.468 81.2746 183.144 81.2746Z" fill="#FECE2F"/>
<path d="M180.727 440.904C174.552 440.743 167.168 438.138 158.764 433.198C152.535 429.546 148.024 425.868 147.997 425.841C147.648 425.572 147.594 425.062 147.89 424.713C148.158 424.364 148.668 424.31 149.017 424.606C149.205 424.74 166.685 438.944 180.754 439.32C181.211 439.32 181.56 439.695 181.533 440.152C181.533 440.582 181.157 440.904 180.727 440.904Z" fill="#1A1A1A"/>
<path d="M307.406 432.741C303.781 428.176 300.263 424.391 298.089 422.108L297.095 423.397C302.734 429.224 317.421 445.495 317.635 456.476C317.635 456.906 318.011 457.255 318.441 457.255C318.897 457.255 319.246 456.879 319.22 456.45C319.112 450.489 315.138 442.514 307.406 432.741Z" fill="white"/>
<path d="M479.622 86.5377C477.205 84.3092 471.567 83.0204 466.922 85.9739C462.276 88.9274 457.175 92.7401 451.671 99.3721C451.671 99.3721 440.582 92.7132 434.245 82.7787C427.908 72.8442 425.948 69.9445 421.921 60.9229C421.921 60.9229 414.913 79.4494 421.679 95.8279C421.679 95.8279 397.622 82.4566 390.855 76.0394C390.855 76.0394 388.278 87.2627 391.366 98.8082L400.441 100.365L393.406 103.587C393.406 103.587 397.461 113.173 406.67 118.65C415.88 124.128 424.337 123.644 424.337 123.644L393.138 144.319C393.138 144.319 385.888 147.702 387.795 150.28C389.728 152.83 396.521 160.644 408.12 156.885L427.157 138.439C427.157 138.439 441.575 137.875 447.939 136.64C454.302 135.378 459.028 131.028 462.115 125.739C465.176 120.449 468.049 115.079 467.969 111.32C467.888 107.561 470.681 100.58 473.016 99.6942C475.352 98.8082 480.803 97.8148 481.34 92.8207C481.877 87.8266 479.622 86.5377 479.622 86.5377Z" fill="white"/>
<path d="M408.201 169.907L465.123 164.644L466.143 197.133L409.221 202.127L408.201 169.907Z" fill="#FECE2F"/>
<path d="M454.06 165.665L408.201 169.907L408.738 187.091C427.506 188.057 445.683 173.505 454.06 165.665Z" fill="white"/>
<path d="M466.411 197.884C466.438 197.884 466.492 197.857 466.519 197.831C466.519 197.831 466.519 197.831 466.546 197.831C466.626 197.804 466.68 197.75 466.76 197.696C466.948 197.508 467.029 197.24 466.975 196.998L465.955 164.778C465.982 164.671 465.955 164.563 465.928 164.456C465.901 164.295 465.794 164.134 465.686 164.026C465.66 164 465.633 164 465.606 163.973L441.065 140.613C440.743 140.318 440.286 140.318 439.964 140.586L407.771 169.235C407.744 169.262 407.717 169.289 407.664 169.316C407.637 169.343 407.637 169.343 407.61 169.37C407.476 169.531 407.395 169.719 407.395 169.933L408.415 202.153C408.415 202.18 408.415 202.207 408.415 202.234C408.415 202.341 408.469 202.422 408.523 202.502L408.55 202.529C408.576 202.556 408.576 202.583 408.603 202.61C408.657 202.664 408.684 202.717 408.738 202.771C408.845 202.851 408.952 202.905 409.087 202.905C409.14 202.905 409.167 202.932 409.221 202.932C409.248 202.932 409.248 202.932 409.301 202.932L466.223 197.938C466.25 197.938 466.277 197.938 466.277 197.938C466.304 197.938 466.304 197.938 466.331 197.938C466.358 197.911 466.385 197.884 466.411 197.884ZM435.131 186.151C433.842 185.265 430.083 182.714 425.922 180.271C425.707 180.163 425.519 180.029 425.304 179.922L410.59 170.524L462.411 165.718L435.131 186.151ZM409.462 184.244C409.489 184.164 409.489 184.083 409.489 184.003L409.436 182.633C409.436 181.935 409.462 181.049 409.57 180.136C409.731 178.821 410.214 176.592 411.584 176.351C414 175.921 418.994 178.203 423.854 180.942L409.919 199.791L409.462 184.244ZM425.25 181.774L434.702 187.815C434.836 187.896 434.97 187.95 435.131 187.95C435.292 187.95 435.453 187.896 435.588 187.815L446.408 179.68L464.263 196.461L410.912 201.16L425.25 181.774ZM447.885 178.874L452.798 175.115C453.147 174.874 453.523 174.605 453.899 174.364C458.061 171.652 461.31 170.524 463.001 171.168C463.861 171.464 464.371 172.269 464.559 173.585C464.559 173.639 464.586 173.666 464.586 173.719L465.257 195.226L447.885 178.874ZM440.447 142.278L463.27 164L410.617 168.886L440.447 142.278Z" fill="#1A1A1A"/>
<path d="M474.171 88.8735C472.802 88.8735 471.701 89.9744 471.701 91.3437C471.701 92.7131 472.802 93.8139 474.171 93.8139C475.54 93.8139 476.641 92.7131 476.641 91.3437C476.641 89.9744 475.54 88.8735 474.171 88.8735Z" fill="#1A1A1A"/>
<path d="M487.408 95.2905L482.092 90.5112C481.931 89.0345 481.394 87.692 480.508 86.5911C478.413 83.9867 474.654 83.0201 469.902 83.8256C463.458 84.9533 455.859 92.7129 451.053 98.432L449.952 97.7876C445.522 94.673 430.862 82.9395 422.458 60.0365C422.35 59.7143 422.055 59.4995 421.706 59.4995C421.357 59.4995 421.062 59.7143 420.954 60.0365C420.874 60.2513 419.128 65.2454 418.162 72.1727C417.356 78.1602 417.034 86.6448 419.827 94.2434C404.979 86.0004 391.554 75.6632 391.339 75.5021C391.124 75.3142 390.855 75.2873 390.587 75.3679C390.345 75.4484 390.131 75.6632 390.077 75.9317C389.969 76.3613 387.526 86.7254 390.587 99.0764C390.667 99.3717 390.909 99.6134 391.231 99.6671L398.105 100.795L393.111 102.889C392.708 103.05 392.52 103.48 392.654 103.883C394.265 108.581 398.669 113.629 402.106 116.368C409.167 121.926 416.229 123.886 421.867 124.342L388.036 146.869C386.801 147.675 386.398 149.313 387.123 150.602C389.459 154.817 393.702 157.475 399.34 158.334C400.79 158.549 402.132 158.63 403.287 158.63C405.193 158.63 406.59 158.442 407.019 158.361C407.153 158.361 407.314 158.334 407.449 158.254L408.576 157.529C416.202 152.776 422.592 146.601 427.64 139.19C428.15 139.19 428.66 139.19 429.251 139.217C432.204 139.217 435.963 139.11 439.857 138.734L439.669 139.942C438.353 139.942 437.306 139.459 437.279 139.432C436.876 139.217 436.393 139.378 436.205 139.781C435.99 140.184 436.151 140.667 436.554 140.855C436.608 140.882 437.413 141.258 438.568 141.446C436.662 142.144 434.782 141.258 434.675 141.204C434.272 140.989 433.789 141.15 433.601 141.553C433.386 141.956 433.547 142.439 433.95 142.627C434.03 142.681 435.346 143.325 437.037 143.325C438.299 143.325 439.749 142.976 441.011 141.768C441.145 141.66 441.226 141.526 441.253 141.365L443.723 138.761C443.884 138.6 444.018 138.385 444.126 138.17C448.288 137.472 452.234 136.371 455 134.572C464.398 128.585 467.942 115.079 470.305 106.165C471.003 103.453 472.05 101.976 473.231 101.036C473.312 101.01 473.339 100.983 473.339 100.983C473.446 100.929 473.527 100.848 473.607 100.768C474.466 100.204 475.406 99.855 476.346 99.506C478.198 98.8079 480.105 98.1098 481.232 95.6933L486.737 96.7136C486.764 96.7136 486.817 96.7136 486.871 96.7136C487.166 96.7136 487.435 96.5256 487.623 96.284C487.757 95.9081 487.676 95.5322 487.408 95.2905ZM422.028 95.2637C418.645 87.6114 418.967 78.5899 419.8 72.3875C420.364 68.3063 421.223 64.8427 421.84 62.7484C427.103 75.9854 434.326 85.2218 439.561 90.726C441.763 93.0351 443.804 94.8878 445.495 96.3108C444.018 99.1838 441.28 100.741 437.386 100.822C434.487 100.902 431.936 100.124 431.614 100.043C428.472 98.7005 425.25 97.1163 422.082 95.4248C422.082 95.3711 422.055 95.3174 422.028 95.2637ZM479.863 94.7267C479.031 96.7673 477.608 97.3043 475.782 97.9755C474.762 98.3514 473.634 98.781 472.533 99.5328C472.345 99.6134 472.157 99.6939 471.969 99.8013C470.197 100.687 464.827 103.399 461.068 105.708C457.766 107.776 457.685 109.682 457.954 110.649C458.249 111.723 459.189 112.555 460.182 112.582C460.88 112.609 461.766 112.421 462.84 112.018C463.565 111.723 464.317 111.83 464.961 112.26C465.579 112.689 465.955 113.361 465.955 114.112V115.267V115.294C463.592 122.221 460.075 129.363 454.141 133.176C450.57 135.458 444.206 136.881 435.668 137.391C429.707 137.714 424.579 137.472 423.747 137.418C423.586 137.391 423.451 137.391 423.29 137.445C423.263 137.445 423.237 137.472 423.21 137.472C423.075 137.526 422.968 137.633 422.887 137.767L419.478 141.741L406.616 156.723C404.683 156.992 393.218 158.146 388.546 149.769C388.251 149.232 388.412 148.507 388.949 148.158L409.758 134.277C410.402 135.404 411.342 136.103 412.604 136.344C412.953 136.425 413.329 136.452 413.732 136.452C421.169 136.452 435.185 123.913 437.199 122.087C437.225 122.087 437.225 122.087 437.225 122.06C437.628 121.872 437.816 121.389 437.628 120.986C437.574 120.879 437.494 120.771 437.386 120.691C437.145 120.476 436.769 120.422 436.474 120.583C436.339 120.664 436.178 120.717 436.017 120.798C435.453 121.013 434.433 121.362 433.064 121.711C429.654 122.463 425.546 122.678 424.552 122.731C424.418 122.704 424.311 122.704 424.176 122.731C418.887 122.651 411.745 121.254 404.495 116.019L410.429 114.784C410.859 114.676 411.127 114.247 411.047 113.817C410.939 113.387 410.51 113.119 410.08 113.199L402.804 114.73C401.837 113.924 400.79 112.931 399.77 111.83L414.779 108.34C415.208 108.232 415.477 107.803 415.369 107.373C415.262 106.943 414.832 106.675 414.403 106.782L398.561 110.461C396.897 108.447 395.393 106.192 394.48 103.99L401.381 101.117C401.703 100.983 401.918 100.634 401.864 100.285C401.81 99.9356 401.542 99.6402 401.193 99.5865L392.064 98.0829C389.889 88.7391 390.909 80.4693 391.419 77.4353C394.131 79.4759 401.864 85.1681 411.047 90.8334C419.048 95.7738 426.163 99.506 432.312 102.03C440.286 105.413 444.797 105.762 446.381 105.789C446.408 105.789 446.435 105.789 446.462 105.789C446.623 105.789 446.757 105.816 446.918 105.816C447.294 105.816 447.616 105.574 447.724 105.225C449.2 103.184 461.202 86.9133 470.17 85.356C474.332 84.6311 477.554 85.3829 479.246 87.5309C480.722 89.4104 480.937 92.1491 479.863 94.7267Z" fill="#1A1A1A"/>
</svg>
