<svg width="577" height="577" viewBox="0 0 577 577" fill="none" xmlns="http://www.w3.org/2000/svg">
<path d="M491.46 332.179C469.678 215.25 330.448 79.4239 246.494 91.5409C166.522 103.081 169.061 147.337 90.762 226.501C44.3135 273.498 32.8889 334.054 52.7089 388.667C49.9104 388.725 47.112 388.754 44.3712 388.782C25.7053 388.984 23.1665 395.851 21.8105 398.765C12.2612 418.988 58.3923 464.571 127.344 506.144C196.324 547.717 260.89 567.075 271.565 549.362C271.565 549.362 277.912 542.697 269.113 527.032C397.351 534.85 515.03 458.715 491.46 332.179Z" fill="#FECE2F"/>
<path d="M56.2279 434.222C53.516 433.847 42.9569 426.144 47.2844 416.912C51.6119 407.68 64.8829 407.68 70.5087 407.824C76.1344 407.968 91.4249 409.555 96.0409 407.824C100.657 406.093 107.581 401.765 112.053 403.641C116.524 405.516 115.515 418.066 119.554 419.075C123.593 420.085 133.69 416.767 137.008 419.22C140.326 421.672 138.537 435.751 146.528 438.116C154.52 440.482 162.915 442.098 168.051 446.454C173.186 450.81 170.185 458.6 180.716 458.311C191.246 458.023 196.006 452.541 203.074 456.148C210.143 459.754 201.055 466.822 210.575 468.986C220.096 471.15 230.338 467.111 232.213 472.159C234.088 477.208 223.846 479.083 225.433 483.555C227.02 488.027 231.924 495.816 237.983 498.124C244.041 500.432 246.205 504.039 246.349 508.799C246.494 513.559 247.215 515.579 249.523 520.195C251.831 524.811 255.004 538.37 249.811 544.429C244.618 550.487 230.626 543.996 227.885 537.36C225.231 530.956 228.318 527.984 231.347 526.109C234.377 524.234 237.983 521.926 235.098 515.434C232.213 508.943 200.622 480.526 173.215 462.783C145.807 445.04 119.179 426.346 98.4932 421.383C83.4912 417.777 67.7679 417.633 65.7484 422.537C63.7289 427.442 64.7387 435.376 56.2279 434.222Z" fill="white"/>
<path d="M160.435 351.393C161.869 351.393 163.031 350.231 163.031 348.797C163.031 347.363 161.869 346.2 160.435 346.2C159.001 346.2 157.838 347.363 157.838 348.797C157.838 350.231 159.001 351.393 160.435 351.393Z" fill="white"/>
<path d="M177.773 344.815C178.725 345.566 180.139 345.335 180.803 344.296C185.072 337.574 199.151 315.302 202.844 308.262C207.2 299.954 209.537 291.299 204.546 287.692C199.555 284.086 194.074 286.712 191.419 290.779C187.121 297.386 190.583 310.917 190.583 310.917C190.583 310.917 184.553 311.782 182.245 316.11C179.937 320.437 183.716 330.852 181.466 334.545C179.966 337.026 178.206 340.315 177.225 342.219C176.764 343.113 176.994 344.21 177.773 344.815Z" fill="white"/>
<path d="M122.295 371.3C123.651 371.703 125.036 370.838 125.296 369.453C126.94 360.481 132.306 330.823 133.2 321.793C134.268 311.09 132.999 300.935 126.19 299.232C119.352 297.53 114.65 302.694 113.611 308.147C111.88 317.004 121.372 329.871 121.372 329.871C121.372 329.871 115.342 333.362 114.736 338.959C114.131 344.556 122.613 353.961 121.834 358.865C121.314 362.154 120.853 366.395 120.622 368.819C120.506 369.944 121.228 370.982 122.295 371.3Z" fill="white"/>
<path d="M143.789 372.915C145.52 372.886 147.337 366.309 149.415 358.202C151.492 350.095 149.992 344.527 146.097 344.037C142.173 343.546 140.731 349.287 140.731 351.422C140.702 353.557 142.952 357.25 142.375 360.077C141.798 362.933 140.644 366.453 140.76 369.425C140.817 371.156 142.519 372.915 143.789 372.915Z" fill="white"/>
<path d="M199.873 277.739L210.028 241.475C210.49 239.773 212.25 238.792 213.952 239.282C215.654 239.744 216.635 241.504 216.144 243.206C216.116 243.321 216.058 243.466 216 243.581L201.373 278.288C201.2 278.691 200.71 278.893 200.306 278.72C199.96 278.547 199.758 278.143 199.873 277.739Z" fill="white"/>
<path d="M68.259 361.173L63.0372 333.42C62.7198 331.689 63.845 330.015 65.576 329.698C67.307 329.381 68.9803 330.506 69.2976 332.237C69.3265 332.41 69.3553 332.583 69.3553 332.756L69.9035 360.971C69.9035 361.433 69.5573 361.808 69.0957 361.808C68.6918 361.866 68.3456 361.577 68.259 361.173Z" fill="#1A1A1A"/>
<path d="M34.8507 367.722C37.7984 367.722 40.1879 365.333 40.1879 362.385C40.1879 359.437 37.7984 357.048 34.8507 357.048C31.903 357.048 29.5134 359.437 29.5134 362.385C29.5134 365.333 31.903 367.722 34.8507 367.722Z" fill="#FECE2F"/>
<path d="M175.379 284.923C177.69 284.923 179.563 283.05 179.563 280.74C179.563 278.429 177.69 276.556 175.379 276.556C173.069 276.556 171.196 278.429 171.196 280.74C171.196 283.05 173.069 284.923 175.379 284.923Z" fill="white"/>
<path d="M174.196 319.687C176.268 319.687 177.947 318.008 177.947 315.937C177.947 313.865 176.268 312.186 174.196 312.186C172.125 312.186 170.446 313.865 170.446 315.937C170.446 318.008 172.125 319.687 174.196 319.687Z" fill="white"/>
<path d="M146.5 506.693C134.585 500.288 87.646 468.813 84.761 462.639C81.876 456.465 86.1169 456.09 89.175 455.917C92.262 455.715 96.676 458.802 97.83 462.264C98.984 465.726 100.138 469.765 104.754 471.121C109.37 472.477 117.823 475.939 121.862 479.401C125.901 482.863 134.758 493.047 140.903 495.759C147.048 498.442 155.905 500 163.983 505.943C172.061 511.886 177.052 516.704 186.111 519.012C195.141 521.32 210.547 524.205 213.432 529.6C216.317 534.995 211.672 537.274 207.287 536.726C196.497 535.341 163.983 516.127 146.5 506.693Z" fill="white"/>
<path d="M118.4 451.82C114.304 450.493 110.322 454.128 112.342 459.177C114.361 464.226 117.679 470.861 123.738 473.313C129.796 475.766 135.71 478.362 138.595 481.536C141.48 484.709 146.385 489.902 150.568 490.768C154.751 491.633 158.646 492.787 163.983 495.672C169.321 498.557 174.081 502.74 180.572 502.308C187.063 501.875 186.342 497.547 185.765 496.538C185.188 495.528 183.803 493.018 179.187 492.729C168.138 492.066 154.665 482.055 146.789 477.15C138.913 472.246 129.854 468.12 124.949 461.283C122.439 457.821 120.91 452.657 118.4 451.82Z" fill="white"/>
<path d="M101.782 455.051C102.936 454.099 104.177 452.743 102.994 450.147C101.869 447.695 95.6951 447.752 95.5797 443.886C95.4931 440.049 100.34 439.992 105.158 440.194C109.976 440.396 117.563 444.867 125.641 450.435C133.719 456.003 142.951 464.37 152.76 467.745C162.569 471.121 172.003 475.737 179.014 479.862C186.024 483.988 188.736 488.315 193.727 491.027C198.718 493.71 208.729 502.192 209.018 505.943C209.306 509.693 205.844 510.184 204.488 508.741C203.132 507.299 194.593 503.26 194.679 507.501C194.766 511.742 207.287 515.579 212.653 515.377C218.048 515.175 220.356 509.693 219 505.568C217.644 501.442 198.228 490.191 196.41 487.19C194.593 484.19 191.708 479.689 181.985 474.208C172.263 468.726 167.185 469.217 159.569 463.331C151.981 457.475 139.951 455.83 132.94 447.839C125.93 439.847 117.073 435.145 106.398 433.327C95.7239 431.51 89.55 433.068 87.7325 437.943C86.088 442.357 89.9539 448.82 94.743 452.657C99.561 456.494 101.782 455.051 101.782 455.051Z" fill="white"/>
<path d="M76.2789 439.674C73.9709 438.145 67.999 438.434 65.2294 441.03C62.4309 443.627 62.9214 450.176 66.1814 452.945C69.4415 455.744 76.8559 455.917 79.1639 453.897C81.4719 451.878 83.8953 444.665 76.2789 439.674Z" fill="white"/>
<path d="M35.139 409.612C32.7733 408.343 32.8887 400.957 38.8318 397.755C44.7749 394.553 65.6623 392.36 66.3259 397.322C66.9317 401.852 61.5368 401.765 55.1898 401.996C48.8428 402.227 44.7172 402.919 42.6977 405.227C40.7071 407.564 39.0915 411.69 35.139 409.612Z" fill="white"/>
<path d="M76.0101 401.597C78.0496 401.587 79.6946 399.925 79.6843 397.886C79.674 395.846 78.0123 394.201 75.9728 394.212C73.9334 394.222 72.2884 395.884 72.2987 397.923C72.3089 399.963 73.9706 401.608 76.0101 401.597Z" fill="#1A1A1A"/>
<path d="M106.947 366.54C104.408 365.991 101.667 370.607 100.831 376.666C99.994 382.724 99.9363 388.985 103.023 389.533C106.11 390.081 108.101 383.157 108.736 378.253C109.37 373.348 110.899 367.376 106.947 366.54Z" fill="#1A1A1A"/>
<path d="M131.844 404.391C130.546 403.41 127.026 404.621 125.987 406.526C124.949 408.43 124.862 410.968 126.882 411.92C128.901 412.872 132.075 410.247 132.536 409.295C133.027 408.343 133.979 406.035 131.844 404.391Z" fill="white"/>
<path d="M163.464 377.791C162.165 376.81 160.377 376.666 157.896 380.128C155.415 383.59 148.433 393.918 149.212 396.341C149.991 398.736 152.212 400.467 155.674 397.755C159.136 395.043 161.588 389.937 163.204 386.273C164.82 382.609 165.483 379.32 163.464 377.791Z" fill="white"/>
<path d="M107.985 351.336C106.514 351.393 105.244 352.547 105.042 354.653C104.84 356.759 106.571 358.49 107.581 358.692C108.591 358.894 110.091 357.683 110.524 355.375C110.956 353.067 109.572 351.278 107.985 351.336Z" fill="white"/>
<path d="M216.288 459.552C215.451 458.6 213.461 458.109 211.153 459.84C208.845 461.571 209.941 464.399 210.922 465.322C211.903 466.245 214.095 466.245 215.682 464.889C217.269 463.533 217.731 461.196 216.288 459.552Z" fill="white"/>
<path d="M247.389 460.36C247.85 459.177 247.36 457.186 244.763 455.946C242.167 454.705 240.176 456.955 239.801 458.283C239.426 459.61 240.436 461.543 242.369 462.293C244.302 463.043 246.581 462.408 247.389 460.36Z" fill="white"/>
<path d="M201.228 438.376C202.844 436.472 202.931 434.51 198.372 435.52C193.785 436.501 188.477 441.232 187.005 443.194C185.534 445.185 186.486 446.569 190.006 445.617C193.525 444.665 198.459 441.665 201.228 438.376Z" fill="white"/>
<path d="M269.863 410.853C269.141 410.161 269.17 408.978 269.92 408.314C274.911 404.045 291.471 389.966 296.78 386.157C303.069 381.628 309.849 378.743 313.397 382.378C316.917 386.013 315.417 390.831 312.387 393.457C307.483 397.726 296.029 396.486 296.029 396.486C296.029 396.486 296.029 401.506 292.769 403.9C289.509 406.295 280.566 404.391 277.796 406.67C275.95 408.199 273.469 409.988 272.026 411.026C271.363 411.459 270.468 411.401 269.863 410.853Z" fill="white"/>
<path d="M328.054 395.591C327.678 394.38 339.045 389.562 348.508 384.888C357.971 380.214 366.338 374.675 368.905 377.935C371.502 381.195 365.876 383.128 361.318 384.773C356.759 386.417 346.864 389.1 341.902 391.322C338.555 392.822 328.688 397.669 328.054 395.591Z" fill="#1A1A1A"/>
<path d="M324.072 415.44C326.701 415.44 328.833 413.503 328.833 411.113C328.833 408.723 326.701 406.785 324.072 406.785C321.443 406.785 319.312 408.723 319.312 411.113C319.312 413.503 321.443 415.44 324.072 415.44Z" fill="white"/>
<path d="M293.866 445.358C296.017 445.358 297.76 443.588 297.76 441.405C297.76 439.222 296.017 437.453 293.866 437.453C291.715 437.453 289.971 439.222 289.971 441.405C289.971 443.588 291.715 445.358 293.866 445.358Z" fill="white"/>
<path d="M254.947 440.078C254.918 438.347 261.438 436.299 269.459 433.991C277.508 431.654 283.105 432.952 283.711 436.847C284.316 440.742 278.633 442.357 276.498 442.444C274.363 442.53 270.613 440.424 267.785 441.088C264.958 441.752 261.467 443.021 258.496 442.992C256.794 442.963 254.976 441.319 254.947 440.078Z" fill="white"/>
<path d="M282.845 456.984C282.758 455.484 283.22 453.522 293.029 451.878C302.838 450.233 353.903 440.713 359.875 441.982C365.847 443.223 370.463 447.464 368.328 456.898C366.193 466.332 353.124 466.62 348.219 465.062C343.315 463.533 328.601 457.561 328.601 457.561C328.601 457.561 328.688 462.466 322.254 463.533C315.821 464.601 303.877 458.427 303.877 458.427C303.877 458.427 303.011 461.889 297.616 462.091C292.279 462.264 283.134 461.312 282.845 456.984Z" fill="white"/>
<path d="M265.679 479.372C266.429 478.622 272.834 477.698 282.066 476.285C291.673 474.842 300.876 473.544 300.443 478.391C300.068 482.574 284.662 481.507 281.056 481.507C277.046 481.535 263.631 481.449 265.679 479.372Z" fill="white"/>
<path d="M298.078 533.437C299.001 532.917 305.435 533.696 314.696 534.793C324.332 535.918 333.564 537.129 331.861 541.688C330.39 545.611 315.821 540.534 312.359 539.582C308.464 538.514 295.539 534.879 298.078 533.437Z" fill="#1A1A1A"/>
<path d="M275.979 514.107C278.56 514.107 280.653 512.015 280.653 509.433C280.653 506.852 278.56 504.76 275.979 504.76C273.398 504.76 271.305 506.852 271.305 509.433C271.305 512.015 273.398 514.107 275.979 514.107Z" fill="#1A1A1A"/>
<path d="M285.009 552.16C287.781 552.16 290.029 549.913 290.029 547.141C290.029 544.368 287.781 542.121 285.009 542.121C282.236 542.121 279.989 544.368 279.989 547.141C279.989 549.913 282.236 552.16 285.009 552.16Z" fill="#1A1A1A"/>
<path d="M299.578 426.057L415.295 406.122C417.344 405.775 419.277 407.131 419.623 409.18C419.969 411.228 418.613 413.161 416.565 413.507C416.507 413.507 416.449 413.536 416.392 413.536L299.867 427.932C299.347 427.99 298.857 427.615 298.799 427.096C298.741 426.634 299.088 426.144 299.578 426.057Z" fill="#1A1A1A"/>
<path d="M345.94 297.039C345.94 297.039 328.255 279.931 322.283 269.92C316.311 259.909 311.695 248.081 311.695 248.081L308.147 234.723C304.685 238.762 293.808 248.283 288.817 251.456C283.826 254.63 267.382 263.285 260.342 267.699C253.303 272.113 246.581 278.864 246.581 278.864L235.329 291.471L217.818 314.263L195.978 346.575L183.486 366.77L171.369 386.013C171.369 386.013 160.117 405.054 157.809 409.093C155.501 413.132 152.241 413.622 147.048 421.412C141.855 429.201 141.076 433.442 141.567 433.904L143.875 432.461C143.875 432.461 142.807 436.5 143.5 437.279C144.192 438.058 145.144 435.923 145.144 435.923C145.144 435.923 144.942 438.808 145.433 439.299C145.923 439.789 148.808 436.702 148.808 436.702C148.808 436.702 147.741 438.635 148.895 439.501C150.049 440.366 156.396 431.509 156.396 431.509C156.194 434.481 157.463 434.769 157.463 434.769C157.463 434.769 162.858 430.153 165.166 427.557C167.474 424.96 167.186 421.296 167.186 421.296L168.715 416.392L176.129 405.342L188.044 391.408L207.576 374.761L221.712 362.731L222.145 362.933C223.212 361.923 224.684 361.288 226.155 361.288C226.703 361.288 227.223 361.375 227.713 361.519C230.569 361.808 232.618 364.202 232.877 367.029C233.281 367.462 233.656 367.953 233.916 368.472L234.406 368.703L238.82 371.963L235.935 376.29L229.675 383.503L220.933 392.821L205.556 406.958C205.556 406.958 188.246 421.671 183.053 425.624C177.86 429.576 175.552 430.326 175.552 430.326L169.696 435.721L165.282 442.068L167.215 442.559C167.215 442.559 163.955 448.415 163.955 449.194C163.955 449.973 166.061 448.819 166.061 448.819C166.061 448.819 165.686 450.348 166.061 451.214C166.436 452.079 169.523 449.194 169.523 449.194C169.523 449.194 170.1 450.06 170.677 450.637C171.254 451.214 174.139 447.752 174.139 447.752C174.139 447.752 174.139 448.415 174.918 449.281C175.697 450.146 185.506 438.895 185.506 438.895L193.959 432.836L218.395 418.786C218.395 418.786 240.696 407.737 256.563 398.389C272.431 389.071 279.355 379.435 279.355 379.435C279.355 379.435 292.251 362.5 297.155 356.268C302.06 350.008 310.715 345.507 310.715 345.507L336.968 330.707L357.163 319.542L369.569 312.82C357.567 306.675 345.94 297.039 345.94 297.039Z" fill="#FECE2F"/>
<path d="M371.703 193.901C371.703 193.901 382.81 200.969 392.186 213.374C401.562 225.78 407.765 239.195 407.765 239.195L403.438 242.801C403.438 242.801 412.381 250.735 417.286 258.236C422.19 265.737 426.95 274.536 426.95 274.536L457.531 249.148L485.949 223.616C485.949 223.616 501.672 207.604 503.691 201.979C505.711 196.353 512.779 176.446 515.376 160.867C517.972 145.288 525.185 108.937 525.185 108.937C525.185 108.937 525.329 95.9549 531.099 92.0602C536.869 88.1654 553.169 76.1927 551.871 72.5864L520.569 80.0874L503.836 84.8477L502.97 99.8497L496.335 122.641L479.746 167.791C479.746 167.791 475.274 181.351 469.937 186.4C464.6 191.448 437.336 209.768 437.336 209.768C437.336 209.768 453.492 190.583 456.666 177.312C459.839 164.041 465.898 135.624 468.062 122.064C470.225 108.505 473.399 73.1634 478.592 65.5182C483.785 57.8729 495.036 52.3914 499.797 50.0834C504.557 47.7754 507.298 43.4479 506.865 41.8612C506.432 40.2744 487.968 44.7462 487.968 44.7462L457.964 50.3719C457.964 50.3719 457.531 58.1614 455.223 64.6527C452.915 71.1439 431.422 131.008 431.422 131.008C431.422 131.008 423.344 153.943 415.122 163.608C406.9 173.273 386.849 186.977 371.703 193.901Z" fill="#FECE2F"/>
<path d="M463.735 63.7583C463.302 63.7583 462.927 63.4409 462.869 63.0082C462.119 57.8152 467.456 54.3243 467.687 54.1801C468.091 53.9204 468.639 54.0358 468.87 54.4397C469.129 54.8436 469.014 55.3629 468.61 55.6226C468.553 55.6514 463.994 58.6518 464.571 62.7485C464.629 63.2101 464.312 63.6717 463.85 63.7294C463.821 63.7583 463.792 63.7583 463.735 63.7583Z" fill="#1A1A1A"/>
<path d="M511.626 97.1089C511.164 97.1089 510.76 96.7339 510.76 96.2723C510.645 90.8485 514.251 87.4153 514.395 87.2711C514.741 86.9537 515.29 86.9537 515.607 87.2999C515.924 87.6461 515.924 88.1943 515.578 88.5116C515.549 88.5405 512.405 91.5986 512.491 96.2434C512.52 96.705 512.116 97.1089 511.626 97.1089C511.626 97.1089 511.654 97.1089 511.626 97.1089Z" fill="#1A1A1A"/>
<path d="M388.926 254.832C388.724 254.832 388.551 254.774 388.378 254.63C384.022 251.082 382.002 247.764 382.406 244.792C382.954 240.609 388.061 238.33 390.513 237.262L390.801 237.118C392.59 236.31 392.763 233.8 392.936 231.146C393.052 229.386 393.167 227.569 393.83 226.184C395.273 223.097 398.389 222.953 399.831 223.299C400.293 223.414 400.581 223.876 400.466 224.338C400.351 224.799 399.889 225.088 399.427 224.972C399.312 224.943 396.629 224.338 395.417 226.905C394.898 228.002 394.811 229.588 394.696 231.233C394.494 234.147 394.292 237.436 391.522 238.676L391.234 238.82C389.07 239.772 384.57 241.763 384.166 244.994C383.848 247.331 385.666 250.13 389.532 253.274C389.907 253.563 389.965 254.111 389.647 254.486C389.416 254.717 389.186 254.832 388.926 254.832Z" fill="white"/>
<path d="M377.473 290.75C377.588 289.971 377.963 289.394 378.598 288.99C379.204 288.586 379.55 288.673 379.665 288.702C380.473 288.875 381.31 290.202 382.175 291.587C383.502 293.722 385.176 296.347 388.061 296.982C389.619 297.328 390.83 297.241 391.84 297.155C392.994 297.068 393.687 297.039 394.379 297.587C394.898 297.27 395.389 296.953 395.879 296.635C394.523 295.251 393.167 295.337 391.725 295.424C390.802 295.481 389.763 295.568 388.436 295.279C386.272 294.818 384.887 292.596 383.647 290.663C382.579 288.961 381.57 287.346 380.04 287C379.29 286.826 378.483 287 377.675 287.519C376.636 288.182 376.001 289.192 375.771 290.462C375.021 295.106 380.502 302.636 382.233 304.887C382.724 304.598 383.243 304.309 383.733 303.992C381.512 301.194 376.896 294.414 377.473 290.75Z" fill="white"/>
<path d="M246.985 305.608C249.87 302.521 256.188 298.338 258.438 301.079C260.169 303.185 259.88 305.118 254.976 307.714C250.071 310.311 250.648 316.167 246.321 315.59C241.993 315.013 242.946 309.936 246.985 305.608Z" fill="#1A1A1A"/>
<path d="M246.898 316.513C246.667 316.513 246.436 316.485 246.205 316.456C244.532 316.225 243.349 315.359 242.859 314.032C242.022 311.724 243.407 308.176 246.35 305.002C247.59 303.675 249.35 302.233 251.052 301.223C252.524 300.328 254.659 299.261 256.505 299.319C257.601 299.348 258.496 299.78 259.101 300.53C260.053 301.713 260.429 302.81 260.198 303.877C259.88 305.464 258.38 306.877 255.38 308.464C253.331 309.532 252.322 311.292 251.427 312.849C250.36 314.667 249.292 316.513 246.898 316.513ZM256.332 301.05C253.966 301.05 249.956 303.675 247.619 306.185C245.196 308.782 243.897 311.782 244.503 313.426C244.763 314.148 245.398 314.581 246.436 314.725C248.138 314.956 248.744 314.004 249.927 311.984C250.879 310.311 252.091 308.233 254.572 306.935C256.995 305.666 258.322 304.512 258.524 303.531C258.582 303.185 258.582 302.608 257.774 301.627C257.486 301.252 257.053 301.079 256.447 301.05C256.418 301.05 256.361 301.05 256.332 301.05Z" fill="#1A1A1A"/>
<path d="M284.922 304.252C284.634 303.762 284.114 303.444 283.48 303.358C282.903 303.3 282.297 303.444 281.778 303.762C281.229 304.079 280.825 304.54 280.623 305.089C280.393 305.666 280.422 306.3 280.71 306.791C280.999 307.281 281.518 307.599 282.153 307.685C282.239 307.685 282.326 307.714 282.441 307.714C282.932 307.714 283.422 307.57 283.884 307.31C285.009 306.56 285.499 305.204 284.922 304.252Z" fill="#1A1A1A"/>
<path d="M312.185 334.112C311.897 333.621 311.377 333.304 310.743 333.217C310.166 333.16 309.56 333.304 309.04 333.621C308.492 333.939 308.088 334.4 307.886 334.948C307.656 335.525 307.684 336.16 307.973 336.651C308.261 337.141 308.781 337.458 309.415 337.545C309.502 337.545 309.589 337.574 309.704 337.574C310.194 337.574 310.685 337.429 311.146 337.17C312.272 336.42 312.762 335.064 312.185 334.112Z" fill="#1A1A1A"/>
<path d="M240.551 369.655C240.291 369.655 240.003 369.54 239.83 369.28C239.541 368.876 239.657 368.357 240.032 368.068C242.282 366.482 242.513 364.116 242.513 364.087C242.542 363.597 242.974 363.25 243.436 363.308C243.926 363.337 244.273 363.77 244.215 364.231C244.215 364.375 243.898 367.434 241.013 369.482C240.897 369.597 240.724 369.655 240.551 369.655Z" fill="#1A1A1A"/>
<path d="M250.36 371.011C250.216 371.011 250.071 370.982 249.927 370.896C249.667 370.751 249.494 370.492 249.494 370.174L249.148 362.471C249.148 362.183 249.264 361.894 249.523 361.721C249.754 361.548 250.071 361.519 250.36 361.635C250.793 361.808 254.457 363.452 254.601 366.049C254.716 368.616 251.197 370.665 250.793 370.896C250.648 370.953 250.504 371.011 250.36 371.011Z" fill="#1A1A1A"/>
<path d="M250.936 363.914L251.138 368.53C251.975 367.866 252.869 366.943 252.841 366.106C252.812 365.327 251.831 364.491 250.936 363.914Z" fill="white"/>
<path d="M508.74 144.856C508.654 144.856 508.567 144.856 508.481 144.798C508.019 144.654 507.788 144.163 507.933 143.702C509.058 140.326 506.404 137.21 506.375 137.182C506.057 136.835 506.086 136.287 506.461 135.97C506.807 135.652 507.356 135.681 507.673 136.056C507.817 136.201 511.02 139.951 509.577 144.25C509.462 144.625 509.116 144.856 508.74 144.856Z" fill="#1A1A1A"/>
<path d="M511.481 137.499C511.394 137.499 511.279 137.47 511.192 137.441C510.731 137.268 510.5 136.778 510.673 136.316C511.481 134.124 509.317 131.902 509.288 131.902C508.942 131.556 508.942 131.008 509.288 130.69C509.635 130.344 510.183 130.344 510.5 130.69C510.615 130.806 513.472 133.72 512.289 136.951C512.173 137.297 511.856 137.499 511.481 137.499Z" fill="#1A1A1A"/>
<path d="M513.645 130.863C513.559 130.863 513.443 130.835 513.357 130.806C512.895 130.633 512.664 130.142 512.837 129.709C513.472 127.921 511.337 126.565 511.308 126.536C510.904 126.276 510.789 125.757 511.049 125.353C511.308 124.949 511.828 124.834 512.231 125.093C512.26 125.122 513.039 125.613 513.703 126.478C514.655 127.69 514.915 129.017 514.453 130.315C514.338 130.661 514.02 130.863 513.645 130.863Z" fill="#1A1A1A"/>
<path d="M419.594 220.443C419.449 220.443 419.334 220.414 419.19 220.356C418.757 220.125 418.584 219.606 418.815 219.202C421.238 214.5 418.901 205.181 418.901 205.095C418.786 204.633 419.074 204.171 419.536 204.056C419.998 203.941 420.459 204.229 420.575 204.691C420.69 205.095 423.084 214.73 420.373 220.01C420.228 220.27 419.911 220.443 419.594 220.443Z" fill="#1A1A1A"/>
<path d="M424.21 210.489C424.095 210.489 423.979 210.461 423.864 210.432C423.431 210.23 423.229 209.739 423.402 209.307C424.701 206.364 422.825 201.517 422.825 201.459C422.652 201.027 422.883 200.507 423.316 200.334C423.749 200.161 424.268 200.392 424.441 200.825C424.528 201.056 426.576 206.393 425.018 209.999C424.874 210.316 424.556 210.489 424.21 210.489Z" fill="#1A1A1A"/>
<path d="M428.538 204.142C428.422 204.142 428.336 204.113 428.22 204.085C427.788 203.912 427.557 203.421 427.73 202.959C428.566 200.825 427.268 199.036 427.268 199.036C426.98 198.661 427.066 198.113 427.441 197.824C427.816 197.536 428.365 197.622 428.653 197.997C428.74 198.113 430.499 200.565 429.345 203.594C429.23 203.94 428.884 204.142 428.538 204.142Z" fill="#1A1A1A"/>
<path d="M182.88 385.609C182.735 385.609 182.591 385.58 182.447 385.494C182.043 385.263 181.899 384.715 182.13 384.311C183.255 382.378 181.466 379.781 181.437 379.781C181.149 379.378 181.264 378.858 181.639 378.57C182.014 378.281 182.562 378.397 182.851 378.772C182.966 378.916 185.332 382.291 183.601 385.205C183.486 385.465 183.197 385.609 182.88 385.609Z" fill="#1A1A1A"/>
<path d="M186.197 381.282C186.053 381.282 185.909 381.253 185.793 381.166C185.361 380.935 185.216 380.416 185.447 379.983C185.938 379.089 185.014 377.387 184.639 376.868C184.38 376.464 184.466 375.944 184.841 375.656C185.245 375.367 185.764 375.483 186.053 375.858C186.255 376.146 188.072 378.8 186.976 380.82C186.803 381.137 186.515 381.282 186.197 381.282Z" fill="#1A1A1A"/>
<path d="M226.876 406.958C226.76 406.958 226.616 406.929 226.501 406.871C226.068 406.669 225.866 406.15 226.068 405.717C226.76 404.217 225.981 401.419 225.606 400.467C225.433 400.034 225.664 399.515 226.097 399.342C226.53 399.168 227.049 399.399 227.222 399.832C227.395 400.265 228.751 403.986 227.626 406.41C227.51 406.785 227.222 406.958 226.876 406.958Z" fill="#1A1A1A"/>
<path d="M230.684 401.678C230.569 401.678 230.453 401.649 230.338 401.592C229.905 401.39 229.703 400.871 229.905 400.438C230.424 399.284 229.617 397.726 229.617 397.697C229.386 397.264 229.559 396.745 229.963 396.514C230.395 396.283 230.915 396.428 231.146 396.86C231.203 396.947 232.386 399.168 231.492 401.13C231.319 401.476 231.001 401.678 230.684 401.678Z" fill="#1A1A1A"/>
<path d="M552.362 71.6922C551.929 71.2594 551.727 71.0575 543.851 72.9616C538.716 74.2021 532.253 75.9331 527.724 77.1448C523.137 78.3854 504.5 83.463 503.663 84.0111C502.74 84.617 502.682 86.2614 502.509 91.1371C502.422 93.272 502.336 95.9262 502.134 99.0997C501.845 103.398 495.96 122.497 488.69 142.605C484.968 152.934 481.506 161.791 478.506 168.801C478.448 168.859 478.419 168.946 478.39 169.003V169.032C478.39 169.061 478.362 169.061 478.362 169.09C478.275 169.321 478.188 169.523 478.102 169.753C474.496 178.062 471.611 183.544 469.793 185.361C467.543 187.611 463.879 190.554 459.782 193.67C457.59 195.286 455.974 196.411 455.916 196.468C455.83 196.526 455.743 196.613 455.685 196.699C449.858 200.94 443.77 205.095 439.904 207.691C446.742 199.267 451.935 191.304 455.022 184.323C463.561 165.051 472.043 101.148 474.842 80.1452C475.015 78.8181 475.159 77.6641 475.303 76.7409C476.14 70.567 479.948 64.6239 486.641 59.0847C492.383 54.3245 498.47 51.3818 500.201 50.6028C508.106 46.9966 508.221 41.8901 508.221 41.8324C508.221 41.5151 508.048 41.2266 507.789 41.0823C507.413 40.8515 507.154 40.6784 499.335 41.919C495.095 42.5825 489.267 43.5923 482.92 44.7463C474.784 46.2176 459.119 49.1315 457.936 49.7373C457.388 49.997 457.359 50.4009 457.186 52.2761C456.955 54.5553 456.551 58.7674 455.195 62.5467C453.666 66.8454 451.82 72.1538 449.656 78.2988C440.28 105.129 426.114 145.664 420.085 155.271C410.824 170.042 385.32 188.852 366.597 194.709C346.402 201.027 339.795 204.604 331.717 210.72C326.524 214.644 320.437 220.962 314.003 227.684C306.617 235.358 298.972 243.321 292.019 248.312C287.259 251.745 281.778 254.717 275.95 257.89C271.132 260.515 266.227 263.17 261.467 266.228L261.265 266.343C261.179 266.372 261.121 266.459 261.034 266.516C255.755 269.921 250.648 273.786 245.917 278.633C232.906 291.991 218.106 311.551 197.911 342.046C192.371 350.412 186.428 359.904 180.889 368.991L180.283 369.943C180.11 370.174 179.966 370.434 179.822 370.665C179.764 370.751 179.764 370.838 179.735 370.924C168.022 390.167 158.3 407.218 157.896 407.881C156.569 409.958 154.405 412.699 152.789 413.767C150.654 415.151 145.836 421.47 143.673 425.307C140.759 430.5 139.836 432.923 140.268 434.279C140.413 434.712 140.672 435.058 141.076 435.26C141.192 435.318 141.365 435.404 141.624 435.404C141.826 435.404 142.086 435.346 142.403 435.173C141.769 437.77 142.461 438.174 142.778 438.347C143.211 438.606 143.673 438.578 144.279 438.203C144.192 438.866 144.279 439.443 144.538 439.818C144.798 440.164 145.173 440.337 145.606 440.337C145.663 440.337 145.721 440.337 145.808 440.337C146.24 440.28 146.788 440.049 147.769 439.097C147.798 439.155 147.798 439.183 147.827 439.212C148.058 439.732 148.433 440.107 148.981 440.28C149.125 440.337 149.27 440.366 149.414 440.366C150.25 440.366 151.549 439.443 155.213 434.654C155.357 434.452 155.501 434.279 155.645 434.077C155.732 434.567 155.905 435 156.165 435.318C156.424 435.635 156.799 435.837 157.232 435.837C157.261 435.837 157.261 435.837 157.29 435.837C158.415 435.837 159.54 434.654 160.954 433.125C161.704 432.346 162.454 431.538 163.204 430.904C167.359 427.442 168.022 424.095 168.253 420.95L171.715 414.142C173.244 411.689 175.177 408.833 177.254 405.948L177.369 405.775C177.369 405.775 177.369 405.775 177.369 405.746C180.86 400.928 184.726 396.11 187.755 393.168C191.275 389.763 197.42 384.599 204.546 378.598C208.816 375.021 213.288 371.242 217.673 367.462C217.788 368.126 218.048 368.761 218.452 369.309C219.664 370.924 221.885 371.444 223.01 371.588C223.126 372.05 223.356 372.655 223.731 373.29C224.366 374.3 225.578 375.454 227.713 375.454C227.915 375.454 228.117 375.454 228.319 375.425C231.723 375.108 234.089 372.05 235.041 370.52C235.762 371.242 236.627 371.905 237.579 372.453C232.992 380.387 215.134 397.12 201.95 409.122C195.516 414.978 179.274 427.499 179.129 427.615C179.1 427.615 177.658 428.711 176.158 429.346C174.283 430.125 169.753 434.221 168.916 435.693C168.253 436.847 164.618 440.77 164.041 441.347C163.695 441.693 163.637 442.184 163.897 442.588C164.214 443.107 165.079 443.424 165.916 443.569C162.194 448.502 162.339 449.31 162.425 449.771C162.483 450.118 162.685 450.377 162.973 450.522C163.204 450.666 163.464 450.723 163.723 450.723C164.012 450.723 164.358 450.637 164.704 450.493C164.56 450.868 164.531 451.185 164.56 451.416C164.618 451.704 164.791 451.964 165.022 452.137C165.31 452.339 165.628 452.426 165.974 452.426C166.81 452.426 167.849 451.849 169.118 450.637C169.147 450.723 169.147 450.781 169.176 450.868C169.349 451.3 169.667 451.618 170.128 451.733C170.215 451.762 170.301 451.791 170.445 451.791C170.907 451.791 171.83 451.474 173.792 449.569C174.023 449.945 174.369 450.204 174.831 450.32C174.946 450.348 175.061 450.377 175.177 450.377C176.331 450.377 177.86 448.819 181.553 444.492C182.303 443.626 182.995 442.79 183.515 442.242C191.419 433.817 211.47 423.374 230.857 413.247C245.513 405.602 259.332 398.39 266.718 392.62C276.527 384.974 281.403 378.454 286.538 371.53C290.519 366.193 294.645 360.654 301.396 353.903C308.695 346.604 326.351 337.199 346.806 326.322C370.693 313.599 397.783 299.203 417.892 283.278C459.378 250.389 491.633 221.049 502.019 206.652C511.279 193.843 520.569 140.067 525.041 114.217C526.079 108.216 526.83 103.889 527.262 101.898C529.022 93.7336 536.033 88.8002 542.207 84.4439C543.851 83.261 545.438 82.1647 546.88 81.0396C552.391 76.6544 553.141 74.6926 553.198 73.5674C553.141 72.875 552.881 72.2403 552.362 71.6922ZM333.361 293.029C333.419 290.635 333.592 288.385 333.765 286.74C334.631 288.385 335.843 290.779 336.939 293.289C340.43 301.28 340.026 304.137 339.478 305.146C339.305 305.493 338.929 305.954 337.891 305.983C336.968 306.012 336.246 305.695 335.612 305.002C334.025 303.242 333.246 299.088 333.361 293.029ZM345.94 324.822C328.457 334.141 312.993 342.363 304.136 349.2C304.05 349.229 303.992 349.258 303.906 349.287C303.877 349.287 301.684 350.672 295.856 351.768C289.711 352.922 282.095 354.855 277.767 359.644C275.921 361.692 271.824 366.828 273.93 370.203C274.219 370.665 274.652 370.953 275.171 371.069C275.286 371.097 275.402 371.097 275.517 371.097C277.075 371.097 279.152 369.424 281.518 367.52C282.73 366.539 283.999 365.529 285.038 364.895C286.422 364.058 286.769 364.26 286.798 364.26C286.999 364.375 287.634 364.75 287.519 366.164C287.461 366.943 287.173 367.664 287.144 367.751C286.451 368.674 285.759 369.597 285.067 370.52C279.758 377.646 275.171 383.791 265.564 391.292C258.294 396.976 244.532 404.131 229.963 411.747C218.394 417.777 206.595 423.922 197.218 429.721C197.161 429.75 197.103 429.75 197.045 429.778C193.67 431.481 191.823 430.759 190.208 430.125C189.111 429.692 187.957 429.259 186.717 429.923C185.188 430.73 184.611 432.894 185.274 435.433C185.765 437.395 184.495 438.635 184.438 438.693C184.322 438.78 184.265 438.924 184.207 439.039C183.457 439.732 182.764 440.395 182.159 441.059C181.61 441.636 180.889 442.472 180.139 443.367C178.812 444.925 176.129 448.04 175.148 448.589C175.119 448.444 175.177 448.185 175.235 447.954C176.071 447.06 177.023 445.934 178.12 444.55C178.408 444.175 178.35 443.626 177.975 443.338C177.6 443.049 177.052 443.107 176.764 443.482C174.658 446.136 171.975 449.021 170.763 449.858C170.936 449.281 171.369 448.329 171.888 447.521C171.917 447.492 171.917 447.463 171.946 447.406C172.984 446.107 173.763 445.04 173.792 444.982C174.081 444.578 173.965 444.059 173.59 443.771C173.186 443.482 172.667 443.598 172.378 443.973C170.07 447.233 167.676 449.714 166.464 450.464C166.926 449.569 167.849 448.156 168.714 446.973C168.801 446.886 168.83 446.771 168.859 446.656C170.388 444.925 171.599 443.251 171.657 443.165C171.946 442.79 171.859 442.242 171.484 441.953C171.109 441.665 170.561 441.751 170.272 442.126C168.137 445.011 165.772 447.637 164.416 448.589C165.426 446.8 168.166 443.165 170.705 440.078L174.629 437.741C175.61 438.808 177.86 440.568 181.149 438.808C181.582 438.578 181.726 438.058 181.524 437.626C181.293 437.193 180.774 437.049 180.341 437.251C177.369 438.837 175.754 436.414 175.581 436.125C175.321 435.721 174.802 435.577 174.398 435.837L169.724 438.664C169.638 438.722 169.58 438.78 169.493 438.866C169.493 438.895 168.426 440.164 167.128 441.809C167.041 441.809 166.955 441.809 166.868 441.838C166.637 441.924 166.205 441.867 165.858 441.809C167.128 440.453 169.638 437.683 170.272 436.529C170.936 435.375 175.177 431.538 176.677 430.932C178.408 430.211 179.966 429.057 180.053 428.999C180.226 428.884 196.497 416.305 202.988 410.391C203.536 409.901 204.085 409.381 204.633 408.891C204.662 408.891 204.662 408.862 204.69 408.862C205.267 408.458 207.143 407.391 208.124 407.881C208.816 408.227 209.306 408.747 209.797 409.237C210.432 409.872 211.153 410.622 212.22 410.622C212.653 410.622 213.143 410.507 213.692 410.189C214.903 409.526 215.942 407.131 217.759 402.573C219.404 398.534 221.423 393.514 223.674 390.946C223.703 390.889 223.76 390.86 223.789 390.802C230.857 383.763 236.656 377.387 239.051 373.175C239.253 373.261 239.455 373.319 239.657 373.377C238.762 374.502 237.666 376.233 237.781 377.618C237.839 378.252 238.156 378.772 238.647 379.118C239.051 379.406 239.57 379.522 240.118 379.522C242.426 379.522 245.571 377.387 246.927 376.406C248.802 376.464 257.89 376.175 261.871 367.03C263.891 362.385 263.631 357.48 261.15 352.778L269.055 346.517C269.372 346.258 269.459 345.825 269.286 345.479C269.112 345.104 268.709 344.931 268.305 345.017C265.535 345.623 257.659 346.806 254.543 345.017C254.543 345.017 254.514 345.017 254.514 344.988C254.486 344.988 254.457 344.959 254.457 344.959C254.428 344.959 254.399 344.931 254.37 344.931C254.341 344.931 254.312 344.931 254.312 344.902C254.284 344.902 254.255 344.902 254.226 344.902C254.197 344.902 254.168 344.902 254.168 344.902C254.139 344.902 254.11 344.902 254.082 344.902C254.053 344.902 254.053 344.902 254.024 344.902C253.995 344.902 253.966 344.902 253.937 344.931C253.909 344.931 253.909 344.931 253.88 344.959C253.851 344.959 253.822 344.988 253.793 345.017C253.764 345.017 253.764 345.046 253.735 345.046C253.707 345.075 253.678 345.104 253.649 345.104L253.62 345.132C253.591 345.161 253.562 345.19 253.505 345.248C253.476 345.306 253.447 345.334 253.418 345.392V345.421C253.389 345.45 253.389 345.508 253.36 345.565C253.36 345.594 253.36 345.594 253.36 345.623C253.36 345.652 253.36 345.709 253.332 345.738C253.332 345.767 253.332 345.767 253.332 345.796C253.332 345.825 253.332 345.854 253.332 345.911C253.332 345.94 253.332 345.94 253.332 345.969C253.332 345.998 253.332 346.027 253.36 346.056C253.36 346.085 253.389 346.085 253.389 346.113C253.389 346.142 253.418 346.171 253.418 346.2C253.418 346.229 253.447 346.229 253.447 346.258C253.476 346.286 253.476 346.315 253.505 346.344C253.533 346.373 253.533 346.373 253.562 346.402L253.591 346.431L256.13 348.796C256.995 349.72 257.976 350.931 258.871 352.316C261.842 357.019 262.333 361.779 260.284 366.424C256.361 375.454 247.129 374.79 246.725 374.761C246.494 374.733 246.292 374.79 246.119 374.935C243.724 376.752 240.464 378.368 239.628 377.791C239.541 377.733 239.484 377.675 239.484 377.531C239.397 376.608 240.839 374.617 241.878 373.521C242.109 373.29 242.167 372.944 242.08 372.627C241.993 372.309 241.705 372.107 241.359 372.05C236.772 371.501 234.089 367.058 233.194 365.27C237.406 362.731 239.022 358.403 239.108 358.202C239.253 357.798 239.08 357.307 238.676 357.134C237.897 356.759 235.56 355.345 235.156 353.932C235.041 353.499 235.098 353.124 235.358 352.72C236.541 350.874 238.618 351.306 241.186 352.028C241.59 352.143 241.965 352.258 242.311 352.316C242.917 352.46 243.869 352.432 244.936 351.479C246.638 349.979 247.792 346.979 247.59 344.671C247.36 342.247 245.571 340.834 244.475 340.17C250.273 332.265 253.649 325.774 253.707 325.688C253.937 325.255 253.764 324.736 253.332 324.534C252.899 324.303 252.379 324.476 252.178 324.909C252.091 325.053 244.763 339.218 232.992 351.104C225.174 358.98 213.547 368.789 203.277 377.416C196.151 383.416 189.977 388.609 186.4 392.043C183.515 394.841 179.533 399.746 175.898 404.765C175.754 404.91 173.1 407.477 169.551 408.083C169.09 408.17 168.686 408.227 168.282 408.285C165.051 408.804 163.291 409.122 163.146 410.968C163.089 411.689 163.55 412.584 164.243 413.911C165.224 415.786 166.551 418.354 166.378 420.719C166.147 423.662 165.656 426.547 161.935 429.634C161.098 430.327 160.29 431.163 159.54 432C158.819 432.75 157.78 433.875 157.261 434.106C157.117 433.702 157.088 432.721 157.174 431.827C158.357 430.182 159.194 428.942 159.223 428.913L162.339 424.066C162.512 423.778 162.512 423.431 162.367 423.143C162.194 422.854 161.877 422.71 161.56 422.71C159.8 422.826 158.444 422.162 157.492 420.719C156.713 419.565 156.511 418.325 156.511 418.296C156.424 417.834 155.992 417.517 155.501 417.575C155.04 417.661 154.722 418.094 154.78 418.585C155.097 420.489 156.597 423.778 160.088 424.355L157.78 427.903C157.088 428.942 156.367 429.923 155.703 430.875C155.674 430.932 155.617 430.961 155.588 431.019C152.76 434.943 150.222 438.001 149.298 438.52V438.491C149.154 438.145 149.356 437.337 149.558 436.847C150.106 436.154 150.712 435.346 151.404 434.366C153.337 431.682 155.04 428.971 155.068 428.942C155.328 428.538 155.213 427.99 154.809 427.759C154.405 427.499 153.857 427.615 153.626 428.019C151.866 430.788 149.818 433.731 148.173 435.808C148.144 435.837 148.144 435.866 148.116 435.895C147.192 437.049 146.413 437.914 145.894 438.318C146.01 437.626 146.356 436.472 146.817 435.433L151.116 428.826C151.376 428.422 151.26 427.903 150.856 427.615C150.452 427.355 149.933 427.47 149.645 427.874L145.259 434.596C144.596 435.404 144.105 435.923 143.788 436.241C143.961 435.375 144.365 433.99 144.856 432.692C144.884 432.606 144.913 432.519 144.913 432.433C145.779 431.279 146.788 429.721 148.029 427.557C148.26 427.153 148.116 426.605 147.712 426.374C147.308 426.143 146.76 426.288 146.529 426.691C144.913 429.49 142.778 432.577 141.74 433.413C141.769 432.75 142.346 430.932 145.057 426.114C147.221 422.249 151.866 416.305 153.626 415.151C155.761 413.767 158.184 410.478 159.281 408.747C159.281 408.747 159.281 408.718 159.309 408.718C159.454 408.458 169.667 390.571 181.784 370.694C183.486 368.53 186.573 367.26 189.083 366.222C190.41 365.674 191.535 365.212 192.314 364.693C194.968 362.875 196.209 360.077 197.305 357.625C197.449 357.307 197.593 356.961 197.738 356.644C199.469 352.893 200.132 352.403 204.402 349.2C204.748 348.941 205.152 348.652 205.556 348.335C209.941 345.017 210.403 341.44 211.009 336.881C211.182 335.554 211.355 334.169 211.643 332.669C212.913 326.236 218.567 315.128 218.625 315.013C218.683 314.898 218.712 314.811 218.712 314.696C229.559 299.636 238.676 288.471 247.042 279.874C251.312 275.489 255.928 271.911 260.717 268.738C260.833 269.142 261.006 269.545 261.352 269.921C262.102 270.757 263.285 271.075 264.9 270.873C266.718 270.642 268.593 269.892 270.209 269.228C272.026 268.478 273.93 267.699 274.709 268.218C275.142 268.507 275.488 269.315 275.835 270.151C276.498 271.738 277.45 273.988 280.191 273.988C280.797 273.988 281.489 273.873 282.297 273.613C285.932 272.459 287.721 268.305 289.827 263.487C291.154 260.429 292.539 257.255 294.558 254.428C299.405 247.619 305.954 242.628 309.272 243.119C309.935 245.311 310.801 247.908 311.926 250.764C315.186 259.131 321.331 271.652 332.063 284.057C331.198 285.182 329.178 287.836 327.274 290.808C323.754 296.289 322.341 300.011 322.918 302.175C323.149 303.069 323.726 303.733 324.591 304.05C324.937 304.194 325.312 304.252 325.658 304.252C326.178 304.252 326.668 304.108 327.159 303.819C329.034 302.723 330.476 299.405 331.573 295.799C331.688 299.953 332.381 304.108 334.285 306.214C335.208 307.252 336.362 307.772 337.689 307.772C337.775 307.772 337.862 307.772 337.949 307.772C339.708 307.685 340.545 306.791 340.949 306.012C342.767 302.694 339.708 294.991 337.054 289.51C345.248 298.049 352.806 303.79 357.999 307.31C362.558 310.368 366.02 312.186 367.808 313.051C360.48 317.09 353.066 321.043 345.94 324.822ZM331.832 287.259C331.573 288.731 331.198 290.519 330.765 292.366C328.947 299.809 327.216 301.771 326.351 302.29C325.976 302.492 325.658 302.521 325.312 302.406C324.966 302.261 324.764 302.059 324.678 301.684C323.985 299.146 328.111 292.366 331.832 287.259ZM373.521 193.93C385.84 189.227 398.36 180.226 402.457 177.514C407.275 174.312 412.612 169.898 415.353 169.84C418.642 169.753 420.258 172.985 421.787 176.273C423.171 179.245 424.614 182.303 427.47 181.034C431.451 179.245 430.067 172.725 428.855 166.984C428.48 165.224 428.134 163.551 427.989 162.252C427.73 159.887 428.48 158.617 429.288 157.29C430.153 155.848 431.048 154.319 430.471 151.693C428.711 143.673 429.461 139.288 429.72 138.249C429.778 138.076 429.778 137.989 429.807 137.961C429.807 137.961 429.807 137.961 429.807 137.932C436.529 120.997 444.982 96.8494 451.271 78.8758C453.435 72.7308 455.282 67.3935 456.811 63.1237C458.224 59.1424 458.657 54.7861 458.888 52.4492C458.945 51.9876 458.974 51.4972 459.032 51.1798C463.504 49.8816 500.028 43.3615 506.288 42.6979C505.827 44.0827 504.327 46.8235 499.48 49.0449C497.98 49.7373 493.219 52.0165 488.199 55.7093C488.084 55.7093 487.94 55.7381 487.824 55.7958C487.42 55.9978 477.785 60.5849 472.39 64.422C468.177 67.4224 464.571 70.567 466.504 73.3078C467.052 74.0867 468.206 74.4618 470.082 74.4618C470.572 74.4618 471.12 74.4329 471.697 74.3752C472.563 74.2887 473.37 74.2021 474.034 74.0867C473.832 74.8945 473.659 75.7023 473.544 76.539C473.428 77.4622 473.255 78.6162 473.082 79.9433C470.312 100.888 461.83 164.589 453.406 183.63C447.088 197.853 431.798 216.433 411.43 234.55C410.218 235.618 409.006 236.685 407.794 237.724C406.727 235.07 402.659 225.751 394.697 215.163C385.753 203.306 376.463 196.065 373.521 193.93ZM545.726 79.7125C544.313 80.8088 542.784 81.9051 541.139 83.0591C539.87 83.9534 538.543 84.9055 537.244 85.8575C537.129 85.8575 536.985 85.8864 536.869 85.9152C536.523 86.0595 528.359 89.6657 524.175 93.07C521.002 95.6665 517.828 99.8786 519.329 103.225C519.906 104.552 520.569 105.706 521.175 106.803C522.444 109.082 523.483 110.928 523.339 113.092C523.252 113.669 523.194 114.044 523.194 114.131C523.194 114.217 523.194 114.304 523.194 114.39C518.723 140.269 509.52 193.266 500.547 205.672C491.142 218.683 463.562 244.186 427.355 273.469C417.95 254.457 407.535 245.138 404.563 242.744C407.304 240.465 409.987 238.157 412.612 235.82C421.614 227.828 429.605 219.722 436.327 211.932C436.5 211.932 436.673 211.903 436.818 211.788C437.481 211.355 447.896 204.518 457.416 197.536C460.936 195.516 466.1 193.381 467.658 194.391C468.495 194.939 469.418 197.219 470.312 199.411C471.87 203.248 473.803 207.922 477.092 207.922C477.525 207.922 477.958 207.835 478.419 207.691C482.17 206.364 481.045 201.806 480.064 197.767C479.4 194.997 478.679 192.141 479.573 190.843C482.17 186.977 482.804 184.063 481.852 180.139C481.535 178.87 481.016 177.802 480.496 176.764C479.516 174.802 478.679 173.1 479.66 170.417L479.775 170.128C483.872 160.608 487.997 149.501 490.277 143.182C497.576 122.93 503.519 103.629 503.807 99.1862C504.009 96.0127 504.096 93.3297 504.182 91.1659C504.269 88.5406 504.355 86.0306 504.644 85.3959C507.933 84.1265 547.169 73.452 551.265 73.1058C551.323 73.2212 551.352 73.3366 551.352 73.452C551.323 74.1733 550.544 75.8754 545.726 79.7125Z" fill="#1A1A1A"/>
<path d="M377.732 199.498C376.953 200.536 376.521 202.325 376.001 204.46C375.222 207.72 374.213 211.759 371.731 212.567C370.577 212.942 369.539 212.798 368.702 212.105C367.346 211.009 366.654 208.701 366.913 206.249C367.433 201.402 373.52 198.142 375.165 197.363C374.616 196.901 374.097 196.526 373.664 196.18C371.183 197.478 365.759 200.883 365.211 206.076C364.865 209.162 365.788 212.019 367.606 213.49C368.471 214.182 369.481 214.529 370.549 214.529C371.097 214.529 371.674 214.442 372.28 214.24C375.684 213.115 376.78 208.557 377.675 204.893C378.079 203.277 378.511 201.46 379.031 200.681C378.569 200.248 378.136 199.844 377.732 199.498Z" fill="white"/>
<path d="M386.244 207.749C384.138 207.806 381.455 208.73 379.753 211.788C378.743 213.605 378.627 216.433 378.483 219.693C378.252 225.665 377.993 232.415 371.905 234.175C368.097 235.272 366.482 233.252 364.231 230.511C362.789 228.751 361.173 226.761 358.721 225.463C356.297 224.193 352.403 223.818 349.143 225.895C345.854 227.973 344.18 232.011 344.469 237.233C344.729 242.542 346.287 246.292 349.056 248.398C351.48 250.245 354.365 250.447 356.297 250.447H356.846C359.673 250.447 364.433 250.418 366.28 252.437C366.857 253.101 367.116 253.909 367.001 254.976L366.914 255.842C366.366 261.237 365.847 266.343 370.723 267.295C370.78 267.295 370.838 267.324 370.896 267.324C371.3 267.324 371.675 267.035 371.732 266.632C371.819 266.17 371.53 265.708 371.04 265.622C367.866 264.987 368.039 261.727 368.616 256.015L368.703 255.149C368.847 253.591 368.472 252.293 367.549 251.254C365.212 248.687 360.163 248.687 356.846 248.716H356.326C351.883 248.716 346.748 247.389 346.229 237.147C345.94 231.29 348.191 228.578 350.124 227.338C352.778 225.636 356.038 225.982 357.942 226.992C360.077 228.146 361.519 229.905 362.933 231.608C365.183 234.377 367.549 237.262 372.425 235.849C379.724 233.771 380.012 226.011 380.272 219.779C380.387 216.865 380.503 214.124 381.31 212.653C383.647 208.441 387.859 209.624 388.033 209.682C387.427 209.018 386.821 208.383 386.244 207.749Z" fill="white"/>
<path d="M364.606 292.135C364.289 292.135 363.971 291.962 363.827 291.645C360.827 285.384 360.105 278.72 359.932 275.316C359.846 273.527 360.74 271.796 362.269 270.873C378.685 260.775 394.062 249.61 407.91 237.638C408.285 237.32 408.804 237.378 409.121 237.724C409.439 238.099 409.381 238.618 409.035 238.936C395.1 250.966 379.666 262.189 363.163 272.344C362.154 272.95 361.577 274.075 361.634 275.229C361.807 278.518 362.5 284.894 365.356 290.895C365.558 291.327 365.385 291.847 364.952 292.049C364.837 292.106 364.721 292.135 364.606 292.135Z" fill="white"/>
<path d="M331.198 213.577C331.285 213.461 331.314 213.317 331.342 213.173C330.073 214.182 328.775 215.336 327.419 216.606C324.995 220.933 321.533 227.944 321.245 232.964C321.043 236.397 322.197 239.022 324.476 240.349C325.515 240.955 326.726 241.244 328.025 241.244C329.756 241.244 331.602 240.696 333.247 239.628C339.045 235.935 342.017 225.867 342.306 219.895C342.363 218.741 342.594 218.019 343.027 217.702C343.748 217.154 345.421 217.587 347.181 218.019C348.97 218.481 350.989 219 353.038 218.827C355.519 218.625 357.654 217.471 359.183 215.481C360.972 213.144 361.722 209.97 361.174 206.999C360.539 203.537 357.336 201.373 355.144 200.277C354.336 200.565 353.557 200.854 352.807 201.142C353.99 201.575 358.779 203.594 359.471 207.316C359.933 209.797 359.298 212.509 357.798 214.442C356.933 215.567 355.403 216.923 352.894 217.125C351.134 217.269 349.258 216.779 347.585 216.346C345.335 215.769 343.373 215.279 341.959 216.317C341.094 216.981 340.632 218.106 340.546 219.837C340.257 226.299 336.997 235.185 332.295 238.186C329.958 239.686 327.217 239.945 325.342 238.849C323.611 237.839 322.803 235.849 322.947 233.05C323.38 225.867 331.112 213.692 331.198 213.577Z" fill="white"/>
<path d="M348.219 290.317C348.19 290.288 348.19 290.26 348.162 290.231C343.661 283.336 342.478 278.114 344.324 273.325C345.277 270.872 347.844 268.68 350.152 266.718C352.258 264.929 354.076 263.371 354.71 261.669C355.316 260.083 355.114 258.323 354.133 256.736C353.181 255.178 350.643 252.437 344.382 251.774C336.823 250.966 332.006 256.159 329.149 259.275C328.803 259.65 328.486 259.996 328.197 260.284C327.563 260.919 326.986 261.237 326.466 261.15C325.687 261.063 325.053 260.198 324.88 259.881C324.851 259.823 324.793 259.765 324.764 259.707C318.244 247.85 315.849 239.022 315.821 238.907C315.705 238.445 315.215 238.157 314.753 238.301C314.292 238.416 314.003 238.907 314.147 239.368C314.176 239.484 314.926 242.34 316.802 247.013C318.533 251.312 321.533 258.063 326.178 265.651C334.227 278.864 348.796 297.212 372.569 310.397C373.174 310.08 373.751 309.733 374.357 309.387C363.942 303.761 355.316 297.126 348.219 290.317ZM327.707 264.814C327.303 264.179 326.928 263.516 326.553 262.881C327.563 262.91 328.515 262.448 329.467 261.467C329.784 261.15 330.101 260.804 330.448 260.429C333.275 257.371 337.545 252.726 344.238 253.476C348.277 253.909 351.364 255.438 352.691 257.63C353.383 258.755 353.556 259.996 353.124 261.063C352.633 262.333 350.902 263.833 349.056 265.391C346.604 267.468 343.863 269.834 342.738 272.69C341.209 276.671 341.468 280.855 343.719 285.759C336.708 278.373 331.486 271.017 327.707 264.814Z" fill="white"/>
<path d="M399.601 287.173C397.12 288.962 394.754 290.635 393.398 290.779C392.619 290.866 391.984 290.664 391.465 290.173C389.792 288.615 389.474 284.49 389.532 282.297V282.124C389.59 280.422 389.734 276.441 387.368 273.902C386.128 272.575 384.368 271.854 382.175 271.796C379.665 271.709 377.213 272.863 375.078 275.143C371.385 279.008 369.135 285.528 369.597 290.981C369.885 294.357 371.357 298.309 374.04 302.752C375.367 304.973 376.665 306.733 377.357 307.685C377.877 307.397 378.367 307.108 378.887 306.82C377.357 304.829 371.847 297.27 371.328 290.866C370.924 285.932 373.03 279.845 376.348 276.354C377.588 275.027 379.608 273.469 382.147 273.556C383.849 273.613 385.205 274.133 386.128 275.114C388.003 277.104 387.859 280.595 387.83 282.066V282.24C387.772 283.797 387.801 289.106 390.311 291.443C391.205 292.279 392.331 292.654 393.629 292.51C395.446 292.308 397.841 290.577 400.639 288.587C405.255 285.269 410.939 281.201 415.036 283.336C415.526 282.961 416.016 282.586 416.507 282.182C411.4 278.72 404.88 283.365 399.601 287.173Z" fill="white"/>
<path d="M416.68 284.201C416.882 284.172 417.084 284.086 417.228 283.913C417.286 283.826 417.344 283.74 417.372 283.653C417.142 283.855 416.911 284.028 416.68 284.201Z" fill="white"/>
<path d="M418.873 262.074C417.2 261.785 414.459 261.727 411.69 263.256C410.334 264.007 409.208 265.161 407.997 266.401C406.035 268.421 404.015 270.498 401.13 270.498C399.861 270.498 398.88 269.95 398.217 268.853C396.774 266.488 397.063 262.131 398.938 258.496C401.938 252.784 406.843 249.668 408.43 248.774C407.997 248.312 407.564 247.879 407.189 247.504C405.141 248.716 400.438 251.947 397.438 257.717C395.274 261.929 395.014 266.892 396.774 269.777C397.755 271.392 399.284 272.258 401.159 272.258C404.766 272.258 407.16 269.805 409.266 267.642C410.391 266.488 411.43 265.42 412.555 264.785C416.19 262.795 419.883 264.093 419.912 264.122C420.027 264.151 420.114 264.18 420.229 264.18C419.739 263.458 419.306 262.766 418.873 262.074Z" fill="white"/>
</svg>
